<svg width="820" height="819" viewBox="0 0 820 819" fill="none" xmlns="http://www.w3.org/2000/svg">
<g opacity="0.14">
<path fill-rule="evenodd" clip-rule="evenodd" d="M411.896 38.6208C411.896 38.0981 411.471 37.6738 410.948 37.6738H409.052C408.528 37.6738 408.104 38.0981 408.104 38.6208V89.1429C408.104 89.6656 408.528 90.0898 409.052 90.0898H410.948C411.471 90.0898 411.896 89.6656 411.896 89.1429V38.6208Z" fill="#FF3D00"/>
<path fill-rule="evenodd" clip-rule="evenodd" d="M411.896 38.6208C411.896 38.0981 411.471 37.6738 410.948 37.6738H409.052C408.528 37.6738 408.104 38.0981 408.104 38.6208V108.799C408.104 109.322 408.528 109.746 409.052 109.746H410.948C411.471 109.746 411.896 109.322 411.896 108.799V38.6208Z" fill="#FF3D00"/>
<path fill-rule="evenodd" clip-rule="evenodd" d="M650.658 127.046C650.995 126.647 650.944 126.049 650.543 125.712L649.093 124.492C648.693 124.155 648.094 124.207 647.757 124.606L615.098 163.336C614.761 163.736 614.812 164.334 615.212 164.671L616.663 165.891C617.063 166.228 617.661 166.176 617.999 165.777L650.658 127.046Z" fill="#FF3D00"/>
<path fill-rule="evenodd" clip-rule="evenodd" d="M781.245 401.26C781.768 401.246 782.181 400.81 782.167 400.288L782.115 398.395C782.101 397.872 781.664 397.46 781.141 397.474L710.904 399.391C710.381 399.406 709.967 399.842 709.982 400.364L710.034 402.257C710.048 402.779 710.484 403.192 711.007 403.178L781.245 401.26Z" fill="#FF3D00"/>
<path fill-rule="evenodd" clip-rule="evenodd" d="M776.997 466.038C777.515 466.115 777.998 465.758 778.075 465.241L778.354 463.368C778.431 462.851 778.074 462.369 777.556 462.292L708.06 451.948C707.542 451.871 707.059 452.228 706.982 452.745L706.703 454.618C706.626 455.135 706.983 455.617 707.501 455.695L776.997 466.038Z" fill="#FF3D00"/>
<path fill-rule="evenodd" clip-rule="evenodd" d="M761.44 529.279C761.936 529.445 762.474 529.178 762.64 528.682L763.243 526.887C763.41 526.391 763.142 525.854 762.646 525.688L696.032 503.363C695.536 503.197 694.998 503.464 694.832 503.959L694.229 505.755C694.062 506.25 694.33 506.788 694.826 506.954L761.44 529.279Z" fill="#FF3D00"/>
<path fill-rule="evenodd" clip-rule="evenodd" d="M735.196 588.556C735.655 588.806 736.231 588.636 736.482 588.178L737.389 586.514C737.639 586.055 737.469 585.48 737.01 585.23L675.304 551.663C674.845 551.413 674.268 551.583 674.018 552.042L673.111 553.705C672.861 554.164 673.031 554.74 673.49 554.99L735.196 588.556Z" fill="#FF3D00"/>
<path fill-rule="evenodd" clip-rule="evenodd" d="M698.999 642.391C699.408 642.717 700.005 642.65 700.331 642.242L701.515 640.762C701.841 640.353 701.774 639.757 701.365 639.431L646.457 595.643C646.048 595.317 645.451 595.384 645.124 595.793L643.941 597.272C643.614 597.681 643.681 598.277 644.09 598.603L698.999 642.391Z" fill="#FF3D00"/>
<path fill-rule="evenodd" clip-rule="evenodd" d="M653.86 689.201C654.205 689.594 654.805 689.632 655.198 689.287L656.622 688.036C657.014 687.69 657.053 687.092 656.707 686.699L610.295 634.011C609.949 633.618 609.349 633.58 608.956 633.925L607.533 635.176C607.14 635.521 607.101 636.12 607.447 636.513L653.86 689.201Z" fill="#FF3D00"/>
<path fill-rule="evenodd" clip-rule="evenodd" d="M601.267 727.401C601.539 727.847 602.123 727.99 602.57 727.718L604.19 726.734C604.637 726.463 604.78 725.88 604.508 725.433L568.01 665.466C567.738 665.019 567.154 664.877 566.707 665.149L565.087 666.132C564.639 666.404 564.497 666.987 564.769 667.433L601.267 727.401Z" fill="#FF3D00"/>
<path fill-rule="evenodd" clip-rule="evenodd" d="M542.824 755.847C543.013 756.334 543.563 756.575 544.051 756.386L545.818 755.7C546.306 755.51 546.548 754.961 546.358 754.474L520.891 689.068C520.701 688.581 520.151 688.339 519.664 688.528L517.896 689.215C517.409 689.404 517.166 689.953 517.356 690.441L542.824 755.847Z" fill="#FF3D00"/>
<path fill-rule="evenodd" clip-rule="evenodd" d="M480.114 773.713C480.215 774.226 480.715 774.56 481.228 774.459L483.088 774.092C483.602 773.99 483.936 773.492 483.834 772.979L470.215 704.132C470.114 703.619 469.615 703.285 469.101 703.386L467.241 703.753C466.728 703.855 466.393 704.353 466.495 704.866L480.114 773.713Z" fill="#FF3D00"/>
<path fill-rule="evenodd" clip-rule="evenodd" d="M415.715 780.339C415.726 780.862 416.159 781.278 416.683 781.267L418.578 781.228C419.102 781.217 419.518 780.784 419.507 780.262L418.067 710.098C418.056 709.576 417.623 709.16 417.1 709.171L415.204 709.21C414.68 709.221 414.264 709.653 414.275 710.176L415.715 780.339Z" fill="#FF3D00"/>
<path fill-rule="evenodd" clip-rule="evenodd" d="M350.363 775.571C350.282 776.087 350.635 776.572 351.152 776.654L353.026 776.948C353.542 777.029 354.028 776.676 354.11 776.16L365.04 706.836C365.121 706.32 364.768 705.835 364.251 705.754L362.377 705.459C361.86 705.378 361.375 705.731 361.293 706.247L350.363 775.571Z" fill="#FF3D00"/>
<path fill-rule="evenodd" clip-rule="evenodd" d="M287.644 759.672C287.474 760.166 287.738 760.705 288.233 760.875L290.026 761.49C290.521 761.66 291.061 761.396 291.231 760.902L314.044 694.526C314.214 694.031 313.95 693.492 313.455 693.323L311.661 692.708C311.167 692.538 310.627 692.802 310.457 693.296L287.644 759.672Z" fill="#FF3D00"/>
<path fill-rule="evenodd" clip-rule="evenodd" d="M228.352 732.98C228.098 733.437 228.264 734.014 228.722 734.268L230.38 735.185C230.838 735.439 231.415 735.273 231.669 734.816L265.727 673.433C265.981 672.976 265.815 672.399 265.357 672.146L263.698 671.228C263.241 670.975 262.663 671.14 262.41 671.597L228.352 732.98Z" fill="#FF3D00"/>
<path fill-rule="evenodd" clip-rule="evenodd" d="M174.591 696.332C174.261 696.738 174.324 697.335 174.73 697.664L176.203 698.857C176.609 699.186 177.207 699.124 177.536 698.718L221.802 644.218C222.132 643.812 222.069 643.215 221.663 642.886L220.19 641.693C219.784 641.364 219.186 641.426 218.857 641.832L174.591 696.332Z" fill="#FF3D00"/>
<path fill-rule="evenodd" clip-rule="evenodd" d="M128.002 650.8C127.606 651.141 127.563 651.74 127.905 652.135L129.146 653.567C129.489 653.962 130.088 654.006 130.484 653.663L183.609 607.733C184.005 607.391 184.048 606.793 183.705 606.398L182.464 604.966C182.122 604.57 181.522 604.527 181.127 604.87L128.002 650.8Z" fill="#FF3D00"/>
<path fill-rule="evenodd" clip-rule="evenodd" d="M90.3967 598.333C89.9477 598.601 89.8014 599.184 90.0701 599.632L91.0439 601.257C91.3126 601.706 91.8953 601.852 92.3444 601.583L152.636 565.545C153.085 565.276 153.231 564.694 152.962 564.246L151.989 562.621C151.72 562.172 151.137 562.026 150.688 562.295L90.3967 598.333Z" fill="#FF3D00"/>
<path fill-rule="evenodd" clip-rule="evenodd" d="M62.2378 539.543C61.7487 539.728 61.5025 540.276 61.6886 540.764L62.3624 542.535C62.5484 543.023 63.0965 543.269 63.5857 543.083L129.262 518.142C129.751 517.956 129.997 517.408 129.811 516.92L129.137 515.15C128.951 514.661 128.403 514.415 127.914 514.601L62.2378 539.543Z" fill="#FF3D00"/>
<path fill-rule="evenodd" clip-rule="evenodd" d="M44.7929 476.609C44.2788 476.706 43.9403 477.202 44.0377 477.716L44.3903 479.577C44.4875 480.09 44.984 480.428 45.4981 480.331L114.536 467.281C115.051 467.183 115.389 466.687 115.292 466.174L114.939 464.313C114.842 463.799 114.345 463.462 113.831 463.559L44.7929 476.609Z" fill="#FF3D00"/>
<path fill-rule="evenodd" clip-rule="evenodd" d="M38.6728 412.131C38.1497 412.137 37.73 412.567 37.7364 413.089L37.7596 414.983C37.7659 415.506 38.1958 415.925 38.7192 415.918L108.978 415.062C109.501 415.056 109.921 414.626 109.914 414.104L109.891 412.21C109.885 411.687 109.455 411.268 108.931 411.274L38.6728 412.131Z" fill="#FF3D00"/>
<path fill-rule="evenodd" clip-rule="evenodd" d="M43.8903 347.489C43.3739 347.404 42.8858 347.754 42.8011 348.27L42.4936 350.139C42.4088 350.655 42.7591 351.142 43.2753 351.227L112.609 362.607C113.126 362.692 113.614 362.342 113.699 361.826L114.006 359.957C114.091 359.442 113.741 358.954 113.224 358.869L43.8903 347.489Z" fill="#FF3D00"/>
<path fill-rule="evenodd" clip-rule="evenodd" d="M60.375 284.539C59.8814 284.366 59.3395 284.625 59.1657 285.118L58.5359 286.904C58.3621 287.397 58.6218 287.939 59.1153 288.112L125.391 311.419C125.884 311.593 126.426 311.334 126.6 310.841L127.23 309.054C127.404 308.561 127.144 308.02 126.65 307.846L60.375 284.539Z" fill="#FF3D00"/>
<path fill-rule="evenodd" clip-rule="evenodd" d="M87.6518 225.38C87.1963 225.123 86.6173 225.284 86.3599 225.739L85.4269 227.388C85.1694 227.843 85.3304 228.421 85.7859 228.678L146.957 263.205C147.413 263.462 147.992 263.302 148.249 262.847L149.182 261.198C149.44 260.743 149.279 260.165 148.823 259.907L87.6518 225.38Z" fill="#FF3D00"/>
<path fill-rule="evenodd" clip-rule="evenodd" d="M124.576 172.251C124.173 171.919 123.575 171.976 123.242 172.38L122.036 173.842C121.704 174.245 121.762 174.843 122.165 175.175L176.402 219.791C176.806 220.123 177.404 220.065 177.736 219.662L178.942 218.2C179.275 217.796 179.217 217.199 178.813 216.867L124.576 172.251Z" fill="#FF3D00"/>
<path fill-rule="evenodd" clip-rule="evenodd" d="M170.468 126.093C170.129 125.695 169.53 125.648 169.132 125.987L167.689 127.216C167.291 127.555 167.243 128.153 167.583 128.551L213.18 181.945C213.52 182.343 214.119 182.39 214.517 182.051L215.96 180.822C216.358 180.483 216.406 179.885 216.066 179.487L170.468 126.093Z" fill="#FF3D00"/>
<path fill-rule="evenodd" clip-rule="evenodd" d="M223.913 88.5463C223.649 88.0954 223.068 87.9439 222.616 88.208L220.98 89.1654C220.529 89.4298 220.377 90.0104 220.641 90.4613L256.162 151.011C256.427 151.462 257.008 151.614 257.46 151.35L259.096 150.392C259.547 150.128 259.699 149.547 259.434 149.096L223.913 88.5463Z" fill="#FF3D00"/>
<path fill-rule="evenodd" clip-rule="evenodd" d="M282.914 61.013C282.733 60.5228 282.187 60.2722 281.696 60.4536L279.918 61.1108C279.427 61.2922 279.176 61.8373 279.357 62.3275L303.741 128.144C303.923 128.635 304.469 128.885 304.96 128.704L306.738 128.046C307.229 127.865 307.48 127.32 307.298 126.83L282.914 61.013Z" fill="#FF3D00"/>
<path fill-rule="evenodd" clip-rule="evenodd" d="M345.74 44.211C345.647 43.6969 345.154 43.3547 344.639 43.4479L342.773 43.7851C342.258 43.8783 341.915 44.3713 342.008 44.8857L354.521 113.942C354.614 114.456 355.108 114.798 355.622 114.705L357.489 114.368C358.003 114.275 358.346 113.782 358.253 113.267L345.74 44.211Z" fill="#FF3D00"/>
<path fill-rule="evenodd" clip-rule="evenodd" d="M424.916 38.9156C424.934 38.3933 424.524 37.9545 424.001 37.9361L422.106 37.8697C421.583 37.8513 421.144 38.2606 421.126 38.7829L419.352 89.2739C419.333 89.7962 419.743 90.2352 420.266 90.2534L422.161 90.3199C422.684 90.3382 423.123 89.9291 423.142 89.4067L424.916 38.9156Z" fill="#FF3D00"/>
<path fill-rule="evenodd" clip-rule="evenodd" d="M437.919 39.6656C437.956 39.1443 437.562 38.6912 437.04 38.6548L435.148 38.5219C434.626 38.4852 434.172 38.8788 434.136 39.4003L430.59 89.7981C430.554 90.3194 430.948 90.7725 431.47 90.8091L433.361 90.9418C433.883 90.9784 434.337 90.5849 434.374 90.0634L437.919 39.6656Z" fill="#FF3D00"/>
<path fill-rule="evenodd" clip-rule="evenodd" d="M450.887 40.8714C450.942 40.3518 450.564 39.8852 450.044 39.8303L448.158 39.6313C447.638 39.5764 447.171 39.954 447.116 40.4736L441.803 90.7162C441.748 91.2361 442.126 91.7025 442.646 91.7574L444.532 91.9564C445.053 92.0112 445.52 91.6339 445.575 91.114L450.887 40.8714Z" fill="#FF3D00"/>
<path fill-rule="evenodd" clip-rule="evenodd" d="M463.804 42.5299C463.877 42.0123 463.516 41.5328 462.998 41.4597L461.12 41.195C460.602 41.1219 460.122 41.4826 460.049 42.0002L452.975 92.0258C452.902 92.5434 453.263 93.0227 453.782 93.0958L455.659 93.3608C456.177 93.4338 456.657 93.0731 456.73 92.5555L463.804 42.5299Z" fill="#FF3D00"/>
<path fill-rule="evenodd" clip-rule="evenodd" d="M476.656 44.6401C476.747 44.1253 476.403 43.6335 475.888 43.5424L474.02 43.212C473.505 43.1206 473.013 43.4644 472.921 43.9792L464.096 93.7262C464.004 94.241 464.349 94.7328 464.864 94.8239L466.731 95.1544C467.246 95.2455 467.739 94.9017 467.83 94.3872L476.656 44.6401Z" fill="#FF3D00"/>
<path fill-rule="evenodd" clip-rule="evenodd" d="M489.425 47.1989C489.535 46.6878 489.208 46.1841 488.696 46.075L486.842 45.6792C486.33 45.5701 485.826 45.8965 485.716 46.4075L475.149 95.8149C475.04 96.3262 475.367 96.8297 475.879 96.9388L477.733 97.3346C478.245 97.4437 478.749 97.1173 478.858 96.6063L489.425 47.1989Z" fill="#FF3D00"/>
<path fill-rule="evenodd" clip-rule="evenodd" d="M502.096 50.2041C502.223 49.6972 501.914 49.1824 501.407 49.0553L499.568 48.595C499.06 48.4679 498.545 48.7764 498.417 49.2834L486.122 98.2903C485.995 98.7973 486.304 99.312 486.812 99.4392L488.651 99.8994C489.159 100.026 489.674 99.718 489.801 99.2111L502.096 50.2041Z" fill="#FF3D00"/>
<path fill-rule="evenodd" clip-rule="evenodd" d="M514.654 53.6508C514.799 53.1485 514.509 52.6234 514.006 52.4786L512.184 51.9542C511.681 51.8095 511.155 52.0996 511.01 52.6019L497.002 101.148C496.857 101.65 497.148 102.176 497.651 102.32L499.473 102.845C499.975 102.989 500.501 102.699 500.646 102.197L514.654 53.6508Z" fill="#FF3D00"/>
<path fill-rule="evenodd" clip-rule="evenodd" d="M527.084 57.5351C527.246 57.0384 526.974 56.5034 526.477 56.341L524.674 55.753C524.177 55.5908 523.641 55.8623 523.479 56.3593L507.775 104.385C507.612 104.882 507.884 105.417 508.382 105.579L510.184 106.167C510.681 106.329 511.217 106.058 511.38 105.561L527.084 57.5351Z" fill="#FF3D00"/>
<path fill-rule="evenodd" clip-rule="evenodd" d="M539.37 61.852C539.549 61.3612 539.296 60.817 538.805 60.6374L537.024 59.9865C536.533 59.807 535.988 60.0596 535.808 60.5506L518.428 107.997C518.248 108.488 518.501 109.032 518.992 109.211L520.773 109.862C521.264 110.042 521.809 109.789 521.989 109.298L539.37 61.852Z" fill="#FF3D00"/>
<path fill-rule="evenodd" clip-rule="evenodd" d="M551.497 66.5973C551.694 66.1131 551.46 65.5603 550.976 65.3635L549.219 64.6508C548.734 64.4542 548.18 64.6876 547.984 65.1718L528.948 111.98C528.751 112.464 528.985 113.017 529.469 113.214L531.226 113.927C531.711 114.123 532.265 113.89 532.462 113.405L551.497 66.5973Z" fill="#FF3D00"/>
<path fill-rule="evenodd" clip-rule="evenodd" d="M563.449 71.764C563.662 71.2869 563.448 70.7263 562.971 70.5128L561.24 69.739C560.762 69.5255 560.201 69.7394 559.987 70.2165L539.32 116.329C539.106 116.806 539.32 117.367 539.798 117.58L541.528 118.354C542.006 118.568 542.568 118.354 542.781 117.877L563.449 71.764Z" fill="#FF3D00"/>
<path fill-rule="evenodd" clip-rule="evenodd" d="M575.211 77.3464C575.442 76.8771 575.247 76.3094 574.778 76.0792L573.075 75.2453C572.605 75.0151 572.037 75.2092 571.806 75.6785L549.532 121.039C549.302 121.508 549.497 122.076 549.966 122.306L551.669 123.14C552.139 123.37 552.707 123.176 552.938 122.707L575.211 77.3464Z" fill="#FF3D00"/>
<path fill-rule="evenodd" clip-rule="evenodd" d="M586.773 83.3365C587.02 82.8756 586.846 82.3012 586.384 82.0549L584.712 81.1618C584.251 80.9153 583.676 81.0893 583.429 81.5502L559.576 126.103C559.33 126.564 559.504 127.138 559.965 127.384L561.638 128.277C562.099 128.524 562.674 128.35 562.921 127.889L586.773 83.3365Z" fill="#FF3D00"/>
<path fill-rule="evenodd" clip-rule="evenodd" d="M598.116 89.7291C598.379 89.2771 598.225 88.697 597.773 88.4347L596.133 87.4834C595.68 87.2212 595.099 87.3749 594.837 87.8268L569.434 131.516C569.172 131.968 569.326 132.549 569.778 132.811L571.418 133.762C571.87 134.025 572.451 133.871 572.714 133.419L598.116 89.7291Z" fill="#FF3D00"/>
<path fill-rule="evenodd" clip-rule="evenodd" d="M609.227 96.5146C609.506 96.0719 609.372 95.487 608.929 95.2087L607.324 94.2009C606.881 93.9227 606.295 94.0562 606.016 94.4986L579.096 137.272C578.817 137.714 578.951 138.299 579.394 138.577L580.999 139.585C581.442 139.863 582.028 139.73 582.306 139.287L609.227 96.5146Z" fill="#FF3D00"/>
<path fill-rule="evenodd" clip-rule="evenodd" d="M620.094 103.685C620.388 103.252 620.275 102.663 619.843 102.37L618.273 101.306C617.84 101.012 617.25 101.125 616.956 101.558L588.551 143.361C588.257 143.794 588.37 144.383 588.803 144.677L590.372 145.74C590.805 146.034 591.395 145.921 591.689 145.489L620.094 103.685Z" fill="#FF3D00"/>
<path fill-rule="evenodd" clip-rule="evenodd" d="M630.703 111.231C631.012 110.809 630.919 110.216 630.497 109.908L628.966 108.79C628.544 108.481 627.95 108.573 627.641 108.995L597.785 149.779C597.476 150.2 597.569 150.793 597.991 151.102L599.522 152.22C599.944 152.528 600.538 152.436 600.847 152.014L630.703 111.231Z" fill="#FF3D00"/>
<path fill-rule="evenodd" clip-rule="evenodd" d="M641.039 119.145C641.363 118.734 641.291 118.138 640.88 117.815L639.39 116.644C638.978 116.321 638.382 116.392 638.058 116.803L606.789 156.515C606.465 156.926 606.537 157.522 606.948 157.845L608.438 159.016C608.85 159.339 609.446 159.268 609.77 158.857L641.039 119.145Z" fill="#FF3D00"/>
<path fill-rule="evenodd" clip-rule="evenodd" d="M660.846 136.033C661.198 135.646 661.168 135.046 660.781 134.695L659.376 133.423C658.988 133.072 658.388 133.101 658.037 133.488L624.057 170.914C623.706 171.301 623.735 171.901 624.123 172.252L625.527 173.524C625.915 173.875 626.515 173.846 626.867 173.458L660.846 136.033Z" fill="#FF3D00"/>
<path fill-rule="evenodd" clip-rule="evenodd" d="M670.295 144.987C670.659 144.613 670.651 144.013 670.276 143.648L668.917 142.328C668.542 141.963 667.941 141.971 667.576 142.346L632.304 178.558C631.939 178.933 631.947 179.533 632.322 179.898L633.681 181.218C634.056 181.583 634.657 181.574 635.022 181.2L670.295 144.987Z" fill="#FF3D00"/>
<path fill-rule="evenodd" clip-rule="evenodd" d="M679.421 154.266C679.799 153.905 679.812 153.305 679.45 152.928L678.138 151.56C677.776 151.183 677.175 151.17 676.797 151.532L640.275 186.486C639.897 186.848 639.884 187.448 640.246 187.825L641.558 189.193C641.92 189.57 642.521 189.583 642.899 189.221L679.421 154.266Z" fill="#FF3D00"/>
<path fill-rule="evenodd" clip-rule="evenodd" d="M688.215 163.86C688.606 163.511 688.64 162.912 688.291 162.523L687.028 161.11C686.679 160.72 686.079 160.686 685.689 161.034L647.962 194.689C647.572 195.037 647.538 195.636 647.886 196.026L649.149 197.438C649.498 197.828 650.098 197.862 650.488 197.514L688.215 163.86Z" fill="#FF3D00"/>
<path fill-rule="evenodd" clip-rule="evenodd" d="M696.67 173.756C697.072 173.421 697.127 172.824 696.792 172.422L695.58 170.966C695.245 170.564 694.647 170.51 694.244 170.844L655.359 203.156C654.956 203.49 654.902 204.088 655.236 204.489L656.449 205.945C656.784 206.347 657.382 206.402 657.784 206.068L696.67 173.756Z" fill="#FF3D00"/>
<path fill-rule="evenodd" clip-rule="evenodd" d="M704.772 183.941C705.185 183.621 705.261 183.026 704.941 182.613L703.78 181.115C703.459 180.702 702.863 180.626 702.45 180.946L662.453 211.876C662.04 212.196 661.964 212.792 662.284 213.205L663.445 214.702C663.765 215.116 664.362 215.191 664.775 214.872L704.772 183.941Z" fill="#FF3D00"/>
<path fill-rule="evenodd" clip-rule="evenodd" d="M712.508 194.404C712.933 194.099 713.03 193.507 712.724 193.082L711.617 191.545C711.311 191.121 710.718 191.024 710.293 191.33L669.236 220.84C668.811 221.145 668.714 221.738 669.02 222.162L670.127 223.699C670.433 224.123 671.026 224.22 671.451 223.915L712.508 194.404Z" fill="#FF3D00"/>
<path fill-rule="evenodd" clip-rule="evenodd" d="M719.874 205.131C720.309 204.841 720.426 204.252 720.136 203.817L719.083 202.242C718.792 201.808 718.203 201.69 717.768 201.981L675.699 230.035C675.264 230.325 675.147 230.914 675.437 231.348L676.49 232.923C676.781 233.358 677.37 233.475 677.805 233.185L719.874 205.131Z" fill="#FF3D00"/>
<path fill-rule="evenodd" clip-rule="evenodd" d="M726.86 216.109C727.305 215.835 727.443 215.251 727.168 214.806L726.171 213.195C725.896 212.751 725.311 212.613 724.866 212.888L681.839 239.451C681.394 239.726 681.256 240.31 681.531 240.754L682.528 242.365C682.803 242.81 683.388 242.948 683.833 242.673L726.86 216.109Z" fill="#FF3D00"/>
<path fill-rule="evenodd" clip-rule="evenodd" d="M733.455 227.327C733.91 227.068 734.068 226.49 733.809 226.036L732.869 224.391C732.61 223.937 732.03 223.778 731.576 224.038L687.642 249.078C687.187 249.337 687.029 249.916 687.288 250.37L688.228 252.015C688.487 252.468 689.067 252.627 689.521 252.368L733.455 227.327Z" fill="#FF3D00"/>
<path fill-rule="evenodd" clip-rule="evenodd" d="M739.653 238.767C740.116 238.524 740.295 237.951 740.051 237.488L739.17 235.811C738.926 235.349 738.353 235.17 737.89 235.413L693.104 258.899C692.64 259.142 692.462 259.715 692.705 260.178L693.586 261.855C693.83 262.318 694.403 262.496 694.867 262.253L739.653 238.767Z" fill="#FF3D00"/>
<path fill-rule="evenodd" clip-rule="evenodd" d="M745.443 250.419C745.915 250.193 746.114 249.626 745.887 249.155L745.065 247.449C744.838 246.978 744.271 246.779 743.799 247.006L698.216 268.909C697.745 269.135 697.546 269.702 697.773 270.173L698.595 271.879C698.822 272.35 699.389 272.549 699.86 272.322L745.443 250.419Z" fill="#FF3D00"/>
<path fill-rule="evenodd" clip-rule="evenodd" d="M750.823 262.267C751.302 262.057 751.521 261.498 751.31 261.019L750.549 259.284C750.339 258.806 749.779 258.588 749.3 258.798L702.976 279.09C702.497 279.3 702.278 279.86 702.488 280.338L703.25 282.072C703.46 282.551 704.02 282.769 704.499 282.559L750.823 262.267Z" fill="#FF3D00"/>
<path fill-rule="evenodd" clip-rule="evenodd" d="M755.782 274.293C756.268 274.1 756.506 273.549 756.313 273.064L755.612 271.303C755.419 270.818 754.867 270.58 754.381 270.773L707.373 289.431C706.887 289.624 706.649 290.175 706.842 290.661L707.542 292.421C707.736 292.907 708.287 293.144 708.774 292.951L755.782 274.293Z" fill="#FF3D00"/>
<path fill-rule="evenodd" clip-rule="evenodd" d="M760.316 286.489C760.809 286.313 761.066 285.771 760.89 285.278L760.252 283.495C760.076 283.003 759.533 282.746 759.04 282.922L711.406 299.922C710.913 300.097 710.656 300.64 710.832 301.132L711.47 302.915C711.646 303.408 712.19 303.664 712.682 303.489L760.316 286.489Z" fill="#FF3D00"/>
<path fill-rule="evenodd" clip-rule="evenodd" d="M764.42 298.833C764.919 298.674 765.195 298.141 765.036 297.644L764.461 295.839C764.303 295.341 763.769 295.065 763.27 295.224L715.069 310.545C714.57 310.703 714.294 311.236 714.453 311.734L715.028 313.539C715.186 314.037 715.72 314.313 716.219 314.154L764.42 298.833Z" fill="#FF3D00"/>
<path fill-rule="evenodd" clip-rule="evenodd" d="M768.088 311.315C768.592 311.174 768.886 310.651 768.745 310.147L768.234 308.324C768.093 307.82 767.569 307.526 767.065 307.667L718.355 321.291C717.851 321.431 717.557 321.954 717.698 322.458L718.209 324.282C718.35 324.785 718.874 325.079 719.378 324.938L768.088 311.315Z" fill="#FF3D00"/>
<path fill-rule="evenodd" clip-rule="evenodd" d="M771.315 323.917C771.823 323.794 772.136 323.281 772.013 322.773L771.566 320.933C771.442 320.425 770.929 320.113 770.421 320.236L721.262 332.145C720.754 332.268 720.441 332.78 720.565 333.288L721.011 335.129C721.135 335.637 721.648 335.949 722.156 335.826L771.315 323.917Z" fill="#FF3D00"/>
<path fill-rule="evenodd" clip-rule="evenodd" d="M774.098 336.625C774.611 336.52 774.941 336.019 774.836 335.507L774.454 333.652C774.348 333.14 773.847 332.81 773.334 332.915L723.788 343.095C723.275 343.2 722.945 343.702 723.05 344.213L723.432 346.069C723.538 346.581 724.04 346.911 724.552 346.805L774.098 336.625Z" fill="#FF3D00"/>
<path fill-rule="evenodd" clip-rule="evenodd" d="M776.431 349.422C776.947 349.335 777.295 348.845 777.208 348.33L776.891 346.463C776.804 345.947 776.314 345.6 775.798 345.687L725.925 354.126C725.409 354.213 725.061 354.702 725.148 355.217L725.465 357.085C725.552 357.6 726.042 357.948 726.558 357.86L776.431 349.422Z" fill="#FF3D00"/>
<path fill-rule="evenodd" clip-rule="evenodd" d="M778.317 362.293C778.836 362.224 779.201 361.747 779.131 361.229L778.88 359.352C778.811 358.834 778.334 358.469 777.815 358.539L727.676 365.225C727.158 365.294 726.793 365.771 726.862 366.289L727.113 368.166C727.182 368.684 727.66 369.049 728.178 368.98L778.317 362.293Z" fill="#FF3D00"/>
<path fill-rule="evenodd" clip-rule="evenodd" d="M779.748 375.223C780.269 375.172 780.651 374.708 780.6 374.188L780.415 372.303C780.364 371.783 779.899 371.402 779.379 371.453L729.036 376.379C728.515 376.43 728.134 376.894 728.185 377.414L728.37 379.299C728.42 379.819 728.885 380.2 729.405 380.149L779.748 375.223Z" fill="#FF3D00"/>
<path fill-rule="evenodd" clip-rule="evenodd" d="M780.724 388.194C781.246 388.161 781.644 387.711 781.611 387.189L781.492 385.299C781.46 384.777 781.009 384.38 780.487 384.413L730.002 387.573C729.48 387.606 729.083 388.056 729.115 388.577L729.234 390.467C729.267 390.989 729.717 391.386 730.239 391.353L780.724 388.194Z" fill="#FF3D00"/>
<path fill-rule="evenodd" clip-rule="evenodd" d="M781.243 401.191C781.766 401.177 782.179 400.741 782.165 400.219L782.112 398.325C782.098 397.803 781.662 397.39 781.139 397.405L730.574 398.794C730.051 398.809 729.638 399.245 729.652 399.767L729.704 401.66C729.719 402.183 730.155 402.595 730.678 402.581L781.243 401.191Z" fill="#FF3D00"/>
<path fill-rule="evenodd" clip-rule="evenodd" d="M781.306 414.199C781.83 414.203 782.258 413.782 782.262 413.259L782.276 411.366C782.28 410.843 781.859 410.415 781.335 410.411L730.753 410.029C730.23 410.025 729.802 410.446 729.798 410.969L729.783 412.863C729.779 413.386 730.201 413.813 730.724 413.817L781.306 414.199Z" fill="#FF3D00"/>
<path fill-rule="evenodd" clip-rule="evenodd" d="M780.913 427.201C781.436 427.223 781.878 426.817 781.9 426.295L781.981 424.403C782.003 423.881 781.597 423.438 781.074 423.416L730.537 421.263C730.014 421.24 729.571 421.646 729.549 422.168L729.468 424.061C729.446 424.583 729.852 425.025 730.375 425.047L780.913 427.201Z" fill="#FF3D00"/>
<path fill-rule="evenodd" clip-rule="evenodd" d="M780.064 440.182C780.586 440.223 781.042 439.833 781.083 439.312L781.23 437.423C781.27 436.902 780.88 436.446 780.358 436.406L729.927 432.483C729.406 432.443 728.949 432.833 728.908 433.354L728.761 435.242C728.721 435.763 729.111 436.219 729.633 436.26L780.064 440.182Z" fill="#FF3D00"/>
<path fill-rule="evenodd" clip-rule="evenodd" d="M778.76 453.124C779.28 453.183 779.75 452.809 779.809 452.29L780.022 450.408C780.081 449.888 779.707 449.419 779.187 449.36L728.925 443.674C728.404 443.615 727.935 443.989 727.876 444.509L727.662 446.39C727.603 446.91 727.978 447.379 728.498 447.438L778.76 453.124Z" fill="#FF3D00"/>
<path fill-rule="evenodd" clip-rule="evenodd" d="M777.001 466.013C777.519 466.09 778.001 465.733 778.079 465.216L778.358 463.343C778.435 462.826 778.077 462.344 777.56 462.267L727.528 454.824C727.01 454.747 726.528 455.104 726.451 455.621L726.171 457.494C726.094 458.011 726.452 458.493 726.969 458.57L777.001 466.013Z" fill="#FF3D00"/>
<path fill-rule="evenodd" clip-rule="evenodd" d="M774.791 478.833C775.306 478.928 775.801 478.588 775.896 478.074L776.241 476.212C776.336 475.698 775.996 475.203 775.481 475.108L725.742 465.917C725.227 465.822 724.732 466.162 724.637 466.676L724.292 468.539C724.197 469.052 724.537 469.547 725.052 469.642L774.791 478.833Z" fill="#FF3D00"/>
<path fill-rule="evenodd" clip-rule="evenodd" d="M772.132 491.566C772.643 491.679 773.15 491.357 773.263 490.846L773.673 488.997C773.787 488.487 773.464 487.981 772.953 487.868L723.566 476.941C723.055 476.828 722.549 477.15 722.436 477.66L722.026 479.509C721.912 480.02 722.235 480.526 722.746 480.639L772.132 491.566Z" fill="#FF3D00"/>
<path fill-rule="evenodd" clip-rule="evenodd" d="M769.029 504.198C769.536 504.329 770.053 504.025 770.184 503.519L770.659 501.685C770.79 501.179 770.485 500.662 769.979 500.531L721.006 487.881C720.5 487.75 719.982 488.055 719.851 488.561L719.376 490.394C719.245 490.9 719.55 491.417 720.057 491.548L769.029 504.198Z" fill="#FF3D00"/>
<path fill-rule="evenodd" clip-rule="evenodd" d="M765.482 516.715C765.984 516.864 766.512 516.578 766.661 516.077L767.2 514.261C767.348 513.76 767.062 513.232 766.56 513.084L718.062 498.726C717.56 498.577 717.032 498.863 716.883 499.365L716.344 501.18C716.196 501.681 716.482 502.209 716.984 502.357L765.482 516.715Z" fill="#FF3D00"/>
<path fill-rule="evenodd" clip-rule="evenodd" d="M761.499 529.101C761.995 529.267 762.533 528.999 762.699 528.504L763.302 526.708C763.468 526.212 763.2 525.675 762.704 525.509L714.74 509.461C714.243 509.295 713.706 509.563 713.539 510.058L712.937 511.854C712.771 512.35 713.039 512.887 713.535 513.053L761.499 529.101Z" fill="#FF3D00"/>
<path fill-rule="evenodd" clip-rule="evenodd" d="M757.084 541.339C757.574 541.522 758.12 541.274 758.304 540.784L758.969 539.011C759.153 538.521 758.904 537.975 758.414 537.792L711.042 520.074C710.552 519.891 710.006 520.139 709.822 520.629L709.157 522.403C708.974 522.892 709.222 523.438 709.712 523.621L757.084 541.339Z" fill="#FF3D00"/>
<path fill-rule="evenodd" clip-rule="evenodd" d="M752.241 553.412C752.725 553.613 753.28 553.384 753.481 552.901L754.207 551.152C754.408 550.669 754.178 550.114 753.695 549.914L706.975 530.548C706.492 530.348 705.937 530.577 705.736 531.06L705.009 532.809C704.808 533.292 705.038 533.846 705.521 534.047L752.241 553.412Z" fill="#FF3D00"/>
<path fill-rule="evenodd" clip-rule="evenodd" d="M746.979 565.313C747.455 565.53 748.018 565.32 748.236 564.845L749.023 563.122C749.241 562.647 749.031 562.084 748.555 561.867L702.544 540.877C702.068 540.66 701.505 540.869 701.287 541.345L700.499 543.067C700.282 543.543 700.492 544.105 700.968 544.322L746.979 565.313Z" fill="#FF3D00"/>
<path fill-rule="evenodd" clip-rule="evenodd" d="M741.301 577.019C741.769 577.252 742.339 577.062 742.572 576.595L743.42 574.901C743.654 574.433 743.464 573.864 742.996 573.63L697.75 551.041C697.282 550.808 696.712 550.998 696.478 551.465L695.63 553.159C695.396 553.627 695.586 554.196 696.054 554.43L741.301 577.019Z" fill="#FF3D00"/>
<path fill-rule="evenodd" clip-rule="evenodd" d="M735.214 588.519C735.673 588.769 736.25 588.599 736.5 588.14L737.407 586.477C737.657 586.018 737.487 585.442 737.027 585.192L692.602 561.032C692.143 560.782 691.566 560.952 691.316 561.411L690.409 563.075C690.159 563.534 690.329 564.109 690.789 564.359L735.214 588.519Z" fill="#FF3D00"/>
<path fill-rule="evenodd" clip-rule="evenodd" d="M728.73 599.799C729.181 600.065 729.763 599.915 730.029 599.465L730.993 597.835C731.26 597.385 731.11 596.804 730.66 596.538L687.11 570.837C686.659 570.571 686.078 570.72 685.811 571.17L684.847 572.801C684.58 573.251 684.73 573.832 685.181 574.098L728.73 599.799Z" fill="#FF3D00"/>
<path fill-rule="evenodd" clip-rule="evenodd" d="M721.852 610.845C722.293 611.126 722.88 610.997 723.162 610.557L724.183 608.961C724.465 608.521 724.336 607.935 723.895 607.653L681.274 580.443C680.833 580.161 680.247 580.29 679.965 580.731L678.944 582.327C678.662 582.767 678.791 583.353 679.232 583.634L721.852 610.845Z" fill="#FF3D00"/>
<path fill-rule="evenodd" clip-rule="evenodd" d="M714.591 621.646C715.022 621.943 715.613 621.834 715.91 621.404L716.987 619.845C717.284 619.415 717.175 618.824 716.744 618.528L675.106 589.841C674.675 589.544 674.084 589.653 673.787 590.083L672.71 591.642C672.413 592.072 672.521 592.662 672.952 592.959L714.591 621.646Z" fill="#FF3D00"/>
<path fill-rule="evenodd" clip-rule="evenodd" d="M706.955 632.182C707.375 632.494 707.969 632.406 708.281 631.986L709.412 630.466C709.724 630.046 709.637 629.453 709.216 629.141L668.61 599.014C668.19 598.702 667.596 598.79 667.284 599.209L666.153 600.73C665.841 601.149 665.929 601.743 666.349 602.055L706.955 632.182Z" fill="#FF3D00"/>
<path fill-rule="evenodd" clip-rule="evenodd" d="M698.954 642.446C699.363 642.773 699.96 642.706 700.286 642.298L701.47 640.818C701.796 640.409 701.729 639.813 701.321 639.487L661.798 607.956C661.389 607.63 660.791 607.697 660.465 608.105L659.281 609.585C658.955 609.993 659.022 610.589 659.431 610.916L698.954 642.446Z" fill="#FF3D00"/>
<path fill-rule="evenodd" clip-rule="evenodd" d="M690.598 652.424C690.995 652.764 691.594 652.718 691.934 652.321L693.169 650.884C693.51 650.487 693.464 649.889 693.067 649.549L654.675 616.653C654.278 616.313 653.679 616.358 653.338 616.755L652.103 618.192C651.763 618.589 651.809 619.188 652.206 619.528L690.598 652.424Z" fill="#FF3D00"/>
<path fill-rule="evenodd" clip-rule="evenodd" d="M681.895 662.102C682.28 662.456 682.881 662.431 683.235 662.046L684.52 660.653C684.874 660.269 684.849 659.669 684.464 659.315L647.251 625.095C646.866 624.741 646.266 624.766 645.911 625.15L644.627 626.543C644.272 626.928 644.297 627.527 644.682 627.881L681.895 662.102Z" fill="#FF3D00"/>
<path fill-rule="evenodd" clip-rule="evenodd" d="M672.859 671.47C673.232 671.837 673.833 671.833 674.2 671.461L675.533 670.114C675.901 669.742 675.897 669.142 675.525 668.775L639.536 633.272C639.163 632.905 638.562 632.909 638.195 633.28L636.862 634.628C636.494 635 636.498 635.6 636.871 635.967L672.859 671.47Z" fill="#FF3D00"/>
<path fill-rule="evenodd" clip-rule="evenodd" d="M663.501 680.515C663.86 680.895 664.461 680.912 664.841 680.553L666.22 679.254C666.601 678.895 666.618 678.295 666.259 677.915L631.539 641.174C631.18 640.794 630.579 640.776 630.199 641.135L628.82 642.435C628.439 642.794 628.422 643.394 628.781 643.774L663.501 680.515Z" fill="#FF3D00"/>
<path fill-rule="evenodd" clip-rule="evenodd" d="M653.829 689.228C654.175 689.62 654.774 689.658 655.167 689.313L656.591 688.062C656.984 687.717 657.022 687.118 656.677 686.726L623.268 648.791C622.922 648.399 622.323 648.36 621.93 648.705L620.506 649.956C620.113 650.302 620.075 650.9 620.42 651.293L653.829 689.228Z" fill="#FF3D00"/>
<path fill-rule="evenodd" clip-rule="evenodd" d="M643.858 697.595C644.19 698 644.787 698.059 645.192 697.728L646.659 696.527C647.064 696.196 647.123 695.599 646.792 695.195L614.735 656.113C614.404 655.709 613.806 655.65 613.401 655.981L611.934 657.181C611.529 657.512 611.47 658.11 611.802 658.514L643.858 697.595Z" fill="#FF3D00"/>
<path fill-rule="evenodd" clip-rule="evenodd" d="M633.598 705.609C633.915 706.025 634.51 706.105 634.927 705.788L636.435 704.64C636.851 704.323 636.931 703.728 636.614 703.313L605.949 663.133C605.632 662.717 605.037 662.637 604.621 662.953L603.112 664.102C602.696 664.418 602.616 665.013 602.933 665.429L633.598 705.609Z" fill="#FF3D00"/>
<path fill-rule="evenodd" clip-rule="evenodd" d="M623.065 713.259C623.367 713.685 623.959 713.786 624.386 713.484L625.934 712.39C626.361 712.088 626.462 711.496 626.159 711.07L596.925 669.84C596.622 669.413 596.03 669.312 595.603 669.614L594.055 670.709C593.628 671.011 593.527 671.603 593.83 672.029L623.065 713.259Z" fill="#FF3D00"/>
<path fill-rule="evenodd" clip-rule="evenodd" d="M612.27 720.533C612.557 720.97 613.145 721.092 613.583 720.805L615.168 719.765C615.605 719.479 615.727 718.891 615.44 718.454L587.67 676.226C587.383 675.789 586.795 675.667 586.357 675.954L584.772 676.994C584.335 677.281 584.213 677.868 584.5 678.305L612.27 720.533Z" fill="#FF3D00"/>
<path fill-rule="evenodd" clip-rule="evenodd" d="M601.224 727.427C601.496 727.874 602.08 728.016 602.527 727.745L604.147 726.761C604.594 726.49 604.737 725.907 604.465 725.46L578.195 682.285C577.924 681.839 577.34 681.696 576.893 681.968L575.272 682.951C574.825 683.223 574.682 683.806 574.954 684.252L601.224 727.427Z" fill="#FF3D00"/>
<path fill-rule="evenodd" clip-rule="evenodd" d="M589.943 733.928C590.199 734.384 590.777 734.547 591.234 734.291L592.887 733.365C593.344 733.109 593.507 732.532 593.251 732.076L568.513 688.007C568.257 687.551 567.679 687.389 567.222 687.644L565.569 688.571C565.112 688.826 564.949 689.404 565.205 689.86L589.943 733.928Z" fill="#FF3D00"/>
<path fill-rule="evenodd" clip-rule="evenodd" d="M578.442 740.032C578.682 740.497 579.254 740.68 579.719 740.44L581.405 739.572C581.87 739.333 582.053 738.761 581.813 738.297L558.638 693.389C558.398 692.925 557.826 692.742 557.361 692.981L555.675 693.849C555.21 694.088 555.027 694.66 555.267 695.125L578.442 740.032Z" fill="#FF3D00"/>
<path fill-rule="evenodd" clip-rule="evenodd" d="M566.733 745.728C566.956 746.201 567.521 746.403 567.995 746.18L569.71 745.372C570.183 745.149 570.386 744.584 570.163 744.112L548.578 698.42C548.355 697.947 547.789 697.745 547.316 697.968L545.601 698.776C545.128 698.999 544.925 699.564 545.148 700.036L566.733 745.728Z" fill="#FF3D00"/>
<path fill-rule="evenodd" clip-rule="evenodd" d="M554.832 751.011C555.039 751.491 555.597 751.713 556.078 751.507L557.82 750.759C558.301 750.553 558.523 749.996 558.317 749.515L538.35 703.096C538.144 702.616 537.586 702.393 537.105 702.6L535.363 703.347C534.882 703.553 534.659 704.111 534.866 704.591L554.832 751.011Z" fill="#FF3D00"/>
<path fill-rule="evenodd" clip-rule="evenodd" d="M542.752 755.873C542.941 756.36 543.491 756.602 543.979 756.413L545.747 755.727C546.234 755.538 546.476 754.988 546.287 754.501L527.962 707.411C527.773 706.924 527.223 706.682 526.735 706.871L524.968 707.557C524.48 707.747 524.238 708.296 524.427 708.783L542.752 755.873Z" fill="#FF3D00"/>
<path fill-rule="evenodd" clip-rule="evenodd" d="M530.509 760.311C530.682 760.804 531.223 761.065 531.717 760.893L533.507 760.269C534.001 760.097 534.263 759.557 534.09 759.063L517.43 711.36C517.258 710.866 516.717 710.606 516.223 710.778L514.433 711.401C513.938 711.574 513.677 712.114 513.849 712.607L530.509 760.311Z" fill="#FF3D00"/>
<path fill-rule="evenodd" clip-rule="evenodd" d="M518.119 764.315C518.274 764.814 518.806 765.094 519.305 764.939L521.117 764.379C521.617 764.224 521.897 763.693 521.742 763.194L506.767 714.936C506.612 714.437 506.08 714.157 505.58 714.312L503.769 714.873C503.269 715.028 502.989 715.558 503.144 716.058L518.119 764.315Z" fill="#FF3D00"/>
<path fill-rule="evenodd" clip-rule="evenodd" d="M505.594 767.884C505.731 768.389 506.252 768.687 506.757 768.55L508.587 768.053C509.092 767.916 509.391 767.395 509.253 766.89L495.982 718.138C495.845 717.634 495.323 717.336 494.818 717.473L492.989 717.97C492.484 718.107 492.185 718.628 492.322 719.132L505.594 767.884Z" fill="#FF3D00"/>
<path fill-rule="evenodd" clip-rule="evenodd" d="M492.953 771.011C493.073 771.519 493.583 771.836 494.093 771.716L495.939 771.284C496.448 771.164 496.765 770.654 496.645 770.146L485.094 720.959C484.975 720.45 484.464 720.133 483.955 720.253L482.108 720.685C481.599 720.805 481.282 721.315 481.402 721.824L492.953 771.011Z" fill="#FF3D00"/>
<path fill-rule="evenodd" clip-rule="evenodd" d="M480.208 773.695C480.31 774.208 480.809 774.541 481.322 774.44L483.182 774.072C483.696 773.971 484.03 773.472 483.928 772.96L474.111 723.398C474.01 722.886 473.51 722.552 472.997 722.653L471.137 723.021C470.624 723.122 470.289 723.621 470.391 724.133L480.208 773.695Z" fill="#FF3D00"/>
<path fill-rule="evenodd" clip-rule="evenodd" d="M467.377 775.928C467.461 776.444 467.948 776.796 468.465 776.712L470.337 776.41C470.853 776.327 471.205 775.84 471.121 775.324L463.05 725.449C462.967 724.933 462.479 724.582 461.963 724.666L460.091 724.968C459.574 725.051 459.223 725.538 459.306 726.054L467.377 775.928Z" fill="#FF3D00"/>
<path fill-rule="evenodd" clip-rule="evenodd" d="M454.479 777.714C454.544 778.232 455.019 778.6 455.538 778.535L457.419 778.299C457.939 778.233 458.307 777.759 458.242 777.241L451.927 727.114C451.861 726.595 451.387 726.228 450.868 726.293L448.986 726.529C448.467 726.594 448.098 727.068 448.164 727.587L454.479 777.714Z" fill="#FF3D00"/>
<path fill-rule="evenodd" clip-rule="evenodd" d="M441.523 779.045C441.57 779.566 442.031 779.95 442.553 779.903L444.441 779.733C444.962 779.686 445.347 779.225 445.3 778.704L440.749 728.387C440.702 727.867 440.24 727.482 439.719 727.529L437.831 727.7C437.31 727.747 436.925 728.208 436.972 728.728L441.523 779.045Z" fill="#FF3D00"/>
<path fill-rule="evenodd" clip-rule="evenodd" d="M428.528 779.922C428.557 780.444 429.004 780.844 429.527 780.815L431.42 780.711C431.943 780.682 432.343 780.235 432.315 779.714L429.533 729.268C429.504 728.746 429.056 728.346 428.534 728.375L426.641 728.479C426.118 728.507 425.717 728.954 425.746 729.476L428.528 779.922Z" fill="#FF3D00"/>
<path fill-rule="evenodd" clip-rule="evenodd" d="M415.51 780.343C415.521 780.865 415.954 781.281 416.477 781.271L418.373 781.233C418.896 781.223 419.312 780.79 419.302 780.267L418.293 729.755C418.283 729.233 417.849 728.817 417.326 728.827L415.43 728.865C414.907 728.876 414.491 729.308 414.501 729.831L415.51 780.343Z" fill="#FF3D00"/>
<path fill-rule="evenodd" clip-rule="evenodd" d="M402.487 780.308C402.479 780.831 402.897 781.262 403.421 781.269L405.317 781.298C405.84 781.306 406.271 780.888 406.279 780.366L407.044 729.849C407.052 729.327 406.634 728.896 406.11 728.888L404.214 728.859C403.691 728.852 403.26 729.269 403.252 729.792L402.487 780.308Z" fill="#FF3D00"/>
<path fill-rule="evenodd" clip-rule="evenodd" d="M389.473 779.817C389.447 780.339 389.85 780.784 390.373 780.81L392.267 780.905C392.789 780.931 393.235 780.529 393.261 780.007L395.799 729.548C395.826 729.027 395.423 728.581 394.9 728.555L393.006 728.46C392.484 728.434 392.038 728.836 392.012 729.358L389.473 779.817Z" fill="#FF3D00"/>
<path fill-rule="evenodd" clip-rule="evenodd" d="M376.484 778.871C376.44 779.392 376.827 779.851 377.348 779.895L379.238 780.056C379.759 780.101 380.219 779.714 380.263 779.194L384.572 728.855C384.616 728.334 384.229 727.875 383.707 727.831L381.818 727.669C381.297 727.625 380.837 728.012 380.793 728.533L376.484 778.871Z" fill="#FF3D00"/>
<path fill-rule="evenodd" clip-rule="evenodd" d="M363.535 777.468C363.472 777.987 363.843 778.459 364.362 778.522L366.245 778.75C366.764 778.812 367.237 778.442 367.3 777.923L373.373 727.767C373.436 727.248 373.065 726.776 372.546 726.713L370.663 726.485C370.144 726.423 369.671 726.793 369.608 727.312L363.535 777.468Z" fill="#FF3D00"/>
<path fill-rule="evenodd" clip-rule="evenodd" d="M350.644 775.616C350.563 776.132 350.917 776.617 351.434 776.698L353.308 776.991C353.825 777.072 354.31 776.719 354.391 776.202L362.222 726.289C362.302 725.773 361.948 725.288 361.431 725.207L359.558 724.914C359.041 724.833 358.556 725.186 358.475 725.703L350.644 775.616Z" fill="#FF3D00"/>
<path fill-rule="evenodd" clip-rule="evenodd" d="M337.826 773.312C337.727 773.826 338.063 774.323 338.577 774.422L340.439 774.78C340.953 774.879 341.451 774.543 341.55 774.03L351.128 724.422C351.227 723.909 350.89 723.411 350.376 723.312L348.514 722.954C348.001 722.855 347.503 723.191 347.404 723.704L337.826 773.312Z" fill="#FF3D00"/>
<path fill-rule="evenodd" clip-rule="evenodd" d="M325.097 770.56C324.98 771.07 325.299 771.578 325.809 771.695L327.658 772.119C328.168 772.236 328.677 771.917 328.794 771.408L340.108 722.166C340.225 721.656 339.906 721.148 339.396 721.031L337.548 720.607C337.037 720.49 336.528 720.809 336.411 721.318L325.097 770.56Z" fill="#FF3D00"/>
<path fill-rule="evenodd" clip-rule="evenodd" d="M312.473 767.364C312.338 767.869 312.639 768.389 313.145 768.523L314.977 769.012C315.483 769.146 316.003 768.845 316.138 768.341L329.173 719.525C329.308 719.02 329.007 718.501 328.502 718.366L326.669 717.878C326.164 717.743 325.644 718.044 325.509 718.549L312.473 767.364Z" fill="#FF3D00"/>
<path fill-rule="evenodd" clip-rule="evenodd" d="M299.968 763.728C299.816 764.228 300.098 764.757 300.599 764.909L302.413 765.461C302.913 765.614 303.443 765.331 303.596 764.832L318.338 716.503C318.49 716.003 318.208 715.473 317.707 715.321L315.893 714.769C315.393 714.617 314.862 714.899 314.71 715.399L299.968 763.728Z" fill="#FF3D00"/>
<path fill-rule="evenodd" clip-rule="evenodd" d="M287.598 759.655C287.429 760.149 287.692 760.688 288.187 760.858L289.981 761.473C290.476 761.643 291.015 761.379 291.185 760.885L307.615 713.102C307.785 712.608 307.521 712.069 307.026 711.899L305.233 711.284C304.738 711.114 304.198 711.378 304.028 711.872L287.598 759.655Z" fill="#FF3D00"/>
<path fill-rule="evenodd" clip-rule="evenodd" d="M275.381 755.153C275.194 755.641 275.438 756.189 275.927 756.376L277.698 757.053C278.186 757.24 278.735 756.996 278.922 756.508L297.019 709.33C297.207 708.842 296.962 708.294 296.473 708.107L294.702 707.429C294.214 707.242 293.665 707.486 293.478 707.975L275.381 755.153Z" fill="#FF3D00"/>
<path fill-rule="evenodd" clip-rule="evenodd" d="M263.327 750.227C263.123 750.708 263.348 751.264 263.83 751.468L265.576 752.207C266.057 752.411 266.614 752.186 266.819 751.705L286.561 705.19C286.765 704.708 286.54 704.152 286.058 703.948L284.312 703.209C283.83 703.005 283.273 703.23 283.069 703.711L263.327 750.227Z" fill="#FF3D00"/>
<path fill-rule="evenodd" clip-rule="evenodd" d="M251.453 744.879C251.232 745.352 251.438 745.916 251.912 746.137L253.631 746.937C254.105 747.157 254.67 746.952 254.891 746.478L276.254 700.683C276.475 700.209 276.27 699.646 275.795 699.425L274.076 698.625C273.602 698.404 273.038 698.609 272.817 699.083L251.453 744.879Z" fill="#FF3D00"/>
<path fill-rule="evenodd" clip-rule="evenodd" d="M239.776 739.121C239.539 739.587 239.724 740.157 240.191 740.395L241.88 741.254C242.347 741.491 242.918 741.306 243.156 740.84L266.114 695.821C266.351 695.356 266.166 694.785 265.699 694.548L264.01 693.688C263.543 693.451 262.972 693.636 262.734 694.102L239.776 739.121Z" fill="#FF3D00"/>
<path fill-rule="evenodd" clip-rule="evenodd" d="M228.308 732.956C228.055 733.413 228.22 733.99 228.678 734.243L230.336 735.162C230.794 735.415 231.372 735.25 231.625 734.793L256.15 690.606C256.404 690.148 256.238 689.572 255.78 689.318L254.122 688.4C253.664 688.147 253.087 688.312 252.833 688.769L228.308 732.956Z" fill="#FF3D00"/>
<path fill-rule="evenodd" clip-rule="evenodd" d="M217.062 726.392C216.793 726.84 216.938 727.422 217.386 727.691L219.012 728.667C219.46 728.936 220.043 728.791 220.313 728.343L246.374 685.043C246.643 684.595 246.498 684.012 246.05 683.743L244.424 682.767C243.976 682.498 243.393 682.643 243.123 683.091L217.062 726.392Z" fill="#FF3D00"/>
<path fill-rule="evenodd" clip-rule="evenodd" d="M206.056 719.441C205.771 719.879 205.896 720.466 206.334 720.751L207.924 721.783C208.363 722.068 208.951 721.943 209.236 721.505L236.801 679.144C237.086 678.705 236.961 678.118 236.523 677.834L234.933 676.801C234.494 676.517 233.906 676.641 233.621 677.079L206.056 719.441Z" fill="#FF3D00"/>
<path fill-rule="evenodd" clip-rule="evenodd" d="M195.299 712.106C194.998 712.534 195.102 713.125 195.531 713.425L197.084 714.512C197.512 714.812 198.104 714.708 198.404 714.281L227.44 672.911C227.74 672.483 227.636 671.892 227.207 671.592L225.655 670.505C225.226 670.204 224.635 670.308 224.334 670.736L195.299 712.106Z" fill="#FF3D00"/>
<path fill-rule="evenodd" clip-rule="evenodd" d="M184.806 704.401C184.491 704.818 184.574 705.413 184.992 705.728L186.506 706.868C186.924 707.183 187.518 707.1 187.834 706.683L218.304 666.355C218.619 665.938 218.536 665.344 218.118 665.029L216.605 663.888C216.187 663.573 215.592 663.657 215.277 664.074L184.806 704.401Z" fill="#FF3D00"/>
<path fill-rule="evenodd" clip-rule="evenodd" d="M174.591 696.332C174.261 696.738 174.323 697.334 174.73 697.664L176.202 698.857C176.609 699.186 177.206 699.124 177.536 698.718L209.403 659.483C209.733 659.077 209.671 658.48 209.264 658.151L207.792 656.957C207.385 656.628 206.788 656.69 206.458 657.096L174.591 696.332Z" fill="#FF3D00"/>
<path fill-rule="evenodd" clip-rule="evenodd" d="M164.665 687.911C164.321 688.305 164.362 688.904 164.757 689.247L166.187 690.491C166.581 690.835 167.181 690.793 167.524 690.399L200.75 652.304C201.093 651.91 201.052 651.311 200.658 650.968L199.228 649.724C198.833 649.381 198.234 649.422 197.89 649.816L164.665 687.911Z" fill="#FF3D00"/>
<path fill-rule="evenodd" clip-rule="evenodd" d="M155.041 679.146C154.683 679.527 154.703 680.127 155.086 680.484L156.471 681.777C156.853 682.134 157.454 682.114 157.811 681.732L192.353 644.824C192.711 644.442 192.691 643.843 192.308 643.486L190.923 642.192C190.541 641.836 189.94 641.856 189.583 642.238L155.041 679.146Z" fill="#FF3D00"/>
<path fill-rule="evenodd" clip-rule="evenodd" d="M145.73 670.05C145.36 670.42 145.359 671.019 145.728 671.39L147.067 672.731C147.437 673.101 148.038 673.102 148.408 672.732L184.225 637.057C184.596 636.688 184.597 636.088 184.227 635.718L182.888 634.377C182.519 634.007 181.918 634.006 181.547 634.375L145.73 670.05Z" fill="#FF3D00"/>
<path fill-rule="evenodd" clip-rule="evenodd" d="M136.745 660.634C136.361 660.99 136.34 661.589 136.696 661.972L137.987 663.359C138.343 663.742 138.944 663.764 139.327 663.408L176.375 629.009C176.758 628.653 176.78 628.053 176.424 627.671L175.132 626.283C174.776 625.901 174.176 625.879 173.792 626.235L136.745 660.634Z" fill="#FF3D00"/>
<path fill-rule="evenodd" clip-rule="evenodd" d="M128.095 650.908C127.7 651.25 127.657 651.849 127.999 652.244L129.241 653.675C129.584 654.07 130.183 654.113 130.578 653.771L168.811 620.691C169.207 620.348 169.25 619.75 168.907 619.355L167.665 617.923C167.323 617.528 166.723 617.486 166.328 617.828L128.095 650.908Z" fill="#FF3D00"/>
<path fill-rule="evenodd" clip-rule="evenodd" d="M119.793 640.886C119.385 641.214 119.321 641.81 119.65 642.217L120.841 643.692C121.169 644.098 121.766 644.162 122.174 643.834L161.544 612.113C161.952 611.785 162.016 611.188 161.687 610.781L160.496 609.307C160.168 608.901 159.57 608.837 159.163 609.165L119.793 640.886Z" fill="#FF3D00"/>
<path fill-rule="evenodd" clip-rule="evenodd" d="M111.847 630.581C111.429 630.895 111.344 631.489 111.658 631.907L112.796 633.422C113.11 633.84 113.705 633.925 114.123 633.611L154.584 603.289C155.002 602.975 155.087 602.381 154.773 601.963L153.635 600.448C153.321 600.03 152.726 599.945 152.307 600.259L111.847 630.581Z" fill="#FF3D00"/>
<path fill-rule="evenodd" clip-rule="evenodd" d="M104.268 620.001C103.839 620.3 103.733 620.891 104.032 621.319L105.117 622.873C105.416 623.302 106.007 623.407 106.437 623.109L147.936 594.222C148.366 593.923 148.471 593.332 148.172 592.904L147.088 591.35C146.789 590.921 146.197 590.816 145.768 591.114L104.268 620.001Z" fill="#FF3D00"/>
<path fill-rule="evenodd" clip-rule="evenodd" d="M97.0659 609.164C96.6264 609.447 96.5001 610.034 96.784 610.473L97.8129 612.064C98.0968 612.503 98.6844 612.629 99.1239 612.345L141.612 584.93C142.052 584.646 142.178 584.06 141.894 583.621L140.865 582.03C140.581 581.591 139.994 581.465 139.554 581.748L97.0659 609.164Z" fill="#FF3D00"/>
<path fill-rule="evenodd" clip-rule="evenodd" d="M90.2479 598.08C89.7987 598.348 89.652 598.93 89.9203 599.379L90.8928 601.005C91.1612 601.454 91.7438 601.6 92.1929 601.332L135.618 575.422C136.067 575.154 136.214 574.572 135.946 574.123L134.973 572.497C134.705 572.049 134.122 571.902 133.673 572.17L90.2479 598.08Z" fill="#FF3D00"/>
<path fill-rule="evenodd" clip-rule="evenodd" d="M83.8233 586.765C83.365 587.017 83.1977 587.593 83.4502 588.051L84.3649 589.71C84.6175 590.168 85.1946 590.335 85.653 590.083L129.961 565.709C130.419 565.457 130.586 564.88 130.334 564.423L129.419 562.764C129.167 562.306 128.59 562.139 128.131 562.391L83.8233 586.765Z" fill="#FF3D00"/>
<path fill-rule="evenodd" clip-rule="evenodd" d="M77.7999 575.233C77.333 575.469 77.1458 576.039 77.382 576.505L78.238 578.195C78.4742 578.662 79.0451 578.849 79.5119 578.613L124.648 555.806C125.115 555.57 125.303 555 125.066 554.534L124.211 552.844C123.974 552.377 123.403 552.19 122.936 552.426L77.7999 575.233Z" fill="#FF3D00"/>
<path fill-rule="evenodd" clip-rule="evenodd" d="M72.1855 563.495C71.7105 563.714 71.5032 564.277 71.723 564.752L72.5192 566.471C72.7388 566.945 73.3027 567.152 73.7777 566.933L119.687 545.721C120.162 545.501 120.369 544.938 120.15 544.464L119.354 542.745C119.134 542.27 118.57 542.063 118.095 542.283L72.1855 563.495Z" fill="#FF3D00"/>
<path fill-rule="evenodd" clip-rule="evenodd" d="M66.9864 551.568C66.5041 551.771 66.2771 552.326 66.4801 552.808L67.2154 554.554C67.4184 555.036 67.9748 555.262 68.4569 555.06L115.083 535.469C115.565 535.266 115.792 534.711 115.589 534.229L114.854 532.483C114.651 532.001 114.095 531.775 113.612 531.978L66.9864 551.568Z" fill="#FF3D00"/>
<path fill-rule="evenodd" clip-rule="evenodd" d="M62.2097 539.468C61.7205 539.653 61.4743 540.201 61.6601 540.689L62.3337 542.46C62.5196 542.948 63.0676 543.194 63.5567 543.008L110.842 525.063C111.331 524.877 111.577 524.33 111.391 523.841L110.718 522.071C110.532 521.582 109.984 521.336 109.495 521.522L62.2097 539.468Z" fill="#FF3D00"/>
<path fill-rule="evenodd" clip-rule="evenodd" d="M57.8601 527.207C57.3646 527.375 57.0994 527.914 57.2681 528.409L57.879 530.201C58.0477 530.696 58.5866 530.961 59.0821 530.793L106.968 514.515C107.464 514.346 107.729 513.808 107.56 513.313L106.949 511.52C106.781 511.025 106.242 510.76 105.746 510.929L57.8601 527.207Z" fill="#FF3D00"/>
<path fill-rule="evenodd" clip-rule="evenodd" d="M53.944 514.799C53.443 514.95 53.159 515.478 53.3101 515.979L53.8577 517.792C54.009 518.292 54.5383 518.576 55.0393 518.425L103.467 503.834C103.968 503.683 104.253 503.154 104.101 502.654L103.554 500.841C103.403 500.34 102.873 500.056 102.372 500.208L53.944 514.799Z" fill="#FF3D00"/>
<path fill-rule="evenodd" clip-rule="evenodd" d="M50.4659 502.264C49.9597 502.398 49.6574 502.916 49.7908 503.421L50.2744 505.253C50.4081 505.758 50.9271 506.06 51.4331 505.927L100.344 493.041C100.85 492.907 101.152 492.389 101.019 491.884L100.535 490.052C100.402 489.547 99.8826 489.245 99.3766 489.378L50.4659 502.264Z" fill="#FF3D00"/>
<path fill-rule="evenodd" clip-rule="evenodd" d="M47.4303 489.614C46.9198 489.73 46.5994 490.237 46.715 490.747L47.134 492.594C47.2496 493.104 47.7578 493.424 48.2683 493.308L97.6013 482.143C98.1118 482.028 98.4322 481.52 98.3166 481.011L97.8974 479.164C97.7817 478.654 97.2735 478.334 96.7633 478.449L47.4303 489.614Z" fill="#FF3D00"/>
<path fill-rule="evenodd" clip-rule="evenodd" d="M44.8401 476.867C44.326 476.965 43.9879 477.461 44.0857 477.974L44.4395 479.835C44.5373 480.348 45.034 480.686 45.548 480.588L95.2428 471.158C95.7568 471.06 96.095 470.564 95.9972 470.051L95.6434 468.19C95.5456 467.677 95.0489 467.339 94.535 467.437L44.8401 476.867Z" fill="#FF3D00"/>
<path fill-rule="evenodd" clip-rule="evenodd" d="M42.6996 464.035C42.1824 464.114 41.8271 464.598 41.9066 465.115L42.1951 466.987C42.2746 467.503 42.7592 467.858 43.2764 467.779L93.2716 460.095C93.7889 460.015 94.1441 459.531 94.0646 459.015L93.7762 457.143C93.6966 456.626 93.212 456.272 92.6948 456.351L42.6996 464.035Z" fill="#FF3D00"/>
<path fill-rule="evenodd" clip-rule="evenodd" d="M41.0109 451.138C40.4912 451.199 40.1191 451.67 40.1804 452.189L40.4031 454.07C40.4644 454.589 40.9361 454.961 41.4557 454.9L91.6902 448.971C92.2098 448.91 92.5819 448.439 92.5204 447.92L92.298 446.039C92.2365 445.52 91.7648 445.149 91.2451 445.21L41.0109 451.138Z" fill="#FF3D00"/>
<path fill-rule="evenodd" clip-rule="evenodd" d="M39.7758 438.188C39.2542 438.231 38.866 438.689 38.909 439.21L39.0654 441.097C39.1085 441.618 39.5671 442.006 40.0886 441.963L90.5001 437.798C91.0217 437.755 91.4099 437.297 91.3669 436.776L91.2105 434.888C91.1674 434.368 90.7088 433.98 90.1873 434.023L39.7758 438.188Z" fill="#FF3D00"/>
<path fill-rule="evenodd" clip-rule="evenodd" d="M38.9966 425.205C38.4738 425.23 38.0695 425.673 38.0943 426.196L38.1843 428.087C38.2091 428.609 38.6538 429.013 39.1763 428.988L89.7033 426.591C90.2258 426.567 90.6301 426.123 90.6053 425.601L90.5153 423.709C90.4905 423.187 90.0461 422.783 89.5233 422.808L38.9966 425.205Z" fill="#FF3D00"/>
<path fill-rule="evenodd" clip-rule="evenodd" d="M38.6731 412.199C38.15 412.206 37.7303 412.635 37.7369 413.158L37.7605 415.051C37.7668 415.574 38.1969 415.993 38.7201 415.987L89.3001 415.361C89.8233 415.354 90.2429 414.925 90.2364 414.402L90.2128 412.509C90.2064 411.986 89.7763 411.567 89.253 411.573L38.6731 412.199Z" fill="#FF3D00"/>
<path fill-rule="evenodd" clip-rule="evenodd" d="M38.8065 399.193C38.2833 399.181 37.8489 399.595 37.837 400.118L37.7942 402.011C37.7823 402.534 38.1972 402.968 38.7204 402.979L89.2912 404.126C89.8144 404.138 90.2488 403.723 90.2607 403.2L90.3035 401.307C90.3154 400.785 89.9005 400.351 89.3773 400.339L38.8065 399.193Z" fill="#FF3D00"/>
<path fill-rule="evenodd" clip-rule="evenodd" d="M39.397 386.197C38.8746 386.167 38.4259 386.566 38.3957 387.088L38.2863 388.978C38.2561 389.5 38.6557 389.948 39.178 389.978L89.6775 392.895C90.1998 392.925 90.6486 392.526 90.6787 392.004L90.7882 390.114C90.8183 389.592 90.4188 389.144 89.8965 389.114L39.397 386.197Z" fill="#FF3D00"/>
<path fill-rule="evenodd" clip-rule="evenodd" d="M40.4433 373.233C39.9221 373.184 39.4599 373.567 39.4113 374.088L39.2356 375.974C39.187 376.494 39.5706 376.956 40.0917 377.004L90.4575 381.688C90.9786 381.736 91.4411 381.353 91.4895 380.833L91.6654 378.947C91.7138 378.427 91.3302 377.965 90.8091 377.916L40.4433 373.233Z" fill="#FF3D00"/>
<path fill-rule="evenodd" clip-rule="evenodd" d="M41.944 360.311C41.425 360.244 40.9493 360.611 40.8825 361.129L40.6406 363.007C40.574 363.526 40.9412 364.001 41.4602 364.067L91.6307 370.512C92.1495 370.579 92.6251 370.212 92.692 369.694L92.9339 367.815C93.0005 367.297 92.6333 366.822 92.1145 366.755L41.944 360.311Z" fill="#FF3D00"/>
<path fill-rule="evenodd" clip-rule="evenodd" d="M43.8971 347.448C43.3809 347.363 42.8926 347.713 42.8077 348.229L42.5 350.098C42.4151 350.614 42.7655 351.101 43.2818 351.186L93.195 359.384C93.7114 359.469 94.1996 359.119 94.2844 358.603L94.5921 356.734C94.6772 356.219 94.3269 355.731 93.8105 355.646L43.8971 347.448Z" fill="#FF3D00"/>
<path fill-rule="evenodd" clip-rule="evenodd" d="M46.301 334.666C45.7881 334.563 45.2879 334.896 45.1849 335.408L44.8116 337.265C44.7087 337.777 45.0416 338.277 45.5548 338.38L95.1496 348.321C95.6627 348.424 96.1627 348.091 96.2658 347.579L96.6389 345.722C96.7418 345.21 96.4089 344.71 95.8958 344.607L46.301 334.666Z" fill="#FF3D00"/>
<path fill-rule="evenodd" clip-rule="evenodd" d="M49.1522 321.973C48.6432 321.852 48.1317 322.167 48.0108 322.676L47.5727 324.518C47.4518 325.027 47.7671 325.538 48.2761 325.658L97.4914 337.331C98.0005 337.451 98.5119 337.137 98.6329 336.628L99.071 334.785C99.1919 334.277 98.8766 333.766 98.3676 333.645L49.1522 321.973Z" fill="#FF3D00"/>
<path fill-rule="evenodd" clip-rule="evenodd" d="M52.4472 309.388C51.9425 309.249 51.4204 309.546 51.2818 310.05L50.7792 311.876C50.6406 312.38 50.9376 312.901 51.4421 313.04L100.217 326.429C100.722 326.567 101.244 326.271 101.383 325.766L101.885 323.94C102.024 323.436 101.727 322.915 101.222 322.776L52.4472 309.388Z" fill="#FF3D00"/>
<path fill-rule="evenodd" clip-rule="evenodd" d="M56.1821 296.926C55.6827 296.77 55.1503 297.048 54.9941 297.547L54.4277 299.355C54.2715 299.854 54.5499 300.385 55.0495 300.541L103.325 315.63C103.824 315.786 104.356 315.508 104.512 315.009L105.079 313.202C105.235 312.703 104.957 312.171 104.457 312.015L56.1821 296.926Z" fill="#FF3D00"/>
<path fill-rule="evenodd" clip-rule="evenodd" d="M60.352 284.603C59.8584 284.429 59.3166 284.689 59.1429 285.182L58.5134 286.968C58.3397 287.461 58.5995 288.002 59.0931 288.176L106.809 304.946C107.302 305.12 107.844 304.86 108.018 304.367L108.647 302.581C108.821 302.088 108.561 301.547 108.068 301.373L60.352 284.603Z" fill="#FF3D00"/>
<path fill-rule="evenodd" clip-rule="evenodd" d="M64.9523 272.435C64.465 272.244 63.9146 272.484 63.7236 272.971L63.0319 274.734C62.8408 275.221 63.0815 275.771 63.5688 275.961L110.666 294.393C111.153 294.583 111.704 294.343 111.895 293.856L112.587 292.093C112.778 291.607 112.537 291.057 112.05 290.866L64.9523 272.435Z" fill="#FF3D00"/>
<path fill-rule="evenodd" clip-rule="evenodd" d="M69.977 260.432C69.4969 260.224 68.9383 260.445 68.7304 260.924L67.9771 262.663C67.7692 263.142 67.9904 263.7 68.4705 263.908L114.892 283.977C115.372 284.185 115.931 283.964 116.139 283.484L116.892 281.746C117.1 281.267 116.879 280.709 116.398 280.501L69.977 260.432Z" fill="#FF3D00"/>
<path fill-rule="evenodd" clip-rule="evenodd" d="M75.4199 248.616C74.9474 248.392 74.3812 248.593 74.1567 249.065L73.3429 250.776C73.1182 251.248 73.3197 251.813 73.7922 252.037L119.481 273.721C119.953 273.945 120.519 273.744 120.744 273.272L121.558 271.561C121.782 271.089 121.581 270.524 121.108 270.299L75.4199 248.616Z" fill="#FF3D00"/>
<path fill-rule="evenodd" clip-rule="evenodd" d="M81.2745 236.996C80.8099 236.755 80.2372 236.937 79.9961 237.401L79.1228 239.082C78.8817 239.546 79.0631 240.118 79.5276 240.358L124.426 263.628C124.891 263.869 125.464 263.688 125.705 263.224L126.578 261.543C126.819 261.079 126.638 260.507 126.173 260.266L81.2745 236.996Z" fill="#FF3D00"/>
<path fill-rule="evenodd" clip-rule="evenodd" d="M87.5335 225.587C87.0778 225.33 86.4989 225.491 86.2418 225.946L85.3099 227.596C85.0528 228.051 85.2139 228.629 85.6697 228.886L129.724 253.714C130.18 253.971 130.758 253.81 131.015 253.355L131.947 251.705C132.205 251.25 132.043 250.672 131.588 250.415L87.5335 225.587Z" fill="#FF3D00"/>
<path fill-rule="evenodd" clip-rule="evenodd" d="M94.1888 214.406C93.7423 214.133 93.1583 214.274 92.8852 214.72L91.8961 216.335C91.623 216.781 91.7639 217.365 92.2104 217.637L135.366 243.993C135.812 244.266 136.396 244.125 136.669 243.679L137.658 242.064C137.931 241.618 137.79 241.034 137.344 240.762L94.1888 214.406Z" fill="#FF3D00"/>
<path fill-rule="evenodd" clip-rule="evenodd" d="M101.233 203.465C100.796 203.177 100.208 203.297 99.9191 203.733L98.8738 205.314C98.5853 205.75 98.7057 206.338 99.1421 206.626L141.346 234.477C141.782 234.765 142.371 234.645 142.659 234.209L143.705 232.629C143.993 232.193 143.873 231.605 143.436 231.317L101.233 203.465Z" fill="#FF3D00"/>
<path fill-rule="evenodd" clip-rule="evenodd" d="M108.657 192.778C108.23 192.475 107.638 192.574 107.334 193L106.234 194.543C105.93 194.968 106.03 195.56 106.456 195.863L147.656 225.175C148.082 225.479 148.674 225.379 148.978 224.954L150.078 223.411C150.382 222.985 150.282 222.394 149.856 222.09L108.657 192.778Z" fill="#FF3D00"/>
<path fill-rule="evenodd" clip-rule="evenodd" d="M116.452 182.356C116.036 182.038 115.44 182.117 115.122 182.532L113.969 184.035C113.65 184.45 113.729 185.045 114.144 185.363L154.289 216.1C154.705 216.418 155.3 216.339 155.618 215.924L156.772 214.421C157.091 214.006 157.012 213.412 156.596 213.094L116.452 182.356Z" fill="#FF3D00"/>
<path fill-rule="evenodd" clip-rule="evenodd" d="M124.607 172.215C124.203 171.883 123.605 171.94 123.272 172.344L122.066 173.805C121.734 174.209 121.791 174.806 122.195 175.138L161.236 207.263C161.64 207.595 162.238 207.537 162.571 207.134L163.777 205.672C164.11 205.269 164.052 204.672 163.648 204.339L124.607 172.215Z" fill="#FF3D00"/>
<path fill-rule="evenodd" clip-rule="evenodd" d="M133.114 162.365C132.722 162.019 132.122 162.056 131.775 162.447L130.519 163.866C130.172 164.258 130.209 164.856 130.601 165.203L168.49 198.675C168.882 199.021 169.482 198.984 169.829 198.593L171.085 197.174C171.432 196.783 171.395 196.184 171.003 195.838L133.114 162.365Z" fill="#FF3D00"/>
<path fill-rule="evenodd" clip-rule="evenodd" d="M141.961 152.819C141.581 152.46 140.98 152.475 140.62 152.855L139.315 154.228C138.955 154.607 138.97 155.207 139.35 155.567L176.041 190.345C176.42 190.705 177.021 190.69 177.381 190.31L178.687 188.937C179.047 188.558 179.031 187.958 178.651 187.598L141.961 152.819Z" fill="#FF3D00"/>
<path fill-rule="evenodd" clip-rule="evenodd" d="M151.138 143.59C150.771 143.217 150.17 143.212 149.797 143.578L148.444 144.905C148.071 145.271 148.066 145.871 148.432 146.244L183.879 182.286C184.246 182.659 184.847 182.665 185.22 182.298L186.573 180.971C186.946 180.605 186.952 180.005 186.585 179.632L151.138 143.59Z" fill="#FF3D00"/>
<path fill-rule="evenodd" clip-rule="evenodd" d="M160.633 134.686C160.28 134.301 159.679 134.274 159.294 134.627L157.895 135.906C157.509 136.259 157.483 136.859 157.836 137.244L191.996 174.506C192.349 174.891 192.95 174.918 193.336 174.565L194.734 173.286C195.12 172.933 195.147 172.333 194.793 171.948L160.633 134.686Z" fill="#FF3D00"/>
<path fill-rule="evenodd" clip-rule="evenodd" d="M170.435 126.121C170.095 125.724 169.496 125.676 169.098 126.015L167.656 127.245C167.258 127.584 167.21 128.182 167.55 128.58L200.381 167.015C200.72 167.412 201.319 167.46 201.717 167.121L203.16 165.891C203.558 165.552 203.605 164.954 203.266 164.556L170.435 126.121Z" fill="#FF3D00"/>
<path fill-rule="evenodd" clip-rule="evenodd" d="M180.532 117.905C180.207 117.495 179.61 117.427 179.2 117.752L177.715 118.93C177.305 119.255 177.237 119.851 177.563 120.261L209.023 159.822C209.349 160.231 209.946 160.3 210.356 159.974L211.841 158.797C212.25 158.472 212.319 157.875 211.993 157.466L180.532 117.905Z" fill="#FF3D00"/>
<path fill-rule="evenodd" clip-rule="evenodd" d="M190.911 110.047C190.6 109.627 190.006 109.538 189.585 109.848L188.06 110.973C187.639 111.284 187.55 111.877 187.861 112.298L217.913 152.937C218.224 153.357 218.818 153.446 219.239 153.136L220.764 152.011C221.185 151.7 221.275 151.107 220.964 150.686L190.911 110.047Z" fill="#FF3D00"/>
<path fill-rule="evenodd" clip-rule="evenodd" d="M201.56 102.558C201.264 102.127 200.673 102.017 200.242 102.312L198.678 103.384C198.246 103.679 198.136 104.269 198.432 104.7L227.039 146.366C227.335 146.797 227.926 146.907 228.358 146.612L229.922 145.541C230.353 145.245 230.463 144.655 230.167 144.224L201.56 102.558Z" fill="#FF3D00"/>
<path fill-rule="evenodd" clip-rule="evenodd" d="M212.464 95.4459C212.184 95.0048 211.597 94.8742 211.155 95.1545L209.555 96.1701C209.113 96.4504 208.982 97.0361 209.263 97.4772L236.39 140.12C236.671 140.561 237.257 140.692 237.699 140.412L239.299 139.396C239.741 139.116 239.872 138.53 239.591 138.089L212.464 95.4459Z" fill="#FF3D00"/>
<path fill-rule="evenodd" clip-rule="evenodd" d="M223.614 88.7204C223.349 88.2697 222.767 88.1186 222.316 88.3834L220.681 89.3422C220.23 89.607 220.078 90.1876 220.343 90.6385L245.956 134.205C246.221 134.656 246.803 134.807 247.254 134.542L248.889 133.583C249.34 133.319 249.492 132.738 249.227 132.287L223.614 88.7204Z" fill="#FF3D00"/>
<path fill-rule="evenodd" clip-rule="evenodd" d="M234.99 82.39C234.741 81.9303 234.165 81.7589 233.704 82.0077L232.037 82.9088C231.576 83.1574 231.405 83.7325 231.654 84.1922L255.721 128.629C255.97 129.089 256.546 129.26 257.006 129.012L258.674 128.11C259.135 127.862 259.306 127.287 259.057 126.827L234.99 82.39Z" fill="#FF3D00"/>
<path fill-rule="evenodd" clip-rule="evenodd" d="M246.582 76.4617C246.349 75.9934 245.78 75.802 245.311 76.0344L243.613 76.8767C243.144 77.1091 242.952 77.6777 243.185 78.146L265.677 123.399C265.91 123.867 266.479 124.058 266.948 123.826L268.647 122.984C269.115 122.751 269.307 122.182 269.074 121.714L246.582 76.4617Z" fill="#FF3D00"/>
<path fill-rule="evenodd" clip-rule="evenodd" d="M258.376 70.9428C258.159 70.4667 257.597 70.2554 257.12 70.4715L255.394 71.2536C254.917 71.4694 254.706 72.031 254.922 72.5071L275.811 118.52C276.027 118.996 276.59 119.207 277.066 118.991L278.794 118.209C279.27 117.993 279.481 117.431 279.265 116.955L258.376 70.9428Z" fill="#FF3D00"/>
<path fill-rule="evenodd" clip-rule="evenodd" d="M270.356 65.8405C270.157 65.3573 269.602 65.1264 269.118 65.3254L267.365 66.0467C266.881 66.2457 266.65 66.7996 266.849 67.2828L286.111 113.999C286.31 114.482 286.865 114.713 287.349 114.514L289.102 113.793C289.586 113.594 289.817 113.04 289.618 112.556L270.356 65.8405Z" fill="#FF3D00"/>
<path fill-rule="evenodd" clip-rule="evenodd" d="M282.508 61.1605C282.326 60.6706 281.78 60.4204 281.289 60.6024L279.512 61.2617C279.021 61.4437 278.771 61.9892 278.953 62.4791L296.562 109.841C296.745 110.331 297.291 110.581 297.781 110.399L299.559 109.74C300.049 109.558 300.3 109.012 300.118 108.522L282.508 61.1605Z" fill="#FF3D00"/>
<path fill-rule="evenodd" clip-rule="evenodd" d="M294.817 56.9095C294.652 56.4136 294.115 56.1445 293.618 56.3091L291.818 56.9058C291.322 57.0704 291.053 57.6068 291.217 58.1027L307.153 106.052C307.318 106.548 307.855 106.817 308.351 106.653L310.151 106.056C310.648 105.891 310.917 105.355 310.752 104.859L294.817 56.9095Z" fill="#FF3D00"/>
<path fill-rule="evenodd" clip-rule="evenodd" d="M307.269 53.0917C307.121 52.5902 306.594 52.3026 306.092 52.4496L304.272 52.9829C303.77 53.1302 303.482 53.6568 303.629 54.1582L317.872 102.636C318.019 103.138 318.546 103.426 319.048 103.278L320.868 102.745C321.37 102.598 321.658 102.071 321.511 101.57L307.269 53.0917Z" fill="#FF3D00"/>
<path fill-rule="evenodd" clip-rule="evenodd" d="M319.845 49.7135C319.715 49.2071 319.199 48.9012 318.692 49.0306L316.854 49.4999C316.348 49.6293 316.041 50.1455 316.171 50.6519L328.702 99.599C328.832 100.105 329.349 100.411 329.856 100.282L331.693 99.8127C332.2 99.6833 332.506 99.167 332.377 98.6606L319.845 49.7135Z" fill="#FF3D00"/>
<path fill-rule="evenodd" clip-rule="evenodd" d="M332.533 46.7771C332.421 46.2664 331.915 45.9425 331.404 46.0543L329.551 46.4587C329.04 46.5705 328.716 47.0756 328.828 47.5862L339.633 96.942C339.745 97.4527 340.25 97.7766 340.762 97.665L342.614 97.2604C343.125 97.1486 343.45 96.6435 343.338 96.1331L332.533 46.7771Z" fill="#FF3D00"/>
<path fill-rule="evenodd" clip-rule="evenodd" d="M345.315 44.2863C345.221 43.772 344.727 43.4307 344.212 43.5242L342.346 43.8637C341.831 43.9575 341.49 44.4509 341.583 44.9651L350.649 94.6691C350.743 95.1833 351.237 95.5248 351.752 95.431L353.617 95.0915C354.132 94.998 354.474 94.5045 354.38 93.9902L345.315 44.2863Z" fill="#FF3D00"/>
<path fill-rule="evenodd" clip-rule="evenodd" d="M358.178 42.2458C358.102 41.7286 357.62 41.37 357.103 41.4456L355.226 41.7196C354.708 41.7951 354.349 42.2763 354.425 42.7935L361.74 92.7844C361.816 93.3016 362.298 93.6601 362.815 93.5846L364.692 93.3106C365.21 93.2351 365.568 92.7539 365.493 92.2367L358.178 42.2458Z" fill="#FF3D00"/>
<path fill-rule="evenodd" clip-rule="evenodd" d="M371.104 40.6565C371.046 40.137 370.577 39.7619 370.057 39.8193L368.172 40.0273C367.652 40.0846 367.276 40.5531 367.334 41.0725L372.889 91.2889C372.947 91.8084 373.416 92.1837 373.936 92.1261L375.821 91.9181C376.341 91.8608 376.716 91.3925 376.659 90.8729L371.104 40.6565Z" fill="#FF3D00"/>
<path fill-rule="evenodd" clip-rule="evenodd" d="M384.078 39.5205C384.038 38.9994 383.583 38.6081 383.061 38.6472L381.17 38.7891C380.648 38.8282 380.257 39.2832 380.296 39.8043L384.084 90.1844C384.124 90.7055 384.579 91.097 385.101 91.0577L386.992 90.916C387.514 90.8767 387.905 90.4219 387.866 89.9007L384.078 39.5205Z" fill="#FF3D00"/>
<path fill-rule="evenodd" clip-rule="evenodd" d="M397.083 38.8407C397.062 38.3186 396.621 37.9115 396.098 37.9324L394.203 38.008C393.68 38.0286 393.273 38.4697 393.294 38.9918L395.311 89.4737C395.332 89.996 395.774 90.4031 396.297 90.3822L398.191 90.3066C398.714 90.2858 399.122 89.8449 399.101 89.3226L397.083 38.8407Z" fill="#FF3D00"/>
<path fill-rule="evenodd" clip-rule="evenodd" d="M321.75 141.188C173.384 189.987 92.6213 349.673 141.361 497.858C190.067 645.943 349.984 726.578 498.25 677.812C646.616 629.013 727.379 469.327 678.64 321.142L650.804 330.298C694.493 463.127 622.098 606.268 489.106 650.01C356.203 693.723 212.856 621.444 169.196 488.703C125.507 355.873 197.901 212.732 330.894 168.99L321.749 141.188L321.75 141.188Z" fill="#FF3D00"/>
<path fill-rule="evenodd" clip-rule="evenodd" d="M335.365 182.584C209.89 223.854 141.587 358.904 182.807 484.227C223.999 609.465 359.243 677.66 484.635 636.417C610.111 595.147 678.414 460.098 637.194 334.775L628.084 337.771C667.651 458.068 602.087 587.704 481.642 627.319C361.279 666.908 231.456 601.448 191.916 481.231C152.349 360.933 217.913 231.298 338.358 191.683L335.365 182.584L335.365 182.584Z" fill="#FF3D00"/>
<path fill-rule="evenodd" clip-rule="evenodd" d="M669.326 324.206C622.276 181.159 468.032 103.384 324.81 150.491C181.684 197.566 103.657 351.843 150.675 494.795C197.724 637.841 351.969 715.616 495.191 668.509L491.775 658.123C354.296 703.341 206.237 628.685 161.074 491.374C115.941 354.156 190.84 206.065 328.226 160.877C465.704 115.66 613.764 190.315 658.927 327.626L669.326 324.206L669.326 324.206Z" fill="#FF3D00"/>
</g>
</svg>
