<svg width="227" height="227" viewBox="0 0 227 227" fill="none" xmlns="http://www.w3.org/2000/svg">
<g filter="url(#filter0_d_19_1929)">
<rect x="9" y="3" width="213" height="213" rx="31" fill="black"/>
</g>
<path d="M41.652 45H38.572L31.598 34.462V45H28.518V29.622H31.598L38.572 40.182V29.622H41.652V45ZM56.0257 38.642C56.0257 39.082 55.9964 39.478 55.9377 39.83H47.0277C47.1011 40.71 47.4091 41.3993 47.9517 41.898C48.4944 42.3967 49.1617 42.646 49.9537 42.646C51.0977 42.646 51.9117 42.1547 52.3957 41.172H55.7177C55.3657 42.3453 54.6911 43.3133 53.6937 44.076C52.6964 44.824 51.4717 45.198 50.0197 45.198C48.8464 45.198 47.7904 44.9413 46.8517 44.428C45.9277 43.9 45.2017 43.1593 44.6737 42.206C44.1604 41.2527 43.9037 40.1527 43.9037 38.906C43.9037 37.6447 44.1604 36.5373 44.6737 35.584C45.1871 34.6307 45.9057 33.8973 46.8297 33.384C47.7537 32.8707 48.8171 32.614 50.0197 32.614C51.1784 32.614 52.2124 32.8633 53.1217 33.362C54.0457 33.8607 54.7571 34.572 55.2557 35.496C55.7691 36.4053 56.0257 37.454 56.0257 38.642ZM52.8357 37.762C52.8211 36.97 52.5351 36.3393 51.9777 35.87C51.4204 35.386 50.7384 35.144 49.9317 35.144C49.1691 35.144 48.5237 35.3787 47.9957 35.848C47.4824 36.3027 47.1671 36.9407 47.0497 37.762H52.8357ZM75.1699 32.812L71.6059 45H68.2839L66.0619 36.486L63.8399 45H60.4959L56.9099 32.812H60.0339L62.1899 42.096L64.5219 32.812H67.7779L70.0659 42.074L72.2219 32.812H75.1699ZM81.3305 37.3C81.3305 35.7893 81.6679 34.44 82.3425 33.252C83.0319 32.0493 83.9632 31.118 85.1365 30.458C86.3245 29.7833 87.6519 29.446 89.1185 29.446C90.8345 29.446 92.3379 29.886 93.6285 30.766C94.9192 31.646 95.8212 32.8633 96.3345 34.418H92.7925C92.4405 33.6847 91.9419 33.1347 91.2965 32.768C90.6659 32.4013 89.9325 32.218 89.0965 32.218C88.2019 32.218 87.4025 32.4307 86.6985 32.856C86.0092 33.2667 85.4665 33.8533 85.0705 34.616C84.6892 35.3787 84.4985 36.2733 84.4985 37.3C84.4985 38.312 84.6892 39.2067 85.0705 39.984C85.4665 40.7467 86.0092 41.3407 86.6985 41.766C87.4025 42.1767 88.2019 42.382 89.0965 42.382C89.9325 42.382 90.6659 42.1987 91.2965 41.832C91.9419 41.4507 92.4405 40.8933 92.7925 40.16H96.3345C95.8212 41.7293 94.9192 42.954 93.6285 43.834C92.3525 44.6993 90.8492 45.132 89.1185 45.132C87.6519 45.132 86.3245 44.802 85.1365 44.142C83.9632 43.4673 83.0319 42.536 82.3425 41.348C81.6679 40.16 81.3305 38.8107 81.3305 37.3ZM104.377 45.198C103.204 45.198 102.148 44.9413 101.209 44.428C100.271 43.9 99.5299 43.1593 98.9873 42.206C98.4593 41.2527 98.1953 40.1527 98.1953 38.906C98.1953 37.6593 98.4666 36.5593 99.0093 35.606C99.5666 34.6527 100.322 33.9193 101.275 33.406C102.229 32.878 103.292 32.614 104.465 32.614C105.639 32.614 106.702 32.878 107.655 33.406C108.609 33.9193 109.357 34.6527 109.899 35.606C110.457 36.5593 110.735 37.6593 110.735 38.906C110.735 40.1527 110.449 41.2527 109.877 42.206C109.32 43.1593 108.557 43.9 107.589 44.428C106.636 44.9413 105.565 45.198 104.377 45.198ZM104.377 42.514C104.935 42.514 105.455 42.382 105.939 42.118C106.438 41.8393 106.834 41.4287 107.127 40.886C107.421 40.3433 107.567 39.6833 107.567 38.906C107.567 37.7473 107.259 36.86 106.643 36.244C106.042 35.6133 105.301 35.298 104.421 35.298C103.541 35.298 102.801 35.6133 102.199 36.244C101.613 36.86 101.319 37.7473 101.319 38.906C101.319 40.0647 101.605 40.9593 102.177 41.59C102.764 42.206 103.497 42.514 104.377 42.514ZM124.501 32.812V45H121.399V43.46C121.003 43.988 120.482 44.406 119.837 44.714C119.206 45.0073 118.517 45.154 117.769 45.154C116.815 45.154 115.972 44.956 115.239 44.56C114.505 44.1493 113.926 43.5553 113.501 42.778C113.09 41.986 112.885 41.0473 112.885 39.962V32.812H115.965V39.522C115.965 40.49 116.207 41.238 116.691 41.766C117.175 42.2793 117.835 42.536 118.671 42.536C119.521 42.536 120.189 42.2793 120.673 41.766C121.157 41.238 121.399 40.49 121.399 39.522V32.812H124.501ZM130.619 34.704C131.015 34.0587 131.529 33.5527 132.159 33.186C132.805 32.8193 133.538 32.636 134.359 32.636V35.87H133.545C132.577 35.87 131.844 36.0973 131.345 36.552C130.861 37.0067 130.619 37.7987 130.619 38.928V45H127.539V32.812H130.619V34.704ZM141.098 45.198C140.101 45.198 139.206 45.022 138.414 44.67C137.622 44.3033 136.991 43.812 136.522 43.196C136.067 42.58 135.818 41.898 135.774 41.15H138.876C138.935 41.6193 139.162 42.008 139.558 42.316C139.969 42.624 140.475 42.778 141.076 42.778C141.663 42.778 142.117 42.6607 142.44 42.426C142.777 42.1913 142.946 41.8907 142.946 41.524C142.946 41.128 142.741 40.8347 142.33 40.644C141.934 40.4387 141.296 40.2187 140.416 39.984C139.507 39.764 138.759 39.5367 138.172 39.302C137.6 39.0673 137.101 38.708 136.676 38.224C136.265 37.74 136.06 37.0873 136.06 36.266C136.06 35.5913 136.251 34.9753 136.632 34.418C137.028 33.8607 137.585 33.4207 138.304 33.098C139.037 32.7753 139.895 32.614 140.878 32.614C142.33 32.614 143.489 32.9807 144.354 33.714C145.219 34.4327 145.696 35.408 145.784 36.64H142.836C142.792 36.156 142.587 35.7747 142.22 35.496C141.868 35.2027 141.391 35.056 140.79 35.056C140.233 35.056 139.8 35.1587 139.492 35.364C139.199 35.5693 139.052 35.8553 139.052 36.222C139.052 36.6327 139.257 36.948 139.668 37.168C140.079 37.3733 140.717 37.586 141.582 37.806C142.462 38.026 143.188 38.2533 143.76 38.488C144.332 38.7227 144.823 39.0893 145.234 39.588C145.659 40.072 145.879 40.7173 145.894 41.524C145.894 42.228 145.696 42.8587 145.3 43.416C144.919 43.9733 144.361 44.4133 143.628 44.736C142.909 45.044 142.066 45.198 141.098 45.198ZM159.752 38.642C159.752 39.082 159.723 39.478 159.664 39.83H150.754C150.828 40.71 151.136 41.3993 151.678 41.898C152.221 42.3967 152.888 42.646 153.68 42.646C154.824 42.646 155.638 42.1547 156.122 41.172H159.444C159.092 42.3453 158.418 43.3133 157.42 44.076C156.423 44.824 155.198 45.198 153.746 45.198C152.573 45.198 151.517 44.9413 150.578 44.428C149.654 43.9 148.928 43.1593 148.4 42.206C147.887 41.2527 147.63 40.1527 147.63 38.906C147.63 37.6447 147.887 36.5373 148.4 35.584C148.914 34.6307 149.632 33.8973 150.556 33.384C151.48 32.8707 152.544 32.614 153.746 32.614C154.905 32.614 155.939 32.8633 156.848 33.362C157.772 33.8607 158.484 34.572 158.982 35.496C159.496 36.4053 159.752 37.454 159.752 38.642ZM156.562 37.762C156.548 36.97 156.262 36.3393 155.704 35.87C155.147 35.386 154.465 35.144 153.658 35.144C152.896 35.144 152.25 35.3787 151.722 35.848C151.209 36.3027 150.894 36.9407 150.776 37.762H156.562ZM166.664 45.198C165.667 45.198 164.772 45.022 163.98 44.67C163.188 44.3033 162.558 43.812 162.088 43.196C161.634 42.58 161.384 41.898 161.34 41.15H164.442C164.501 41.6193 164.728 42.008 165.124 42.316C165.535 42.624 166.041 42.778 166.642 42.778C167.229 42.778 167.684 42.6607 168.006 42.426C168.344 42.1913 168.512 41.8907 168.512 41.524C168.512 41.128 168.307 40.8347 167.896 40.644C167.5 40.4387 166.862 40.2187 165.982 39.984C165.073 39.764 164.325 39.5367 163.738 39.302C163.166 39.0673 162.668 38.708 162.242 38.224C161.832 37.74 161.626 37.0873 161.626 36.266C161.626 35.5913 161.817 34.9753 162.198 34.418C162.594 33.8607 163.152 33.4207 163.87 33.098C164.604 32.7753 165.462 32.614 166.444 32.614C167.896 32.614 169.055 32.9807 169.92 33.714C170.786 34.4327 171.262 35.408 171.35 36.64H168.402C168.358 36.156 168.153 35.7747 167.786 35.496C167.434 35.2027 166.958 35.056 166.356 35.056C165.799 35.056 165.366 35.1587 165.058 35.364C164.765 35.5693 164.618 35.8553 164.618 36.222C164.618 36.6327 164.824 36.948 165.234 37.168C165.645 37.3733 166.283 37.586 167.148 37.806C168.028 38.026 168.754 38.2533 169.326 38.488C169.898 38.7227 170.39 39.0893 170.8 39.588C171.226 40.072 171.446 40.7173 171.46 41.524C171.46 42.228 171.262 42.8587 170.866 43.416C170.485 43.9733 169.928 44.4133 169.194 44.736C168.476 45.044 167.632 45.198 166.664 45.198Z" fill="white"/>
<path fill-rule="evenodd" clip-rule="evenodd" d="M23 71C23 69.8954 23.8954 69 25 69H42C43.1046 69 44 69.8954 44 71C44 72.1046 43.1046 73 42 73H25C23.8954 73 23 72.1046 23 71Z" fill="#9FFA00"/>
<path d="M56.936 68.06C56.72 67.644 56.42 67.332 56.036 67.124C55.652 66.908 55.208 66.8 54.704 66.8C54.152 66.8 53.66 66.924 53.228 67.172C52.796 67.42 52.456 67.772 52.208 68.228C51.968 68.684 51.848 69.212 51.848 69.812C51.848 70.412 51.968 70.944 52.208 71.408C52.456 71.864 52.796 72.216 53.228 72.464C53.66 72.712 54.152 72.836 54.704 72.836C55.448 72.836 56.052 72.628 56.516 72.212C56.98 71.796 57.264 71.232 57.368 70.52H54.236V69.428H58.832V70.496C58.744 71.144 58.512 71.74 58.136 72.284C57.768 72.828 57.284 73.264 56.684 73.592C56.092 73.912 55.432 74.072 54.704 74.072C53.92 74.072 53.204 73.892 52.556 73.532C51.908 73.164 51.392 72.656 51.008 72.008C50.632 71.36 50.444 70.628 50.444 69.812C50.444 68.996 50.632 68.264 51.008 67.616C51.392 66.968 51.908 66.464 52.556 66.104C53.212 65.736 53.928 65.552 54.704 65.552C55.592 65.552 56.38 65.772 57.068 66.212C57.764 66.644 58.268 67.26 58.58 68.06H56.936ZM61.5493 68.348C61.7493 68.012 62.0133 67.752 62.3413 67.568C62.6773 67.376 63.0733 67.28 63.5293 67.28V68.696H63.1813C62.6453 68.696 62.2373 68.832 61.9573 69.104C61.6853 69.376 61.5493 69.848 61.5493 70.52V74H60.1813V67.388H61.5493V68.348ZM64.3307 70.664C64.3307 70 64.4667 69.412 64.7387 68.9C65.0187 68.388 65.3947 67.992 65.8667 67.712C66.3467 67.424 66.8747 67.28 67.4507 67.28C67.9707 67.28 68.4227 67.384 68.8067 67.592C69.1987 67.792 69.5107 68.044 69.7427 68.348V67.388H71.1227V74H69.7427V73.016C69.5107 73.328 69.1947 73.588 68.7947 73.796C68.3947 74.004 67.9387 74.108 67.4267 74.108C66.8587 74.108 66.3387 73.964 65.8667 73.676C65.3947 73.38 65.0187 72.972 64.7387 72.452C64.4667 71.924 64.3307 71.328 64.3307 70.664ZM69.7427 70.688C69.7427 70.232 69.6467 69.836 69.4547 69.5C69.2707 69.164 69.0267 68.908 68.7227 68.732C68.4187 68.556 68.0907 68.468 67.7387 68.468C67.3867 68.468 67.0587 68.556 66.7547 68.732C66.4507 68.9 66.2027 69.152 66.0107 69.488C65.8267 69.816 65.7347 70.208 65.7347 70.664C65.7347 71.12 65.8267 71.52 66.0107 71.864C66.2027 72.208 66.4507 72.472 66.7547 72.656C67.0667 72.832 67.3947 72.92 67.7387 72.92C68.0907 72.92 68.4187 72.832 68.7227 72.656C69.0267 72.48 69.2707 72.224 69.4547 71.888C69.6467 71.544 69.7427 71.144 69.7427 70.688ZM74.2875 68.36C74.5195 68.056 74.8355 67.8 75.2355 67.592C75.6355 67.384 76.0875 67.28 76.5915 67.28C77.1675 67.28 77.6915 67.424 78.1635 67.712C78.6435 67.992 79.0195 68.388 79.2915 68.9C79.5635 69.412 79.6995 70 79.6995 70.664C79.6995 71.328 79.5635 71.924 79.2915 72.452C79.0195 72.972 78.6435 73.38 78.1635 73.676C77.6915 73.964 77.1675 74.108 76.5915 74.108C76.0875 74.108 75.6395 74.008 75.2475 73.808C74.8555 73.6 74.5355 73.344 74.2875 73.04V77.144H72.9195V67.388H74.2875V68.36ZM78.3075 70.664C78.3075 70.208 78.2115 69.816 78.0195 69.488C77.8355 69.152 77.5875 68.9 77.2755 68.732C76.9715 68.556 76.6435 68.468 76.2915 68.468C75.9475 68.468 75.6195 68.556 75.3075 68.732C75.0035 68.908 74.7555 69.164 74.5635 69.5C74.3795 69.836 74.2875 70.232 74.2875 70.688C74.2875 71.144 74.3795 71.544 74.5635 71.888C74.7555 72.224 75.0035 72.48 75.3075 72.656C75.6195 72.832 75.9475 72.92 76.2915 72.92C76.6435 72.92 76.9715 72.832 77.2755 72.656C77.5875 72.472 77.8355 72.208 78.0195 71.864C78.2115 71.52 78.3075 71.12 78.3075 70.664ZM84.4723 67.28C84.9763 67.28 85.4243 67.388 85.8163 67.604C86.2163 67.82 86.5283 68.14 86.7523 68.564C86.9843 68.988 87.1003 69.5 87.1003 70.1V74H85.7443V70.304C85.7443 69.712 85.5963 69.26 85.3003 68.948C85.0043 68.628 84.6003 68.468 84.0883 68.468C83.5763 68.468 83.1683 68.628 82.8643 68.948C82.5683 69.26 82.4203 69.712 82.4203 70.304V74H81.0523V65.12H82.4203V68.156C82.6523 67.876 82.9443 67.66 83.2963 67.508C83.6563 67.356 84.0483 67.28 84.4723 67.28ZM89.5413 66.512C89.2933 66.512 89.0853 66.428 88.9173 66.26C88.7493 66.092 88.6653 65.884 88.6653 65.636C88.6653 65.388 88.7493 65.18 88.9173 65.012C89.0853 64.844 89.2933 64.76 89.5413 64.76C89.7813 64.76 89.9853 64.844 90.1533 65.012C90.3213 65.18 90.4053 65.388 90.4053 65.636C90.4053 65.884 90.3213 66.092 90.1533 66.26C89.9853 66.428 89.7813 66.512 89.5413 66.512ZM90.2133 67.388V74H88.8453V67.388H90.2133ZM91.5534 70.688C91.5534 70.008 91.6894 69.412 91.9614 68.9C92.2414 68.38 92.6254 67.98 93.1134 67.7C93.6014 67.42 94.1614 67.28 94.7934 67.28C95.5934 67.28 96.2534 67.472 96.7734 67.856C97.3014 68.232 97.6574 68.772 97.8414 69.476H96.3654C96.2454 69.148 96.0534 68.892 95.7894 68.708C95.5254 68.524 95.1934 68.432 94.7934 68.432C94.2334 68.432 93.7854 68.632 93.4494 69.032C93.1214 69.424 92.9574 69.976 92.9574 70.688C92.9574 71.4 93.1214 71.956 93.4494 72.356C93.7854 72.756 94.2334 72.956 94.7934 72.956C95.5854 72.956 96.1094 72.608 96.3654 71.912H97.8414C97.6494 72.584 97.2894 73.12 96.7614 73.52C96.2334 73.912 95.5774 74.108 94.7934 74.108C94.1614 74.108 93.6014 73.968 93.1134 73.688C92.6254 73.4 92.2414 73 91.9614 72.488C91.6894 71.968 91.5534 71.368 91.5534 70.688ZM101.605 74.108C101.085 74.108 100.617 74.016 100.201 73.832C99.7927 73.64 99.4687 73.384 99.2287 73.064C98.9887 72.736 98.8607 72.372 98.8447 71.972H100.261C100.285 72.252 100.417 72.488 100.657 72.68C100.905 72.864 101.213 72.956 101.581 72.956C101.965 72.956 102.261 72.884 102.469 72.74C102.685 72.588 102.793 72.396 102.793 72.164C102.793 71.916 102.673 71.732 102.433 71.612C102.201 71.492 101.829 71.36 101.317 71.216C100.821 71.08 100.417 70.948 100.105 70.82C99.7927 70.692 99.5207 70.496 99.2887 70.232C99.0647 69.968 98.9527 69.62 98.9527 69.188C98.9527 68.836 99.0567 68.516 99.2647 68.228C99.4727 67.932 99.7687 67.7 100.153 67.532C100.545 67.364 100.993 67.28 101.497 67.28C102.249 67.28 102.853 67.472 103.309 67.856C103.773 68.232 104.021 68.748 104.053 69.404H102.685C102.661 69.108 102.541 68.872 102.325 68.696C102.109 68.52 101.817 68.432 101.449 68.432C101.089 68.432 100.813 68.5 100.621 68.636C100.429 68.772 100.333 68.952 100.333 69.176C100.333 69.352 100.397 69.5 100.525 69.62C100.653 69.74 100.809 69.836 100.993 69.908C101.177 69.972 101.449 70.056 101.809 70.16C102.289 70.288 102.681 70.42 102.985 70.556C103.297 70.684 103.565 70.876 103.789 71.132C104.013 71.388 104.129 71.728 104.137 72.152C104.137 72.528 104.033 72.864 103.825 73.16C103.617 73.456 103.321 73.688 102.937 73.856C102.561 74.024 102.117 74.108 101.605 74.108ZM111.456 65.66C112.344 65.66 113.12 65.832 113.784 66.176C114.456 66.512 114.972 67 115.332 67.64C115.7 68.272 115.884 69.012 115.884 69.86C115.884 70.708 115.7 71.444 115.332 72.068C114.972 72.692 114.456 73.172 113.784 73.508C113.12 73.836 112.344 74 111.456 74H108.732V65.66H111.456ZM111.456 72.884C112.432 72.884 113.18 72.62 113.7 72.092C114.22 71.564 114.48 70.82 114.48 69.86C114.48 68.892 114.22 68.136 113.7 67.592C113.18 67.048 112.432 66.776 111.456 66.776H110.1V72.884H111.456ZM123.3 70.532C123.3 70.78 123.284 71.004 123.252 71.204H118.2C118.24 71.732 118.436 72.156 118.788 72.476C119.14 72.796 119.572 72.956 120.084 72.956C120.82 72.956 121.34 72.648 121.644 72.032H123.12C122.92 72.64 122.556 73.14 122.028 73.532C121.508 73.916 120.86 74.108 120.084 74.108C119.452 74.108 118.884 73.968 118.38 73.688C117.884 73.4 117.492 73 117.204 72.488C116.924 71.968 116.784 71.368 116.784 70.688C116.784 70.008 116.92 69.412 117.192 68.9C117.472 68.38 117.86 67.98 118.356 67.7C118.86 67.42 119.436 67.28 120.084 67.28C120.708 67.28 121.264 67.416 121.752 67.688C122.24 67.96 122.62 68.344 122.892 68.84C123.164 69.328 123.3 69.892 123.3 70.532ZM121.872 70.1C121.864 69.596 121.684 69.192 121.332 68.888C120.98 68.584 120.544 68.432 120.024 68.432C119.552 68.432 119.148 68.584 118.812 68.888C118.476 69.184 118.276 69.588 118.212 70.1H121.872ZM127.046 74.108C126.526 74.108 126.058 74.016 125.642 73.832C125.234 73.64 124.91 73.384 124.67 73.064C124.43 72.736 124.302 72.372 124.286 71.972H125.702C125.726 72.252 125.858 72.488 126.098 72.68C126.346 72.864 126.654 72.956 127.022 72.956C127.406 72.956 127.702 72.884 127.91 72.74C128.126 72.588 128.234 72.396 128.234 72.164C128.234 71.916 128.114 71.732 127.874 71.612C127.642 71.492 127.27 71.36 126.758 71.216C126.262 71.08 125.858 70.948 125.546 70.82C125.234 70.692 124.962 70.496 124.73 70.232C124.506 69.968 124.394 69.62 124.394 69.188C124.394 68.836 124.498 68.516 124.706 68.228C124.914 67.932 125.21 67.7 125.594 67.532C125.986 67.364 126.434 67.28 126.938 67.28C127.69 67.28 128.294 67.472 128.75 67.856C129.214 68.232 129.462 68.748 129.494 69.404H128.126C128.102 69.108 127.982 68.872 127.766 68.696C127.55 68.52 127.258 68.432 126.89 68.432C126.53 68.432 126.254 68.5 126.062 68.636C125.87 68.772 125.774 68.952 125.774 69.176C125.774 69.352 125.838 69.5 125.966 69.62C126.094 69.74 126.25 69.836 126.434 69.908C126.618 69.972 126.89 70.056 127.25 70.16C127.73 70.288 128.122 70.42 128.426 70.556C128.738 70.684 129.006 70.876 129.23 71.132C129.454 71.388 129.57 71.728 129.578 72.152C129.578 72.528 129.474 72.864 129.266 73.16C129.058 73.456 128.762 73.688 128.378 73.856C128.002 74.024 127.558 74.108 127.046 74.108ZM131.752 66.512C131.504 66.512 131.296 66.428 131.128 66.26C130.96 66.092 130.876 65.884 130.876 65.636C130.876 65.388 130.96 65.18 131.128 65.012C131.296 64.844 131.504 64.76 131.752 64.76C131.992 64.76 132.196 64.844 132.364 65.012C132.532 65.18 132.616 65.388 132.616 65.636C132.616 65.884 132.532 66.092 132.364 66.26C132.196 66.428 131.992 66.512 131.752 66.512ZM132.424 67.388V74H131.056V67.388H132.424ZM136.884 67.28C137.396 67.28 137.848 67.384 138.24 67.592C138.64 67.792 138.952 68.044 139.176 68.348V67.388H140.556V74.108C140.556 74.716 140.428 75.256 140.172 75.728C139.916 76.208 139.544 76.584 139.056 76.856C138.576 77.128 138 77.264 137.328 77.264C136.432 77.264 135.688 77.052 135.096 76.628C134.504 76.212 134.168 75.644 134.088 74.924H135.444C135.548 75.268 135.768 75.544 136.104 75.752C136.448 75.968 136.856 76.076 137.328 76.076C137.88 76.076 138.324 75.908 138.66 75.572C139.004 75.236 139.176 74.748 139.176 74.108V73.004C138.944 73.316 138.628 73.58 138.228 73.796C137.836 74.004 137.388 74.108 136.884 74.108C136.308 74.108 135.78 73.964 135.3 73.676C134.828 73.38 134.452 72.972 134.172 72.452C133.9 71.924 133.764 71.328 133.764 70.664C133.764 70 133.9 69.412 134.172 68.9C134.452 68.388 134.828 67.992 135.3 67.712C135.78 67.424 136.308 67.28 136.884 67.28ZM139.176 70.688C139.176 70.232 139.08 69.836 138.888 69.5C138.704 69.164 138.46 68.908 138.156 68.732C137.852 68.556 137.524 68.468 137.172 68.468C136.82 68.468 136.492 68.556 136.188 68.732C135.884 68.9 135.636 69.152 135.444 69.488C135.26 69.816 135.168 70.208 135.168 70.664C135.168 71.12 135.26 71.52 135.444 71.864C135.636 72.208 135.884 72.472 136.188 72.656C136.5 72.832 136.828 72.92 137.172 72.92C137.524 72.92 137.852 72.832 138.156 72.656C138.46 72.48 138.704 72.224 138.888 71.888C139.08 71.544 139.176 71.144 139.176 70.688ZM145.689 67.28C146.209 67.28 146.673 67.388 147.081 67.604C147.497 67.82 147.821 68.14 148.053 68.564C148.285 68.988 148.401 69.5 148.401 70.1V74H147.045V70.304C147.045 69.712 146.897 69.26 146.601 68.948C146.305 68.628 145.901 68.468 145.389 68.468C144.877 68.468 144.469 68.628 144.165 68.948C143.869 69.26 143.721 69.712 143.721 70.304V74H142.353V67.388H143.721V68.144C143.945 67.872 144.229 67.66 144.573 67.508C144.925 67.356 145.297 67.28 145.689 67.28Z" fill="white"/>
<path fill-rule="evenodd" clip-rule="evenodd" d="M23 95C23 93.8954 23.8954 93 25 93H42C43.1046 93 44 93.8954 44 95C44 96.1046 43.1046 97 42 97H25C23.8954 97 23 96.1046 23 95Z" fill="#9FFA00"/>
<path d="M61.76 89.66L59.288 98H57.74L55.988 91.688L54.128 98L52.592 98.012L50.228 89.66H51.68L53.408 96.452L55.28 89.66H56.816L58.556 96.416L60.296 89.66H61.76ZM68.9483 94.532C68.9483 94.78 68.9323 95.004 68.9003 95.204H63.8483C63.8883 95.732 64.0843 96.156 64.4363 96.476C64.7883 96.796 65.2203 96.956 65.7323 96.956C66.4683 96.956 66.9883 96.648 67.2923 96.032H68.7683C68.5683 96.64 68.2043 97.14 67.6763 97.532C67.1563 97.916 66.5083 98.108 65.7323 98.108C65.1003 98.108 64.5323 97.968 64.0283 97.688C63.5323 97.4 63.1403 97 62.8523 96.488C62.5723 95.968 62.4323 95.368 62.4323 94.688C62.4323 94.008 62.5683 93.412 62.8403 92.9C63.1203 92.38 63.5083 91.98 64.0043 91.7C64.5083 91.42 65.0843 91.28 65.7323 91.28C66.3563 91.28 66.9123 91.416 67.4003 91.688C67.8883 91.96 68.2683 92.344 68.5403 92.84C68.8123 93.328 68.9483 93.892 68.9483 94.532ZM67.5203 94.1C67.5123 93.596 67.3323 93.192 66.9803 92.888C66.6283 92.584 66.1923 92.432 65.6723 92.432C65.2003 92.432 64.7963 92.584 64.4603 92.888C64.1243 93.184 63.9243 93.588 63.8603 94.1H67.5203ZM71.6625 92.372C71.8945 92.052 72.2105 91.792 72.6105 91.592C73.0185 91.384 73.4705 91.28 73.9665 91.28C74.5505 91.28 75.0785 91.42 75.5505 91.7C76.0225 91.98 76.3945 92.38 76.6665 92.9C76.9385 93.412 77.0745 94 77.0745 94.664C77.0745 95.328 76.9385 95.924 76.6665 96.452C76.3945 96.972 76.0185 97.38 75.5385 97.676C75.0665 97.964 74.5425 98.108 73.9665 98.108C73.4545 98.108 72.9985 98.008 72.5985 97.808C72.2065 97.608 71.8945 97.352 71.6625 97.04V98H70.2945V89.12H71.6625V92.372ZM75.6825 94.664C75.6825 94.208 75.5865 93.816 75.3945 93.488C75.2105 93.152 74.9625 92.9 74.6505 92.732C74.3465 92.556 74.0185 92.468 73.6665 92.468C73.3225 92.468 72.9945 92.556 72.6825 92.732C72.3785 92.908 72.1305 93.164 71.9385 93.5C71.7545 93.836 71.6625 94.232 71.6625 94.688C71.6625 95.144 71.7545 95.544 71.9385 95.888C72.1305 96.224 72.3785 96.48 72.6825 96.656C72.9945 96.832 73.3225 96.92 73.6665 96.92C74.0185 96.92 74.3465 96.832 74.6505 96.656C74.9625 96.472 75.2105 96.208 75.3945 95.864C75.5865 95.52 75.6825 95.12 75.6825 94.664ZM84.2685 89.66C85.1565 89.66 85.9325 89.832 86.5965 90.176C87.2685 90.512 87.7845 91 88.1445 91.64C88.5125 92.272 88.6965 93.012 88.6965 93.86C88.6965 94.708 88.5125 95.444 88.1445 96.068C87.7845 96.692 87.2685 97.172 86.5965 97.508C85.9325 97.836 85.1565 98 84.2685 98H81.5445V89.66H84.2685ZM84.2685 96.884C85.2445 96.884 85.9925 96.62 86.5125 96.092C87.0325 95.564 87.2925 94.82 87.2925 93.86C87.2925 92.892 87.0325 92.136 86.5125 91.592C85.9925 91.048 85.2445 90.776 84.2685 90.776H82.9125V96.884H84.2685ZM96.1123 94.532C96.1123 94.78 96.0963 95.004 96.0643 95.204H91.0123C91.0523 95.732 91.2483 96.156 91.6003 96.476C91.9523 96.796 92.3843 96.956 92.8963 96.956C93.6323 96.956 94.1523 96.648 94.4563 96.032H95.9323C95.7323 96.64 95.3683 97.14 94.8403 97.532C94.3203 97.916 93.6723 98.108 92.8963 98.108C92.2643 98.108 91.6963 97.968 91.1923 97.688C90.6963 97.4 90.3043 97 90.0163 96.488C89.7363 95.968 89.5963 95.368 89.5963 94.688C89.5963 94.008 89.7323 93.412 90.0043 92.9C90.2843 92.38 90.6723 91.98 91.1683 91.7C91.6723 91.42 92.2483 91.28 92.8963 91.28C93.5203 91.28 94.0763 91.416 94.5643 91.688C95.0523 91.96 95.4323 92.344 95.7043 92.84C95.9763 93.328 96.1123 93.892 96.1123 94.532ZM94.6843 94.1C94.6763 93.596 94.4963 93.192 94.1443 92.888C93.7923 92.584 93.3563 92.432 92.8363 92.432C92.3643 92.432 91.9603 92.584 91.6243 92.888C91.2883 93.184 91.0883 93.588 91.0243 94.1H94.6843ZM99.8586 98.108C99.3386 98.108 98.8706 98.016 98.4546 97.832C98.0466 97.64 97.7226 97.384 97.4826 97.064C97.2426 96.736 97.1146 96.372 97.0986 95.972H98.5146C98.5386 96.252 98.6706 96.488 98.9106 96.68C99.1586 96.864 99.4666 96.956 99.8346 96.956C100.219 96.956 100.515 96.884 100.723 96.74C100.939 96.588 101.047 96.396 101.047 96.164C101.047 95.916 100.927 95.732 100.687 95.612C100.455 95.492 100.083 95.36 99.5706 95.216C99.0746 95.08 98.6706 94.948 98.3586 94.82C98.0466 94.692 97.7746 94.496 97.5426 94.232C97.3186 93.968 97.2066 93.62 97.2066 93.188C97.2066 92.836 97.3106 92.516 97.5186 92.228C97.7266 91.932 98.0226 91.7 98.4066 91.532C98.7986 91.364 99.2466 91.28 99.7506 91.28C100.503 91.28 101.107 91.472 101.563 91.856C102.027 92.232 102.275 92.748 102.307 93.404H100.939C100.915 93.108 100.795 92.872 100.579 92.696C100.363 92.52 100.071 92.432 99.7026 92.432C99.3426 92.432 99.0666 92.5 98.8746 92.636C98.6826 92.772 98.5866 92.952 98.5866 93.176C98.5866 93.352 98.6506 93.5 98.7786 93.62C98.9066 93.74 99.0626 93.836 99.2466 93.908C99.4306 93.972 99.7026 94.056 100.063 94.16C100.543 94.288 100.935 94.42 101.239 94.556C101.551 94.684 101.819 94.876 102.043 95.132C102.267 95.388 102.383 95.728 102.391 96.152C102.391 96.528 102.287 96.864 102.079 97.16C101.871 97.456 101.575 97.688 101.191 97.856C100.815 98.024 100.371 98.108 99.8586 98.108ZM104.565 90.512C104.317 90.512 104.109 90.428 103.941 90.26C103.773 90.092 103.689 89.884 103.689 89.636C103.689 89.388 103.773 89.18 103.941 89.012C104.109 88.844 104.317 88.76 104.565 88.76C104.805 88.76 105.009 88.844 105.177 89.012C105.345 89.18 105.429 89.388 105.429 89.636C105.429 89.884 105.345 90.092 105.177 90.26C105.009 90.428 104.805 90.512 104.565 90.512ZM105.237 91.388V98H103.869V91.388H105.237ZM109.697 91.28C110.209 91.28 110.661 91.384 111.053 91.592C111.453 91.792 111.765 92.044 111.989 92.348V91.388H113.369V98.108C113.369 98.716 113.241 99.256 112.985 99.728C112.729 100.208 112.357 100.584 111.869 100.856C111.389 101.128 110.813 101.264 110.141 101.264C109.245 101.264 108.501 101.052 107.909 100.628C107.317 100.212 106.981 99.644 106.901 98.924H108.257C108.361 99.268 108.581 99.544 108.917 99.752C109.261 99.968 109.669 100.076 110.141 100.076C110.693 100.076 111.137 99.908 111.473 99.572C111.817 99.236 111.989 98.748 111.989 98.108V97.004C111.757 97.316 111.441 97.58 111.041 97.796C110.649 98.004 110.201 98.108 109.697 98.108C109.121 98.108 108.593 97.964 108.113 97.676C107.641 97.38 107.265 96.972 106.985 96.452C106.713 95.924 106.577 95.328 106.577 94.664C106.577 94 106.713 93.412 106.985 92.9C107.265 92.388 107.641 91.992 108.113 91.712C108.593 91.424 109.121 91.28 109.697 91.28ZM111.989 94.688C111.989 94.232 111.893 93.836 111.701 93.5C111.517 93.164 111.273 92.908 110.969 92.732C110.665 92.556 110.337 92.468 109.985 92.468C109.633 92.468 109.305 92.556 109.001 92.732C108.697 92.9 108.449 93.152 108.257 93.488C108.073 93.816 107.981 94.208 107.981 94.664C107.981 95.12 108.073 95.52 108.257 95.864C108.449 96.208 108.697 96.472 109.001 96.656C109.313 96.832 109.641 96.92 109.985 96.92C110.337 96.92 110.665 96.832 110.969 96.656C111.273 96.48 111.517 96.224 111.701 95.888C111.893 95.544 111.989 95.144 111.989 94.688ZM118.502 91.28C119.022 91.28 119.486 91.388 119.894 91.604C120.31 91.82 120.634 92.14 120.866 92.564C121.098 92.988 121.214 93.5 121.214 94.1V98H119.858V94.304C119.858 93.712 119.71 93.26 119.414 92.948C119.118 92.628 118.714 92.468 118.202 92.468C117.69 92.468 117.282 92.628 116.978 92.948C116.682 93.26 116.534 93.712 116.534 94.304V98H115.166V91.388H116.534V92.144C116.758 91.872 117.042 91.66 117.386 91.508C117.738 91.356 118.11 91.28 118.502 91.28Z" fill="white"/>
<path fill-rule="evenodd" clip-rule="evenodd" d="M23 119C23 117.895 23.8954 117 25 117H42C43.1046 117 44 117.895 44 119C44 120.105 43.1046 121 42 121H25C23.8954 121 23 120.105 23 119Z" fill="#9FFA00"/>
<path d="M52.256 113.66V118.976C52.256 119.608 52.42 120.084 52.748 120.404C53.084 120.724 53.548 120.884 54.14 120.884C54.74 120.884 55.204 120.724 55.532 120.404C55.868 120.084 56.036 119.608 56.036 118.976V113.66H57.404V118.952C57.404 119.632 57.256 120.208 56.96 120.68C56.664 121.152 56.268 121.504 55.772 121.736C55.276 121.968 54.728 122.084 54.128 122.084C53.528 122.084 52.98 121.968 52.484 121.736C51.996 121.504 51.608 121.152 51.32 120.68C51.032 120.208 50.888 119.632 50.888 118.952V113.66H52.256ZM59.8812 114.512C59.6332 114.512 59.4252 114.428 59.2572 114.26C59.0892 114.092 59.0052 113.884 59.0052 113.636C59.0052 113.388 59.0892 113.18 59.2572 113.012C59.4252 112.844 59.6332 112.76 59.8812 112.76C60.1212 112.76 60.3252 112.844 60.4932 113.012C60.6612 113.18 60.7452 113.388 60.7452 113.636C60.7452 113.884 60.6612 114.092 60.4932 114.26C60.3252 114.428 60.1212 114.512 59.8812 114.512ZM60.5532 115.388V122H59.1852V115.388H60.5532ZM66.7892 110.672L63.5252 124.1H62.1812L65.4332 110.672H66.7892ZM69.8693 113.66V118.976C69.8693 119.608 70.0333 120.084 70.3613 120.404C70.6973 120.724 71.1613 120.884 71.7533 120.884C72.3533 120.884 72.8173 120.724 73.1453 120.404C73.4813 120.084 73.6493 119.608 73.6493 118.976V113.66H75.0173V118.952C75.0173 119.632 74.8693 120.208 74.5733 120.68C74.2773 121.152 73.8813 121.504 73.3853 121.736C72.8893 121.968 72.3413 122.084 71.7413 122.084C71.1413 122.084 70.5933 121.968 70.0973 121.736C69.6093 121.504 69.2213 121.152 68.9333 120.68C68.6453 120.208 68.5013 119.632 68.5013 118.952V113.66H69.8693ZM79.6304 118.652L81.7664 122H80.2184L78.7904 119.756L77.4464 122H76.0184L78.1544 118.748L76.0184 115.388H77.5664L78.9944 117.632L80.3384 115.388H81.7664L79.6304 118.652ZM88.6279 113.66C89.5159 113.66 90.2919 113.832 90.9559 114.176C91.6279 114.512 92.1439 115 92.5039 115.64C92.8719 116.272 93.0559 117.012 93.0559 117.86C93.0559 118.708 92.8719 119.444 92.5039 120.068C92.1439 120.692 91.6279 121.172 90.9559 121.508C90.2919 121.836 89.5159 122 88.6279 122H85.9039V113.66H88.6279ZM88.6279 120.884C89.6039 120.884 90.3519 120.62 90.8719 120.092C91.3919 119.564 91.6519 118.82 91.6519 117.86C91.6519 116.892 91.3919 116.136 90.8719 115.592C90.3519 115.048 89.6039 114.776 88.6279 114.776H87.2719V120.884H88.6279ZM100.472 118.532C100.472 118.78 100.456 119.004 100.424 119.204H95.3717C95.4117 119.732 95.6077 120.156 95.9597 120.476C96.3117 120.796 96.7437 120.956 97.2557 120.956C97.9917 120.956 98.5117 120.648 98.8157 120.032H100.292C100.092 120.64 99.7277 121.14 99.1997 121.532C98.6797 121.916 98.0317 122.108 97.2557 122.108C96.6237 122.108 96.0557 121.968 95.5517 121.688C95.0557 121.4 94.6637 121 94.3757 120.488C94.0957 119.968 93.9557 119.368 93.9557 118.688C93.9557 118.008 94.0917 117.412 94.3637 116.9C94.6437 116.38 95.0317 115.98 95.5277 115.7C96.0317 115.42 96.6077 115.28 97.2557 115.28C97.8797 115.28 98.4357 115.416 98.9237 115.688C99.4117 115.96 99.7917 116.344 100.064 116.84C100.336 117.328 100.472 117.892 100.472 118.532ZM99.0437 118.1C99.0357 117.596 98.8557 117.192 98.5037 116.888C98.1517 116.584 97.7157 116.432 97.1957 116.432C96.7237 116.432 96.3197 116.584 95.9837 116.888C95.6477 117.184 95.4477 117.588 95.3837 118.1H99.0437ZM104.218 122.108C103.698 122.108 103.23 122.016 102.814 121.832C102.406 121.64 102.082 121.384 101.842 121.064C101.602 120.736 101.474 120.372 101.458 119.972H102.874C102.898 120.252 103.03 120.488 103.27 120.68C103.518 120.864 103.826 120.956 104.194 120.956C104.578 120.956 104.874 120.884 105.082 120.74C105.298 120.588 105.406 120.396 105.406 120.164C105.406 119.916 105.286 119.732 105.046 119.612C104.814 119.492 104.442 119.36 103.93 119.216C103.434 119.08 103.03 118.948 102.718 118.82C102.406 118.692 102.134 118.496 101.902 118.232C101.678 117.968 101.566 117.62 101.566 117.188C101.566 116.836 101.67 116.516 101.878 116.228C102.086 115.932 102.382 115.7 102.766 115.532C103.158 115.364 103.606 115.28 104.11 115.28C104.862 115.28 105.466 115.472 105.922 115.856C106.386 116.232 106.634 116.748 106.666 117.404H105.298C105.274 117.108 105.154 116.872 104.938 116.696C104.722 116.52 104.43 116.432 104.062 116.432C103.702 116.432 103.426 116.5 103.234 116.636C103.042 116.772 102.946 116.952 102.946 117.176C102.946 117.352 103.01 117.5 103.138 117.62C103.266 117.74 103.422 117.836 103.606 117.908C103.79 117.972 104.062 118.056 104.422 118.16C104.902 118.288 105.294 118.42 105.598 118.556C105.91 118.684 106.178 118.876 106.402 119.132C106.626 119.388 106.742 119.728 106.75 120.152C106.75 120.528 106.646 120.864 106.438 121.16C106.23 121.456 105.934 121.688 105.55 121.856C105.174 122.024 104.73 122.108 104.218 122.108ZM108.924 114.512C108.676 114.512 108.468 114.428 108.3 114.26C108.132 114.092 108.048 113.884 108.048 113.636C108.048 113.388 108.132 113.18 108.3 113.012C108.468 112.844 108.676 112.76 108.924 112.76C109.164 112.76 109.368 112.844 109.536 113.012C109.704 113.18 109.788 113.388 109.788 113.636C109.788 113.884 109.704 114.092 109.536 114.26C109.368 114.428 109.164 114.512 108.924 114.512ZM109.596 115.388V122H108.228V115.388H109.596ZM114.056 115.28C114.568 115.28 115.02 115.384 115.412 115.592C115.812 115.792 116.124 116.044 116.348 116.348V115.388H117.728V122.108C117.728 122.716 117.6 123.256 117.344 123.728C117.088 124.208 116.716 124.584 116.228 124.856C115.748 125.128 115.172 125.264 114.5 125.264C113.604 125.264 112.86 125.052 112.268 124.628C111.676 124.212 111.34 123.644 111.26 122.924H112.616C112.72 123.268 112.94 123.544 113.276 123.752C113.62 123.968 114.028 124.076 114.5 124.076C115.052 124.076 115.496 123.908 115.832 123.572C116.176 123.236 116.348 122.748 116.348 122.108V121.004C116.116 121.316 115.8 121.58 115.4 121.796C115.008 122.004 114.56 122.108 114.056 122.108C113.48 122.108 112.952 121.964 112.472 121.676C112 121.38 111.624 120.972 111.344 120.452C111.072 119.924 110.936 119.328 110.936 118.664C110.936 118 111.072 117.412 111.344 116.9C111.624 116.388 112 115.992 112.472 115.712C112.952 115.424 113.48 115.28 114.056 115.28ZM116.348 118.688C116.348 118.232 116.252 117.836 116.06 117.5C115.876 117.164 115.632 116.908 115.328 116.732C115.024 116.556 114.696 116.468 114.344 116.468C113.992 116.468 113.664 116.556 113.36 116.732C113.056 116.9 112.808 117.152 112.616 117.488C112.432 117.816 112.34 118.208 112.34 118.664C112.34 119.12 112.432 119.52 112.616 119.864C112.808 120.208 113.056 120.472 113.36 120.656C113.672 120.832 114 120.92 114.344 120.92C114.696 120.92 115.024 120.832 115.328 120.656C115.632 120.48 115.876 120.224 116.06 119.888C116.252 119.544 116.348 119.144 116.348 118.688ZM122.861 115.28C123.381 115.28 123.845 115.388 124.253 115.604C124.669 115.82 124.993 116.14 125.225 116.564C125.457 116.988 125.573 117.5 125.573 118.1V122H124.217V118.304C124.217 117.712 124.069 117.26 123.773 116.948C123.477 116.628 123.073 116.468 122.561 116.468C122.049 116.468 121.641 116.628 121.337 116.948C121.041 117.26 120.893 117.712 120.893 118.304V122H119.525V115.388H120.893V116.144C121.117 115.872 121.401 115.66 121.745 115.508C122.097 115.356 122.469 115.28 122.861 115.28Z" fill="white"/>
<path fill-rule="evenodd" clip-rule="evenodd" d="M23 143C23 141.895 23.8954 141 25 141H42C43.1046 141 44 141.895 44 143C44 144.105 43.1046 145 42 145H25C23.8954 145 23 144.105 23 143Z" fill="#9FFA00"/>
<path d="M61.76 137.66L59.288 146H57.74L55.988 139.688L54.128 146L52.592 146.012L50.228 137.66H51.68L53.408 144.452L55.28 137.66H56.816L58.556 144.416L60.296 137.66H61.76ZM68.9483 142.532C68.9483 142.78 68.9323 143.004 68.9003 143.204H63.8483C63.8883 143.732 64.0843 144.156 64.4363 144.476C64.7883 144.796 65.2203 144.956 65.7323 144.956C66.4683 144.956 66.9883 144.648 67.2923 144.032H68.7683C68.5683 144.64 68.2043 145.14 67.6763 145.532C67.1563 145.916 66.5083 146.108 65.7323 146.108C65.1003 146.108 64.5323 145.968 64.0283 145.688C63.5323 145.4 63.1403 145 62.8523 144.488C62.5723 143.968 62.4323 143.368 62.4323 142.688C62.4323 142.008 62.5683 141.412 62.8403 140.9C63.1203 140.38 63.5083 139.98 64.0043 139.7C64.5083 139.42 65.0843 139.28 65.7323 139.28C66.3563 139.28 66.9123 139.416 67.4003 139.688C67.8883 139.96 68.2683 140.344 68.5403 140.84C68.8123 141.328 68.9483 141.892 68.9483 142.532ZM67.5203 142.1C67.5123 141.596 67.3323 141.192 66.9803 140.888C66.6283 140.584 66.1923 140.432 65.6723 140.432C65.2003 140.432 64.7963 140.584 64.4603 140.888C64.1243 141.184 63.9243 141.588 63.8603 142.1H67.5203ZM71.6625 140.372C71.8945 140.052 72.2105 139.792 72.6105 139.592C73.0185 139.384 73.4705 139.28 73.9665 139.28C74.5505 139.28 75.0785 139.42 75.5505 139.7C76.0225 139.98 76.3945 140.38 76.6665 140.9C76.9385 141.412 77.0745 142 77.0745 142.664C77.0745 143.328 76.9385 143.924 76.6665 144.452C76.3945 144.972 76.0185 145.38 75.5385 145.676C75.0665 145.964 74.5425 146.108 73.9665 146.108C73.4545 146.108 72.9985 146.008 72.5985 145.808C72.2065 145.608 71.8945 145.352 71.6625 145.04V146H70.2945V137.12H71.6625V140.372ZM75.6825 142.664C75.6825 142.208 75.5865 141.816 75.3945 141.488C75.2105 141.152 74.9625 140.9 74.6505 140.732C74.3465 140.556 74.0185 140.468 73.6665 140.468C73.3225 140.468 72.9945 140.556 72.6825 140.732C72.3785 140.908 72.1305 141.164 71.9385 141.5C71.7545 141.836 71.6625 142.232 71.6625 142.688C71.6625 143.144 71.7545 143.544 71.9385 143.888C72.1305 144.224 72.3785 144.48 72.6825 144.656C72.9945 144.832 73.3225 144.92 73.6665 144.92C74.0185 144.92 74.3465 144.832 74.6505 144.656C74.9625 144.472 75.2105 144.208 75.3945 143.864C75.5865 143.52 75.6825 143.12 75.6825 142.664ZM81.0885 142.664C81.0885 142 81.2245 141.412 81.4965 140.9C81.7765 140.388 82.1525 139.992 82.6245 139.712C83.1045 139.424 83.6365 139.28 84.2205 139.28C84.6525 139.28 85.0765 139.376 85.4925 139.568C85.9165 139.752 86.2525 140 86.5005 140.312V137.12H87.8805V146H86.5005V145.004C86.2765 145.324 85.9645 145.588 85.5645 145.796C85.1725 146.004 84.7205 146.108 84.2085 146.108C83.6325 146.108 83.1045 145.964 82.6245 145.676C82.1525 145.38 81.7765 144.972 81.4965 144.452C81.2245 143.924 81.0885 143.328 81.0885 142.664ZM86.5005 142.688C86.5005 142.232 86.4045 141.836 86.2125 141.5C86.0285 141.164 85.7845 140.908 85.4805 140.732C85.1765 140.556 84.8485 140.468 84.4965 140.468C84.1445 140.468 83.8165 140.556 83.5125 140.732C83.2085 140.9 82.9605 141.152 82.7685 141.488C82.5845 141.816 82.4925 142.208 82.4925 142.664C82.4925 143.12 82.5845 143.52 82.7685 143.864C82.9605 144.208 83.2085 144.472 83.5125 144.656C83.8245 144.832 84.1525 144.92 84.4965 144.92C84.8485 144.92 85.1765 144.832 85.4805 144.656C85.7845 144.48 86.0285 144.224 86.2125 143.888C86.4045 143.544 86.5005 143.144 86.5005 142.688ZM95.7373 142.532C95.7373 142.78 95.7213 143.004 95.6893 143.204H90.6373C90.6773 143.732 90.8733 144.156 91.2253 144.476C91.5773 144.796 92.0093 144.956 92.5213 144.956C93.2573 144.956 93.7773 144.648 94.0813 144.032H95.5573C95.3573 144.64 94.9933 145.14 94.4653 145.532C93.9453 145.916 93.2973 146.108 92.5213 146.108C91.8893 146.108 91.3213 145.968 90.8173 145.688C90.3213 145.4 89.9293 145 89.6413 144.488C89.3613 143.968 89.2213 143.368 89.2213 142.688C89.2213 142.008 89.3573 141.412 89.6293 140.9C89.9093 140.38 90.2973 139.98 90.7933 139.7C91.2973 139.42 91.8733 139.28 92.5213 139.28C93.1453 139.28 93.7013 139.416 94.1893 139.688C94.6773 139.96 95.0573 140.344 95.3293 140.84C95.6013 141.328 95.7373 141.892 95.7373 142.532ZM94.3093 142.1C94.3013 141.596 94.1213 141.192 93.7693 140.888C93.4173 140.584 92.9813 140.432 92.4613 140.432C91.9893 140.432 91.5853 140.584 91.2493 140.888C90.9133 141.184 90.7133 141.588 90.6493 142.1H94.3093ZM99.6396 144.776L101.512 139.388H102.964L100.444 146H98.8116L96.3036 139.388H97.7676L99.6396 144.776ZM105.366 137.12V146H103.998V137.12H105.366ZM110.03 146.108C109.406 146.108 108.842 145.968 108.338 145.688C107.834 145.4 107.438 145 107.15 144.488C106.862 143.968 106.718 143.368 106.718 142.688C106.718 142.016 106.866 141.42 107.162 140.9C107.458 140.38 107.862 139.98 108.374 139.7C108.886 139.42 109.458 139.28 110.09 139.28C110.722 139.28 111.294 139.42 111.806 139.7C112.318 139.98 112.722 140.38 113.018 140.9C113.314 141.42 113.462 142.016 113.462 142.688C113.462 143.36 113.31 143.956 113.006 144.476C112.702 144.996 112.286 145.4 111.758 145.688C111.238 145.968 110.662 146.108 110.03 146.108ZM110.03 144.92C110.382 144.92 110.71 144.836 111.014 144.668C111.326 144.5 111.578 144.248 111.77 143.912C111.962 143.576 112.058 143.168 112.058 142.688C112.058 142.208 111.966 141.804 111.782 141.476C111.598 141.14 111.354 140.888 111.05 140.72C110.746 140.552 110.418 140.468 110.066 140.468C109.714 140.468 109.386 140.552 109.082 140.72C108.786 140.888 108.55 141.14 108.374 141.476C108.198 141.804 108.11 142.208 108.11 142.688C108.11 143.4 108.29 143.952 108.65 144.344C109.018 144.728 109.478 144.92 110.03 144.92ZM116.182 140.36C116.414 140.056 116.73 139.8 117.13 139.592C117.53 139.384 117.982 139.28 118.486 139.28C119.062 139.28 119.586 139.424 120.058 139.712C120.538 139.992 120.914 140.388 121.186 140.9C121.458 141.412 121.594 142 121.594 142.664C121.594 143.328 121.458 143.924 121.186 144.452C120.914 144.972 120.538 145.38 120.058 145.676C119.586 145.964 119.062 146.108 118.486 146.108C117.982 146.108 117.534 146.008 117.142 145.808C116.75 145.6 116.43 145.344 116.182 145.04V149.144H114.814V139.388H116.182V140.36ZM120.202 142.664C120.202 142.208 120.106 141.816 119.914 141.488C119.73 141.152 119.482 140.9 119.17 140.732C118.866 140.556 118.538 140.468 118.186 140.468C117.842 140.468 117.514 140.556 117.202 140.732C116.898 140.908 116.65 141.164 116.458 141.5C116.274 141.836 116.182 142.232 116.182 142.688C116.182 143.144 116.274 143.544 116.458 143.888C116.65 144.224 116.898 144.48 117.202 144.656C117.514 144.832 117.842 144.92 118.186 144.92C118.538 144.92 118.866 144.832 119.17 144.656C119.482 144.472 119.73 144.208 119.914 143.864C120.106 143.52 120.202 143.12 120.202 142.664ZM129.007 142.532C129.007 142.78 128.991 143.004 128.959 143.204H123.907C123.947 143.732 124.143 144.156 124.495 144.476C124.847 144.796 125.279 144.956 125.791 144.956C126.527 144.956 127.047 144.648 127.351 144.032H128.827C128.627 144.64 128.263 145.14 127.735 145.532C127.215 145.916 126.567 146.108 125.791 146.108C125.159 146.108 124.591 145.968 124.087 145.688C123.591 145.4 123.199 145 122.911 144.488C122.631 143.968 122.491 143.368 122.491 142.688C122.491 142.008 122.627 141.412 122.899 140.9C123.179 140.38 123.567 139.98 124.063 139.7C124.567 139.42 125.143 139.28 125.791 139.28C126.415 139.28 126.971 139.416 127.459 139.688C127.947 139.96 128.327 140.344 128.599 140.84C128.871 141.328 129.007 141.892 129.007 142.532ZM127.579 142.1C127.571 141.596 127.391 141.192 127.039 140.888C126.687 140.584 126.251 140.432 125.731 140.432C125.259 140.432 124.855 140.584 124.519 140.888C124.183 141.184 123.983 141.588 123.919 142.1H127.579ZM138.357 139.28C138.877 139.28 139.341 139.388 139.749 139.604C140.165 139.82 140.489 140.14 140.721 140.564C140.961 140.988 141.081 141.5 141.081 142.1V146H139.725V142.304C139.725 141.712 139.577 141.26 139.281 140.948C138.985 140.628 138.581 140.468 138.069 140.468C137.557 140.468 137.149 140.628 136.845 140.948C136.549 141.26 136.401 141.712 136.401 142.304V146H135.045V142.304C135.045 141.712 134.897 141.26 134.601 140.948C134.305 140.628 133.901 140.468 133.389 140.468C132.877 140.468 132.469 140.628 132.165 140.948C131.869 141.26 131.721 141.712 131.721 142.304V146H130.353V139.388H131.721V140.144C131.945 139.872 132.229 139.66 132.573 139.508C132.917 139.356 133.285 139.28 133.677 139.28C134.205 139.28 134.677 139.392 135.093 139.616C135.509 139.84 135.829 140.164 136.053 140.588C136.253 140.188 136.565 139.872 136.989 139.64C137.413 139.4 137.869 139.28 138.357 139.28ZM148.882 142.532C148.882 142.78 148.866 143.004 148.834 143.204H143.782C143.822 143.732 144.018 144.156 144.37 144.476C144.722 144.796 145.154 144.956 145.666 144.956C146.402 144.956 146.922 144.648 147.226 144.032H148.702C148.502 144.64 148.138 145.14 147.61 145.532C147.09 145.916 146.442 146.108 145.666 146.108C145.034 146.108 144.466 145.968 143.962 145.688C143.466 145.4 143.074 145 142.786 144.488C142.506 143.968 142.366 143.368 142.366 142.688C142.366 142.008 142.502 141.412 142.774 140.9C143.054 140.38 143.442 139.98 143.938 139.7C144.442 139.42 145.018 139.28 145.666 139.28C146.29 139.28 146.846 139.416 147.334 139.688C147.822 139.96 148.202 140.344 148.474 140.84C148.746 141.328 148.882 141.892 148.882 142.532ZM147.454 142.1C147.446 141.596 147.266 141.192 146.914 140.888C146.562 140.584 146.126 140.432 145.606 140.432C145.134 140.432 144.73 140.584 144.394 140.888C144.058 141.184 143.858 141.588 143.794 142.1H147.454ZM153.564 139.28C154.084 139.28 154.548 139.388 154.956 139.604C155.372 139.82 155.696 140.14 155.928 140.564C156.16 140.988 156.276 141.5 156.276 142.1V146H154.92V142.304C154.92 141.712 154.772 141.26 154.476 140.948C154.18 140.628 153.776 140.468 153.264 140.468C152.752 140.468 152.344 140.628 152.04 140.948C151.744 141.26 151.596 141.712 151.596 142.304V146H150.228V139.388H151.596V140.144C151.82 139.872 152.104 139.66 152.448 139.508C152.8 139.356 153.172 139.28 153.564 139.28ZM159.617 140.504V144.164C159.617 144.412 159.673 144.592 159.785 144.704C159.905 144.808 160.105 144.86 160.385 144.86H161.225V146H160.145C159.529 146 159.057 145.856 158.729 145.568C158.401 145.28 158.237 144.812 158.237 144.164V140.504H157.457V139.388H158.237V137.744H159.617V139.388H161.225V140.504H159.617Z" fill="white"/>
<defs>
<filter id="filter0_d_19_1929" x="0" y="0" width="227" height="227" filterUnits="userSpaceOnUse" color-interpolation-filters="sRGB">
<feFlood flood-opacity="0" result="BackgroundImageFix"/>
<feColorMatrix in="SourceAlpha" type="matrix" values="0 0 0 0 0 0 0 0 0 0 0 0 0 0 0 0 0 0 127 0" result="hardAlpha"/>
<feMorphology radius="2" operator="dilate" in="SourceAlpha" result="effect1_dropShadow_19_1929"/>
<feOffset dx="-2" dy="4"/>
<feGaussianBlur stdDeviation="2.5"/>
<feComposite in2="hardAlpha" operator="out"/>
<feColorMatrix type="matrix" values="0 0 0 0 0 0 0 0 0 0 0 0 0 0 0 0 0 0 0.25 0"/>
<feBlend mode="normal" in2="BackgroundImageFix" result="effect1_dropShadow_19_1929"/>
<feBlend mode="normal" in="SourceGraphic" in2="effect1_dropShadow_19_1929" result="shape"/>
</filter>
</defs>
</svg>
