<svg width="227" height="227" viewBox="0 0 227 227" fill="none" xmlns="http://www.w3.org/2000/svg">
<g filter="url(#filter0_d_19_1922)">
<rect x="9" y="3" width="213" height="213" rx="31" fill="white"/>
</g>
<path d="M50.0921 166.334H52.2881V167H49.2731V160.727H50.0921V166.334ZM55.3088 167.081C54.8468 167.081 54.4268 166.976 54.0488 166.766C53.6768 166.556 53.3828 166.259 53.1668 165.875C52.9568 165.485 52.8518 165.035 52.8518 164.525C52.8518 164.021 52.9598 163.577 53.1758 163.193C53.3978 162.803 53.6978 162.506 54.0758 162.302C54.4538 162.092 54.8768 161.987 55.3448 161.987C55.8128 161.987 56.2358 162.092 56.6138 162.302C56.9918 162.506 57.2888 162.8 57.5048 163.184C57.7268 163.568 57.8378 164.015 57.8378 164.525C57.8378 165.035 57.7238 165.485 57.4958 165.875C57.2738 166.259 56.9708 166.556 56.5868 166.766C56.2028 166.976 55.7768 167.081 55.3088 167.081ZM55.3088 166.361C55.6028 166.361 55.8788 166.292 56.1368 166.154C56.3948 166.016 56.6018 165.809 56.7578 165.533C56.9198 165.257 57.0008 164.921 57.0008 164.525C57.0008 164.129 56.9228 163.793 56.7668 163.517C56.6108 163.241 56.4068 163.037 56.1548 162.905C55.9028 162.767 55.6298 162.698 55.3358 162.698C55.0358 162.698 54.7598 162.767 54.5078 162.905C54.2618 163.037 54.0638 163.241 53.9138 163.517C53.7638 163.793 53.6888 164.129 53.6888 164.525C53.6888 164.927 53.7608 165.266 53.9048 165.542C54.0548 165.818 54.2528 166.025 54.4988 166.163C54.7448 166.295 55.0148 166.361 55.3088 166.361ZM59.7337 162.869C59.8777 162.587 60.0817 162.368 60.3457 162.212C60.6157 162.056 60.9427 161.978 61.3267 161.978V162.824H61.1107C60.1927 162.824 59.7337 163.322 59.7337 164.318V167H58.9147V162.068H59.7337V162.869ZM66.7721 164.345C66.7721 164.501 66.7631 164.666 66.7451 164.84H62.8031C62.8331 165.326 62.9981 165.707 63.2981 165.983C63.6041 166.253 63.9731 166.388 64.4051 166.388C64.7591 166.388 65.0531 166.307 65.2871 166.145C65.5271 165.977 65.6951 165.755 65.7911 165.479H66.6731C66.5411 165.953 66.2771 166.34 65.8811 166.64C65.4851 166.934 64.9931 167.081 64.4051 167.081C63.9371 167.081 63.5171 166.976 63.1451 166.766C62.7791 166.556 62.4911 166.259 62.2811 165.875C62.0711 165.485 61.9661 165.035 61.9661 164.525C61.9661 164.015 62.0681 163.568 62.2721 163.184C62.4761 162.8 62.7611 162.506 63.1271 162.302C63.4991 162.092 63.9251 161.987 64.4051 161.987C64.8731 161.987 65.2871 162.089 65.6471 162.293C66.0071 162.497 66.2831 162.779 66.4751 163.139C66.6731 163.493 66.7721 163.895 66.7721 164.345ZM65.9261 164.174C65.9261 163.862 65.8571 163.595 65.7191 163.373C65.5811 163.145 65.3921 162.974 65.1521 162.86C64.9181 162.74 64.6571 162.68 64.3691 162.68C63.9551 162.68 63.6011 162.812 63.3071 163.076C63.0191 163.34 62.8541 163.706 62.8121 164.174H65.9261ZM73.7842 161.978C74.1682 161.978 74.5102 162.059 74.8102 162.221C75.1102 162.377 75.3472 162.614 75.5212 162.932C75.6952 163.25 75.7822 163.637 75.7822 164.093V167H74.9722V164.21C74.9722 163.718 74.8492 163.343 74.6032 163.085C74.3632 162.821 74.0362 162.689 73.6222 162.689C73.1962 162.689 72.8572 162.827 72.6052 163.103C72.3532 163.373 72.2272 163.766 72.2272 164.282V167H71.4172V164.21C71.4172 163.718 71.2942 163.343 71.0482 163.085C70.8082 162.821 70.4812 162.689 70.0672 162.689C69.6412 162.689 69.3022 162.827 69.0502 163.103C68.7982 163.373 68.6722 163.766 68.6722 164.282V167H67.8532V162.068H68.6722V162.779C68.8342 162.521 69.0502 162.323 69.3202 162.185C69.5962 162.047 69.8992 161.978 70.2292 161.978C70.6432 161.978 71.0092 162.071 71.3272 162.257C71.6452 162.443 71.8822 162.716 72.0382 163.076C72.1762 162.728 72.4042 162.458 72.7222 162.266C73.0402 162.074 73.3942 161.978 73.7842 161.978ZM79.948 161.267C79.792 161.267 79.66 161.213 79.552 161.105C79.444 160.997 79.39 160.865 79.39 160.709C79.39 160.553 79.444 160.421 79.552 160.313C79.66 160.205 79.792 160.151 79.948 160.151C80.098 160.151 80.224 160.205 80.326 160.313C80.434 160.421 80.488 160.553 80.488 160.709C80.488 160.865 80.434 160.997 80.326 161.105C80.224 161.213 80.098 161.267 79.948 161.267ZM80.344 162.068V167H79.525V162.068H80.344ZM82.5589 162.977C82.7209 162.695 82.9609 162.461 83.2789 162.275C83.6029 162.083 83.9779 161.987 84.4039 161.987C84.8419 161.987 85.2379 162.092 85.5919 162.302C85.9519 162.512 86.2339 162.809 86.4379 163.193C86.6419 163.571 86.7439 164.012 86.7439 164.516C86.7439 165.014 86.6419 165.458 86.4379 165.848C86.2339 166.238 85.9519 166.541 85.5919 166.757C85.2379 166.973 84.8419 167.081 84.4039 167.081C83.9839 167.081 83.6119 166.988 83.2879 166.802C82.9699 166.61 82.7269 166.373 82.5589 166.091V169.34H81.7399V162.068H82.5589V162.977ZM85.9069 164.516C85.9069 164.144 85.8319 163.82 85.6819 163.544C85.5319 163.268 85.3279 163.058 85.0699 162.914C84.8179 162.77 84.5389 162.698 84.2329 162.698C83.9329 162.698 83.6539 162.773 83.3959 162.923C83.1439 163.067 82.9399 163.28 82.7839 163.562C82.6339 163.838 82.5589 164.159 82.5589 164.525C82.5589 164.897 82.6339 165.224 82.7839 165.506C82.9399 165.782 83.1439 165.995 83.3959 166.145C83.6539 166.289 83.9329 166.361 84.2329 166.361C84.5389 166.361 84.8179 166.289 85.0699 166.145C85.3279 165.995 85.5319 165.782 85.6819 165.506C85.8319 165.224 85.9069 164.894 85.9069 164.516ZM89.5679 167.081C89.1899 167.081 88.8509 167.018 88.5509 166.892C88.2509 166.76 88.0139 166.58 87.8399 166.352C87.6659 166.118 87.5699 165.851 87.5519 165.551H88.3979C88.4219 165.797 88.5359 165.998 88.7399 166.154C88.9499 166.31 89.2229 166.388 89.5589 166.388C89.8709 166.388 90.1169 166.319 90.2969 166.181C90.4769 166.043 90.5669 165.869 90.5669 165.659C90.5669 165.443 90.4709 165.284 90.2789 165.182C90.0869 165.074 89.7899 164.969 89.3879 164.867C89.0219 164.771 88.7219 164.675 88.4879 164.579C88.2599 164.477 88.0619 164.33 87.8939 164.138C87.7319 163.94 87.6509 163.682 87.6509 163.364C87.6509 163.112 87.7259 162.881 87.8759 162.671C88.0259 162.461 88.2389 162.296 88.5149 162.176C88.7909 162.05 89.1059 161.987 89.4599 161.987C90.0059 161.987 90.4469 162.125 90.7829 162.401C91.1189 162.677 91.2989 163.055 91.3229 163.535H90.5039C90.4859 163.277 90.3809 163.07 90.1889 162.914C90.0029 162.758 89.7509 162.68 89.4329 162.68C89.1389 162.68 88.9049 162.743 88.7309 162.869C88.5569 162.995 88.4699 163.16 88.4699 163.364C88.4699 163.526 88.5209 163.661 88.6229 163.769C88.7309 163.871 88.8629 163.955 89.0189 164.021C89.1809 164.081 89.4029 164.15 89.6849 164.228C90.0389 164.324 90.3269 164.42 90.5489 164.516C90.7709 164.606 90.9599 164.744 91.1159 164.93C91.2779 165.116 91.3619 165.359 91.3679 165.659C91.3679 165.929 91.2929 166.172 91.1429 166.388C90.9929 166.604 90.7799 166.775 90.5039 166.901C90.2339 167.021 89.9219 167.081 89.5679 167.081ZM96.8981 162.068V167H96.0791V166.271C95.9231 166.523 95.7041 166.721 95.4221 166.865C95.1461 167.003 94.8401 167.072 94.5041 167.072C94.1201 167.072 93.7751 166.994 93.4691 166.838C93.1631 166.676 92.9201 166.436 92.7401 166.118C92.5661 165.8 92.4791 165.413 92.4791 164.957V162.068H93.2891V164.849C93.2891 165.335 93.4121 165.71 93.6581 165.974C93.9041 166.232 94.2401 166.361 94.6661 166.361C95.1041 166.361 95.4491 166.226 95.7011 165.956C95.9531 165.686 96.0791 165.293 96.0791 164.777V162.068H96.8981ZM104.212 161.978C104.596 161.978 104.938 162.059 105.238 162.221C105.538 162.377 105.775 162.614 105.949 162.932C106.123 163.25 106.21 163.637 106.21 164.093V167H105.4V164.21C105.4 163.718 105.277 163.343 105.031 163.085C104.791 162.821 104.464 162.689 104.05 162.689C103.624 162.689 103.285 162.827 103.033 163.103C102.781 163.373 102.655 163.766 102.655 164.282V167H101.845V164.21C101.845 163.718 101.722 163.343 101.476 163.085C101.236 162.821 100.909 162.689 100.495 162.689C100.069 162.689 99.7299 162.827 99.4779 163.103C99.2259 163.373 99.0999 163.766 99.0999 164.282V167H98.2809V162.068H99.0999V162.779C99.2619 162.521 99.4779 162.323 99.7479 162.185C100.024 162.047 100.327 161.978 100.657 161.978C101.071 161.978 101.437 162.071 101.755 162.257C102.073 162.443 102.31 162.716 102.466 163.076C102.604 162.728 102.832 162.458 103.15 162.266C103.468 162.074 103.822 161.978 104.212 161.978ZM109.647 164.516C109.647 164.012 109.749 163.571 109.953 163.193C110.157 162.809 110.436 162.512 110.79 162.302C111.15 162.092 111.552 161.987 111.996 161.987C112.38 161.987 112.737 162.077 113.067 162.257C113.397 162.431 113.649 162.662 113.823 162.95V160.34H114.651V167H113.823V166.073C113.661 166.367 113.421 166.61 113.103 166.802C112.785 166.988 112.413 167.081 111.987 167.081C111.549 167.081 111.15 166.973 110.79 166.757C110.436 166.541 110.157 166.238 109.953 165.848C109.749 165.458 109.647 165.014 109.647 164.516ZM113.823 164.525C113.823 164.153 113.748 163.829 113.598 163.553C113.448 163.277 113.244 163.067 112.986 162.923C112.734 162.773 112.455 162.698 112.149 162.698C111.843 162.698 111.564 162.77 111.312 162.914C111.06 163.058 110.859 163.268 110.709 163.544C110.559 163.82 110.484 164.144 110.484 164.516C110.484 164.894 110.559 165.224 110.709 165.506C110.859 165.782 111.06 165.995 111.312 166.145C111.564 166.289 111.843 166.361 112.149 166.361C112.455 166.361 112.734 166.289 112.986 166.145C113.244 165.995 113.448 165.782 113.598 165.506C113.748 165.224 113.823 164.897 113.823 164.525ZM118.186 167.081C117.724 167.081 117.304 166.976 116.926 166.766C116.554 166.556 116.26 166.259 116.044 165.875C115.834 165.485 115.729 165.035 115.729 164.525C115.729 164.021 115.837 163.577 116.053 163.193C116.275 162.803 116.575 162.506 116.953 162.302C117.331 162.092 117.754 161.987 118.222 161.987C118.69 161.987 119.113 162.092 119.491 162.302C119.869 162.506 120.166 162.8 120.382 163.184C120.604 163.568 120.715 164.015 120.715 164.525C120.715 165.035 120.601 165.485 120.373 165.875C120.151 166.259 119.848 166.556 119.464 166.766C119.08 166.976 118.654 167.081 118.186 167.081ZM118.186 166.361C118.48 166.361 118.756 166.292 119.014 166.154C119.272 166.016 119.479 165.809 119.635 165.533C119.797 165.257 119.878 164.921 119.878 164.525C119.878 164.129 119.8 163.793 119.644 163.517C119.488 163.241 119.284 163.037 119.032 162.905C118.78 162.767 118.507 162.698 118.213 162.698C117.913 162.698 117.637 162.767 117.385 162.905C117.139 163.037 116.941 163.241 116.791 163.517C116.641 163.793 116.566 164.129 116.566 164.525C116.566 164.927 116.638 165.266 116.782 165.542C116.932 165.818 117.13 166.025 117.376 166.163C117.622 166.295 117.892 166.361 118.186 166.361ZM122.611 160.34V167H121.792V160.34H122.611ZM126.157 167.081C125.695 167.081 125.275 166.976 124.897 166.766C124.525 166.556 124.231 166.259 124.015 165.875C123.805 165.485 123.7 165.035 123.7 164.525C123.7 164.021 123.808 163.577 124.024 163.193C124.246 162.803 124.546 162.506 124.924 162.302C125.302 162.092 125.725 161.987 126.193 161.987C126.661 161.987 127.084 162.092 127.462 162.302C127.84 162.506 128.137 162.8 128.353 163.184C128.575 163.568 128.686 164.015 128.686 164.525C128.686 165.035 128.572 165.485 128.344 165.875C128.122 166.259 127.819 166.556 127.435 166.766C127.051 166.976 126.625 167.081 126.157 167.081ZM126.157 166.361C126.451 166.361 126.727 166.292 126.985 166.154C127.243 166.016 127.45 165.809 127.606 165.533C127.768 165.257 127.849 164.921 127.849 164.525C127.849 164.129 127.771 163.793 127.615 163.517C127.459 163.241 127.255 163.037 127.003 162.905C126.751 162.767 126.478 162.698 126.184 162.698C125.884 162.698 125.608 162.767 125.356 162.905C125.11 163.037 124.912 163.241 124.762 163.517C124.612 163.793 124.537 164.129 124.537 164.525C124.537 164.927 124.609 165.266 124.753 165.542C124.903 165.818 125.101 166.025 125.347 166.163C125.593 166.295 125.863 166.361 126.157 166.361ZM130.582 162.869C130.726 162.587 130.93 162.368 131.194 162.212C131.464 162.056 131.791 161.978 132.175 161.978V162.824H131.959C131.041 162.824 130.582 163.322 130.582 164.318V167H129.763V162.068H130.582V162.869ZM137.266 167.081C136.888 167.081 136.549 167.018 136.249 166.892C135.949 166.76 135.712 166.58 135.538 166.352C135.364 166.118 135.268 165.851 135.25 165.551H136.096C136.12 165.797 136.234 165.998 136.438 166.154C136.648 166.31 136.921 166.388 137.257 166.388C137.569 166.388 137.815 166.319 137.995 166.181C138.175 166.043 138.265 165.869 138.265 165.659C138.265 165.443 138.169 165.284 137.977 165.182C137.785 165.074 137.488 164.969 137.086 164.867C136.72 164.771 136.42 164.675 136.186 164.579C135.958 164.477 135.76 164.33 135.592 164.138C135.43 163.94 135.349 163.682 135.349 163.364C135.349 163.112 135.424 162.881 135.574 162.671C135.724 162.461 135.937 162.296 136.213 162.176C136.489 162.05 136.804 161.987 137.158 161.987C137.704 161.987 138.145 162.125 138.481 162.401C138.817 162.677 138.997 163.055 139.021 163.535H138.202C138.184 163.277 138.079 163.07 137.887 162.914C137.701 162.758 137.449 162.68 137.131 162.68C136.837 162.68 136.603 162.743 136.429 162.869C136.255 162.995 136.168 163.16 136.168 163.364C136.168 163.526 136.219 163.661 136.321 163.769C136.429 163.871 136.561 163.955 136.717 164.021C136.879 164.081 137.101 164.15 137.383 164.228C137.737 164.324 138.025 164.42 138.247 164.516C138.469 164.606 138.658 164.744 138.814 164.93C138.976 165.116 139.06 165.359 139.066 165.659C139.066 165.929 138.991 166.172 138.841 166.388C138.691 166.604 138.478 166.775 138.202 166.901C137.932 167.021 137.62 167.081 137.266 167.081ZM140.645 161.267C140.489 161.267 140.357 161.213 140.249 161.105C140.141 160.997 140.087 160.865 140.087 160.709C140.087 160.553 140.141 160.421 140.249 160.313C140.357 160.205 140.489 160.151 140.645 160.151C140.795 160.151 140.921 160.205 141.023 160.313C141.131 160.421 141.185 160.553 141.185 160.709C141.185 160.865 141.131 160.997 141.023 161.105C140.921 161.213 140.795 161.267 140.645 161.267ZM141.041 162.068V167H140.222V162.068H141.041ZM143.436 162.743V165.65C143.436 165.89 143.487 166.061 143.589 166.163C143.691 166.259 143.868 166.307 144.12 166.307H144.723V167H143.985C143.529 167 143.187 166.895 142.959 166.685C142.731 166.475 142.617 166.13 142.617 165.65V162.743H141.978V162.068H142.617V160.826H143.436V162.068H144.723V162.743H143.436ZM147.809 164.516C147.809 164.012 147.911 163.571 148.115 163.193C148.319 162.809 148.598 162.512 148.952 162.302C149.312 162.092 149.711 161.987 150.149 161.987C150.581 161.987 150.956 162.08 151.274 162.266C151.592 162.452 151.829 162.686 151.985 162.968V162.068H152.813V167H151.985V166.082C151.823 166.37 151.58 166.61 151.256 166.802C150.938 166.988 150.566 167.081 150.14 167.081C149.702 167.081 149.306 166.973 148.952 166.757C148.598 166.541 148.319 166.238 148.115 165.848C147.911 165.458 147.809 165.014 147.809 164.516ZM151.985 164.525C151.985 164.153 151.91 163.829 151.76 163.553C151.61 163.277 151.406 163.067 151.148 162.923C150.896 162.773 150.617 162.698 150.311 162.698C150.005 162.698 149.726 162.77 149.474 162.914C149.222 163.058 149.021 163.268 148.871 163.544C148.721 163.82 148.646 164.144 148.646 164.516C148.646 164.894 148.721 165.224 148.871 165.506C149.021 165.782 149.222 165.995 149.474 166.145C149.726 166.289 150.005 166.361 150.311 166.361C150.617 166.361 150.896 166.289 151.148 166.145C151.406 165.995 151.61 165.782 151.76 165.506C151.91 165.224 151.985 164.897 151.985 164.525ZM160.128 161.978C160.512 161.978 160.854 162.059 161.154 162.221C161.454 162.377 161.691 162.614 161.865 162.932C162.039 163.25 162.126 163.637 162.126 164.093V167H161.316V164.21C161.316 163.718 161.193 163.343 160.947 163.085C160.707 162.821 160.38 162.689 159.966 162.689C159.54 162.689 159.201 162.827 158.949 163.103C158.697 163.373 158.571 163.766 158.571 164.282V167H157.761V164.21C157.761 163.718 157.638 163.343 157.392 163.085C157.152 162.821 156.825 162.689 156.411 162.689C155.985 162.689 155.646 162.827 155.394 163.103C155.142 163.373 155.016 163.766 155.016 164.282V167H154.197V162.068H155.016V162.779C155.178 162.521 155.394 162.323 155.664 162.185C155.94 162.047 156.243 161.978 156.573 161.978C156.987 161.978 157.353 162.071 157.671 162.257C157.989 162.443 158.226 162.716 158.382 163.076C158.52 162.728 158.748 162.458 159.066 162.266C159.384 162.074 159.738 161.978 160.128 161.978ZM167.969 164.345C167.969 164.501 167.96 164.666 167.942 164.84H164C164.03 165.326 164.195 165.707 164.495 165.983C164.801 166.253 165.17 166.388 165.602 166.388C165.956 166.388 166.25 166.307 166.484 166.145C166.724 165.977 166.892 165.755 166.988 165.479H167.87C167.738 165.953 167.474 166.34 167.078 166.64C166.682 166.934 166.19 167.081 165.602 167.081C165.134 167.081 164.714 166.976 164.342 166.766C163.976 166.556 163.688 166.259 163.478 165.875C163.268 165.485 163.163 165.035 163.163 164.525C163.163 164.015 163.265 163.568 163.469 163.184C163.673 162.8 163.958 162.506 164.324 162.302C164.696 162.092 165.122 161.987 165.602 161.987C166.07 161.987 166.484 162.089 166.844 162.293C167.204 162.497 167.48 162.779 167.672 163.139C167.87 163.493 167.969 163.895 167.969 164.345ZM167.123 164.174C167.123 163.862 167.054 163.595 166.916 163.373C166.778 163.145 166.589 162.974 166.349 162.86C166.115 162.74 165.854 162.68 165.566 162.68C165.152 162.68 164.798 162.812 164.504 163.076C164.216 163.34 164.051 163.706 164.009 164.174H167.123ZM170.049 162.743V165.65C170.049 165.89 170.1 166.061 170.202 166.163C170.304 166.259 170.481 166.307 170.733 166.307H171.336V167H170.598C170.142 167 169.8 166.895 169.572 166.685C169.344 166.475 169.23 166.13 169.23 165.65V162.743H168.591V162.068H169.23V160.826H170.049V162.068H171.336V162.743H170.049ZM173.175 165.866L172.167 168.287H171.618L172.275 165.866H173.175ZM34.5091 175.525C34.5091 175.015 34.6111 174.571 34.8151 174.193C35.0191 173.809 35.3011 173.512 35.6611 173.302C36.0271 173.092 36.4441 172.987 36.9121 172.987C37.5181 172.987 38.0161 173.134 38.4061 173.428C38.8021 173.722 39.0631 174.13 39.1891 174.652H38.3071C38.2231 174.352 38.0581 174.115 37.8121 173.941C37.5721 173.767 37.2721 173.68 36.9121 173.68C36.4441 173.68 36.0661 173.842 35.7781 174.166C35.4901 174.484 35.3461 174.937 35.3461 175.525C35.3461 176.119 35.4901 176.578 35.7781 176.902C36.0661 177.226 36.4441 177.388 36.9121 177.388C37.2721 177.388 37.5721 177.304 37.8121 177.136C38.0521 176.968 38.2171 176.728 38.3071 176.416H39.1891C39.0571 176.92 38.7931 177.325 38.3971 177.631C38.0011 177.931 37.5061 178.081 36.9121 178.081C36.4441 178.081 36.0271 177.976 35.6611 177.766C35.3011 177.556 35.0191 177.259 34.8151 176.875C34.6111 176.491 34.5091 176.041 34.5091 175.525ZM42.4329 178.081C41.9709 178.081 41.5509 177.976 41.1729 177.766C40.8009 177.556 40.5069 177.259 40.2909 176.875C40.0809 176.485 39.9759 176.035 39.9759 175.525C39.9759 175.021 40.0839 174.577 40.2999 174.193C40.5219 173.803 40.8219 173.506 41.1999 173.302C41.5779 173.092 42.0009 172.987 42.4689 172.987C42.9369 172.987 43.3599 173.092 43.7379 173.302C44.1159 173.506 44.4129 173.8 44.6289 174.184C44.8509 174.568 44.9619 175.015 44.9619 175.525C44.9619 176.035 44.8479 176.485 44.6199 176.875C44.3979 177.259 44.0949 177.556 43.7109 177.766C43.3269 177.976 42.9009 178.081 42.4329 178.081ZM42.4329 177.361C42.7269 177.361 43.0029 177.292 43.2609 177.154C43.5189 177.016 43.7259 176.809 43.8819 176.533C44.0439 176.257 44.1249 175.921 44.1249 175.525C44.1249 175.129 44.0469 174.793 43.8909 174.517C43.7349 174.241 43.5309 174.037 43.2789 173.905C43.0269 173.767 42.7539 173.698 42.4599 173.698C42.1599 173.698 41.8839 173.767 41.6319 173.905C41.3859 174.037 41.1879 174.241 41.0379 174.517C40.8879 174.793 40.8129 175.129 40.8129 175.525C40.8129 175.927 40.8849 176.266 41.0289 176.542C41.1789 176.818 41.3769 177.025 41.6229 177.163C41.8689 177.295 42.1389 177.361 42.4329 177.361ZM48.4417 172.978C49.0417 172.978 49.5277 173.161 49.8997 173.527C50.2717 173.887 50.4577 174.409 50.4577 175.093V178H49.6477V175.21C49.6477 174.718 49.5247 174.343 49.2787 174.085C49.0327 173.821 48.6967 173.689 48.2707 173.689C47.8387 173.689 47.4937 173.824 47.2357 174.094C46.9837 174.364 46.8577 174.757 46.8577 175.273V178H46.0387V173.068H46.8577V173.77C47.0197 173.518 47.2387 173.323 47.5147 173.185C47.7967 173.047 48.1057 172.978 48.4417 172.978ZM53.5415 178.081C53.1635 178.081 52.8245 178.018 52.5245 177.892C52.2245 177.76 51.9875 177.58 51.8135 177.352C51.6395 177.118 51.5435 176.851 51.5255 176.551H52.3715C52.3955 176.797 52.5095 176.998 52.7135 177.154C52.9235 177.31 53.1965 177.388 53.5325 177.388C53.8445 177.388 54.0905 177.319 54.2705 177.181C54.4505 177.043 54.5405 176.869 54.5405 176.659C54.5405 176.443 54.4445 176.284 54.2525 176.182C54.0605 176.074 53.7635 175.969 53.3615 175.867C52.9955 175.771 52.6955 175.675 52.4615 175.579C52.2335 175.477 52.0355 175.33 51.8675 175.138C51.7055 174.94 51.6245 174.682 51.6245 174.364C51.6245 174.112 51.6995 173.881 51.8495 173.671C51.9995 173.461 52.2125 173.296 52.4885 173.176C52.7645 173.05 53.0795 172.987 53.4335 172.987C53.9795 172.987 54.4205 173.125 54.7565 173.401C55.0925 173.677 55.2725 174.055 55.2965 174.535H54.4775C54.4595 174.277 54.3545 174.07 54.1625 173.914C53.9765 173.758 53.7245 173.68 53.4065 173.68C53.1125 173.68 52.8785 173.743 52.7045 173.869C52.5305 173.995 52.4435 174.16 52.4435 174.364C52.4435 174.526 52.4945 174.661 52.5965 174.769C52.7045 174.871 52.8365 174.955 52.9925 175.021C53.1545 175.081 53.3765 175.15 53.6585 175.228C54.0125 175.324 54.3005 175.42 54.5225 175.516C54.7445 175.606 54.9335 175.744 55.0895 175.93C55.2515 176.116 55.3355 176.359 55.3415 176.659C55.3415 176.929 55.2665 177.172 55.1165 177.388C54.9665 177.604 54.7535 177.775 54.4775 177.901C54.2075 178.021 53.8955 178.081 53.5415 178.081ZM60.9977 175.345C60.9977 175.501 60.9887 175.666 60.9707 175.84H57.0287C57.0587 176.326 57.2237 176.707 57.5237 176.983C57.8297 177.253 58.1987 177.388 58.6307 177.388C58.9847 177.388 59.2787 177.307 59.5127 177.145C59.7527 176.977 59.9207 176.755 60.0167 176.479H60.8987C60.7667 176.953 60.5027 177.34 60.1067 177.64C59.7107 177.934 59.2187 178.081 58.6307 178.081C58.1627 178.081 57.7427 177.976 57.3707 177.766C57.0047 177.556 56.7167 177.259 56.5067 176.875C56.2967 176.485 56.1917 176.035 56.1917 175.525C56.1917 175.015 56.2937 174.568 56.4977 174.184C56.7017 173.8 56.9867 173.506 57.3527 173.302C57.7247 173.092 58.1507 172.987 58.6307 172.987C59.0987 172.987 59.5127 173.089 59.8727 173.293C60.2327 173.497 60.5087 173.779 60.7007 174.139C60.8987 174.493 60.9977 174.895 60.9977 175.345ZM60.1517 175.174C60.1517 174.862 60.0827 174.595 59.9447 174.373C59.8067 174.145 59.6177 173.974 59.3777 173.86C59.1437 173.74 58.8827 173.68 58.5947 173.68C58.1807 173.68 57.8267 173.812 57.5327 174.076C57.2447 174.34 57.0797 174.706 57.0377 175.174H60.1517ZM61.7727 175.525C61.7727 175.015 61.8747 174.571 62.0787 174.193C62.2827 173.809 62.5647 173.512 62.9247 173.302C63.2907 173.092 63.7077 172.987 64.1757 172.987C64.7817 172.987 65.2797 173.134 65.6697 173.428C66.0657 173.722 66.3267 174.13 66.4527 174.652H65.5707C65.4867 174.352 65.3217 174.115 65.0757 173.941C64.8357 173.767 64.5357 173.68 64.1757 173.68C63.7077 173.68 63.3297 173.842 63.0417 174.166C62.7537 174.484 62.6097 174.937 62.6097 175.525C62.6097 176.119 62.7537 176.578 63.0417 176.902C63.3297 177.226 63.7077 177.388 64.1757 177.388C64.5357 177.388 64.8357 177.304 65.0757 177.136C65.3157 176.968 65.4807 176.728 65.5707 176.416H66.4527C66.3207 176.92 66.0567 177.325 65.6607 177.631C65.2647 177.931 64.7697 178.081 64.1757 178.081C63.7077 178.081 63.2907 177.976 62.9247 177.766C62.5647 177.556 62.2827 177.259 62.0787 176.875C61.8747 176.491 61.7727 176.041 61.7727 175.525ZM68.5445 173.743V176.65C68.5445 176.89 68.5955 177.061 68.6975 177.163C68.7995 177.259 68.9765 177.307 69.2285 177.307H69.8315V178H69.0935C68.6375 178 68.2955 177.895 68.0675 177.685C67.8395 177.475 67.7255 177.13 67.7255 176.65V173.743H67.0865V173.068H67.7255V171.826H68.5445V173.068H69.8315V173.743H68.5445ZM75.3239 175.345C75.3239 175.501 75.3149 175.666 75.2969 175.84H71.3549C71.3849 176.326 71.5499 176.707 71.8499 176.983C72.1559 177.253 72.5249 177.388 72.9569 177.388C73.3109 177.388 73.6049 177.307 73.8389 177.145C74.0789 176.977 74.2469 176.755 74.3429 176.479H75.2249C75.0929 176.953 74.8289 177.34 74.4329 177.64C74.0369 177.934 73.5449 178.081 72.9569 178.081C72.4889 178.081 72.0689 177.976 71.6969 177.766C71.3309 177.556 71.0429 177.259 70.8329 176.875C70.6229 176.485 70.5179 176.035 70.5179 175.525C70.5179 175.015 70.6199 174.568 70.8239 174.184C71.0279 173.8 71.3129 173.506 71.6789 173.302C72.0509 173.092 72.4769 172.987 72.9569 172.987C73.4249 172.987 73.8389 173.089 74.1989 173.293C74.5589 173.497 74.8349 173.779 75.0269 174.139C75.2249 174.493 75.3239 174.895 75.3239 175.345ZM74.4779 175.174C74.4779 174.862 74.4089 174.595 74.2709 174.373C74.1329 174.145 73.9439 173.974 73.7039 173.86C73.4699 173.74 73.2089 173.68 72.9209 173.68C72.5069 173.68 72.1529 173.812 71.8589 174.076C71.5709 174.34 71.4059 174.706 71.3639 175.174H74.4779ZM77.4039 173.743V176.65C77.4039 176.89 77.4549 177.061 77.5569 177.163C77.6589 177.259 77.8359 177.307 78.0879 177.307H78.6909V178H77.9529C77.4969 178 77.1549 177.895 76.9269 177.685C76.6989 177.475 76.5849 177.13 76.5849 176.65V173.743H75.9459V173.068H76.5849V171.826H77.4039V173.068H78.6909V173.743H77.4039ZM84.0572 173.068V178H83.2382V177.271C83.0822 177.523 82.8632 177.721 82.5812 177.865C82.3052 178.003 81.9992 178.072 81.6632 178.072C81.2792 178.072 80.9342 177.994 80.6282 177.838C80.3222 177.676 80.0792 177.436 79.8992 177.118C79.7252 176.8 79.6382 176.413 79.6382 175.957V173.068H80.4482V175.849C80.4482 176.335 80.5712 176.71 80.8172 176.974C81.0632 177.232 81.3992 177.361 81.8252 177.361C82.2632 177.361 82.6082 177.226 82.8602 176.956C83.1122 176.686 83.2382 176.293 83.2382 175.777V173.068H84.0572ZM86.2591 173.869C86.4031 173.587 86.6071 173.368 86.8711 173.212C87.1411 173.056 87.4681 172.978 87.8521 172.978V173.824H87.6361C86.7181 173.824 86.2591 174.322 86.2591 175.318V178H85.4401V173.068H86.2591V173.869ZM90.8909 175.516C90.8909 175.012 90.9929 174.571 91.1969 174.193C91.4009 173.809 91.6799 173.512 92.0339 173.302C92.3939 173.092 92.7929 172.987 93.2309 172.987C93.6629 172.987 94.0379 173.08 94.3559 173.266C94.6739 173.452 94.9109 173.686 95.0669 173.968V173.068H95.8949V178H95.0669V177.082C94.9049 177.37 94.6619 177.61 94.3379 177.802C94.0199 177.988 93.6479 178.081 93.2219 178.081C92.7839 178.081 92.3879 177.973 92.0339 177.757C91.6799 177.541 91.4009 177.238 91.1969 176.848C90.9929 176.458 90.8909 176.014 90.8909 175.516ZM95.0669 175.525C95.0669 175.153 94.9919 174.829 94.8419 174.553C94.6919 174.277 94.4879 174.067 94.2299 173.923C93.9779 173.773 93.6989 173.698 93.3929 173.698C93.0869 173.698 92.8079 173.77 92.5559 173.914C92.3039 174.058 92.1029 174.268 91.9529 174.544C91.8029 174.82 91.7279 175.144 91.7279 175.516C91.7279 175.894 91.8029 176.224 91.9529 176.506C92.1029 176.782 92.3039 176.995 92.5559 177.145C92.8079 177.289 93.0869 177.361 93.3929 177.361C93.6989 177.361 93.9779 177.289 94.2299 177.145C94.4879 176.995 94.6919 176.782 94.8419 176.506C94.9919 176.224 95.0669 175.897 95.0669 175.525ZM96.9729 175.516C96.9729 175.012 97.0749 174.571 97.2789 174.193C97.4829 173.809 97.7619 173.512 98.1159 173.302C98.4759 173.092 98.8779 172.987 99.3219 172.987C99.7059 172.987 100.063 173.077 100.393 173.257C100.723 173.431 100.975 173.662 101.149 173.95V171.34H101.977V178H101.149V177.073C100.987 177.367 100.747 177.61 100.429 177.802C100.111 177.988 99.7389 178.081 99.3129 178.081C98.8749 178.081 98.4759 177.973 98.1159 177.757C97.7619 177.541 97.4829 177.238 97.2789 176.848C97.0749 176.458 96.9729 176.014 96.9729 175.516ZM101.149 175.525C101.149 175.153 101.074 174.829 100.924 174.553C100.774 174.277 100.57 174.067 100.312 173.923C100.06 173.773 99.7809 173.698 99.4749 173.698C99.1689 173.698 98.8899 173.77 98.6379 173.914C98.3859 174.058 98.1849 174.268 98.0349 174.544C97.8849 174.82 97.8099 175.144 97.8099 175.516C97.8099 175.894 97.8849 176.224 98.0349 176.506C98.1849 176.782 98.3859 176.995 98.6379 177.145C98.8899 177.289 99.1689 177.361 99.4749 177.361C99.7809 177.361 100.06 177.289 100.312 177.145C100.57 176.995 100.774 176.782 100.924 176.506C101.074 176.224 101.149 175.897 101.149 175.525ZM103.784 172.267C103.628 172.267 103.496 172.213 103.388 172.105C103.28 171.997 103.226 171.865 103.226 171.709C103.226 171.553 103.28 171.421 103.388 171.313C103.496 171.205 103.628 171.151 103.784 171.151C103.934 171.151 104.06 171.205 104.162 171.313C104.27 171.421 104.324 171.553 104.324 171.709C104.324 171.865 104.27 171.997 104.162 172.105C104.06 172.213 103.934 172.267 103.784 172.267ZM104.18 173.068V178H103.361V173.068H104.18ZM106.395 173.977C106.557 173.695 106.797 173.461 107.115 173.275C107.439 173.083 107.814 172.987 108.24 172.987C108.678 172.987 109.074 173.092 109.428 173.302C109.788 173.512 110.07 173.809 110.274 174.193C110.478 174.571 110.58 175.012 110.58 175.516C110.58 176.014 110.478 176.458 110.274 176.848C110.07 177.238 109.788 177.541 109.428 177.757C109.074 177.973 108.678 178.081 108.24 178.081C107.82 178.081 107.448 177.988 107.124 177.802C106.806 177.61 106.563 177.373 106.395 177.091V180.34H105.576V173.068H106.395V173.977ZM109.743 175.516C109.743 175.144 109.668 174.82 109.518 174.544C109.368 174.268 109.164 174.058 108.906 173.914C108.654 173.77 108.375 173.698 108.069 173.698C107.769 173.698 107.49 173.773 107.232 173.923C106.98 174.067 106.776 174.28 106.62 174.562C106.47 174.838 106.395 175.159 106.395 175.525C106.395 175.897 106.47 176.224 106.62 176.506C106.776 176.782 106.98 176.995 107.232 177.145C107.49 177.289 107.769 177.361 108.069 177.361C108.375 177.361 108.654 177.289 108.906 177.145C109.164 176.995 109.368 176.782 109.518 176.506C109.668 176.224 109.743 175.894 109.743 175.516ZM112.081 172.267C111.925 172.267 111.793 172.213 111.685 172.105C111.577 171.997 111.523 171.865 111.523 171.709C111.523 171.553 111.577 171.421 111.685 171.313C111.793 171.205 111.925 171.151 112.081 171.151C112.231 171.151 112.357 171.205 112.459 171.313C112.567 171.421 112.621 171.553 112.621 171.709C112.621 171.865 112.567 171.997 112.459 172.105C112.357 172.213 112.231 172.267 112.081 172.267ZM112.477 173.068V178H111.658V173.068H112.477ZM115.619 178.081C115.241 178.081 114.902 178.018 114.602 177.892C114.302 177.76 114.065 177.58 113.891 177.352C113.717 177.118 113.621 176.851 113.603 176.551H114.449C114.473 176.797 114.587 176.998 114.791 177.154C115.001 177.31 115.274 177.388 115.61 177.388C115.922 177.388 116.168 177.319 116.348 177.181C116.528 177.043 116.618 176.869 116.618 176.659C116.618 176.443 116.522 176.284 116.33 176.182C116.138 176.074 115.841 175.969 115.439 175.867C115.073 175.771 114.773 175.675 114.539 175.579C114.311 175.477 114.113 175.33 113.945 175.138C113.783 174.94 113.702 174.682 113.702 174.364C113.702 174.112 113.777 173.881 113.927 173.671C114.077 173.461 114.29 173.296 114.566 173.176C114.842 173.05 115.157 172.987 115.511 172.987C116.057 172.987 116.498 173.125 116.834 173.401C117.17 173.677 117.35 174.055 117.374 174.535H116.555C116.537 174.277 116.432 174.07 116.24 173.914C116.054 173.758 115.802 173.68 115.484 173.68C115.19 173.68 114.956 173.743 114.782 173.869C114.608 173.995 114.521 174.16 114.521 174.364C114.521 174.526 114.572 174.661 114.674 174.769C114.782 174.871 114.914 174.955 115.07 175.021C115.232 175.081 115.454 175.15 115.736 175.228C116.09 175.324 116.378 175.42 116.6 175.516C116.822 175.606 117.011 175.744 117.167 175.93C117.329 176.116 117.413 176.359 117.419 176.659C117.419 176.929 117.344 177.172 117.194 177.388C117.044 177.604 116.831 177.775 116.555 177.901C116.285 178.021 115.973 178.081 115.619 178.081ZM118.269 175.525C118.269 175.015 118.371 174.571 118.575 174.193C118.779 173.809 119.061 173.512 119.421 173.302C119.787 173.092 120.204 172.987 120.672 172.987C121.278 172.987 121.776 173.134 122.166 173.428C122.562 173.722 122.823 174.13 122.949 174.652H122.067C121.983 174.352 121.818 174.115 121.572 173.941C121.332 173.767 121.032 173.68 120.672 173.68C120.204 173.68 119.826 173.842 119.538 174.166C119.25 174.484 119.106 174.937 119.106 175.525C119.106 176.119 119.25 176.578 119.538 176.902C119.826 177.226 120.204 177.388 120.672 177.388C121.032 177.388 121.332 177.304 121.572 177.136C121.812 176.968 121.977 176.728 122.067 176.416H122.949C122.817 176.92 122.553 177.325 122.157 177.631C121.761 177.931 121.266 178.081 120.672 178.081C120.204 178.081 119.787 177.976 119.421 177.766C119.061 177.556 118.779 177.259 118.575 176.875C118.371 176.491 118.269 176.041 118.269 175.525ZM124.465 172.267C124.309 172.267 124.177 172.213 124.069 172.105C123.961 171.997 123.907 171.865 123.907 171.709C123.907 171.553 123.961 171.421 124.069 171.313C124.177 171.205 124.309 171.151 124.465 171.151C124.615 171.151 124.741 171.205 124.843 171.313C124.951 171.421 125.005 171.553 125.005 171.709C125.005 171.865 124.951 171.997 124.843 172.105C124.741 172.213 124.615 172.267 124.465 172.267ZM124.861 173.068V178H124.042V173.068H124.861ZM128.659 172.978C129.259 172.978 129.745 173.161 130.117 173.527C130.489 173.887 130.675 174.409 130.675 175.093V178H129.865V175.21C129.865 174.718 129.742 174.343 129.496 174.085C129.25 173.821 128.914 173.689 128.488 173.689C128.056 173.689 127.711 173.824 127.453 174.094C127.201 174.364 127.075 174.757 127.075 175.273V178H126.256V173.068H127.075V173.77C127.237 173.518 127.456 173.323 127.732 173.185C128.014 173.047 128.323 172.978 128.659 172.978ZM134.047 172.987C134.473 172.987 134.845 173.08 135.163 173.266C135.487 173.452 135.727 173.686 135.883 173.968V173.068H136.711V178.108C136.711 178.558 136.615 178.957 136.423 179.305C136.231 179.659 135.955 179.935 135.595 180.133C135.241 180.331 134.827 180.43 134.353 180.43C133.705 180.43 133.165 180.277 132.733 179.971C132.301 179.665 132.046 179.248 131.968 178.72H132.778C132.868 179.02 133.054 179.26 133.336 179.44C133.618 179.626 133.957 179.719 134.353 179.719C134.803 179.719 135.169 179.578 135.451 179.296C135.739 179.014 135.883 178.618 135.883 178.108V177.073C135.721 177.361 135.481 177.601 135.163 177.793C134.845 177.985 134.473 178.081 134.047 178.081C133.609 178.081 133.21 177.973 132.85 177.757C132.496 177.541 132.217 177.238 132.013 176.848C131.809 176.458 131.707 176.014 131.707 175.516C131.707 175.012 131.809 174.571 132.013 174.193C132.217 173.809 132.496 173.512 132.85 173.302C133.21 173.092 133.609 172.987 134.047 172.987ZM135.883 175.525C135.883 175.153 135.808 174.829 135.658 174.553C135.508 174.277 135.304 174.067 135.046 173.923C134.794 173.773 134.515 173.698 134.209 173.698C133.903 173.698 133.624 173.77 133.372 173.914C133.12 174.058 132.919 174.268 132.769 174.544C132.619 174.82 132.544 175.144 132.544 175.516C132.544 175.894 132.619 176.224 132.769 176.506C132.919 176.782 133.12 176.995 133.372 177.145C133.624 177.289 133.903 177.361 134.209 177.361C134.515 177.361 134.794 177.289 135.046 177.145C135.304 176.995 135.508 176.782 135.658 176.506C135.808 176.224 135.883 175.897 135.883 175.525ZM144.995 175.345C144.995 175.501 144.986 175.666 144.968 175.84H141.026C141.056 176.326 141.221 176.707 141.521 176.983C141.827 177.253 142.196 177.388 142.628 177.388C142.982 177.388 143.276 177.307 143.51 177.145C143.75 176.977 143.918 176.755 144.014 176.479H144.896C144.764 176.953 144.5 177.34 144.104 177.64C143.708 177.934 143.216 178.081 142.628 178.081C142.16 178.081 141.74 177.976 141.368 177.766C141.002 177.556 140.714 177.259 140.504 176.875C140.294 176.485 140.189 176.035 140.189 175.525C140.189 175.015 140.291 174.568 140.495 174.184C140.699 173.8 140.984 173.506 141.35 173.302C141.722 173.092 142.148 172.987 142.628 172.987C143.096 172.987 143.51 173.089 143.87 173.293C144.23 173.497 144.506 173.779 144.698 174.139C144.896 174.493 144.995 174.895 144.995 175.345ZM144.149 175.174C144.149 174.862 144.08 174.595 143.942 174.373C143.804 174.145 143.615 173.974 143.375 173.86C143.141 173.74 142.88 173.68 142.592 173.68C142.178 173.68 141.824 173.812 141.53 174.076C141.242 174.34 141.077 174.706 141.035 175.174H144.149ZM146.895 171.34V178H146.076V171.34H146.895ZM148.714 172.267C148.558 172.267 148.426 172.213 148.318 172.105C148.21 171.997 148.156 171.865 148.156 171.709C148.156 171.553 148.21 171.421 148.318 171.313C148.426 171.205 148.558 171.151 148.714 171.151C148.864 171.151 148.99 171.205 149.092 171.313C149.2 171.421 149.254 171.553 149.254 171.709C149.254 171.865 149.2 171.997 149.092 172.105C148.99 172.213 148.864 172.267 148.714 172.267ZM149.11 173.068V178H148.291V173.068H149.11ZM151.505 173.743V176.65C151.505 176.89 151.556 177.061 151.658 177.163C151.76 177.259 151.937 177.307 152.188 177.307H152.792V178H152.054C151.598 178 151.256 177.895 151.028 177.685C150.8 177.475 150.686 177.13 150.686 176.65V173.743H150.047V173.068H150.686V171.826H151.505V173.068H152.792V173.743H151.505ZM154.63 176.866L153.622 179.287H153.073L153.73 176.866H154.63ZM159.713 178.081C159.335 178.081 158.996 178.018 158.696 177.892C158.396 177.76 158.159 177.58 157.985 177.352C157.811 177.118 157.715 176.851 157.697 176.551H158.543C158.567 176.797 158.681 176.998 158.885 177.154C159.095 177.31 159.368 177.388 159.704 177.388C160.016 177.388 160.262 177.319 160.442 177.181C160.622 177.043 160.712 176.869 160.712 176.659C160.712 176.443 160.616 176.284 160.424 176.182C160.232 176.074 159.935 175.969 159.533 175.867C159.167 175.771 158.867 175.675 158.633 175.579C158.405 175.477 158.207 175.33 158.039 175.138C157.877 174.94 157.796 174.682 157.796 174.364C157.796 174.112 157.871 173.881 158.021 173.671C158.171 173.461 158.384 173.296 158.66 173.176C158.936 173.05 159.251 172.987 159.605 172.987C160.151 172.987 160.592 173.125 160.928 173.401C161.264 173.677 161.444 174.055 161.468 174.535H160.649C160.631 174.277 160.526 174.07 160.334 173.914C160.148 173.758 159.896 173.68 159.578 173.68C159.284 173.68 159.05 173.743 158.876 173.869C158.702 173.995 158.615 174.16 158.615 174.364C158.615 174.526 158.666 174.661 158.768 174.769C158.876 174.871 159.008 174.955 159.164 175.021C159.326 175.081 159.548 175.15 159.83 175.228C160.184 175.324 160.472 175.42 160.694 175.516C160.916 175.606 161.105 175.744 161.261 175.93C161.423 176.116 161.507 176.359 161.513 176.659C161.513 176.929 161.438 177.172 161.288 177.388C161.138 177.604 160.925 177.775 160.649 177.901C160.379 178.021 160.067 178.081 159.713 178.081ZM167.17 175.345C167.17 175.501 167.161 175.666 167.143 175.84H163.201C163.231 176.326 163.396 176.707 163.696 176.983C164.002 177.253 164.371 177.388 164.803 177.388C165.157 177.388 165.451 177.307 165.685 177.145C165.925 176.977 166.093 176.755 166.189 176.479H167.071C166.939 176.953 166.675 177.34 166.279 177.64C165.883 177.934 165.391 178.081 164.803 178.081C164.335 178.081 163.915 177.976 163.543 177.766C163.177 177.556 162.889 177.259 162.679 176.875C162.469 176.485 162.364 176.035 162.364 175.525C162.364 175.015 162.466 174.568 162.67 174.184C162.874 173.8 163.159 173.506 163.525 173.302C163.897 173.092 164.323 172.987 164.803 172.987C165.271 172.987 165.685 173.089 166.045 173.293C166.405 173.497 166.681 173.779 166.873 174.139C167.071 174.493 167.17 174.895 167.17 175.345ZM166.324 175.174C166.324 174.862 166.255 174.595 166.117 174.373C165.979 174.145 165.79 173.974 165.55 173.86C165.316 173.74 165.055 173.68 164.767 173.68C164.353 173.68 163.999 173.812 163.705 174.076C163.417 174.34 163.252 174.706 163.21 175.174H166.324ZM167.945 175.516C167.945 175.012 168.047 174.571 168.251 174.193C168.455 173.809 168.734 173.512 169.088 173.302C169.448 173.092 169.85 172.987 170.294 172.987C170.678 172.987 171.035 173.077 171.365 173.257C171.695 173.431 171.947 173.662 172.121 173.95V171.34H172.949V178H172.121V177.073C171.959 177.367 171.719 177.61 171.401 177.802C171.083 177.988 170.711 178.081 170.285 178.081C169.847 178.081 169.448 177.973 169.088 177.757C168.734 177.541 168.455 177.238 168.251 176.848C168.047 176.458 167.945 176.014 167.945 175.516ZM172.121 175.525C172.121 175.153 172.046 174.829 171.896 174.553C171.746 174.277 171.542 174.067 171.284 173.923C171.032 173.773 170.753 173.698 170.447 173.698C170.141 173.698 169.862 173.77 169.61 173.914C169.358 174.058 169.157 174.268 169.007 174.544C168.857 174.82 168.782 175.144 168.782 175.516C168.782 175.894 168.857 176.224 169.007 176.506C169.157 176.782 169.358 176.995 169.61 177.145C169.862 177.289 170.141 177.361 170.447 177.361C170.753 177.361 171.032 177.289 171.284 177.145C171.542 176.995 171.746 176.782 171.896 176.506C172.046 176.224 172.121 175.897 172.121 175.525ZM176.426 175.516C176.426 175.012 176.528 174.571 176.732 174.193C176.936 173.809 177.215 173.512 177.569 173.302C177.929 173.092 178.331 172.987 178.775 172.987C179.159 172.987 179.516 173.077 179.846 173.257C180.176 173.431 180.428 173.662 180.602 173.95V171.34H181.43V178H180.602V177.073C180.44 177.367 180.2 177.61 179.882 177.802C179.564 177.988 179.192 178.081 178.766 178.081C178.328 178.081 177.929 177.973 177.569 177.757C177.215 177.541 176.936 177.238 176.732 176.848C176.528 176.458 176.426 176.014 176.426 175.516ZM180.602 175.525C180.602 175.153 180.527 174.829 180.377 174.553C180.227 174.277 180.023 174.067 179.765 173.923C179.513 173.773 179.234 173.698 178.928 173.698C178.622 173.698 178.343 173.77 178.091 173.914C177.839 174.058 177.638 174.268 177.488 174.544C177.338 174.82 177.263 175.144 177.263 175.516C177.263 175.894 177.338 176.224 177.488 176.506C177.638 176.782 177.839 176.995 178.091 177.145C178.343 177.289 178.622 177.361 178.928 177.361C179.234 177.361 179.513 177.289 179.765 177.145C180.023 176.995 180.227 176.782 180.377 176.506C180.527 176.224 180.602 175.897 180.602 175.525ZM184.965 178.081C184.503 178.081 184.083 177.976 183.705 177.766C183.333 177.556 183.039 177.259 182.823 176.875C182.613 176.485 182.508 176.035 182.508 175.525C182.508 175.021 182.616 174.577 182.832 174.193C183.054 173.803 183.354 173.506 183.732 173.302C184.11 173.092 184.533 172.987 185.001 172.987C185.469 172.987 185.892 173.092 186.27 173.302C186.648 173.506 186.945 173.8 187.161 174.184C187.383 174.568 187.494 175.015 187.494 175.525C187.494 176.035 187.38 176.485 187.152 176.875C186.93 177.259 186.627 177.556 186.243 177.766C185.859 177.976 185.433 178.081 184.965 178.081ZM184.965 177.361C185.259 177.361 185.535 177.292 185.793 177.154C186.051 177.016 186.258 176.809 186.414 176.533C186.576 176.257 186.657 175.921 186.657 175.525C186.657 175.129 186.579 174.793 186.423 174.517C186.267 174.241 186.063 174.037 185.811 173.905C185.559 173.767 185.286 173.698 184.992 173.698C184.692 173.698 184.416 173.767 184.164 173.905C183.918 174.037 183.72 174.241 183.57 174.517C183.42 174.793 183.345 175.129 183.345 175.525C183.345 175.927 183.417 176.266 183.561 176.542C183.711 176.818 183.909 177.025 184.155 177.163C184.401 177.295 184.671 177.361 184.965 177.361ZM77.7013 186.345C77.7013 186.501 77.6923 186.666 77.6743 186.84H73.7323C73.7623 187.326 73.9273 187.707 74.2273 187.983C74.5333 188.253 74.9023 188.388 75.3343 188.388C75.6883 188.388 75.9823 188.307 76.2163 188.145C76.4563 187.977 76.6243 187.755 76.7203 187.479H77.6023C77.4703 187.953 77.2063 188.34 76.8103 188.64C76.4143 188.934 75.9223 189.081 75.3343 189.081C74.8663 189.081 74.4463 188.976 74.0743 188.766C73.7083 188.556 73.4203 188.259 73.2103 187.875C73.0003 187.485 72.8953 187.035 72.8953 186.525C72.8953 186.015 72.9973 185.568 73.2013 185.184C73.4053 184.8 73.6903 184.506 74.0563 184.302C74.4283 184.092 74.8543 183.987 75.3343 183.987C75.8023 183.987 76.2163 184.089 76.5763 184.293C76.9363 184.497 77.2123 184.779 77.4043 185.139C77.6023 185.493 77.7013 185.895 77.7013 186.345ZM76.8553 186.174C76.8553 185.862 76.7863 185.595 76.6483 185.373C76.5103 185.145 76.3213 184.974 76.0813 184.86C75.8473 184.74 75.5863 184.68 75.2983 184.68C74.8843 184.68 74.5303 184.812 74.2363 185.076C73.9483 185.34 73.7833 185.706 73.7413 186.174H76.8553ZM79.2054 183.267C79.0494 183.267 78.9174 183.213 78.8094 183.105C78.7014 182.997 78.6474 182.865 78.6474 182.709C78.6474 182.553 78.7014 182.421 78.8094 182.313C78.9174 182.205 79.0494 182.151 79.2054 182.151C79.3554 182.151 79.4814 182.205 79.5834 182.313C79.6914 182.421 79.7454 182.553 79.7454 182.709C79.7454 182.865 79.6914 182.997 79.5834 183.105C79.4814 183.213 79.3554 183.267 79.2054 183.267ZM79.6014 184.068V189H78.7824V184.068H79.6014ZM85.3712 184.068V189H84.5522V188.271C84.3962 188.523 84.1772 188.721 83.8952 188.865C83.6192 189.003 83.3132 189.072 82.9772 189.072C82.5932 189.072 82.2482 188.994 81.9422 188.838C81.6362 188.676 81.3932 188.436 81.2132 188.118C81.0392 187.8 80.9522 187.413 80.9522 186.957V184.068H81.7622V186.849C81.7622 187.335 81.8852 187.71 82.1312 187.974C82.3772 188.232 82.7132 188.361 83.1392 188.361C83.5772 188.361 83.9222 188.226 84.1742 187.956C84.4262 187.686 84.5522 187.293 84.5522 186.777V184.068H85.3712ZM88.5 189.081C88.122 189.081 87.783 189.018 87.483 188.892C87.183 188.76 86.946 188.58 86.772 188.352C86.598 188.118 86.502 187.851 86.484 187.551H87.33C87.354 187.797 87.468 187.998 87.672 188.154C87.882 188.31 88.155 188.388 88.491 188.388C88.803 188.388 89.049 188.319 89.229 188.181C89.409 188.043 89.499 187.869 89.499 187.659C89.499 187.443 89.403 187.284 89.211 187.182C89.019 187.074 88.722 186.969 88.32 186.867C87.954 186.771 87.654 186.675 87.42 186.579C87.192 186.477 86.994 186.33 86.826 186.138C86.664 185.94 86.583 185.682 86.583 185.364C86.583 185.112 86.658 184.881 86.808 184.671C86.958 184.461 87.171 184.296 87.447 184.176C87.723 184.05 88.038 183.987 88.392 183.987C88.938 183.987 89.379 184.125 89.715 184.401C90.051 184.677 90.231 185.055 90.255 185.535H89.436C89.418 185.277 89.313 185.07 89.121 184.914C88.935 184.758 88.683 184.68 88.365 184.68C88.071 184.68 87.837 184.743 87.663 184.869C87.489 184.995 87.402 185.16 87.402 185.364C87.402 185.526 87.453 185.661 87.555 185.769C87.663 185.871 87.795 185.955 87.951 186.021C88.113 186.081 88.335 186.15 88.617 186.228C88.971 186.324 89.259 186.42 89.481 186.516C89.703 186.606 89.892 186.744 90.048 186.93C90.21 187.116 90.294 187.359 90.3 187.659C90.3 187.929 90.225 188.172 90.075 188.388C89.925 188.604 89.712 188.775 89.436 188.901C89.166 189.021 88.854 189.081 88.5 189.081ZM97.3872 183.978C97.7712 183.978 98.1132 184.059 98.4132 184.221C98.7132 184.377 98.9502 184.614 99.1242 184.932C99.2982 185.25 99.3852 185.637 99.3852 186.093V189H98.5752V186.21C98.5752 185.718 98.4522 185.343 98.2062 185.085C97.9662 184.821 97.6392 184.689 97.2252 184.689C96.7992 184.689 96.4602 184.827 96.2082 185.103C95.9562 185.373 95.8302 185.766 95.8302 186.282V189H95.0202V186.21C95.0202 185.718 94.8972 185.343 94.6512 185.085C94.4112 184.821 94.0842 184.689 93.6702 184.689C93.2442 184.689 92.9052 184.827 92.6532 185.103C92.4012 185.373 92.2752 185.766 92.2752 186.282V189H91.4562V184.068H92.2752V184.779C92.4372 184.521 92.6532 184.323 92.9232 184.185C93.1992 184.047 93.5022 183.978 93.8322 183.978C94.2462 183.978 94.6122 184.071 94.9302 184.257C95.2482 184.443 95.4852 184.716 95.6412 185.076C95.7792 184.728 96.0072 184.458 96.3252 184.266C96.6432 184.074 96.9972 183.978 97.3872 183.978ZM102.88 189.081C102.418 189.081 101.998 188.976 101.62 188.766C101.248 188.556 100.954 188.259 100.738 187.875C100.528 187.485 100.423 187.035 100.423 186.525C100.423 186.021 100.531 185.577 100.747 185.193C100.969 184.803 101.269 184.506 101.647 184.302C102.025 184.092 102.448 183.987 102.916 183.987C103.384 183.987 103.807 184.092 104.185 184.302C104.563 184.506 104.86 184.8 105.076 185.184C105.298 185.568 105.409 186.015 105.409 186.525C105.409 187.035 105.295 187.485 105.067 187.875C104.845 188.259 104.542 188.556 104.158 188.766C103.774 188.976 103.348 189.081 102.88 189.081ZM102.88 188.361C103.174 188.361 103.45 188.292 103.708 188.154C103.966 188.016 104.173 187.809 104.329 187.533C104.491 187.257 104.572 186.921 104.572 186.525C104.572 186.129 104.494 185.793 104.338 185.517C104.182 185.241 103.978 185.037 103.726 184.905C103.474 184.767 103.201 184.698 102.907 184.698C102.607 184.698 102.331 184.767 102.079 184.905C101.833 185.037 101.635 185.241 101.485 185.517C101.335 185.793 101.26 186.129 101.26 186.525C101.26 186.927 101.332 187.266 101.476 187.542C101.626 187.818 101.824 188.025 102.07 188.163C102.316 188.295 102.586 188.361 102.88 188.361ZM106.179 186.516C106.179 186.012 106.281 185.571 106.485 185.193C106.689 184.809 106.968 184.512 107.322 184.302C107.682 184.092 108.084 183.987 108.528 183.987C108.912 183.987 109.269 184.077 109.599 184.257C109.929 184.431 110.181 184.662 110.355 184.95V182.34H111.183V189H110.355V188.073C110.193 188.367 109.953 188.61 109.635 188.802C109.317 188.988 108.945 189.081 108.519 189.081C108.081 189.081 107.682 188.973 107.322 188.757C106.968 188.541 106.689 188.238 106.485 187.848C106.281 187.458 106.179 187.014 106.179 186.516ZM110.355 186.525C110.355 186.153 110.28 185.829 110.13 185.553C109.98 185.277 109.776 185.067 109.518 184.923C109.266 184.773 108.987 184.698 108.681 184.698C108.375 184.698 108.096 184.77 107.844 184.914C107.592 185.058 107.391 185.268 107.241 185.544C107.091 185.82 107.016 186.144 107.016 186.516C107.016 186.894 107.091 187.224 107.241 187.506C107.391 187.782 107.592 187.995 107.844 188.145C108.096 188.289 108.375 188.361 108.681 188.361C108.987 188.361 109.266 188.289 109.518 188.145C109.776 187.995 109.98 187.782 110.13 187.506C110.28 187.224 110.355 186.897 110.355 186.525ZM115.966 184.743V187.65C115.966 187.89 116.017 188.061 116.119 188.163C116.221 188.259 116.398 188.307 116.65 188.307H117.253V189H116.515C116.059 189 115.717 188.895 115.489 188.685C115.261 188.475 115.147 188.13 115.147 187.65V184.743H114.508V184.068H115.147V182.826H115.966V184.068H117.253V184.743H115.966ZM122.745 186.345C122.745 186.501 122.736 186.666 122.718 186.84H118.776C118.806 187.326 118.971 187.707 119.271 187.983C119.577 188.253 119.946 188.388 120.378 188.388C120.732 188.388 121.026 188.307 121.26 188.145C121.5 187.977 121.668 187.755 121.764 187.479H122.646C122.514 187.953 122.25 188.34 121.854 188.64C121.458 188.934 120.966 189.081 120.378 189.081C119.91 189.081 119.49 188.976 119.118 188.766C118.752 188.556 118.464 188.259 118.254 187.875C118.044 187.485 117.939 187.035 117.939 186.525C117.939 186.015 118.041 185.568 118.245 185.184C118.449 184.8 118.734 184.506 119.1 184.302C119.472 184.092 119.898 183.987 120.378 183.987C120.846 183.987 121.26 184.089 121.62 184.293C121.98 184.497 122.256 184.779 122.448 185.139C122.646 185.493 122.745 185.895 122.745 186.345ZM121.899 186.174C121.899 185.862 121.83 185.595 121.692 185.373C121.554 185.145 121.365 184.974 121.125 184.86C120.891 184.74 120.63 184.68 120.342 184.68C119.928 184.68 119.574 184.812 119.28 185.076C118.992 185.34 118.827 185.706 118.785 186.174H121.899ZM129.757 183.978C130.141 183.978 130.483 184.059 130.783 184.221C131.083 184.377 131.32 184.614 131.494 184.932C131.668 185.25 131.755 185.637 131.755 186.093V189H130.945V186.21C130.945 185.718 130.822 185.343 130.576 185.085C130.336 184.821 130.009 184.689 129.595 184.689C129.169 184.689 128.83 184.827 128.578 185.103C128.326 185.373 128.2 185.766 128.2 186.282V189H127.39V186.21C127.39 185.718 127.267 185.343 127.021 185.085C126.781 184.821 126.454 184.689 126.04 184.689C125.614 184.689 125.275 184.827 125.023 185.103C124.771 185.373 124.645 185.766 124.645 186.282V189H123.826V184.068H124.645V184.779C124.807 184.521 125.023 184.323 125.293 184.185C125.569 184.047 125.872 183.978 126.202 183.978C126.616 183.978 126.982 184.071 127.3 184.257C127.618 184.443 127.855 184.716 128.011 185.076C128.149 184.728 128.377 184.458 128.695 184.266C129.013 184.074 129.367 183.978 129.757 183.978ZM133.918 184.977C134.08 184.695 134.32 184.461 134.638 184.275C134.962 184.083 135.337 183.987 135.763 183.987C136.201 183.987 136.597 184.092 136.951 184.302C137.311 184.512 137.593 184.809 137.797 185.193C138.001 185.571 138.103 186.012 138.103 186.516C138.103 187.014 138.001 187.458 137.797 187.848C137.593 188.238 137.311 188.541 136.951 188.757C136.597 188.973 136.201 189.081 135.763 189.081C135.343 189.081 134.971 188.988 134.647 188.802C134.329 188.61 134.086 188.373 133.918 188.091V191.34H133.099V184.068H133.918V184.977ZM137.266 186.516C137.266 186.144 137.191 185.82 137.041 185.544C136.891 185.268 136.687 185.058 136.429 184.914C136.177 184.77 135.898 184.698 135.592 184.698C135.292 184.698 135.013 184.773 134.755 184.923C134.503 185.067 134.299 185.28 134.143 185.562C133.993 185.838 133.918 186.159 133.918 186.525C133.918 186.897 133.993 187.224 134.143 187.506C134.299 187.782 134.503 187.995 134.755 188.145C135.013 188.289 135.292 188.361 135.592 188.361C135.898 188.361 136.177 188.289 136.429 188.145C136.687 187.995 136.891 187.782 137.041 187.506C137.191 187.224 137.266 186.894 137.266 186.516ZM141.332 189.081C140.87 189.081 140.45 188.976 140.072 188.766C139.7 188.556 139.406 188.259 139.19 187.875C138.98 187.485 138.875 187.035 138.875 186.525C138.875 186.021 138.983 185.577 139.199 185.193C139.421 184.803 139.721 184.506 140.099 184.302C140.477 184.092 140.9 183.987 141.368 183.987C141.836 183.987 142.259 184.092 142.637 184.302C143.015 184.506 143.312 184.8 143.528 185.184C143.75 185.568 143.861 186.015 143.861 186.525C143.861 187.035 143.747 187.485 143.519 187.875C143.297 188.259 142.994 188.556 142.61 188.766C142.226 188.976 141.8 189.081 141.332 189.081ZM141.332 188.361C141.626 188.361 141.902 188.292 142.16 188.154C142.418 188.016 142.625 187.809 142.781 187.533C142.943 187.257 143.024 186.921 143.024 186.525C143.024 186.129 142.946 185.793 142.79 185.517C142.634 185.241 142.43 185.037 142.178 184.905C141.926 184.767 141.653 184.698 141.359 184.698C141.059 184.698 140.783 184.767 140.531 184.905C140.285 185.037 140.087 185.241 139.937 185.517C139.787 185.793 139.712 186.129 139.712 186.525C139.712 186.927 139.784 187.266 139.928 187.542C140.078 187.818 140.276 188.025 140.522 188.163C140.768 188.295 141.038 188.361 141.332 188.361ZM145.757 184.869C145.901 184.587 146.105 184.368 146.369 184.212C146.639 184.056 146.966 183.978 147.35 183.978V184.824H147.134C146.216 184.824 145.757 185.322 145.757 186.318V189H144.938V184.068H145.757V184.869ZM148.556 189.054C148.4 189.054 148.268 189 148.16 188.892C148.052 188.784 147.998 188.652 147.998 188.496C147.998 188.34 148.052 188.208 148.16 188.1C148.268 187.992 148.4 187.938 148.556 187.938C148.706 187.938 148.832 187.992 148.934 188.1C149.042 188.208 149.096 188.34 149.096 188.496C149.096 188.652 149.042 188.784 148.934 188.892C148.832 189 148.706 189.054 148.556 189.054Z" fill="black"/>
<path d="M151 72C151 95.7482 131.748 115 108 115C84.2518 115 65 95.7482 65 72C65 48.2518 84.2518 29 108 29C131.748 29 151 48.2518 151 72ZM73.9429 72C73.9429 90.8092 89.1908 106.057 108 106.057C126.809 106.057 142.057 90.8092 142.057 72C142.057 53.1908 126.809 37.9429 108 37.9429C89.1908 37.9429 73.9429 53.1908 73.9429 72Z" fill="#969696"/>
<path d="M108 29C117.948 29 127.589 32.4494 135.279 38.7606C142.969 45.0717 148.233 53.854 150.174 63.6111C152.115 73.3682 150.612 83.4965 145.923 92.2701C141.233 101.044 133.646 107.92 124.455 111.727C115.264 115.534 105.038 116.036 95.5177 113.148C85.9978 110.261 77.7738 104.161 72.2468 95.8895C66.7198 87.6178 64.232 77.6856 65.2071 67.7853C66.1822 57.8849 70.5599 48.6289 77.5944 41.5944L83.918 47.918C78.3465 53.4895 74.8792 60.8205 74.1069 68.6618C73.3346 76.5032 75.3051 84.3697 79.6826 90.9211C84.0601 97.4725 90.5737 102.303 98.1137 104.591C105.654 106.878 113.754 106.48 121.033 103.465C128.313 100.449 134.321 95.0033 138.036 88.0544C141.75 81.1055 142.94 73.0837 141.403 65.3558C139.866 57.6279 135.696 50.6721 129.606 45.6735C123.515 40.6749 115.879 37.9429 108 37.9429V29Z" fill="#9FFA00"/>
<path d="M89.73 75.49C89.8473 76.1353 90.1113 76.634 90.522 76.986C90.9473 77.3233 91.512 77.492 92.216 77.492C93.1253 77.492 93.7853 77.118 94.196 76.37C94.6067 75.6073 94.812 74.3313 94.812 72.542C94.4747 73.0113 93.998 73.378 93.382 73.642C92.7807 73.906 92.128 74.038 91.424 74.038C90.4853 74.038 89.6347 73.8473 88.872 73.466C88.124 73.07 87.53 72.4907 87.09 71.728C86.65 70.9507 86.43 70.012 86.43 68.912C86.43 67.284 86.914 65.9933 87.882 65.04C88.85 64.072 90.17 63.588 91.842 63.588C93.9247 63.588 95.3913 64.2553 96.242 65.59C97.1073 66.9247 97.54 68.934 97.54 71.618C97.54 73.5247 97.3713 75.0867 97.034 76.304C96.7113 77.5213 96.1467 78.4453 95.34 79.076C94.548 79.7067 93.4627 80.022 92.084 80.022C90.9987 80.022 90.0747 79.8167 89.312 79.406C88.5493 78.9807 87.9627 78.4307 87.552 77.756C87.156 77.0667 86.9287 76.3113 86.87 75.49H89.73ZM92.062 71.53C92.8247 71.53 93.426 71.2953 93.866 70.826C94.306 70.3567 94.526 69.726 94.526 68.934C94.526 68.0687 94.2913 67.4013 93.822 66.932C93.3673 66.448 92.744 66.206 91.952 66.206C91.16 66.206 90.5293 66.4553 90.06 66.954C89.6053 67.438 89.378 68.0833 89.378 68.89C89.378 69.6673 89.598 70.3053 90.038 70.804C90.4927 71.288 91.1673 71.53 92.062 71.53ZM100.905 76.524C102.313 75.3507 103.435 74.3753 104.271 73.598C105.107 72.806 105.804 71.9847 106.361 71.134C106.919 70.2833 107.197 69.4473 107.197 68.626C107.197 67.878 107.021 67.2913 106.669 66.866C106.317 66.4407 105.775 66.228 105.041 66.228C104.308 66.228 103.743 66.4773 103.347 66.976C102.951 67.46 102.746 68.1273 102.731 68.978H99.7395C99.7982 67.218 100.319 65.8833 101.301 64.974C102.299 64.0647 103.56 63.61 105.085 63.61C106.757 63.61 108.041 64.0573 108.935 64.952C109.83 65.832 110.277 66.998 110.277 68.45C110.277 69.594 109.969 70.6867 109.353 71.728C108.737 72.7693 108.033 73.6787 107.241 74.456C106.449 75.2187 105.415 76.1427 104.139 77.228H110.629V79.78H99.7615V77.492L100.905 76.524ZM112.218 67.9C112.218 66.7853 112.541 65.9127 113.186 65.282C113.846 64.6513 114.69 64.336 115.716 64.336C116.743 64.336 117.579 64.6513 118.224 65.282C118.884 65.9127 119.214 66.7853 119.214 67.9C119.214 69.0293 118.884 69.9093 118.224 70.54C117.579 71.1707 116.743 71.486 115.716 71.486C114.69 71.486 113.846 71.1707 113.186 70.54C112.541 69.9093 112.218 69.0293 112.218 67.9ZM126.342 64.6L117.696 80H114.704L123.328 64.6H126.342ZM115.694 66.184C114.888 66.184 114.484 66.756 114.484 67.9C114.484 69.0587 114.888 69.638 115.694 69.638C116.09 69.638 116.398 69.4987 116.618 69.22C116.838 68.9267 116.948 68.4867 116.948 67.9C116.948 66.756 116.53 66.184 115.694 66.184ZM121.876 76.678C121.876 75.5487 122.199 74.676 122.844 74.06C123.504 73.4293 124.348 73.114 125.374 73.114C126.401 73.114 127.23 73.4293 127.86 74.06C128.506 74.676 128.828 75.5487 128.828 76.678C128.828 77.8073 128.506 78.6873 127.86 79.318C127.23 79.9487 126.401 80.264 125.374 80.264C124.333 80.264 123.49 79.9487 122.844 79.318C122.199 78.6873 121.876 77.8073 121.876 76.678ZM125.352 74.962C124.516 74.962 124.098 75.534 124.098 76.678C124.098 77.8367 124.516 78.416 125.352 78.416C126.174 78.416 126.584 77.8367 126.584 76.678C126.584 75.534 126.174 74.962 125.352 74.962Z" fill="black"/>
<path d="M65.598 129.644V145H62.518V129.644H65.598ZM75.395 132.636C76.847 132.636 78.0204 133.098 78.915 134.022C79.8097 134.931 80.257 136.207 80.257 137.85V145H77.177V138.268C77.177 137.3 76.935 136.559 76.451 136.046C75.967 135.518 75.307 135.254 74.471 135.254C73.6204 135.254 72.9457 135.518 72.447 136.046C71.963 136.559 71.721 137.3 71.721 138.268V145H68.641V132.812H71.721V134.33C72.1317 133.802 72.6524 133.391 73.283 133.098C73.9284 132.79 74.6324 132.636 75.395 132.636ZM86.772 135.342V141.238C86.772 141.649 86.8673 141.949 87.058 142.14C87.2633 142.316 87.6006 142.404 88.07 142.404H89.5V145H87.564C84.968 145 83.67 143.739 83.67 141.216V135.342H82.218V132.812H83.67V129.798H86.772V132.812H89.5V135.342H86.772ZM103.045 138.642C103.045 139.082 103.016 139.478 102.957 139.83H94.0473C94.1206 140.71 94.4286 141.399 94.9713 141.898C95.5139 142.397 96.1813 142.646 96.9733 142.646C98.1173 142.646 98.9313 142.155 99.4153 141.172H102.737C102.385 142.345 101.711 143.313 100.713 144.076C99.7159 144.824 98.4913 145.198 97.0393 145.198C95.8659 145.198 94.8099 144.941 93.8713 144.428C92.9473 143.9 92.2213 143.159 91.6933 142.206C91.1799 141.253 90.9233 140.153 90.9233 138.906C90.9233 137.645 91.1799 136.537 91.6933 135.584C92.2066 134.631 92.9253 133.897 93.8493 133.384C94.7733 132.871 95.8366 132.614 97.0393 132.614C98.1979 132.614 99.2319 132.863 100.141 133.362C101.065 133.861 101.777 134.572 102.275 135.496C102.789 136.405 103.045 137.454 103.045 138.642ZM99.8553 137.762C99.8406 136.97 99.5546 136.339 98.9973 135.87C98.4399 135.386 97.7579 135.144 96.9513 135.144C96.1886 135.144 95.5433 135.379 95.0153 135.848C94.5019 136.303 94.1866 136.941 94.0693 137.762H99.8553ZM108.373 134.704C108.769 134.059 109.283 133.553 109.913 133.186C110.559 132.819 111.292 132.636 112.113 132.636V135.87H111.299C110.331 135.87 109.598 136.097 109.099 136.552C108.615 137.007 108.373 137.799 108.373 138.928V145H105.293V132.812H108.373V134.704ZM118.852 145.198C117.855 145.198 116.96 145.022 116.168 144.67C115.376 144.303 114.745 143.812 114.276 143.196C113.821 142.58 113.572 141.898 113.528 141.15H116.63C116.689 141.619 116.916 142.008 117.312 142.316C117.723 142.624 118.229 142.778 118.83 142.778C119.417 142.778 119.871 142.661 120.194 142.426C120.531 142.191 120.7 141.891 120.7 141.524C120.7 141.128 120.495 140.835 120.084 140.644C119.688 140.439 119.05 140.219 118.17 139.984C117.261 139.764 116.513 139.537 115.926 139.302C115.354 139.067 114.855 138.708 114.43 138.224C114.019 137.74 113.814 137.087 113.814 136.266C113.814 135.591 114.005 134.975 114.386 134.418C114.782 133.861 115.339 133.421 116.058 133.098C116.791 132.775 117.649 132.614 118.632 132.614C120.084 132.614 121.243 132.981 122.108 133.714C122.973 134.433 123.45 135.408 123.538 136.64H120.59C120.546 136.156 120.341 135.775 119.974 135.496C119.622 135.203 119.145 135.056 118.544 135.056C117.987 135.056 117.554 135.159 117.246 135.364C116.953 135.569 116.806 135.855 116.806 136.222C116.806 136.633 117.011 136.948 117.422 137.168C117.833 137.373 118.471 137.586 119.336 137.806C120.216 138.026 120.942 138.253 121.514 138.488C122.086 138.723 122.577 139.089 122.988 139.588C123.413 140.072 123.633 140.717 123.648 141.524C123.648 142.228 123.45 142.859 123.054 143.416C122.673 143.973 122.115 144.413 121.382 144.736C120.663 145.044 119.82 145.198 118.852 145.198ZM133.04 132.636C133.964 132.636 134.786 132.841 135.504 133.252C136.223 133.648 136.78 134.242 137.176 135.034C137.587 135.811 137.792 136.75 137.792 137.85V145H134.712V138.268C134.712 137.3 134.47 136.559 133.986 136.046C133.502 135.518 132.842 135.254 132.006 135.254C131.156 135.254 130.481 135.518 129.982 136.046C129.498 136.559 129.256 137.3 129.256 138.268V145H126.176V128.72H129.256V134.33C129.652 133.802 130.18 133.391 130.84 133.098C131.5 132.79 132.234 132.636 133.04 132.636ZM142.283 131.36C141.74 131.36 141.286 131.191 140.919 130.854C140.567 130.502 140.391 130.069 140.391 129.556C140.391 129.043 140.567 128.617 140.919 128.28C141.286 127.928 141.74 127.752 142.283 127.752C142.826 127.752 143.273 127.928 143.625 128.28C143.992 128.617 144.175 129.043 144.175 129.556C144.175 130.069 143.992 130.502 143.625 130.854C143.273 131.191 142.826 131.36 142.283 131.36ZM143.801 132.812V145H140.721V132.812H143.801ZM149.924 134.572C150.32 134.015 150.863 133.553 151.552 133.186C152.256 132.805 153.056 132.614 153.95 132.614C154.992 132.614 155.93 132.871 156.766 133.384C157.617 133.897 158.284 134.631 158.768 135.584C159.267 136.523 159.516 137.615 159.516 138.862C159.516 140.109 159.267 141.216 158.768 142.184C158.284 143.137 157.617 143.878 156.766 144.406C155.93 144.934 154.992 145.198 153.95 145.198C153.056 145.198 152.264 145.015 151.574 144.648C150.9 144.281 150.35 143.819 149.924 143.262V150.808H146.844V132.812H149.924V134.572ZM156.37 138.862C156.37 138.129 156.216 137.498 155.908 136.97C155.615 136.427 155.219 136.017 154.72 135.738C154.236 135.459 153.708 135.32 153.136 135.32C152.579 135.32 152.051 135.467 151.552 135.76C151.068 136.039 150.672 136.449 150.364 136.992C150.071 137.535 149.924 138.173 149.924 138.906C149.924 139.639 150.071 140.277 150.364 140.82C150.672 141.363 151.068 141.781 151.552 142.074C152.051 142.353 152.579 142.492 153.136 142.492C153.708 142.492 154.236 142.345 154.72 142.052C155.219 141.759 155.615 141.341 155.908 140.798C156.216 140.255 156.37 139.61 156.37 138.862Z" fill="black"/>
<defs>
<filter id="filter0_d_19_1922" x="0" y="0" width="227" height="227" filterUnits="userSpaceOnUse" color-interpolation-filters="sRGB">
<feFlood flood-opacity="0" result="BackgroundImageFix"/>
<feColorMatrix in="SourceAlpha" type="matrix" values="0 0 0 0 0 0 0 0 0 0 0 0 0 0 0 0 0 0 127 0" result="hardAlpha"/>
<feMorphology radius="2" operator="dilate" in="SourceAlpha" result="effect1_dropShadow_19_1922"/>
<feOffset dx="-2" dy="4"/>
<feGaussianBlur stdDeviation="2.5"/>
<feComposite in2="hardAlpha" operator="out"/>
<feColorMatrix type="matrix" values="0 0 0 0 0 0 0 0 0 0 0 0 0 0 0 0 0 0 0.25 0"/>
<feBlend mode="normal" in2="BackgroundImageFix" result="effect1_dropShadow_19_1922"/>
<feBlend mode="normal" in="SourceGraphic" in2="effect1_dropShadow_19_1922" result="shape"/>
</filter>
</defs>
</svg>
