<svg width="227" height="227" viewBox="0 0 227 227" fill="none" xmlns="http://www.w3.org/2000/svg">
<g filter="url(#filter0_d_19_1913)">
<rect x="9" y="3" width="213" height="213" rx="31" fill="white"/>
</g>
<path d="M46.985 51.6705C54.6314 51.6705 60.83 45.4719 60.83 37.8255C60.83 30.1791 54.6314 23.9805 46.985 23.9805C39.3386 23.9805 33.14 30.1791 33.14 37.8255C33.14 45.4719 39.3386 51.6705 46.985 51.6705Z" stroke="#FF3D00" stroke-width="1.87" stroke-miterlimit="10"/>
<path d="M50.4427 54.2262C58.2852 54.2262 64.6427 47.8686 64.6427 40.0262C64.6427 32.1837 58.2852 25.8262 50.4427 25.8262C42.6003 25.8262 36.2427 32.1837 36.2427 40.0262C36.2427 47.8686 42.6003 54.2262 50.4427 54.2262Z" stroke="#FF3D00" stroke-width="1.92" stroke-miterlimit="10"/>
<path d="M53.9004 57.1588C61.9389 57.1588 68.4554 50.6423 68.4554 42.6038C68.4554 34.5653 61.9389 28.0488 53.9004 28.0488C45.8619 28.0488 39.3454 34.5653 39.3454 42.6038C39.3454 50.6423 45.8619 57.1588 53.9004 57.1588Z" stroke="#FF3D00" stroke-width="1.97" stroke-miterlimit="10"/>
<path d="M57.265 60.53C65.6956 60.53 72.53 53.6956 72.53 45.265C72.53 36.8344 65.6956 30 57.265 30C48.8344 30 42 36.8344 42 45.265C42 53.6956 48.8344 60.53 57.265 60.53Z" fill="#FF3D00"/>
<path d="M36.438 102L33.05 96.016H31.598V102H28.518V86.644H34.282C35.47 86.644 36.482 86.8567 37.318 87.282C38.154 87.6927 38.7773 88.2573 39.188 88.976C39.6133 89.68 39.826 90.472 39.826 91.352C39.826 92.364 39.5327 93.2807 38.946 94.102C38.3593 94.9087 37.4867 95.466 36.328 95.774L40.002 102H36.438ZM31.598 93.706H34.172C35.008 93.706 35.6313 93.508 36.042 93.112C36.4527 92.7013 36.658 92.1367 36.658 91.418C36.658 90.714 36.4527 90.1713 36.042 89.79C35.6313 89.394 35.008 89.196 34.172 89.196H31.598V93.706ZM53.9418 95.642C53.9418 96.082 53.9124 96.478 53.8538 96.83H44.9438C45.0171 97.71 45.3251 98.3993 45.8678 98.898C46.4104 99.3967 47.0778 99.646 47.8698 99.646C49.0138 99.646 49.8278 99.1547 50.3118 98.172H53.6338C53.2818 99.3453 52.6071 100.313 51.6098 101.076C50.6124 101.824 49.3878 102.198 47.9358 102.198C46.7624 102.198 45.7064 101.941 44.7678 101.428C43.8438 100.9 43.1178 100.159 42.5898 99.206C42.0764 98.2527 41.8197 97.1527 41.8197 95.906C41.8197 94.6447 42.0764 93.5373 42.5898 92.584C43.1031 91.6307 43.8218 90.8973 44.7458 90.384C45.6698 89.8707 46.7331 89.614 47.9358 89.614C49.0944 89.614 50.1284 89.8633 51.0378 90.362C51.9618 90.8607 52.6731 91.572 53.1718 92.496C53.6851 93.4053 53.9418 94.454 53.9418 95.642ZM50.7518 94.762C50.7371 93.97 50.4511 93.3393 49.8938 92.87C49.3364 92.386 48.6544 92.144 47.8478 92.144C47.0851 92.144 46.4398 92.3787 45.9118 92.848C45.3984 93.3027 45.0831 93.9407 44.9658 94.762H50.7518ZM55.3979 95.862C55.3979 94.63 55.6399 93.5373 56.1239 92.584C56.6225 91.6307 57.2899 90.8973 58.1259 90.384C58.9765 89.8707 59.9225 89.614 60.9639 89.614C61.8732 89.614 62.6652 89.7973 63.3399 90.164C64.0292 90.5307 64.5792 90.9927 64.9899 91.55V89.812H68.0919V102H64.9899V100.218C64.5939 100.79 64.0439 101.267 63.3399 101.648C62.6505 102.015 61.8512 102.198 60.9419 102.198C59.9152 102.198 58.9765 101.934 58.1259 101.406C57.2899 100.878 56.6225 100.137 56.1239 99.184C55.6399 98.216 55.3979 97.1087 55.3979 95.862ZM64.9899 95.906C64.9899 95.158 64.8432 94.52 64.5499 93.992C64.2565 93.4493 63.8605 93.0387 63.3619 92.76C62.8632 92.4667 62.3279 92.32 61.7559 92.32C61.1839 92.32 60.6559 92.4593 60.1719 92.738C59.6879 93.0167 59.2919 93.4273 58.9839 93.97C58.6905 94.498 58.5439 95.1287 58.5439 95.862C58.5439 96.5953 58.6905 97.2407 58.9839 97.798C59.2919 98.3407 59.6879 98.7587 60.1719 99.052C60.6705 99.3453 61.1985 99.492 61.7559 99.492C62.3279 99.492 62.8632 99.3527 63.3619 99.074C63.8605 98.7807 64.2565 98.37 64.5499 97.842C64.8432 97.2993 64.9899 96.654 64.9899 95.906ZM74.18 85.72V102H71.1V85.72H74.18ZM93.6633 91.396C93.6633 92.2173 93.4653 92.9873 93.0693 93.706C92.6879 94.4247 92.0793 95.004 91.2433 95.444C90.4219 95.884 89.3806 96.104 88.1193 96.104H85.5453V102H82.4653V86.644H88.1193C89.3073 86.644 90.3193 86.8493 91.1553 87.26C91.9913 87.6707 92.6146 88.2353 93.0253 88.954C93.4506 89.6727 93.6633 90.4867 93.6633 91.396ZM87.9873 93.618C88.8379 93.618 89.4686 93.4273 89.8793 93.046C90.2899 92.65 90.4953 92.1 90.4953 91.396C90.4953 89.9 89.6593 89.152 87.9873 89.152H85.5453V93.618H87.9873ZM98.93 91.704C99.326 91.0587 99.8394 90.5527 100.47 90.186C101.115 89.8193 101.849 89.636 102.67 89.636V92.87H101.856C100.888 92.87 100.155 93.0973 99.656 93.552C99.172 94.0067 98.93 94.7987 98.93 95.928V102H95.85V89.812H98.93V91.704ZM110.157 102.198C108.983 102.198 107.927 101.941 106.989 101.428C106.05 100.9 105.309 100.159 104.767 99.206C104.239 98.2527 103.975 97.1527 103.975 95.906C103.975 94.6593 104.246 93.5593 104.789 92.606C105.346 91.6527 106.101 90.9193 107.055 90.406C108.008 89.878 109.071 89.614 110.245 89.614C111.418 89.614 112.481 89.878 113.435 90.406C114.388 90.9193 115.136 91.6527 115.679 92.606C116.236 93.5593 116.515 94.6593 116.515 95.906C116.515 97.1527 116.229 98.2527 115.657 99.206C115.099 100.159 114.337 100.9 113.369 101.428C112.415 101.941 111.345 102.198 110.157 102.198ZM110.157 99.514C110.714 99.514 111.235 99.382 111.719 99.118C112.217 98.8393 112.613 98.4287 112.907 97.886C113.2 97.3433 113.347 96.6833 113.347 95.906C113.347 94.7473 113.039 93.86 112.423 93.244C111.821 92.6133 111.081 92.298 110.201 92.298C109.321 92.298 108.58 92.6133 107.979 93.244C107.392 93.86 107.099 94.7473 107.099 95.906C107.099 97.0647 107.385 97.9593 107.957 98.59C108.543 99.206 109.277 99.514 110.157 99.514ZM120.336 88.36C119.779 88.36 119.317 88.1913 118.95 87.854C118.598 87.502 118.422 87.0693 118.422 86.556C118.422 86.0427 118.598 85.6173 118.95 85.28C119.317 84.928 119.779 84.752 120.336 84.752C120.879 84.752 121.326 84.928 121.678 85.28C122.03 85.6173 122.206 86.0427 122.206 86.556C122.206 87.0693 122.03 87.502 121.678 87.854C121.326 88.1913 120.879 88.36 120.336 88.36ZM121.854 104.002C121.854 105.351 121.517 106.319 120.842 106.906C120.182 107.507 119.229 107.808 117.982 107.808H116.618V105.19H117.498C117.967 105.19 118.297 105.095 118.488 104.904C118.679 104.728 118.774 104.435 118.774 104.024V89.812H121.854V104.002ZM136.227 95.642C136.227 96.082 136.198 96.478 136.139 96.83H127.229C127.302 97.71 127.61 98.3993 128.153 98.898C128.696 99.3967 129.363 99.646 130.155 99.646C131.299 99.646 132.113 99.1547 132.597 98.172H135.919C135.567 99.3453 134.892 100.313 133.895 101.076C132.898 101.824 131.673 102.198 130.221 102.198C129.048 102.198 127.992 101.941 127.053 101.428C126.129 100.9 125.403 100.159 124.875 99.206C124.362 98.2527 124.105 97.1527 124.105 95.906C124.105 94.6447 124.362 93.5373 124.875 92.584C125.388 91.6307 126.107 90.8973 127.031 90.384C127.955 89.8707 129.018 89.614 130.221 89.614C131.38 89.614 132.414 89.8633 133.323 90.362C134.247 90.8607 134.958 91.572 135.457 92.496C135.97 93.4053 136.227 94.454 136.227 95.642ZM133.037 94.762C133.022 93.97 132.736 93.3393 132.179 92.87C131.622 92.386 130.94 92.144 130.133 92.144C129.37 92.144 128.725 92.3787 128.197 92.848C127.684 93.3027 127.368 93.9407 127.251 94.762H133.037ZM137.683 95.906C137.683 94.6447 137.94 93.5447 138.453 92.606C138.966 91.6527 139.678 90.9193 140.587 90.406C141.496 89.878 142.538 89.614 143.711 89.614C145.222 89.614 146.468 89.9953 147.451 90.758C148.448 91.506 149.116 92.562 149.453 93.926H146.131C145.955 93.398 145.654 92.9873 145.229 92.694C144.818 92.386 144.305 92.232 143.689 92.232C142.809 92.232 142.112 92.5547 141.599 93.2C141.086 93.8307 140.829 94.7327 140.829 95.906C140.829 97.0647 141.086 97.9667 141.599 98.612C142.112 99.2427 142.809 99.558 143.689 99.558C144.936 99.558 145.75 99.0007 146.131 97.886H149.453C149.116 99.206 148.448 100.255 147.451 101.032C146.454 101.809 145.207 102.198 143.711 102.198C142.538 102.198 141.496 101.941 140.587 101.428C139.678 100.9 138.966 100.167 138.453 99.228C137.94 98.2747 137.683 97.1673 137.683 95.906ZM155.295 92.342V98.238C155.295 98.6487 155.391 98.9493 155.581 99.14C155.787 99.316 156.124 99.404 156.593 99.404H158.023V102H156.087C153.491 102 152.193 100.739 152.193 98.216V92.342H150.741V89.812H152.193V86.798H155.295V89.812H158.023V92.342H155.295ZM164.903 102.198C163.905 102.198 163.011 102.022 162.219 101.67C161.427 101.303 160.796 100.812 160.327 100.196C159.872 99.58 159.623 98.898 159.579 98.15H162.681C162.739 98.6193 162.967 99.008 163.363 99.316C163.773 99.624 164.279 99.778 164.881 99.778C165.467 99.778 165.922 99.6607 166.245 99.426C166.582 99.1913 166.751 98.8907 166.751 98.524C166.751 98.128 166.545 97.8347 166.135 97.644C165.739 97.4387 165.101 97.2187 164.221 96.984C163.311 96.764 162.563 96.5367 161.977 96.302C161.405 96.0673 160.906 95.708 160.481 95.224C160.07 94.74 159.865 94.0873 159.865 93.266C159.865 92.5913 160.055 91.9753 160.437 91.418C160.833 90.8607 161.39 90.4207 162.109 90.098C162.842 89.7753 163.7 89.614 164.683 89.614C166.135 89.614 167.293 89.9807 168.159 90.714C169.024 91.4327 169.501 92.408 169.589 93.64H166.641C166.597 93.156 166.391 92.7747 166.025 92.496C165.673 92.2027 165.196 92.056 164.595 92.056C164.037 92.056 163.605 92.1587 163.297 92.364C163.003 92.5693 162.857 92.8553 162.857 93.222C162.857 93.6327 163.062 93.948 163.473 94.168C163.883 94.3733 164.521 94.586 165.387 94.806C166.267 95.026 166.993 95.2533 167.565 95.488C168.137 95.7227 168.628 96.0893 169.039 96.588C169.464 97.072 169.684 97.7173 169.699 98.524C169.699 99.228 169.501 99.8587 169.105 100.416C168.723 100.973 168.166 101.413 167.433 101.736C166.714 102.044 165.871 102.198 164.903 102.198Z" fill="black"/>
<path d="M28.512 128.334H30.708V129H27.693V122.727H28.512V128.334ZM33.7288 129.081C33.2668 129.081 32.8468 128.976 32.4688 128.766C32.0968 128.556 31.8028 128.259 31.5868 127.875C31.3768 127.485 31.2718 127.035 31.2718 126.525C31.2718 126.021 31.3798 125.577 31.5958 125.193C31.8178 124.803 32.1178 124.506 32.4958 124.302C32.8738 124.092 33.2968 123.987 33.7648 123.987C34.2328 123.987 34.6558 124.092 35.0338 124.302C35.4118 124.506 35.7088 124.8 35.9248 125.184C36.1468 125.568 36.2578 126.015 36.2578 126.525C36.2578 127.035 36.1438 127.485 35.9158 127.875C35.6938 128.259 35.3908 128.556 35.0068 128.766C34.6228 128.976 34.1968 129.081 33.7288 129.081ZM33.7288 128.361C34.0228 128.361 34.2988 128.292 34.5568 128.154C34.8148 128.016 35.0218 127.809 35.1778 127.533C35.3398 127.257 35.4208 126.921 35.4208 126.525C35.4208 126.129 35.3428 125.793 35.1868 125.517C35.0308 125.241 34.8268 125.037 34.5748 124.905C34.3228 124.767 34.0498 124.698 33.7558 124.698C33.4558 124.698 33.1798 124.767 32.9278 124.905C32.6818 125.037 32.4838 125.241 32.3338 125.517C32.1838 125.793 32.1088 126.129 32.1088 126.525C32.1088 126.927 32.1808 127.266 32.3248 127.542C32.4748 127.818 32.6728 128.025 32.9188 128.163C33.1648 128.295 33.4348 128.361 33.7288 128.361ZM38.1536 124.869C38.2976 124.587 38.5016 124.368 38.7656 124.212C39.0356 124.056 39.3626 123.978 39.7466 123.978V124.824H39.5306C38.6126 124.824 38.1536 125.322 38.1536 126.318V129H37.3346V124.068H38.1536V124.869ZM45.192 126.345C45.192 126.501 45.183 126.666 45.165 126.84H41.223C41.253 127.326 41.418 127.707 41.718 127.983C42.024 128.253 42.393 128.388 42.825 128.388C43.179 128.388 43.473 128.307 43.707 128.145C43.947 127.977 44.115 127.755 44.211 127.479H45.093C44.961 127.953 44.697 128.34 44.301 128.64C43.905 128.934 43.413 129.081 42.825 129.081C42.357 129.081 41.937 128.976 41.565 128.766C41.199 128.556 40.911 128.259 40.701 127.875C40.491 127.485 40.386 127.035 40.386 126.525C40.386 126.015 40.488 125.568 40.692 125.184C40.896 124.8 41.181 124.506 41.547 124.302C41.919 124.092 42.345 123.987 42.825 123.987C43.293 123.987 43.707 124.089 44.067 124.293C44.427 124.497 44.703 124.779 44.895 125.139C45.093 125.493 45.192 125.895 45.192 126.345ZM44.346 126.174C44.346 125.862 44.277 125.595 44.139 125.373C44.001 125.145 43.812 124.974 43.572 124.86C43.338 124.74 43.077 124.68 42.789 124.68C42.375 124.68 42.021 124.812 41.727 125.076C41.439 125.34 41.274 125.706 41.232 126.174H44.346ZM52.2041 123.978C52.5881 123.978 52.9301 124.059 53.2301 124.221C53.5301 124.377 53.7671 124.614 53.9411 124.932C54.1151 125.25 54.2021 125.637 54.2021 126.093V129H53.3921V126.21C53.3921 125.718 53.2691 125.343 53.0231 125.085C52.7831 124.821 52.4561 124.689 52.0421 124.689C51.6161 124.689 51.2771 124.827 51.0251 125.103C50.7731 125.373 50.6471 125.766 50.6471 126.282V129H49.8371V126.21C49.8371 125.718 49.7141 125.343 49.4681 125.085C49.2281 124.821 48.9011 124.689 48.4871 124.689C48.0611 124.689 47.7221 124.827 47.4701 125.103C47.2181 125.373 47.0921 125.766 47.0921 126.282V129H46.2731V124.068H47.0921V124.779C47.2541 124.521 47.4701 124.323 47.7401 124.185C48.0161 124.047 48.3191 123.978 48.6491 123.978C49.0631 123.978 49.4291 124.071 49.7471 124.257C50.0651 124.443 50.3021 124.716 50.4581 125.076C50.5961 124.728 50.8241 124.458 51.1421 124.266C51.4601 124.074 51.8141 123.978 52.2041 123.978ZM58.368 123.267C58.212 123.267 58.08 123.213 57.972 123.105C57.864 122.997 57.81 122.865 57.81 122.709C57.81 122.553 57.864 122.421 57.972 122.313C58.08 122.205 58.212 122.151 58.368 122.151C58.518 122.151 58.644 122.205 58.746 122.313C58.854 122.421 58.908 122.553 58.908 122.709C58.908 122.865 58.854 122.997 58.746 123.105C58.644 123.213 58.518 123.267 58.368 123.267ZM58.764 124.068V129H57.945V124.068H58.764ZM60.9788 124.977C61.1408 124.695 61.3808 124.461 61.6988 124.275C62.0228 124.083 62.3978 123.987 62.8238 123.987C63.2618 123.987 63.6578 124.092 64.0118 124.302C64.3718 124.512 64.6538 124.809 64.8578 125.193C65.0618 125.571 65.1638 126.012 65.1638 126.516C65.1638 127.014 65.0618 127.458 64.8578 127.848C64.6538 128.238 64.3718 128.541 64.0118 128.757C63.6578 128.973 63.2618 129.081 62.8238 129.081C62.4038 129.081 62.0318 128.988 61.7078 128.802C61.3898 128.61 61.1468 128.373 60.9788 128.091V131.34H60.1598V124.068H60.9788V124.977ZM64.3268 126.516C64.3268 126.144 64.2518 125.82 64.1018 125.544C63.9518 125.268 63.7478 125.058 63.4898 124.914C63.2378 124.77 62.9588 124.698 62.6528 124.698C62.3528 124.698 62.0738 124.773 61.8158 124.923C61.5638 125.067 61.3598 125.28 61.2038 125.562C61.0538 125.838 60.9788 126.159 60.9788 126.525C60.9788 126.897 61.0538 127.224 61.2038 127.506C61.3598 127.782 61.5638 127.995 61.8158 128.145C62.0738 128.289 62.3528 128.361 62.6528 128.361C62.9588 128.361 63.2378 128.289 63.4898 128.145C63.7478 127.995 63.9518 127.782 64.1018 127.506C64.2518 127.224 64.3268 126.894 64.3268 126.516ZM67.9878 129.081C67.6098 129.081 67.2708 129.018 66.9708 128.892C66.6708 128.76 66.4338 128.58 66.2598 128.352C66.0858 128.118 65.9898 127.851 65.9718 127.551H66.8178C66.8418 127.797 66.9558 127.998 67.1598 128.154C67.3698 128.31 67.6428 128.388 67.9788 128.388C68.2908 128.388 68.5368 128.319 68.7168 128.181C68.8968 128.043 68.9868 127.869 68.9868 127.659C68.9868 127.443 68.8908 127.284 68.6988 127.182C68.5068 127.074 68.2098 126.969 67.8078 126.867C67.4418 126.771 67.1418 126.675 66.9078 126.579C66.6798 126.477 66.4818 126.33 66.3138 126.138C66.1518 125.94 66.0708 125.682 66.0708 125.364C66.0708 125.112 66.1458 124.881 66.2958 124.671C66.4458 124.461 66.6588 124.296 66.9348 124.176C67.2108 124.05 67.5258 123.987 67.8798 123.987C68.4258 123.987 68.8668 124.125 69.2028 124.401C69.5388 124.677 69.7188 125.055 69.7428 125.535H68.9238C68.9058 125.277 68.8008 125.07 68.6088 124.914C68.4228 124.758 68.1708 124.68 67.8528 124.68C67.5588 124.68 67.3248 124.743 67.1508 124.869C66.9768 124.995 66.8898 125.16 66.8898 125.364C66.8898 125.526 66.9408 125.661 67.0428 125.769C67.1508 125.871 67.2828 125.955 67.4388 126.021C67.6008 126.081 67.8228 126.15 68.1048 126.228C68.4588 126.324 68.7468 126.42 68.9688 126.516C69.1908 126.606 69.3798 126.744 69.5358 126.93C69.6978 127.116 69.7818 127.359 69.7878 127.659C69.7878 127.929 69.7128 128.172 69.5628 128.388C69.4128 128.604 69.1998 128.775 68.9238 128.901C68.6538 129.021 68.3418 129.081 67.9878 129.081ZM75.318 124.068V129H74.499V128.271C74.343 128.523 74.124 128.721 73.842 128.865C73.566 129.003 73.26 129.072 72.924 129.072C72.54 129.072 72.195 128.994 71.889 128.838C71.583 128.676 71.34 128.436 71.16 128.118C70.986 127.8 70.899 127.413 70.899 126.957V124.068H71.709V126.849C71.709 127.335 71.832 127.71 72.078 127.974C72.324 128.232 72.66 128.361 73.086 128.361C73.524 128.361 73.869 128.226 74.121 127.956C74.373 127.686 74.499 127.293 74.499 126.777V124.068H75.318ZM82.6318 123.978C83.0158 123.978 83.3578 124.059 83.6578 124.221C83.9578 124.377 84.1948 124.614 84.3688 124.932C84.5428 125.25 84.6298 125.637 84.6298 126.093V129H83.8198V126.21C83.8198 125.718 83.6968 125.343 83.4508 125.085C83.2108 124.821 82.8838 124.689 82.4698 124.689C82.0438 124.689 81.7048 124.827 81.4528 125.103C81.2008 125.373 81.0748 125.766 81.0748 126.282V129H80.2648V126.21C80.2648 125.718 80.1418 125.343 79.8958 125.085C79.6558 124.821 79.3288 124.689 78.9148 124.689C78.4888 124.689 78.1498 124.827 77.8978 125.103C77.6458 125.373 77.5198 125.766 77.5198 126.282V129H76.7008V124.068H77.5198V124.779C77.6818 124.521 77.8978 124.323 78.1678 124.185C78.4438 124.047 78.7468 123.978 79.0768 123.978C79.4908 123.978 79.8568 124.071 80.1748 124.257C80.4928 124.443 80.7298 124.716 80.8858 125.076C81.0238 124.728 81.2518 124.458 81.5698 124.266C81.8878 124.074 82.2418 123.978 82.6318 123.978ZM88.0667 126.516C88.0667 126.012 88.1687 125.571 88.3727 125.193C88.5767 124.809 88.8557 124.512 89.2097 124.302C89.5697 124.092 89.9717 123.987 90.4157 123.987C90.7997 123.987 91.1567 124.077 91.4867 124.257C91.8167 124.431 92.0687 124.662 92.2427 124.95V122.34H93.0707V129H92.2427V128.073C92.0807 128.367 91.8407 128.61 91.5227 128.802C91.2047 128.988 90.8327 129.081 90.4067 129.081C89.9687 129.081 89.5697 128.973 89.2097 128.757C88.8557 128.541 88.5767 128.238 88.3727 127.848C88.1687 127.458 88.0667 127.014 88.0667 126.516ZM92.2427 126.525C92.2427 126.153 92.1677 125.829 92.0177 125.553C91.8677 125.277 91.6637 125.067 91.4057 124.923C91.1537 124.773 90.8747 124.698 90.5687 124.698C90.2627 124.698 89.9837 124.77 89.7317 124.914C89.4797 125.058 89.2787 125.268 89.1287 125.544C88.9787 125.82 88.9037 126.144 88.9037 126.516C88.9037 126.894 88.9787 127.224 89.1287 127.506C89.2787 127.782 89.4797 127.995 89.7317 128.145C89.9837 128.289 90.2627 128.361 90.5687 128.361C90.8747 128.361 91.1537 128.289 91.4057 128.145C91.6637 127.995 91.8677 127.782 92.0177 127.506C92.1677 127.224 92.2427 126.897 92.2427 126.525ZM96.6057 129.081C96.1437 129.081 95.7237 128.976 95.3457 128.766C94.9737 128.556 94.6797 128.259 94.4637 127.875C94.2537 127.485 94.1487 127.035 94.1487 126.525C94.1487 126.021 94.2567 125.577 94.4727 125.193C94.6947 124.803 94.9947 124.506 95.3727 124.302C95.7507 124.092 96.1737 123.987 96.6417 123.987C97.1097 123.987 97.5327 124.092 97.9107 124.302C98.2887 124.506 98.5857 124.8 98.8017 125.184C99.0237 125.568 99.1347 126.015 99.1347 126.525C99.1347 127.035 99.0207 127.485 98.7927 127.875C98.5707 128.259 98.2677 128.556 97.8837 128.766C97.4997 128.976 97.0737 129.081 96.6057 129.081ZM96.6057 128.361C96.8997 128.361 97.1757 128.292 97.4337 128.154C97.6917 128.016 97.8987 127.809 98.0547 127.533C98.2167 127.257 98.2977 126.921 98.2977 126.525C98.2977 126.129 98.2197 125.793 98.0637 125.517C97.9077 125.241 97.7037 125.037 97.4517 124.905C97.1997 124.767 96.9267 124.698 96.6327 124.698C96.3327 124.698 96.0567 124.767 95.8047 124.905C95.5587 125.037 95.3607 125.241 95.2107 125.517C95.0607 125.793 94.9857 126.129 94.9857 126.525C94.9857 126.927 95.0577 127.266 95.2017 127.542C95.3517 127.818 95.5497 128.025 95.7957 128.163C96.0417 128.295 96.3117 128.361 96.6057 128.361ZM101.031 122.34V129H100.212V122.34H101.031ZM104.577 129.081C104.115 129.081 103.695 128.976 103.317 128.766C102.945 128.556 102.651 128.259 102.435 127.875C102.225 127.485 102.12 127.035 102.12 126.525C102.12 126.021 102.228 125.577 102.444 125.193C102.666 124.803 102.966 124.506 103.344 124.302C103.722 124.092 104.145 123.987 104.613 123.987C105.081 123.987 105.504 124.092 105.882 124.302C106.26 124.506 106.557 124.8 106.773 125.184C106.995 125.568 107.106 126.015 107.106 126.525C107.106 127.035 106.992 127.485 106.764 127.875C106.542 128.259 106.239 128.556 105.855 128.766C105.471 128.976 105.045 129.081 104.577 129.081ZM104.577 128.361C104.871 128.361 105.147 128.292 105.405 128.154C105.663 128.016 105.87 127.809 106.026 127.533C106.188 127.257 106.269 126.921 106.269 126.525C106.269 126.129 106.191 125.793 106.035 125.517C105.879 125.241 105.675 125.037 105.423 124.905C105.171 124.767 104.898 124.698 104.604 124.698C104.304 124.698 104.028 124.767 103.776 124.905C103.53 125.037 103.332 125.241 103.182 125.517C103.032 125.793 102.957 126.129 102.957 126.525C102.957 126.927 103.029 127.266 103.173 127.542C103.323 127.818 103.521 128.025 103.767 128.163C104.013 128.295 104.283 128.361 104.577 128.361ZM109.002 124.869C109.146 124.587 109.35 124.368 109.614 124.212C109.884 124.056 110.211 123.978 110.595 123.978V124.824H110.379C109.461 124.824 109.002 125.322 109.002 126.318V129H108.183V124.068H109.002V124.869ZM115.686 129.081C115.308 129.081 114.969 129.018 114.669 128.892C114.369 128.76 114.132 128.58 113.958 128.352C113.784 128.118 113.688 127.851 113.67 127.551H114.516C114.54 127.797 114.654 127.998 114.858 128.154C115.068 128.31 115.341 128.388 115.677 128.388C115.989 128.388 116.235 128.319 116.415 128.181C116.595 128.043 116.685 127.869 116.685 127.659C116.685 127.443 116.589 127.284 116.397 127.182C116.205 127.074 115.908 126.969 115.506 126.867C115.14 126.771 114.84 126.675 114.606 126.579C114.378 126.477 114.18 126.33 114.012 126.138C113.85 125.94 113.769 125.682 113.769 125.364C113.769 125.112 113.844 124.881 113.994 124.671C114.144 124.461 114.357 124.296 114.633 124.176C114.909 124.05 115.224 123.987 115.578 123.987C116.124 123.987 116.565 124.125 116.901 124.401C117.237 124.677 117.417 125.055 117.441 125.535H116.622C116.604 125.277 116.499 125.07 116.307 124.914C116.121 124.758 115.869 124.68 115.551 124.68C115.257 124.68 115.023 124.743 114.849 124.869C114.675 124.995 114.588 125.16 114.588 125.364C114.588 125.526 114.639 125.661 114.741 125.769C114.849 125.871 114.981 125.955 115.137 126.021C115.299 126.081 115.521 126.15 115.803 126.228C116.157 126.324 116.445 126.42 116.667 126.516C116.889 126.606 117.078 126.744 117.234 126.93C117.396 127.116 117.48 127.359 117.486 127.659C117.486 127.929 117.411 128.172 117.261 128.388C117.111 128.604 116.898 128.775 116.622 128.901C116.352 129.021 116.04 129.081 115.686 129.081ZM119.065 123.267C118.909 123.267 118.777 123.213 118.669 123.105C118.561 122.997 118.507 122.865 118.507 122.709C118.507 122.553 118.561 122.421 118.669 122.313C118.777 122.205 118.909 122.151 119.065 122.151C119.215 122.151 119.341 122.205 119.443 122.313C119.551 122.421 119.605 122.553 119.605 122.709C119.605 122.865 119.551 122.997 119.443 123.105C119.341 123.213 119.215 123.267 119.065 123.267ZM119.461 124.068V129H118.642V124.068H119.461ZM121.856 124.743V127.65C121.856 127.89 121.907 128.061 122.009 128.163C122.111 128.259 122.288 128.307 122.54 128.307H123.143V129H122.405C121.949 129 121.607 128.895 121.379 128.685C121.151 128.475 121.037 128.13 121.037 127.65V124.743H120.398V124.068H121.037V122.826H121.856V124.068H123.143V124.743H121.856ZM126.229 126.516C126.229 126.012 126.331 125.571 126.535 125.193C126.739 124.809 127.018 124.512 127.372 124.302C127.732 124.092 128.131 123.987 128.569 123.987C129.001 123.987 129.376 124.08 129.694 124.266C130.012 124.452 130.249 124.686 130.405 124.968V124.068H131.233V129H130.405V128.082C130.243 128.37 130 128.61 129.676 128.802C129.358 128.988 128.986 129.081 128.56 129.081C128.122 129.081 127.726 128.973 127.372 128.757C127.018 128.541 126.739 128.238 126.535 127.848C126.331 127.458 126.229 127.014 126.229 126.516ZM130.405 126.525C130.405 126.153 130.33 125.829 130.18 125.553C130.03 125.277 129.826 125.067 129.568 124.923C129.316 124.773 129.037 124.698 128.731 124.698C128.425 124.698 128.146 124.77 127.894 124.914C127.642 125.058 127.441 125.268 127.291 125.544C127.141 125.82 127.066 126.144 127.066 126.516C127.066 126.894 127.141 127.224 127.291 127.506C127.441 127.782 127.642 127.995 127.894 128.145C128.146 128.289 128.425 128.361 128.731 128.361C129.037 128.361 129.316 128.289 129.568 128.145C129.826 127.995 130.03 127.782 130.18 127.506C130.33 127.224 130.405 126.897 130.405 126.525ZM138.548 123.978C138.932 123.978 139.274 124.059 139.574 124.221C139.874 124.377 140.111 124.614 140.285 124.932C140.459 125.25 140.546 125.637 140.546 126.093V129H139.736V126.21C139.736 125.718 139.613 125.343 139.367 125.085C139.127 124.821 138.8 124.689 138.386 124.689C137.96 124.689 137.621 124.827 137.369 125.103C137.117 125.373 136.991 125.766 136.991 126.282V129H136.181V126.21C136.181 125.718 136.058 125.343 135.812 125.085C135.572 124.821 135.245 124.689 134.831 124.689C134.405 124.689 134.066 124.827 133.814 125.103C133.562 125.373 133.436 125.766 133.436 126.282V129H132.617V124.068H133.436V124.779C133.598 124.521 133.814 124.323 134.084 124.185C134.36 124.047 134.663 123.978 134.993 123.978C135.407 123.978 135.773 124.071 136.091 124.257C136.409 124.443 136.646 124.716 136.802 125.076C136.94 124.728 137.168 124.458 137.486 124.266C137.804 124.074 138.158 123.978 138.548 123.978ZM146.389 126.345C146.389 126.501 146.38 126.666 146.362 126.84H142.42C142.45 127.326 142.615 127.707 142.915 127.983C143.221 128.253 143.59 128.388 144.022 128.388C144.376 128.388 144.67 128.307 144.904 128.145C145.144 127.977 145.312 127.755 145.408 127.479H146.29C146.158 127.953 145.894 128.34 145.498 128.64C145.102 128.934 144.61 129.081 144.022 129.081C143.554 129.081 143.134 128.976 142.762 128.766C142.396 128.556 142.108 128.259 141.898 127.875C141.688 127.485 141.583 127.035 141.583 126.525C141.583 126.015 141.685 125.568 141.889 125.184C142.093 124.8 142.378 124.506 142.744 124.302C143.116 124.092 143.542 123.987 144.022 123.987C144.49 123.987 144.904 124.089 145.264 124.293C145.624 124.497 145.9 124.779 146.092 125.139C146.29 125.493 146.389 125.895 146.389 126.345ZM145.543 126.174C145.543 125.862 145.474 125.595 145.336 125.373C145.198 125.145 145.009 124.974 144.769 124.86C144.535 124.74 144.274 124.68 143.986 124.68C143.572 124.68 143.218 124.812 142.924 125.076C142.636 125.34 142.471 125.706 142.429 126.174H145.543ZM148.469 124.743V127.65C148.469 127.89 148.52 128.061 148.622 128.163C148.724 128.259 148.901 128.307 149.153 128.307H149.756V129H149.018C148.562 129 148.22 128.895 147.992 128.685C147.764 128.475 147.65 128.13 147.65 127.65V124.743H147.011V124.068H147.65V122.826H148.469V124.068H149.756V124.743H148.469ZM151.595 127.866L150.587 130.287H150.038L150.695 127.866H151.595ZM27.387 137.525C27.387 137.015 27.489 136.571 27.693 136.193C27.897 135.809 28.179 135.512 28.539 135.302C28.905 135.092 29.322 134.987 29.79 134.987C30.396 134.987 30.894 135.134 31.284 135.428C31.68 135.722 31.941 136.13 32.067 136.652H31.185C31.101 136.352 30.936 136.115 30.69 135.941C30.45 135.767 30.15 135.68 29.79 135.68C29.322 135.68 28.944 135.842 28.656 136.166C28.368 136.484 28.224 136.937 28.224 137.525C28.224 138.119 28.368 138.578 28.656 138.902C28.944 139.226 29.322 139.388 29.79 139.388C30.15 139.388 30.45 139.304 30.69 139.136C30.93 138.968 31.095 138.728 31.185 138.416H32.067C31.935 138.92 31.671 139.325 31.275 139.631C30.879 139.931 30.384 140.081 29.79 140.081C29.322 140.081 28.905 139.976 28.539 139.766C28.179 139.556 27.897 139.259 27.693 138.875C27.489 138.491 27.387 138.041 27.387 137.525ZM35.3108 140.081C34.8488 140.081 34.4288 139.976 34.0508 139.766C33.6788 139.556 33.3848 139.259 33.1688 138.875C32.9588 138.485 32.8538 138.035 32.8538 137.525C32.8538 137.021 32.9618 136.577 33.1778 136.193C33.3998 135.803 33.6998 135.506 34.0778 135.302C34.4558 135.092 34.8788 134.987 35.3468 134.987C35.8148 134.987 36.2378 135.092 36.6158 135.302C36.9938 135.506 37.2908 135.8 37.5068 136.184C37.7288 136.568 37.8398 137.015 37.8398 137.525C37.8398 138.035 37.7258 138.485 37.4978 138.875C37.2758 139.259 36.9728 139.556 36.5888 139.766C36.2048 139.976 35.7788 140.081 35.3108 140.081ZM35.3108 139.361C35.6048 139.361 35.8808 139.292 36.1388 139.154C36.3968 139.016 36.6038 138.809 36.7598 138.533C36.9218 138.257 37.0028 137.921 37.0028 137.525C37.0028 137.129 36.9248 136.793 36.7688 136.517C36.6128 136.241 36.4088 136.037 36.1568 135.905C35.9048 135.767 35.6318 135.698 35.3378 135.698C35.0378 135.698 34.7618 135.767 34.5098 135.905C34.2638 136.037 34.0658 136.241 33.9158 136.517C33.7658 136.793 33.6908 137.129 33.6908 137.525C33.6908 137.927 33.7628 138.266 33.9068 138.542C34.0568 138.818 34.2548 139.025 34.5008 139.163C34.7468 139.295 35.0168 139.361 35.3108 139.361ZM41.3196 134.978C41.9196 134.978 42.4056 135.161 42.7776 135.527C43.1496 135.887 43.3356 136.409 43.3356 137.093V140H42.5256V137.21C42.5256 136.718 42.4026 136.343 42.1566 136.085C41.9106 135.821 41.5746 135.689 41.1486 135.689C40.7166 135.689 40.3716 135.824 40.1136 136.094C39.8616 136.364 39.7356 136.757 39.7356 137.273V140H38.9166V135.068H39.7356V135.77C39.8976 135.518 40.1166 135.323 40.3926 135.185C40.6746 135.047 40.9836 134.978 41.3196 134.978ZM46.4195 140.081C46.0415 140.081 45.7025 140.018 45.4025 139.892C45.1025 139.76 44.8655 139.58 44.6915 139.352C44.5175 139.118 44.4215 138.851 44.4035 138.551H45.2495C45.2735 138.797 45.3875 138.998 45.5915 139.154C45.8015 139.31 46.0745 139.388 46.4105 139.388C46.7225 139.388 46.9685 139.319 47.1485 139.181C47.3285 139.043 47.4185 138.869 47.4185 138.659C47.4185 138.443 47.3225 138.284 47.1305 138.182C46.9385 138.074 46.6415 137.969 46.2395 137.867C45.8735 137.771 45.5735 137.675 45.3395 137.579C45.1115 137.477 44.9135 137.33 44.7455 137.138C44.5835 136.94 44.5025 136.682 44.5025 136.364C44.5025 136.112 44.5775 135.881 44.7275 135.671C44.8775 135.461 45.0905 135.296 45.3665 135.176C45.6425 135.05 45.9575 134.987 46.3115 134.987C46.8575 134.987 47.2985 135.125 47.6345 135.401C47.9705 135.677 48.1505 136.055 48.1745 136.535H47.3555C47.3375 136.277 47.2325 136.07 47.0405 135.914C46.8545 135.758 46.6025 135.68 46.2845 135.68C45.9905 135.68 45.7565 135.743 45.5825 135.869C45.4085 135.995 45.3215 136.16 45.3215 136.364C45.3215 136.526 45.3725 136.661 45.4745 136.769C45.5825 136.871 45.7145 136.955 45.8705 137.021C46.0325 137.081 46.2545 137.15 46.5365 137.228C46.8905 137.324 47.1785 137.42 47.4005 137.516C47.6225 137.606 47.8115 137.744 47.9675 137.93C48.1295 138.116 48.2135 138.359 48.2195 138.659C48.2195 138.929 48.1445 139.172 47.9945 139.388C47.8445 139.604 47.6315 139.775 47.3555 139.901C47.0855 140.021 46.7735 140.081 46.4195 140.081ZM53.8756 137.345C53.8756 137.501 53.8666 137.666 53.8486 137.84H49.9066C49.9366 138.326 50.1016 138.707 50.4016 138.983C50.7076 139.253 51.0766 139.388 51.5086 139.388C51.8626 139.388 52.1566 139.307 52.3906 139.145C52.6306 138.977 52.7986 138.755 52.8946 138.479H53.7766C53.6446 138.953 53.3806 139.34 52.9846 139.64C52.5886 139.934 52.0966 140.081 51.5086 140.081C51.0406 140.081 50.6206 139.976 50.2486 139.766C49.8826 139.556 49.5946 139.259 49.3846 138.875C49.1746 138.485 49.0696 138.035 49.0696 137.525C49.0696 137.015 49.1716 136.568 49.3756 136.184C49.5796 135.8 49.8646 135.506 50.2306 135.302C50.6026 135.092 51.0286 134.987 51.5086 134.987C51.9766 134.987 52.3906 135.089 52.7506 135.293C53.1106 135.497 53.3866 135.779 53.5786 136.139C53.7766 136.493 53.8756 136.895 53.8756 137.345ZM53.0296 137.174C53.0296 136.862 52.9606 136.595 52.8226 136.373C52.6846 136.145 52.4956 135.974 52.2556 135.86C52.0216 135.74 51.7606 135.68 51.4726 135.68C51.0586 135.68 50.7046 135.812 50.4106 136.076C50.1226 136.34 49.9576 136.706 49.9156 137.174H53.0296ZM54.6507 137.525C54.6507 137.015 54.7527 136.571 54.9567 136.193C55.1607 135.809 55.4427 135.512 55.8027 135.302C56.1687 135.092 56.5857 134.987 57.0537 134.987C57.6597 134.987 58.1577 135.134 58.5477 135.428C58.9437 135.722 59.2047 136.13 59.3307 136.652H58.4487C58.3647 136.352 58.1997 136.115 57.9537 135.941C57.7137 135.767 57.4137 135.68 57.0537 135.68C56.5857 135.68 56.2077 135.842 55.9197 136.166C55.6317 136.484 55.4877 136.937 55.4877 137.525C55.4877 138.119 55.6317 138.578 55.9197 138.902C56.2077 139.226 56.5857 139.388 57.0537 139.388C57.4137 139.388 57.7137 139.304 57.9537 139.136C58.1937 138.968 58.3587 138.728 58.4487 138.416H59.3307C59.1987 138.92 58.9347 139.325 58.5387 139.631C58.1427 139.931 57.6477 140.081 57.0537 140.081C56.5857 140.081 56.1687 139.976 55.8027 139.766C55.4427 139.556 55.1607 139.259 54.9567 138.875C54.7527 138.491 54.6507 138.041 54.6507 137.525ZM61.4225 135.743V138.65C61.4225 138.89 61.4735 139.061 61.5755 139.163C61.6775 139.259 61.8545 139.307 62.1065 139.307H62.7095V140H61.9715C61.5155 140 61.1735 139.895 60.9455 139.685C60.7175 139.475 60.6035 139.13 60.6035 138.65V135.743H59.9645V135.068H60.6035V133.826H61.4225V135.068H62.7095V135.743H61.4225ZM68.2018 137.345C68.2018 137.501 68.1928 137.666 68.1748 137.84H64.2328C64.2628 138.326 64.4278 138.707 64.7278 138.983C65.0338 139.253 65.4028 139.388 65.8348 139.388C66.1888 139.388 66.4828 139.307 66.7168 139.145C66.9568 138.977 67.1248 138.755 67.2208 138.479H68.1028C67.9708 138.953 67.7068 139.34 67.3108 139.64C66.9148 139.934 66.4228 140.081 65.8348 140.081C65.3668 140.081 64.9468 139.976 64.5748 139.766C64.2088 139.556 63.9208 139.259 63.7108 138.875C63.5008 138.485 63.3958 138.035 63.3958 137.525C63.3958 137.015 63.4978 136.568 63.7018 136.184C63.9058 135.8 64.1908 135.506 64.5568 135.302C64.9288 135.092 65.3548 134.987 65.8348 134.987C66.3028 134.987 66.7168 135.089 67.0768 135.293C67.4368 135.497 67.7128 135.779 67.9048 136.139C68.1028 136.493 68.2018 136.895 68.2018 137.345ZM67.3558 137.174C67.3558 136.862 67.2868 136.595 67.1488 136.373C67.0108 136.145 66.8218 135.974 66.5818 135.86C66.3478 135.74 66.0868 135.68 65.7988 135.68C65.3848 135.68 65.0308 135.812 64.7368 136.076C64.4488 136.34 64.2838 136.706 64.2418 137.174H67.3558ZM70.2818 135.743V138.65C70.2818 138.89 70.3328 139.061 70.4348 139.163C70.5368 139.259 70.7138 139.307 70.9658 139.307H71.5688V140H70.8308C70.3748 140 70.0328 139.895 69.8048 139.685C69.5768 139.475 69.4628 139.13 69.4628 138.65V135.743H68.8238V135.068H69.4628V133.826H70.2818V135.068H71.5688V135.743H70.2818ZM76.9352 135.068V140H76.1162V139.271C75.9602 139.523 75.7412 139.721 75.4592 139.865C75.1832 140.003 74.8772 140.072 74.5412 140.072C74.1572 140.072 73.8122 139.994 73.5062 139.838C73.2002 139.676 72.9572 139.436 72.7772 139.118C72.6032 138.8 72.5162 138.413 72.5162 137.957V135.068H73.3262V137.849C73.3262 138.335 73.4492 138.71 73.6952 138.974C73.9412 139.232 74.2772 139.361 74.7032 139.361C75.1412 139.361 75.4862 139.226 75.7382 138.956C75.9902 138.686 76.1162 138.293 76.1162 137.777V135.068H76.9352ZM79.137 135.869C79.281 135.587 79.485 135.368 79.749 135.212C80.019 135.056 80.346 134.978 80.73 134.978V135.824H80.514C79.596 135.824 79.137 136.322 79.137 137.318V140H78.318V135.068H79.137V135.869ZM83.7688 137.516C83.7688 137.012 83.8708 136.571 84.0748 136.193C84.2788 135.809 84.5578 135.512 84.9118 135.302C85.2718 135.092 85.6708 134.987 86.1088 134.987C86.5408 134.987 86.9158 135.08 87.2338 135.266C87.5518 135.452 87.7888 135.686 87.9448 135.968V135.068H88.7728V140H87.9448V139.082C87.7828 139.37 87.5398 139.61 87.2158 139.802C86.8978 139.988 86.5258 140.081 86.0998 140.081C85.6618 140.081 85.2658 139.973 84.9118 139.757C84.5578 139.541 84.2788 139.238 84.0748 138.848C83.8708 138.458 83.7688 138.014 83.7688 137.516ZM87.9448 137.525C87.9448 137.153 87.8698 136.829 87.7198 136.553C87.5698 136.277 87.3658 136.067 87.1078 135.923C86.8558 135.773 86.5768 135.698 86.2708 135.698C85.9648 135.698 85.6858 135.77 85.4338 135.914C85.1818 136.058 84.9808 136.268 84.8308 136.544C84.6808 136.82 84.6058 137.144 84.6058 137.516C84.6058 137.894 84.6808 138.224 84.8308 138.506C84.9808 138.782 85.1818 138.995 85.4338 139.145C85.6858 139.289 85.9648 139.361 86.2708 139.361C86.5768 139.361 86.8558 139.289 87.1078 139.145C87.3658 138.995 87.5698 138.782 87.7198 138.506C87.8698 138.224 87.9448 137.897 87.9448 137.525ZM89.8509 137.516C89.8509 137.012 89.9529 136.571 90.1569 136.193C90.3609 135.809 90.6399 135.512 90.9939 135.302C91.3539 135.092 91.7559 134.987 92.1999 134.987C92.5839 134.987 92.9409 135.077 93.2709 135.257C93.6009 135.431 93.8529 135.662 94.0269 135.95V133.34H94.8549V140H94.0269V139.073C93.8649 139.367 93.6249 139.61 93.3069 139.802C92.9889 139.988 92.6169 140.081 92.1909 140.081C91.7529 140.081 91.3539 139.973 90.9939 139.757C90.6399 139.541 90.3609 139.238 90.1569 138.848C89.9529 138.458 89.8509 138.014 89.8509 137.516ZM94.0269 137.525C94.0269 137.153 93.9519 136.829 93.8019 136.553C93.6519 136.277 93.4479 136.067 93.1899 135.923C92.9379 135.773 92.6589 135.698 92.3529 135.698C92.0469 135.698 91.7679 135.77 91.5159 135.914C91.2639 136.058 91.0629 136.268 90.9129 136.544C90.7629 136.82 90.6879 137.144 90.6879 137.516C90.6879 137.894 90.7629 138.224 90.9129 138.506C91.0629 138.782 91.2639 138.995 91.5159 139.145C91.7679 139.289 92.0469 139.361 92.3529 139.361C92.6589 139.361 92.9379 139.289 93.1899 139.145C93.4479 138.995 93.6519 138.782 93.8019 138.506C93.9519 138.224 94.0269 137.897 94.0269 137.525ZM96.6619 134.267C96.5059 134.267 96.3739 134.213 96.2659 134.105C96.1579 133.997 96.1039 133.865 96.1039 133.709C96.1039 133.553 96.1579 133.421 96.2659 133.313C96.3739 133.205 96.5059 133.151 96.6619 133.151C96.8119 133.151 96.9379 133.205 97.0399 133.313C97.1479 133.421 97.2019 133.553 97.2019 133.709C97.2019 133.865 97.1479 133.997 97.0399 134.105C96.9379 134.213 96.8119 134.267 96.6619 134.267ZM97.0579 135.068V140H96.2389V135.068H97.0579ZM99.2727 135.977C99.4347 135.695 99.6747 135.461 99.9927 135.275C100.317 135.083 100.692 134.987 101.118 134.987C101.556 134.987 101.952 135.092 102.306 135.302C102.666 135.512 102.948 135.809 103.152 136.193C103.356 136.571 103.458 137.012 103.458 137.516C103.458 138.014 103.356 138.458 103.152 138.848C102.948 139.238 102.666 139.541 102.306 139.757C101.952 139.973 101.556 140.081 101.118 140.081C100.698 140.081 100.326 139.988 100.002 139.802C99.6837 139.61 99.4407 139.373 99.2727 139.091V142.34H98.4537V135.068H99.2727V135.977ZM102.621 137.516C102.621 137.144 102.546 136.82 102.396 136.544C102.246 136.268 102.042 136.058 101.784 135.914C101.532 135.77 101.253 135.698 100.947 135.698C100.647 135.698 100.368 135.773 100.11 135.923C99.8577 136.067 99.6537 136.28 99.4977 136.562C99.3477 136.838 99.2727 137.159 99.2727 137.525C99.2727 137.897 99.3477 138.224 99.4977 138.506C99.6537 138.782 99.8577 138.995 100.11 139.145C100.368 139.289 100.647 139.361 100.947 139.361C101.253 139.361 101.532 139.289 101.784 139.145C102.042 138.995 102.246 138.782 102.396 138.506C102.546 138.224 102.621 137.894 102.621 137.516ZM104.959 134.267C104.803 134.267 104.671 134.213 104.563 134.105C104.455 133.997 104.401 133.865 104.401 133.709C104.401 133.553 104.455 133.421 104.563 133.313C104.671 133.205 104.803 133.151 104.959 133.151C105.109 133.151 105.235 133.205 105.337 133.313C105.445 133.421 105.499 133.553 105.499 133.709C105.499 133.865 105.445 133.997 105.337 134.105C105.235 134.213 105.109 134.267 104.959 134.267ZM105.355 135.068V140H104.536V135.068H105.355ZM108.497 140.081C108.119 140.081 107.78 140.018 107.48 139.892C107.18 139.76 106.943 139.58 106.769 139.352C106.595 139.118 106.499 138.851 106.481 138.551H107.327C107.351 138.797 107.465 138.998 107.669 139.154C107.879 139.31 108.152 139.388 108.488 139.388C108.8 139.388 109.046 139.319 109.226 139.181C109.406 139.043 109.496 138.869 109.496 138.659C109.496 138.443 109.4 138.284 109.208 138.182C109.016 138.074 108.719 137.969 108.317 137.867C107.951 137.771 107.651 137.675 107.417 137.579C107.189 137.477 106.991 137.33 106.823 137.138C106.661 136.94 106.58 136.682 106.58 136.364C106.58 136.112 106.655 135.881 106.805 135.671C106.955 135.461 107.168 135.296 107.444 135.176C107.72 135.05 108.035 134.987 108.389 134.987C108.935 134.987 109.376 135.125 109.712 135.401C110.048 135.677 110.228 136.055 110.252 136.535H109.433C109.415 136.277 109.31 136.07 109.118 135.914C108.932 135.758 108.68 135.68 108.362 135.68C108.068 135.68 107.834 135.743 107.66 135.869C107.486 135.995 107.399 136.16 107.399 136.364C107.399 136.526 107.45 136.661 107.552 136.769C107.66 136.871 107.792 136.955 107.948 137.021C108.11 137.081 108.332 137.15 108.614 137.228C108.968 137.324 109.256 137.42 109.478 137.516C109.7 137.606 109.889 137.744 110.045 137.93C110.207 138.116 110.291 138.359 110.297 138.659C110.297 138.929 110.222 139.172 110.072 139.388C109.922 139.604 109.709 139.775 109.433 139.901C109.163 140.021 108.851 140.081 108.497 140.081ZM111.147 137.525C111.147 137.015 111.249 136.571 111.453 136.193C111.657 135.809 111.939 135.512 112.299 135.302C112.665 135.092 113.082 134.987 113.55 134.987C114.156 134.987 114.654 135.134 115.044 135.428C115.44 135.722 115.701 136.13 115.827 136.652H114.945C114.861 136.352 114.696 136.115 114.45 135.941C114.21 135.767 113.91 135.68 113.55 135.68C113.082 135.68 112.704 135.842 112.416 136.166C112.128 136.484 111.984 136.937 111.984 137.525C111.984 138.119 112.128 138.578 112.416 138.902C112.704 139.226 113.082 139.388 113.55 139.388C113.91 139.388 114.21 139.304 114.45 139.136C114.69 138.968 114.855 138.728 114.945 138.416H115.827C115.695 138.92 115.431 139.325 115.035 139.631C114.639 139.931 114.144 140.081 113.55 140.081C113.082 140.081 112.665 139.976 112.299 139.766C111.939 139.556 111.657 139.259 111.453 138.875C111.249 138.491 111.147 138.041 111.147 137.525ZM117.343 134.267C117.187 134.267 117.055 134.213 116.947 134.105C116.839 133.997 116.785 133.865 116.785 133.709C116.785 133.553 116.839 133.421 116.947 133.313C117.055 133.205 117.187 133.151 117.343 133.151C117.493 133.151 117.619 133.205 117.721 133.313C117.829 133.421 117.883 133.553 117.883 133.709C117.883 133.865 117.829 133.997 117.721 134.105C117.619 134.213 117.493 134.267 117.343 134.267ZM117.739 135.068V140H116.92V135.068H117.739ZM121.537 134.978C122.137 134.978 122.623 135.161 122.995 135.527C123.367 135.887 123.553 136.409 123.553 137.093V140H122.743V137.21C122.743 136.718 122.62 136.343 122.374 136.085C122.128 135.821 121.792 135.689 121.366 135.689C120.934 135.689 120.589 135.824 120.331 136.094C120.079 136.364 119.953 136.757 119.953 137.273V140H119.134V135.068H119.953V135.77C120.115 135.518 120.334 135.323 120.61 135.185C120.892 135.047 121.201 134.978 121.537 134.978ZM126.925 134.987C127.351 134.987 127.723 135.08 128.041 135.266C128.365 135.452 128.605 135.686 128.761 135.968V135.068H129.589V140.108C129.589 140.558 129.493 140.957 129.301 141.305C129.109 141.659 128.833 141.935 128.473 142.133C128.119 142.331 127.705 142.43 127.231 142.43C126.583 142.43 126.043 142.277 125.611 141.971C125.179 141.665 124.924 141.248 124.846 140.72H125.656C125.746 141.02 125.932 141.26 126.214 141.44C126.496 141.626 126.835 141.719 127.231 141.719C127.681 141.719 128.047 141.578 128.329 141.296C128.617 141.014 128.761 140.618 128.761 140.108V139.073C128.599 139.361 128.359 139.601 128.041 139.793C127.723 139.985 127.351 140.081 126.925 140.081C126.487 140.081 126.088 139.973 125.728 139.757C125.374 139.541 125.095 139.238 124.891 138.848C124.687 138.458 124.585 138.014 124.585 137.516C124.585 137.012 124.687 136.571 124.891 136.193C125.095 135.809 125.374 135.512 125.728 135.302C126.088 135.092 126.487 134.987 126.925 134.987ZM128.761 137.525C128.761 137.153 128.686 136.829 128.536 136.553C128.386 136.277 128.182 136.067 127.924 135.923C127.672 135.773 127.393 135.698 127.087 135.698C126.781 135.698 126.502 135.77 126.25 135.914C125.998 136.058 125.797 136.268 125.647 136.544C125.497 136.82 125.422 137.144 125.422 137.516C125.422 137.894 125.497 138.224 125.647 138.506C125.797 138.782 125.998 138.995 126.25 139.145C126.502 139.289 126.781 139.361 127.087 139.361C127.393 139.361 127.672 139.289 127.924 139.145C128.182 138.995 128.386 138.782 128.536 138.506C128.686 138.224 128.761 137.897 128.761 137.525ZM137.873 137.345C137.873 137.501 137.864 137.666 137.846 137.84H133.904C133.934 138.326 134.099 138.707 134.399 138.983C134.705 139.253 135.074 139.388 135.506 139.388C135.86 139.388 136.154 139.307 136.388 139.145C136.628 138.977 136.796 138.755 136.892 138.479H137.774C137.642 138.953 137.378 139.34 136.982 139.64C136.586 139.934 136.094 140.081 135.506 140.081C135.038 140.081 134.618 139.976 134.246 139.766C133.88 139.556 133.592 139.259 133.382 138.875C133.172 138.485 133.067 138.035 133.067 137.525C133.067 137.015 133.169 136.568 133.373 136.184C133.577 135.8 133.862 135.506 134.228 135.302C134.6 135.092 135.026 134.987 135.506 134.987C135.974 134.987 136.388 135.089 136.748 135.293C137.108 135.497 137.384 135.779 137.576 136.139C137.774 136.493 137.873 136.895 137.873 137.345ZM137.027 137.174C137.027 136.862 136.958 136.595 136.82 136.373C136.682 136.145 136.493 135.974 136.253 135.86C136.019 135.74 135.758 135.68 135.47 135.68C135.056 135.68 134.702 135.812 134.408 136.076C134.12 136.34 133.955 136.706 133.913 137.174H137.027ZM139.773 133.34V140H138.954V133.34H139.773ZM141.592 134.267C141.436 134.267 141.304 134.213 141.196 134.105C141.088 133.997 141.034 133.865 141.034 133.709C141.034 133.553 141.088 133.421 141.196 133.313C141.304 133.205 141.436 133.151 141.592 133.151C141.742 133.151 141.868 133.205 141.97 133.313C142.078 133.421 142.132 133.553 142.132 133.709C142.132 133.865 142.078 133.997 141.97 134.105C141.868 134.213 141.742 134.267 141.592 134.267ZM141.988 135.068V140H141.169V135.068H141.988ZM144.382 135.743V138.65C144.382 138.89 144.433 139.061 144.535 139.163C144.637 139.259 144.814 139.307 145.066 139.307H145.669V140H144.931C144.475 140 144.133 139.895 143.905 139.685C143.677 139.475 143.563 139.13 143.563 138.65V135.743H142.924V135.068H143.563V133.826H144.382V135.068H145.669V135.743H144.382ZM147.508 138.866L146.5 141.287H145.951L146.608 138.866H147.508ZM152.591 140.081C152.213 140.081 151.874 140.018 151.574 139.892C151.274 139.76 151.037 139.58 150.863 139.352C150.689 139.118 150.593 138.851 150.575 138.551H151.421C151.445 138.797 151.559 138.998 151.763 139.154C151.973 139.31 152.246 139.388 152.582 139.388C152.894 139.388 153.14 139.319 153.32 139.181C153.5 139.043 153.59 138.869 153.59 138.659C153.59 138.443 153.494 138.284 153.302 138.182C153.11 138.074 152.813 137.969 152.411 137.867C152.045 137.771 151.745 137.675 151.511 137.579C151.283 137.477 151.085 137.33 150.917 137.138C150.755 136.94 150.674 136.682 150.674 136.364C150.674 136.112 150.749 135.881 150.899 135.671C151.049 135.461 151.262 135.296 151.538 135.176C151.814 135.05 152.129 134.987 152.483 134.987C153.029 134.987 153.47 135.125 153.806 135.401C154.142 135.677 154.322 136.055 154.346 136.535H153.527C153.509 136.277 153.404 136.07 153.212 135.914C153.026 135.758 152.774 135.68 152.456 135.68C152.162 135.68 151.928 135.743 151.754 135.869C151.58 135.995 151.493 136.16 151.493 136.364C151.493 136.526 151.544 136.661 151.646 136.769C151.754 136.871 151.886 136.955 152.042 137.021C152.204 137.081 152.426 137.15 152.708 137.228C153.062 137.324 153.35 137.42 153.572 137.516C153.794 137.606 153.983 137.744 154.139 137.93C154.301 138.116 154.385 138.359 154.391 138.659C154.391 138.929 154.316 139.172 154.166 139.388C154.016 139.604 153.803 139.775 153.527 139.901C153.257 140.021 152.945 140.081 152.591 140.081ZM160.047 137.345C160.047 137.501 160.038 137.666 160.02 137.84H156.078C156.108 138.326 156.273 138.707 156.573 138.983C156.879 139.253 157.248 139.388 157.68 139.388C158.034 139.388 158.328 139.307 158.562 139.145C158.802 138.977 158.97 138.755 159.066 138.479H159.948C159.816 138.953 159.552 139.34 159.156 139.64C158.76 139.934 158.268 140.081 157.68 140.081C157.212 140.081 156.792 139.976 156.42 139.766C156.054 139.556 155.766 139.259 155.556 138.875C155.346 138.485 155.241 138.035 155.241 137.525C155.241 137.015 155.343 136.568 155.547 136.184C155.751 135.8 156.036 135.506 156.402 135.302C156.774 135.092 157.2 134.987 157.68 134.987C158.148 134.987 158.562 135.089 158.922 135.293C159.282 135.497 159.558 135.779 159.75 136.139C159.948 136.493 160.047 136.895 160.047 137.345ZM159.201 137.174C159.201 136.862 159.132 136.595 158.994 136.373C158.856 136.145 158.667 135.974 158.427 135.86C158.193 135.74 157.932 135.68 157.644 135.68C157.23 135.68 156.876 135.812 156.582 136.076C156.294 136.34 156.129 136.706 156.087 137.174H159.201ZM160.823 137.516C160.823 137.012 160.925 136.571 161.129 136.193C161.333 135.809 161.612 135.512 161.966 135.302C162.326 135.092 162.728 134.987 163.172 134.987C163.556 134.987 163.913 135.077 164.243 135.257C164.573 135.431 164.825 135.662 164.999 135.95V133.34H165.827V140H164.999V139.073C164.837 139.367 164.597 139.61 164.279 139.802C163.961 139.988 163.589 140.081 163.163 140.081C162.725 140.081 162.326 139.973 161.966 139.757C161.612 139.541 161.333 139.238 161.129 138.848C160.925 138.458 160.823 138.014 160.823 137.516ZM164.999 137.525C164.999 137.153 164.924 136.829 164.774 136.553C164.624 136.277 164.42 136.067 164.162 135.923C163.91 135.773 163.631 135.698 163.325 135.698C163.019 135.698 162.74 135.77 162.488 135.914C162.236 136.058 162.035 136.268 161.885 136.544C161.735 136.82 161.66 137.144 161.66 137.516C161.66 137.894 161.735 138.224 161.885 138.506C162.035 138.782 162.236 138.995 162.488 139.145C162.74 139.289 163.019 139.361 163.325 139.361C163.631 139.361 163.91 139.289 164.162 139.145C164.42 138.995 164.624 138.782 164.774 138.506C164.924 138.224 164.999 137.897 164.999 137.525ZM169.304 137.516C169.304 137.012 169.406 136.571 169.61 136.193C169.814 135.809 170.093 135.512 170.447 135.302C170.807 135.092 171.209 134.987 171.653 134.987C172.037 134.987 172.394 135.077 172.724 135.257C173.054 135.431 173.306 135.662 173.48 135.95V133.34H174.308V140H173.48V139.073C173.318 139.367 173.078 139.61 172.76 139.802C172.442 139.988 172.07 140.081 171.644 140.081C171.206 140.081 170.807 139.973 170.447 139.757C170.093 139.541 169.814 139.238 169.61 138.848C169.406 138.458 169.304 138.014 169.304 137.516ZM173.48 137.525C173.48 137.153 173.405 136.829 173.255 136.553C173.105 136.277 172.901 136.067 172.643 135.923C172.391 135.773 172.112 135.698 171.806 135.698C171.5 135.698 171.221 135.77 170.969 135.914C170.717 136.058 170.516 136.268 170.366 136.544C170.216 136.82 170.141 137.144 170.141 137.516C170.141 137.894 170.216 138.224 170.366 138.506C170.516 138.782 170.717 138.995 170.969 139.145C171.221 139.289 171.5 139.361 171.806 139.361C172.112 139.361 172.391 139.289 172.643 139.145C172.901 138.995 173.105 138.782 173.255 138.506C173.405 138.224 173.48 137.897 173.48 137.525ZM177.843 140.081C177.381 140.081 176.961 139.976 176.583 139.766C176.211 139.556 175.917 139.259 175.701 138.875C175.491 138.485 175.386 138.035 175.386 137.525C175.386 137.021 175.494 136.577 175.71 136.193C175.932 135.803 176.232 135.506 176.61 135.302C176.988 135.092 177.411 134.987 177.879 134.987C178.347 134.987 178.77 135.092 179.148 135.302C179.526 135.506 179.823 135.8 180.039 136.184C180.261 136.568 180.372 137.015 180.372 137.525C180.372 138.035 180.258 138.485 180.03 138.875C179.808 139.259 179.505 139.556 179.121 139.766C178.737 139.976 178.311 140.081 177.843 140.081ZM177.843 139.361C178.137 139.361 178.413 139.292 178.671 139.154C178.929 139.016 179.136 138.809 179.292 138.533C179.454 138.257 179.535 137.921 179.535 137.525C179.535 137.129 179.457 136.793 179.301 136.517C179.145 136.241 178.941 136.037 178.689 135.905C178.437 135.767 178.164 135.698 177.87 135.698C177.57 135.698 177.294 135.767 177.042 135.905C176.796 136.037 176.598 136.241 176.448 136.517C176.298 136.793 176.223 137.129 176.223 137.525C176.223 137.927 176.295 138.266 176.439 138.542C176.589 138.818 176.787 139.025 177.033 139.163C177.279 139.295 177.549 139.361 177.843 139.361ZM32.193 148.345C32.193 148.501 32.184 148.666 32.166 148.84H28.224C28.254 149.326 28.419 149.707 28.719 149.983C29.025 150.253 29.394 150.388 29.826 150.388C30.18 150.388 30.474 150.307 30.708 150.145C30.948 149.977 31.116 149.755 31.212 149.479H32.094C31.962 149.953 31.698 150.34 31.302 150.64C30.906 150.934 30.414 151.081 29.826 151.081C29.358 151.081 28.938 150.976 28.566 150.766C28.2 150.556 27.912 150.259 27.702 149.875C27.492 149.485 27.387 149.035 27.387 148.525C27.387 148.015 27.489 147.568 27.693 147.184C27.897 146.8 28.182 146.506 28.548 146.302C28.92 146.092 29.346 145.987 29.826 145.987C30.294 145.987 30.708 146.089 31.068 146.293C31.428 146.497 31.704 146.779 31.896 147.139C32.094 147.493 32.193 147.895 32.193 148.345ZM31.347 148.174C31.347 147.862 31.278 147.595 31.14 147.373C31.002 147.145 30.813 146.974 30.573 146.86C30.339 146.74 30.078 146.68 29.79 146.68C29.376 146.68 29.022 146.812 28.728 147.076C28.44 147.34 28.275 147.706 28.233 148.174H31.347ZM33.6971 145.267C33.5411 145.267 33.4091 145.213 33.3011 145.105C33.1931 144.997 33.1391 144.865 33.1391 144.709C33.1391 144.553 33.1931 144.421 33.3011 144.313C33.4091 144.205 33.5411 144.151 33.6971 144.151C33.8471 144.151 33.9731 144.205 34.0751 144.313C34.1831 144.421 34.2371 144.553 34.2371 144.709C34.2371 144.865 34.1831 144.997 34.0751 145.105C33.9731 145.213 33.8471 145.267 33.6971 145.267ZM34.0931 146.068V151H33.2741V146.068H34.0931ZM39.8629 146.068V151H39.0439V150.271C38.8879 150.523 38.6689 150.721 38.3869 150.865C38.1109 151.003 37.8049 151.072 37.4689 151.072C37.0849 151.072 36.7399 150.994 36.4339 150.838C36.1279 150.676 35.8849 150.436 35.7049 150.118C35.5309 149.8 35.4439 149.413 35.4439 148.957V146.068H36.2539V148.849C36.2539 149.335 36.3769 149.71 36.6229 149.974C36.8689 150.232 37.2049 150.361 37.6309 150.361C38.0689 150.361 38.4139 150.226 38.6659 149.956C38.9179 149.686 39.0439 149.293 39.0439 148.777V146.068H39.8629ZM42.9917 151.081C42.6137 151.081 42.2747 151.018 41.9747 150.892C41.6747 150.76 41.4377 150.58 41.2637 150.352C41.0897 150.118 40.9937 149.851 40.9757 149.551H41.8217C41.8457 149.797 41.9597 149.998 42.1637 150.154C42.3737 150.31 42.6467 150.388 42.9827 150.388C43.2947 150.388 43.5407 150.319 43.7207 150.181C43.9007 150.043 43.9907 149.869 43.9907 149.659C43.9907 149.443 43.8947 149.284 43.7027 149.182C43.5107 149.074 43.2137 148.969 42.8117 148.867C42.4457 148.771 42.1457 148.675 41.9117 148.579C41.6837 148.477 41.4857 148.33 41.3177 148.138C41.1557 147.94 41.0747 147.682 41.0747 147.364C41.0747 147.112 41.1497 146.881 41.2997 146.671C41.4497 146.461 41.6627 146.296 41.9387 146.176C42.2147 146.05 42.5297 145.987 42.8837 145.987C43.4297 145.987 43.8707 146.125 44.2067 146.401C44.5427 146.677 44.7227 147.055 44.7467 147.535H43.9277C43.9097 147.277 43.8047 147.07 43.6127 146.914C43.4267 146.758 43.1747 146.68 42.8567 146.68C42.5627 146.68 42.3287 146.743 42.1547 146.869C41.9807 146.995 41.8937 147.16 41.8937 147.364C41.8937 147.526 41.9447 147.661 42.0467 147.769C42.1547 147.871 42.2867 147.955 42.4427 148.021C42.6047 148.081 42.8267 148.15 43.1087 148.228C43.4627 148.324 43.7507 148.42 43.9727 148.516C44.1947 148.606 44.3837 148.744 44.5397 148.93C44.7017 149.116 44.7857 149.359 44.7917 149.659C44.7917 149.929 44.7167 150.172 44.5667 150.388C44.4167 150.604 44.2037 150.775 43.9277 150.901C43.6577 151.021 43.3457 151.081 42.9917 151.081ZM51.8789 145.978C52.2629 145.978 52.6049 146.059 52.9049 146.221C53.2049 146.377 53.4419 146.614 53.6159 146.932C53.7899 147.25 53.8769 147.637 53.8769 148.093V151H53.0669V148.21C53.0669 147.718 52.9439 147.343 52.6979 147.085C52.4579 146.821 52.1309 146.689 51.7169 146.689C51.2909 146.689 50.9519 146.827 50.6999 147.103C50.4479 147.373 50.3219 147.766 50.3219 148.282V151H49.5119V148.21C49.5119 147.718 49.3889 147.343 49.1429 147.085C48.9029 146.821 48.5759 146.689 48.1619 146.689C47.7359 146.689 47.3969 146.827 47.1449 147.103C46.8929 147.373 46.7669 147.766 46.7669 148.282V151H45.9479V146.068H46.7669V146.779C46.9289 146.521 47.1449 146.323 47.4149 146.185C47.6909 146.047 47.9939 145.978 48.3239 145.978C48.7379 145.978 49.1039 146.071 49.4219 146.257C49.7399 146.443 49.9769 146.716 50.1329 147.076C50.2709 146.728 50.4989 146.458 50.8169 146.266C51.1349 146.074 51.4889 145.978 51.8789 145.978ZM57.3713 151.081C56.9093 151.081 56.4893 150.976 56.1113 150.766C55.7393 150.556 55.4453 150.259 55.2293 149.875C55.0193 149.485 54.9143 149.035 54.9143 148.525C54.9143 148.021 55.0223 147.577 55.2383 147.193C55.4603 146.803 55.7603 146.506 56.1383 146.302C56.5163 146.092 56.9393 145.987 57.4073 145.987C57.8753 145.987 58.2983 146.092 58.6763 146.302C59.0543 146.506 59.3513 146.8 59.5673 147.184C59.7893 147.568 59.9003 148.015 59.9003 148.525C59.9003 149.035 59.7863 149.485 59.5583 149.875C59.3363 150.259 59.0333 150.556 58.6493 150.766C58.2653 150.976 57.8393 151.081 57.3713 151.081ZM57.3713 150.361C57.6653 150.361 57.9413 150.292 58.1993 150.154C58.4573 150.016 58.6643 149.809 58.8203 149.533C58.9823 149.257 59.0633 148.921 59.0633 148.525C59.0633 148.129 58.9853 147.793 58.8293 147.517C58.6733 147.241 58.4693 147.037 58.2173 146.905C57.9653 146.767 57.6923 146.698 57.3983 146.698C57.0983 146.698 56.8223 146.767 56.5703 146.905C56.3243 147.037 56.1263 147.241 55.9763 147.517C55.8263 147.793 55.7513 148.129 55.7513 148.525C55.7513 148.927 55.8233 149.266 55.9673 149.542C56.1173 149.818 56.3153 150.025 56.5613 150.163C56.8073 150.295 57.0773 150.361 57.3713 150.361ZM60.6712 148.516C60.6712 148.012 60.7732 147.571 60.9772 147.193C61.1812 146.809 61.4602 146.512 61.8142 146.302C62.1742 146.092 62.5762 145.987 63.0202 145.987C63.4042 145.987 63.7612 146.077 64.0912 146.257C64.4212 146.431 64.6732 146.662 64.8472 146.95V144.34H65.6752V151H64.8472V150.073C64.6852 150.367 64.4452 150.61 64.1272 150.802C63.8092 150.988 63.4372 151.081 63.0112 151.081C62.5732 151.081 62.1742 150.973 61.8142 150.757C61.4602 150.541 61.1812 150.238 60.9772 149.848C60.7732 149.458 60.6712 149.014 60.6712 148.516ZM64.8472 148.525C64.8472 148.153 64.7722 147.829 64.6222 147.553C64.4722 147.277 64.2682 147.067 64.0102 146.923C63.7582 146.773 63.4792 146.698 63.1732 146.698C62.8672 146.698 62.5882 146.77 62.3362 146.914C62.0842 147.058 61.8832 147.268 61.7332 147.544C61.5832 147.82 61.5082 148.144 61.5082 148.516C61.5082 148.894 61.5832 149.224 61.7332 149.506C61.8832 149.782 62.0842 149.995 62.3362 150.145C62.5882 150.289 62.8672 150.361 63.1732 150.361C63.4792 150.361 63.7582 150.289 64.0102 150.145C64.2682 149.995 64.4722 149.782 64.6222 149.506C64.7722 149.224 64.8472 148.897 64.8472 148.525ZM70.4576 146.743V149.65C70.4576 149.89 70.5086 150.061 70.6106 150.163C70.7126 150.259 70.8896 150.307 71.1416 150.307H71.7446V151H71.0066C70.5506 151 70.2086 150.895 69.9806 150.685C69.7526 150.475 69.6386 150.13 69.6386 149.65V146.743H68.9996V146.068H69.6386V144.826H70.4576V146.068H71.7446V146.743H70.4576ZM77.2369 148.345C77.2369 148.501 77.2279 148.666 77.2099 148.84H73.2679C73.2979 149.326 73.4629 149.707 73.7629 149.983C74.0689 150.253 74.4379 150.388 74.8699 150.388C75.2239 150.388 75.5179 150.307 75.7519 150.145C75.9919 149.977 76.1599 149.755 76.2559 149.479H77.1379C77.0059 149.953 76.7419 150.34 76.3459 150.64C75.9499 150.934 75.4579 151.081 74.8699 151.081C74.4019 151.081 73.9819 150.976 73.6099 150.766C73.2439 150.556 72.9559 150.259 72.7459 149.875C72.5359 149.485 72.4309 149.035 72.4309 148.525C72.4309 148.015 72.5329 147.568 72.7369 147.184C72.9409 146.8 73.2259 146.506 73.5919 146.302C73.9639 146.092 74.3899 145.987 74.8699 145.987C75.3379 145.987 75.7519 146.089 76.1119 146.293C76.4719 146.497 76.7479 146.779 76.9399 147.139C77.1379 147.493 77.2369 147.895 77.2369 148.345ZM76.3909 148.174C76.3909 147.862 76.3219 147.595 76.1839 147.373C76.0459 147.145 75.8569 146.974 75.6169 146.86C75.3829 146.74 75.1219 146.68 74.8339 146.68C74.4199 146.68 74.0659 146.812 73.7719 147.076C73.4839 147.34 73.3189 147.706 73.2769 148.174H76.3909ZM84.249 145.978C84.633 145.978 84.975 146.059 85.275 146.221C85.575 146.377 85.812 146.614 85.986 146.932C86.16 147.25 86.247 147.637 86.247 148.093V151H85.437V148.21C85.437 147.718 85.314 147.343 85.068 147.085C84.828 146.821 84.501 146.689 84.087 146.689C83.661 146.689 83.322 146.827 83.07 147.103C82.818 147.373 82.692 147.766 82.692 148.282V151H81.882V148.21C81.882 147.718 81.759 147.343 81.513 147.085C81.273 146.821 80.946 146.689 80.532 146.689C80.106 146.689 79.767 146.827 79.515 147.103C79.263 147.373 79.137 147.766 79.137 148.282V151H78.318V146.068H79.137V146.779C79.299 146.521 79.515 146.323 79.785 146.185C80.061 146.047 80.364 145.978 80.694 145.978C81.108 145.978 81.474 146.071 81.792 146.257C82.11 146.443 82.347 146.716 82.503 147.076C82.641 146.728 82.869 146.458 83.187 146.266C83.505 146.074 83.859 145.978 84.249 145.978ZM88.4095 146.977C88.5715 146.695 88.8115 146.461 89.1295 146.275C89.4535 146.083 89.8285 145.987 90.2545 145.987C90.6925 145.987 91.0885 146.092 91.4425 146.302C91.8025 146.512 92.0845 146.809 92.2885 147.193C92.4925 147.571 92.5945 148.012 92.5945 148.516C92.5945 149.014 92.4925 149.458 92.2885 149.848C92.0845 150.238 91.8025 150.541 91.4425 150.757C91.0885 150.973 90.6925 151.081 90.2545 151.081C89.8345 151.081 89.4625 150.988 89.1385 150.802C88.8205 150.61 88.5775 150.373 88.4095 150.091V153.34H87.5905V146.068H88.4095V146.977ZM91.7575 148.516C91.7575 148.144 91.6825 147.82 91.5325 147.544C91.3825 147.268 91.1785 147.058 90.9205 146.914C90.6685 146.77 90.3895 146.698 90.0835 146.698C89.7835 146.698 89.5045 146.773 89.2465 146.923C88.9945 147.067 88.7905 147.28 88.6345 147.562C88.4845 147.838 88.4095 148.159 88.4095 148.525C88.4095 148.897 88.4845 149.224 88.6345 149.506C88.7905 149.782 88.9945 149.995 89.2465 150.145C89.5045 150.289 89.7835 150.361 90.0835 150.361C90.3895 150.361 90.6685 150.289 90.9205 150.145C91.1785 149.995 91.3825 149.782 91.5325 149.506C91.6825 149.224 91.7575 148.894 91.7575 148.516ZM95.8235 151.081C95.3615 151.081 94.9415 150.976 94.5635 150.766C94.1915 150.556 93.8975 150.259 93.6815 149.875C93.4715 149.485 93.3665 149.035 93.3665 148.525C93.3665 148.021 93.4745 147.577 93.6905 147.193C93.9125 146.803 94.2125 146.506 94.5905 146.302C94.9685 146.092 95.3915 145.987 95.8595 145.987C96.3275 145.987 96.7505 146.092 97.1285 146.302C97.5065 146.506 97.8035 146.8 98.0195 147.184C98.2415 147.568 98.3525 148.015 98.3525 148.525C98.3525 149.035 98.2385 149.485 98.0105 149.875C97.7885 150.259 97.4855 150.556 97.1015 150.766C96.7175 150.976 96.2915 151.081 95.8235 151.081ZM95.8235 150.361C96.1175 150.361 96.3935 150.292 96.6515 150.154C96.9095 150.016 97.1165 149.809 97.2725 149.533C97.4345 149.257 97.5155 148.921 97.5155 148.525C97.5155 148.129 97.4375 147.793 97.2815 147.517C97.1255 147.241 96.9215 147.037 96.6695 146.905C96.4175 146.767 96.1445 146.698 95.8505 146.698C95.5505 146.698 95.2745 146.767 95.0225 146.905C94.7765 147.037 94.5785 147.241 94.4285 147.517C94.2785 147.793 94.2035 148.129 94.2035 148.525C94.2035 148.927 94.2755 149.266 94.4195 149.542C94.5695 149.818 94.7675 150.025 95.0135 150.163C95.2595 150.295 95.5295 150.361 95.8235 150.361ZM100.248 146.869C100.392 146.587 100.596 146.368 100.86 146.212C101.13 146.056 101.457 145.978 101.841 145.978V146.824H101.625C100.707 146.824 100.248 147.322 100.248 148.318V151H99.4293V146.068H100.248V146.869ZM105.609 145.267C105.453 145.267 105.321 145.213 105.213 145.105C105.105 144.997 105.051 144.865 105.051 144.709C105.051 144.553 105.105 144.421 105.213 144.313C105.321 144.205 105.453 144.151 105.609 144.151C105.759 144.151 105.885 144.205 105.987 144.313C106.095 144.421 106.149 144.553 106.149 144.709C106.149 144.865 106.095 144.997 105.987 145.105C105.885 145.213 105.759 145.267 105.609 145.267ZM106.005 146.068V151H105.186V146.068H106.005ZM109.804 145.978C110.404 145.978 110.89 146.161 111.262 146.527C111.634 146.887 111.82 147.409 111.82 148.093V151H111.01V148.21C111.01 147.718 110.887 147.343 110.641 147.085C110.395 146.821 110.059 146.689 109.633 146.689C109.201 146.689 108.856 146.824 108.598 147.094C108.346 147.364 108.22 147.757 108.22 148.273V151H107.401V146.068H108.22V146.77C108.382 146.518 108.601 146.323 108.877 146.185C109.159 146.047 109.468 145.978 109.804 145.978ZM112.852 148.525C112.852 148.015 112.954 147.571 113.158 147.193C113.362 146.809 113.644 146.512 114.004 146.302C114.37 146.092 114.787 145.987 115.255 145.987C115.861 145.987 116.359 146.134 116.749 146.428C117.145 146.722 117.406 147.13 117.532 147.652H116.65C116.566 147.352 116.401 147.115 116.155 146.941C115.915 146.767 115.615 146.68 115.255 146.68C114.787 146.68 114.409 146.842 114.121 147.166C113.833 147.484 113.689 147.937 113.689 148.525C113.689 149.119 113.833 149.578 114.121 149.902C114.409 150.226 114.787 150.388 115.255 150.388C115.615 150.388 115.915 150.304 116.155 150.136C116.395 149.968 116.56 149.728 116.65 149.416H117.532C117.4 149.92 117.136 150.325 116.74 150.631C116.344 150.931 115.849 151.081 115.255 151.081C114.787 151.081 114.37 150.976 114.004 150.766C113.644 150.556 113.362 150.259 113.158 149.875C112.954 149.491 112.852 149.041 112.852 148.525ZM119.048 145.267C118.892 145.267 118.76 145.213 118.652 145.105C118.544 144.997 118.49 144.865 118.49 144.709C118.49 144.553 118.544 144.421 118.652 144.313C118.76 144.205 118.892 144.151 119.048 144.151C119.198 144.151 119.324 144.205 119.426 144.313C119.534 144.421 119.588 144.553 119.588 144.709C119.588 144.865 119.534 144.997 119.426 145.105C119.324 145.213 119.198 145.267 119.048 145.267ZM119.444 146.068V151H118.625V146.068H119.444ZM120.533 148.516C120.533 148.012 120.635 147.571 120.839 147.193C121.043 146.809 121.322 146.512 121.676 146.302C122.036 146.092 122.438 145.987 122.882 145.987C123.266 145.987 123.623 146.077 123.953 146.257C124.283 146.431 124.535 146.662 124.709 146.95V144.34H125.537V151H124.709V150.073C124.547 150.367 124.307 150.61 123.989 150.802C123.671 150.988 123.299 151.081 122.873 151.081C122.435 151.081 122.036 150.973 121.676 150.757C121.322 150.541 121.043 150.238 120.839 149.848C120.635 149.458 120.533 149.014 120.533 148.516ZM124.709 148.525C124.709 148.153 124.634 147.829 124.484 147.553C124.334 147.277 124.13 147.067 123.872 146.923C123.62 146.773 123.341 146.698 123.035 146.698C122.729 146.698 122.45 146.77 122.198 146.914C121.946 147.058 121.745 147.268 121.595 147.544C121.445 147.82 121.37 148.144 121.37 148.516C121.37 148.894 121.445 149.224 121.595 149.506C121.745 149.782 121.946 149.995 122.198 150.145C122.45 150.289 122.729 150.361 123.035 150.361C123.341 150.361 123.62 150.289 123.872 150.145C124.13 149.995 124.334 149.782 124.484 149.506C124.634 149.224 124.709 148.897 124.709 148.525ZM127.345 145.267C127.189 145.267 127.057 145.213 126.949 145.105C126.841 144.997 126.787 144.865 126.787 144.709C126.787 144.553 126.841 144.421 126.949 144.313C127.057 144.205 127.189 144.151 127.345 144.151C127.495 144.151 127.621 144.205 127.723 144.313C127.831 144.421 127.885 144.553 127.885 144.709C127.885 144.865 127.831 144.997 127.723 145.105C127.621 145.213 127.495 145.267 127.345 145.267ZM127.741 146.068V151H126.922V146.068H127.741ZM128.83 148.516C128.83 148.012 128.932 147.571 129.136 147.193C129.34 146.809 129.619 146.512 129.973 146.302C130.333 146.092 130.735 145.987 131.179 145.987C131.563 145.987 131.92 146.077 132.25 146.257C132.58 146.431 132.832 146.662 133.006 146.95V144.34H133.834V151H133.006V150.073C132.844 150.367 132.604 150.61 132.286 150.802C131.968 150.988 131.596 151.081 131.17 151.081C130.732 151.081 130.333 150.973 129.973 150.757C129.619 150.541 129.34 150.238 129.136 149.848C128.932 149.458 128.83 149.014 128.83 148.516ZM133.006 148.525C133.006 148.153 132.931 147.829 132.781 147.553C132.631 147.277 132.427 147.067 132.169 146.923C131.917 146.773 131.638 146.698 131.332 146.698C131.026 146.698 130.747 146.77 130.495 146.914C130.243 147.058 130.042 147.268 129.892 147.544C129.742 147.82 129.667 148.144 129.667 148.516C129.667 148.894 129.742 149.224 129.892 149.506C130.042 149.782 130.243 149.995 130.495 150.145C130.747 150.289 131.026 150.361 131.332 150.361C131.638 150.361 131.917 150.289 132.169 150.145C132.427 149.995 132.631 149.782 132.781 149.506C132.931 149.224 133.006 148.897 133.006 148.525ZM139.592 146.068V151H138.773V150.271C138.617 150.523 138.398 150.721 138.116 150.865C137.84 151.003 137.534 151.072 137.198 151.072C136.814 151.072 136.469 150.994 136.163 150.838C135.857 150.676 135.614 150.436 135.434 150.118C135.26 149.8 135.173 149.413 135.173 148.957V146.068H135.983V148.849C135.983 149.335 136.106 149.71 136.352 149.974C136.598 150.232 136.934 150.361 137.36 150.361C137.798 150.361 138.143 150.226 138.395 149.956C138.647 149.686 138.773 149.293 138.773 148.777V146.068H139.592ZM143.378 145.978C143.978 145.978 144.464 146.161 144.836 146.527C145.208 146.887 145.394 147.409 145.394 148.093V151H144.584V148.21C144.584 147.718 144.461 147.343 144.215 147.085C143.969 146.821 143.633 146.689 143.207 146.689C142.775 146.689 142.43 146.824 142.172 147.094C141.92 147.364 141.794 147.757 141.794 148.273V151H140.975V146.068H141.794V146.77C141.956 146.518 142.175 146.323 142.451 146.185C142.733 146.047 143.042 145.978 143.378 145.978ZM147.731 146.743V149.65C147.731 149.89 147.782 150.061 147.884 150.163C147.986 150.259 148.163 150.307 148.415 150.307H149.018V151H148.28C147.824 151 147.482 150.895 147.254 150.685C147.026 150.475 146.912 150.13 146.912 149.65V146.743H146.273V146.068H146.912V144.826H147.731V146.068H149.018V146.743H147.731ZM156.784 146.068V151H155.965V150.271C155.809 150.523 155.59 150.721 155.308 150.865C155.032 151.003 154.726 151.072 154.39 151.072C154.006 151.072 153.661 150.994 153.355 150.838C153.049 150.676 152.806 150.436 152.626 150.118C152.452 149.8 152.365 149.413 152.365 148.957V146.068H153.175V148.849C153.175 149.335 153.298 149.71 153.544 149.974C153.79 150.232 154.126 150.361 154.552 150.361C154.99 150.361 155.335 150.226 155.587 149.956C155.839 149.686 155.965 149.293 155.965 148.777V146.068H156.784ZM159.166 146.743V149.65C159.166 149.89 159.217 150.061 159.319 150.163C159.421 150.259 159.598 150.307 159.85 150.307H160.453V151H159.715C159.259 151 158.917 150.895 158.689 150.685C158.461 150.475 158.347 150.13 158.347 149.65V146.743H157.708V146.068H158.347V144.826H159.166V146.068H160.453V146.743H159.166ZM164.663 144.34V151H163.844V144.34H164.663ZM165.753 148.516C165.753 148.012 165.855 147.571 166.059 147.193C166.263 146.809 166.542 146.512 166.896 146.302C167.256 146.092 167.655 145.987 168.093 145.987C168.525 145.987 168.9 146.08 169.218 146.266C169.536 146.452 169.773 146.686 169.929 146.968V146.068H170.757V151H169.929V150.082C169.767 150.37 169.524 150.61 169.2 150.802C168.882 150.988 168.51 151.081 168.084 151.081C167.646 151.081 167.25 150.973 166.896 150.757C166.542 150.541 166.263 150.238 166.059 149.848C165.855 149.458 165.753 149.014 165.753 148.516ZM169.929 148.525C169.929 148.153 169.854 147.829 169.704 147.553C169.554 147.277 169.35 147.067 169.092 146.923C168.84 146.773 168.561 146.698 168.255 146.698C167.949 146.698 167.67 146.77 167.418 146.914C167.166 147.058 166.965 147.268 166.815 147.544C166.665 147.82 166.59 148.144 166.59 148.516C166.59 148.894 166.665 149.224 166.815 149.506C166.965 149.782 167.166 149.995 167.418 150.145C167.67 150.289 167.949 150.361 168.255 150.361C168.561 150.361 168.84 150.289 169.092 150.145C169.35 149.995 169.554 149.782 169.704 149.506C169.854 149.224 169.929 148.897 169.929 148.525ZM172.96 146.986C173.128 146.692 173.374 146.452 173.698 146.266C174.022 146.08 174.391 145.987 174.805 145.987C175.249 145.987 175.648 146.092 176.002 146.302C176.356 146.512 176.635 146.809 176.839 147.193C177.043 147.571 177.145 148.012 177.145 148.516C177.145 149.014 177.043 149.458 176.839 149.848C176.635 150.238 176.353 150.541 175.993 150.757C175.639 150.973 175.243 151.081 174.805 151.081C174.379 151.081 174.004 150.988 173.68 150.802C173.362 150.616 173.122 150.379 172.96 150.091V151H172.141V144.34H172.96V146.986ZM176.308 148.516C176.308 148.144 176.233 147.82 176.083 147.544C175.933 147.268 175.729 147.058 175.471 146.914C175.219 146.77 174.94 146.698 174.634 146.698C174.334 146.698 174.055 146.773 173.797 146.923C173.545 147.067 173.341 147.28 173.185 147.562C173.035 147.838 172.96 148.159 172.96 148.525C172.96 148.897 173.035 149.224 173.185 149.506C173.341 149.782 173.545 149.995 173.797 150.145C174.055 150.289 174.334 150.361 174.634 150.361C174.94 150.361 175.219 150.289 175.471 150.145C175.729 149.995 175.933 149.782 176.083 149.506C176.233 149.224 176.308 148.894 176.308 148.516ZM180.374 151.081C179.912 151.081 179.492 150.976 179.114 150.766C178.742 150.556 178.448 150.259 178.232 149.875C178.022 149.485 177.917 149.035 177.917 148.525C177.917 148.021 178.025 147.577 178.241 147.193C178.463 146.803 178.763 146.506 179.141 146.302C179.519 146.092 179.942 145.987 180.41 145.987C180.878 145.987 181.301 146.092 181.679 146.302C182.057 146.506 182.354 146.8 182.57 147.184C182.792 147.568 182.903 148.015 182.903 148.525C182.903 149.035 182.789 149.485 182.561 149.875C182.339 150.259 182.036 150.556 181.652 150.766C181.268 150.976 180.842 151.081 180.374 151.081ZM180.374 150.361C180.668 150.361 180.944 150.292 181.202 150.154C181.46 150.016 181.667 149.809 181.823 149.533C181.985 149.257 182.066 148.921 182.066 148.525C182.066 148.129 181.988 147.793 181.832 147.517C181.676 147.241 181.472 147.037 181.22 146.905C180.968 146.767 180.695 146.698 180.401 146.698C180.101 146.698 179.825 146.767 179.573 146.905C179.327 147.037 179.129 147.241 178.979 147.517C178.829 147.793 178.754 148.129 178.754 148.525C178.754 148.927 178.826 149.266 178.97 149.542C179.12 149.818 179.318 150.025 179.564 150.163C179.81 150.295 180.08 150.361 180.374 150.361ZM184.799 146.869C184.943 146.587 185.147 146.368 185.411 146.212C185.681 146.056 186.008 145.978 186.392 145.978V146.824H186.176C185.258 146.824 184.799 147.322 184.799 148.318V151H183.98V146.068H184.799V146.869ZM191.838 148.345C191.838 148.501 191.829 148.666 191.811 148.84H187.869C187.899 149.326 188.064 149.707 188.364 149.983C188.67 150.253 189.039 150.388 189.471 150.388C189.825 150.388 190.119 150.307 190.353 150.145C190.593 149.977 190.761 149.755 190.857 149.479H191.739C191.607 149.953 191.343 150.34 190.947 150.64C190.551 150.934 190.059 151.081 189.471 151.081C189.003 151.081 188.583 150.976 188.211 150.766C187.845 150.556 187.557 150.259 187.347 149.875C187.137 149.485 187.032 149.035 187.032 148.525C187.032 148.015 187.134 147.568 187.338 147.184C187.542 146.8 187.827 146.506 188.193 146.302C188.565 146.092 188.991 145.987 189.471 145.987C189.939 145.987 190.353 146.089 190.713 146.293C191.073 146.497 191.349 146.779 191.541 147.139C191.739 147.493 191.838 147.895 191.838 148.345ZM190.992 148.174C190.992 147.862 190.923 147.595 190.785 147.373C190.647 147.145 190.458 146.974 190.218 146.86C189.984 146.74 189.723 146.68 189.435 146.68C189.021 146.68 188.667 146.812 188.373 147.076C188.085 147.34 187.92 147.706 187.878 148.174H190.992ZM32.193 159.345C32.193 159.501 32.184 159.666 32.166 159.84H28.224C28.254 160.326 28.419 160.707 28.719 160.983C29.025 161.253 29.394 161.388 29.826 161.388C30.18 161.388 30.474 161.307 30.708 161.145C30.948 160.977 31.116 160.755 31.212 160.479H32.094C31.962 160.953 31.698 161.34 31.302 161.64C30.906 161.934 30.414 162.081 29.826 162.081C29.358 162.081 28.938 161.976 28.566 161.766C28.2 161.556 27.912 161.259 27.702 160.875C27.492 160.485 27.387 160.035 27.387 159.525C27.387 159.015 27.489 158.568 27.693 158.184C27.897 157.8 28.182 157.506 28.548 157.302C28.92 157.092 29.346 156.987 29.826 156.987C30.294 156.987 30.708 157.089 31.068 157.293C31.428 157.497 31.704 157.779 31.896 158.139C32.094 158.493 32.193 158.895 32.193 159.345ZM31.347 159.174C31.347 158.862 31.278 158.595 31.14 158.373C31.002 158.145 30.813 157.974 30.573 157.86C30.339 157.74 30.078 157.68 29.79 157.68C29.376 157.68 29.022 157.812 28.728 158.076C28.44 158.34 28.275 158.706 28.233 159.174H31.347ZM34.2731 157.743V160.65C34.2731 160.89 34.3241 161.061 34.4261 161.163C34.5281 161.259 34.7051 161.307 34.9571 161.307H35.5601V162H34.8221C34.3661 162 34.0241 161.895 33.7961 161.685C33.5681 161.475 33.4541 161.13 33.4541 160.65V157.743H32.8151V157.068H33.4541V155.826H34.2731V157.068H35.5601V157.743H34.2731ZM38.6458 159.516C38.6458 159.012 38.7478 158.571 38.9518 158.193C39.1558 157.809 39.4348 157.512 39.7888 157.302C40.1488 157.092 40.5508 156.987 40.9948 156.987C41.3788 156.987 41.7358 157.077 42.0658 157.257C42.3958 157.431 42.6478 157.662 42.8218 157.95V155.34H43.6498V162H42.8218V161.073C42.6598 161.367 42.4198 161.61 42.1018 161.802C41.7838 161.988 41.4118 162.081 40.9858 162.081C40.5478 162.081 40.1488 161.973 39.7888 161.757C39.4348 161.541 39.1558 161.238 38.9518 160.848C38.7478 160.458 38.6458 160.014 38.6458 159.516ZM42.8218 159.525C42.8218 159.153 42.7468 158.829 42.5968 158.553C42.4468 158.277 42.2428 158.067 41.9848 157.923C41.7328 157.773 41.4538 157.698 41.1478 157.698C40.8418 157.698 40.5628 157.77 40.3108 157.914C40.0588 158.058 39.8578 158.268 39.7078 158.544C39.5578 158.82 39.4828 159.144 39.4828 159.516C39.4828 159.894 39.5578 160.224 39.7078 160.506C39.8578 160.782 40.0588 160.995 40.3108 161.145C40.5628 161.289 40.8418 161.361 41.1478 161.361C41.4538 161.361 41.7328 161.289 41.9848 161.145C42.2428 160.995 42.4468 160.782 42.5968 160.506C42.7468 160.224 42.8218 159.897 42.8218 159.525ZM47.1848 162.081C46.7228 162.081 46.3028 161.976 45.9248 161.766C45.5528 161.556 45.2588 161.259 45.0428 160.875C44.8328 160.485 44.7278 160.035 44.7278 159.525C44.7278 159.021 44.8358 158.577 45.0518 158.193C45.2738 157.803 45.5738 157.506 45.9518 157.302C46.3298 157.092 46.7528 156.987 47.2208 156.987C47.6888 156.987 48.1118 157.092 48.4898 157.302C48.8678 157.506 49.1648 157.8 49.3808 158.184C49.6028 158.568 49.7138 159.015 49.7138 159.525C49.7138 160.035 49.5998 160.485 49.3718 160.875C49.1498 161.259 48.8468 161.556 48.4628 161.766C48.0788 161.976 47.6528 162.081 47.1848 162.081ZM47.1848 161.361C47.4788 161.361 47.7548 161.292 48.0128 161.154C48.2708 161.016 48.4778 160.809 48.6338 160.533C48.7958 160.257 48.8768 159.921 48.8768 159.525C48.8768 159.129 48.7988 158.793 48.6428 158.517C48.4868 158.241 48.2828 158.037 48.0308 157.905C47.7788 157.767 47.5058 157.698 47.2118 157.698C46.9118 157.698 46.6358 157.767 46.3838 157.905C46.1378 158.037 45.9398 158.241 45.7898 158.517C45.6398 158.793 45.5648 159.129 45.5648 159.525C45.5648 159.927 45.6368 160.266 45.7808 160.542C45.9308 160.818 46.1288 161.025 46.3748 161.163C46.6208 161.295 46.8908 161.361 47.1848 161.361ZM51.6097 155.34V162H50.7907V155.34H51.6097ZM55.1565 162.081C54.6945 162.081 54.2745 161.976 53.8965 161.766C53.5245 161.556 53.2305 161.259 53.0145 160.875C52.8045 160.485 52.6995 160.035 52.6995 159.525C52.6995 159.021 52.8075 158.577 53.0235 158.193C53.2455 157.803 53.5455 157.506 53.9235 157.302C54.3015 157.092 54.7245 156.987 55.1925 156.987C55.6605 156.987 56.0835 157.092 56.4615 157.302C56.8395 157.506 57.1365 157.8 57.3525 158.184C57.5745 158.568 57.6855 159.015 57.6855 159.525C57.6855 160.035 57.5715 160.485 57.3435 160.875C57.1215 161.259 56.8185 161.556 56.4345 161.766C56.0505 161.976 55.6245 162.081 55.1565 162.081ZM55.1565 161.361C55.4505 161.361 55.7265 161.292 55.9845 161.154C56.2425 161.016 56.4495 160.809 56.6055 160.533C56.7675 160.257 56.8485 159.921 56.8485 159.525C56.8485 159.129 56.7705 158.793 56.6145 158.517C56.4585 158.241 56.2545 158.037 56.0025 157.905C55.7505 157.767 55.4775 157.698 55.1835 157.698C54.8835 157.698 54.6075 157.767 54.3555 157.905C54.1095 158.037 53.9115 158.241 53.7615 158.517C53.6115 158.793 53.5365 159.129 53.5365 159.525C53.5365 159.927 53.6085 160.266 53.7525 160.542C53.9025 160.818 54.1005 161.025 54.3465 161.163C54.5925 161.295 54.8625 161.361 55.1565 161.361ZM59.5813 157.869C59.7253 157.587 59.9293 157.368 60.1933 157.212C60.4633 157.056 60.7903 156.978 61.1743 156.978V157.824H60.9583C60.0403 157.824 59.5813 158.322 59.5813 159.318V162H58.7623V157.068H59.5813V157.869ZM66.6198 159.345C66.6198 159.501 66.6108 159.666 66.5928 159.84H62.6508C62.6808 160.326 62.8458 160.707 63.1458 160.983C63.4518 161.253 63.8208 161.388 64.2528 161.388C64.6068 161.388 64.9008 161.307 65.1348 161.145C65.3748 160.977 65.5428 160.755 65.6388 160.479H66.5208C66.3888 160.953 66.1248 161.34 65.7288 161.64C65.3328 161.934 64.8408 162.081 64.2528 162.081C63.7848 162.081 63.3648 161.976 62.9928 161.766C62.6268 161.556 62.3388 161.259 62.1288 160.875C61.9188 160.485 61.8138 160.035 61.8138 159.525C61.8138 159.015 61.9158 158.568 62.1198 158.184C62.3238 157.8 62.6088 157.506 62.9748 157.302C63.3468 157.092 63.7728 156.987 64.2528 156.987C64.7208 156.987 65.1348 157.089 65.4948 157.293C65.8548 157.497 66.1308 157.779 66.3228 158.139C66.5208 158.493 66.6198 158.895 66.6198 159.345ZM65.7738 159.174C65.7738 158.862 65.7048 158.595 65.5668 158.373C65.4288 158.145 65.2398 157.974 64.9998 157.86C64.7658 157.74 64.5048 157.68 64.2168 157.68C63.8028 157.68 63.4488 157.812 63.1548 158.076C62.8668 158.34 62.7018 158.706 62.6598 159.174H65.7738ZM76.0312 156.978C76.4152 156.978 76.7572 157.059 77.0572 157.221C77.3572 157.377 77.5942 157.614 77.7682 157.932C77.9422 158.25 78.0292 158.637 78.0292 159.093V162H77.2192V159.21C77.2192 158.718 77.0962 158.343 76.8502 158.085C76.6102 157.821 76.2832 157.689 75.8692 157.689C75.4432 157.689 75.1042 157.827 74.8522 158.103C74.6002 158.373 74.4742 158.766 74.4742 159.282V162H73.6642V159.21C73.6642 158.718 73.5412 158.343 73.2952 158.085C73.0552 157.821 72.7282 157.689 72.3142 157.689C71.8882 157.689 71.5492 157.827 71.2972 158.103C71.0452 158.373 70.9192 158.766 70.9192 159.282V162H70.1002V157.068H70.9192V157.779C71.0812 157.521 71.2972 157.323 71.5672 157.185C71.8432 157.047 72.1462 156.978 72.4762 156.978C72.8902 156.978 73.2562 157.071 73.5742 157.257C73.8922 157.443 74.1292 157.716 74.2852 158.076C74.4232 157.728 74.6512 157.458 74.9692 157.266C75.2872 157.074 75.6412 156.978 76.0312 156.978ZM79.0667 159.516C79.0667 159.012 79.1687 158.571 79.3727 158.193C79.5767 157.809 79.8557 157.512 80.2097 157.302C80.5697 157.092 80.9687 156.987 81.4067 156.987C81.8387 156.987 82.2137 157.08 82.5317 157.266C82.8497 157.452 83.0867 157.686 83.2427 157.968V157.068H84.0707V162H83.2427V161.082C83.0807 161.37 82.8377 161.61 82.5137 161.802C82.1957 161.988 81.8237 162.081 81.3977 162.081C80.9597 162.081 80.5637 161.973 80.2097 161.757C79.8557 161.541 79.5767 161.238 79.3727 160.848C79.1687 160.458 79.0667 160.014 79.0667 159.516ZM83.2427 159.525C83.2427 159.153 83.1677 158.829 83.0177 158.553C82.8677 158.277 82.6637 158.067 82.4057 157.923C82.1537 157.773 81.8747 157.698 81.5687 157.698C81.2627 157.698 80.9837 157.77 80.7317 157.914C80.4797 158.058 80.2787 158.268 80.1287 158.544C79.9787 158.82 79.9037 159.144 79.9037 159.516C79.9037 159.894 79.9787 160.224 80.1287 160.506C80.2787 160.782 80.4797 160.995 80.7317 161.145C80.9837 161.289 81.2627 161.361 81.5687 161.361C81.8747 161.361 82.1537 161.289 82.4057 161.145C82.6637 160.995 82.8677 160.782 83.0177 160.506C83.1677 160.224 83.2427 159.897 83.2427 159.525ZM87.4887 156.987C87.9147 156.987 88.2867 157.08 88.6047 157.266C88.9287 157.452 89.1687 157.686 89.3247 157.968V157.068H90.1527V162.108C90.1527 162.558 90.0567 162.957 89.8647 163.305C89.6727 163.659 89.3967 163.935 89.0367 164.133C88.6827 164.331 88.2687 164.43 87.7947 164.43C87.1467 164.43 86.6067 164.277 86.1747 163.971C85.7427 163.665 85.4877 163.248 85.4097 162.72H86.2197C86.3097 163.02 86.4957 163.26 86.7777 163.44C87.0597 163.626 87.3987 163.719 87.7947 163.719C88.2447 163.719 88.6107 163.578 88.8927 163.296C89.1807 163.014 89.3247 162.618 89.3247 162.108V161.073C89.1627 161.361 88.9227 161.601 88.6047 161.793C88.2867 161.985 87.9147 162.081 87.4887 162.081C87.0507 162.081 86.6517 161.973 86.2917 161.757C85.9377 161.541 85.6587 161.238 85.4547 160.848C85.2507 160.458 85.1487 160.014 85.1487 159.516C85.1487 159.012 85.2507 158.571 85.4547 158.193C85.6587 157.809 85.9377 157.512 86.2917 157.302C86.6517 157.092 87.0507 156.987 87.4887 156.987ZM89.3247 159.525C89.3247 159.153 89.2497 158.829 89.0997 158.553C88.9497 158.277 88.7457 158.067 88.4877 157.923C88.2357 157.773 87.9567 157.698 87.6507 157.698C87.3447 157.698 87.0657 157.77 86.8137 157.914C86.5617 158.058 86.3607 158.268 86.2107 158.544C86.0607 158.82 85.9857 159.144 85.9857 159.516C85.9857 159.894 86.0607 160.224 86.2107 160.506C86.3607 160.782 86.5617 160.995 86.8137 161.145C87.0657 161.289 87.3447 161.361 87.6507 161.361C87.9567 161.361 88.2357 161.289 88.4877 161.145C88.7457 160.995 88.9497 160.782 89.0997 160.506C89.2497 160.224 89.3247 159.897 89.3247 159.525ZM93.9398 156.978C94.5398 156.978 95.0258 157.161 95.3978 157.527C95.7698 157.887 95.9558 158.409 95.9558 159.093V162H95.1458V159.21C95.1458 158.718 95.0228 158.343 94.7768 158.085C94.5308 157.821 94.1948 157.689 93.7688 157.689C93.3368 157.689 92.9918 157.824 92.7338 158.094C92.4818 158.364 92.3558 158.757 92.3558 159.273V162H91.5368V157.068H92.3558V157.77C92.5178 157.518 92.7368 157.323 93.0128 157.185C93.2948 157.047 93.6038 156.978 93.9398 156.978ZM96.9876 159.516C96.9876 159.012 97.0896 158.571 97.2936 158.193C97.4976 157.809 97.7766 157.512 98.1306 157.302C98.4906 157.092 98.8896 156.987 99.3276 156.987C99.7596 156.987 100.135 157.08 100.453 157.266C100.771 157.452 101.008 157.686 101.164 157.968V157.068H101.992V162H101.164V161.082C101.002 161.37 100.759 161.61 100.435 161.802C100.117 161.988 99.7446 162.081 99.3186 162.081C98.8806 162.081 98.4846 161.973 98.1306 161.757C97.7766 161.541 97.4976 161.238 97.2936 160.848C97.0896 160.458 96.9876 160.014 96.9876 159.516ZM101.164 159.525C101.164 159.153 101.089 158.829 100.939 158.553C100.789 158.277 100.585 158.067 100.327 157.923C100.075 157.773 99.7956 157.698 99.4896 157.698C99.1836 157.698 98.9046 157.77 98.6526 157.914C98.4006 158.058 98.1996 158.268 98.0496 158.544C97.8996 158.82 97.8246 159.144 97.8246 159.516C97.8246 159.894 97.8996 160.224 98.0496 160.506C98.1996 160.782 98.4006 160.995 98.6526 161.145C98.9046 161.289 99.1836 161.361 99.4896 161.361C99.7956 161.361 100.075 161.289 100.327 161.145C100.585 160.995 100.789 160.782 100.939 160.506C101.089 160.224 101.164 159.897 101.164 159.525ZM105.469 159.516C105.469 159.012 105.571 158.571 105.775 158.193C105.979 157.809 106.258 157.512 106.612 157.302C106.972 157.092 107.371 156.987 107.809 156.987C108.241 156.987 108.616 157.08 108.934 157.266C109.252 157.452 109.489 157.686 109.645 157.968V157.068H110.473V162H109.645V161.082C109.483 161.37 109.24 161.61 108.916 161.802C108.598 161.988 108.226 162.081 107.8 162.081C107.362 162.081 106.966 161.973 106.612 161.757C106.258 161.541 105.979 161.238 105.775 160.848C105.571 160.458 105.469 160.014 105.469 159.516ZM109.645 159.525C109.645 159.153 109.57 158.829 109.42 158.553C109.27 158.277 109.066 158.067 108.808 157.923C108.556 157.773 108.277 157.698 107.971 157.698C107.665 157.698 107.386 157.77 107.134 157.914C106.882 158.058 106.681 158.268 106.531 158.544C106.381 158.82 106.306 159.144 106.306 159.516C106.306 159.894 106.381 160.224 106.531 160.506C106.681 160.782 106.882 160.995 107.134 161.145C107.386 161.289 107.665 161.361 107.971 161.361C108.277 161.361 108.556 161.289 108.808 161.145C109.066 160.995 109.27 160.782 109.42 160.506C109.57 160.224 109.645 159.897 109.645 159.525ZM112.676 155.34V162H111.857V155.34H112.676ZM114.495 156.267C114.339 156.267 114.207 156.213 114.099 156.105C113.991 155.997 113.937 155.865 113.937 155.709C113.937 155.553 113.991 155.421 114.099 155.313C114.207 155.205 114.339 155.151 114.495 155.151C114.645 155.151 114.771 155.205 114.873 155.313C114.981 155.421 115.035 155.553 115.035 155.709C115.035 155.865 114.981 155.997 114.873 156.105C114.771 156.213 114.645 156.267 114.495 156.267ZM114.891 157.068V162H114.072V157.068H114.891ZM115.981 159.516C115.981 159.012 116.083 158.571 116.287 158.193C116.491 157.809 116.77 157.512 117.124 157.302C117.484 157.092 117.886 156.987 118.33 156.987C118.756 156.987 119.128 157.083 119.446 157.275C119.77 157.461 120.007 157.692 120.157 157.968V157.068H120.985V164.34H120.157V161.091C120.001 161.367 119.761 161.601 119.437 161.793C119.113 161.985 118.735 162.081 118.303 162.081C117.871 162.081 117.478 161.973 117.124 161.757C116.77 161.541 116.491 161.238 116.287 160.848C116.083 160.458 115.981 160.014 115.981 159.516ZM120.157 159.525C120.157 159.153 120.082 158.829 119.932 158.553C119.782 158.277 119.578 158.067 119.32 157.923C119.068 157.773 118.789 157.698 118.483 157.698C118.177 157.698 117.898 157.77 117.646 157.914C117.394 158.058 117.193 158.268 117.043 158.544C116.893 158.82 116.818 159.144 116.818 159.516C116.818 159.894 116.893 160.224 117.043 160.506C117.193 160.782 117.394 160.995 117.646 161.145C117.898 161.289 118.177 161.361 118.483 161.361C118.789 161.361 119.068 161.289 119.32 161.145C119.578 160.995 119.782 160.782 119.932 160.506C120.082 160.224 120.157 159.897 120.157 159.525ZM126.743 157.068V162H125.924V161.271C125.768 161.523 125.549 161.721 125.267 161.865C124.991 162.003 124.685 162.072 124.349 162.072C123.965 162.072 123.62 161.994 123.314 161.838C123.008 161.676 122.765 161.436 122.585 161.118C122.411 160.8 122.324 160.413 122.324 159.957V157.068H123.134V159.849C123.134 160.335 123.257 160.71 123.503 160.974C123.749 161.232 124.085 161.361 124.511 161.361C124.949 161.361 125.294 161.226 125.546 160.956C125.798 160.686 125.924 160.293 125.924 159.777V157.068H126.743ZM127.82 159.516C127.82 159.012 127.922 158.571 128.126 158.193C128.33 157.809 128.609 157.512 128.963 157.302C129.323 157.092 129.722 156.987 130.16 156.987C130.592 156.987 130.967 157.08 131.285 157.266C131.603 157.452 131.84 157.686 131.996 157.968V157.068H132.824V162H131.996V161.082C131.834 161.37 131.591 161.61 131.267 161.802C130.949 161.988 130.577 162.081 130.151 162.081C129.713 162.081 129.317 161.973 128.963 161.757C128.609 161.541 128.33 161.238 128.126 160.848C127.922 160.458 127.82 160.014 127.82 159.516ZM131.996 159.525C131.996 159.153 131.921 158.829 131.771 158.553C131.621 158.277 131.417 158.067 131.159 157.923C130.907 157.773 130.628 157.698 130.322 157.698C130.016 157.698 129.737 157.77 129.485 157.914C129.233 158.058 129.032 158.268 128.882 158.544C128.732 158.82 128.657 159.144 128.657 159.516C128.657 159.894 128.732 160.224 128.882 160.506C129.032 160.782 129.233 160.995 129.485 161.145C129.737 161.289 130.016 161.361 130.322 161.361C130.628 161.361 130.907 161.289 131.159 161.145C131.417 160.995 131.621 160.782 131.771 160.506C131.921 160.224 131.996 159.897 131.996 159.525ZM134.469 162.054C134.313 162.054 134.181 162 134.073 161.892C133.965 161.784 133.911 161.652 133.911 161.496C133.911 161.34 133.965 161.208 134.073 161.1C134.181 160.992 134.313 160.938 134.469 160.938C134.619 160.938 134.745 160.992 134.847 161.1C134.955 161.208 135.009 161.34 135.009 161.496C135.009 161.652 134.955 161.784 134.847 161.892C134.745 162 134.619 162.054 134.469 162.054Z" fill="black"/>
<defs>
<filter id="filter0_d_19_1913" x="0" y="0" width="227" height="227" filterUnits="userSpaceOnUse" color-interpolation-filters="sRGB">
<feFlood flood-opacity="0" result="BackgroundImageFix"/>
<feColorMatrix in="SourceAlpha" type="matrix" values="0 0 0 0 0 0 0 0 0 0 0 0 0 0 0 0 0 0 127 0" result="hardAlpha"/>
<feMorphology radius="2" operator="dilate" in="SourceAlpha" result="effect1_dropShadow_19_1913"/>
<feOffset dx="-2" dy="4"/>
<feGaussianBlur stdDeviation="2.5"/>
<feComposite in2="hardAlpha" operator="out"/>
<feColorMatrix type="matrix" values="0 0 0 0 0 0 0 0 0 0 0 0 0 0 0 0 0 0 0.25 0"/>
<feBlend mode="normal" in2="BackgroundImageFix" result="effect1_dropShadow_19_1913"/>
<feBlend mode="normal" in="SourceGraphic" in2="effect1_dropShadow_19_1913" result="shape"/>
</filter>
</defs>
</svg>
