<svg width="227" height="227" viewBox="0 0 227 227" fill="none" xmlns="http://www.w3.org/2000/svg">
<g filter="url(#filter0_d_19_1897)">
<rect x="9" y="3" width="213" height="213" rx="31" fill="black"/>
</g>
<path d="M46.985 51.6705C54.6314 51.6705 60.83 45.4719 60.83 37.8255C60.83 30.1791 54.6314 23.9805 46.985 23.9805C39.3386 23.9805 33.14 30.1791 33.14 37.8255C33.14 45.4719 39.3386 51.6705 46.985 51.6705Z" stroke="#9FFA00" stroke-width="1.87" stroke-miterlimit="10"/>
<path d="M50.4427 54.2262C58.2852 54.2262 64.6427 47.8686 64.6427 40.0262C64.6427 32.1837 58.2852 25.8262 50.4427 25.8262C42.6003 25.8262 36.2427 32.1837 36.2427 40.0262C36.2427 47.8686 42.6003 54.2262 50.4427 54.2262Z" stroke="#9FFA00" stroke-width="1.92" stroke-miterlimit="10"/>
<path d="M53.9004 57.1588C61.9389 57.1588 68.4554 50.6423 68.4554 42.6038C68.4554 34.5653 61.9389 28.0488 53.9004 28.0488C45.8619 28.0488 39.3454 34.5653 39.3454 42.6038C39.3454 50.6423 45.8619 57.1588 53.9004 57.1588Z" stroke="#9FFA00" stroke-width="1.97" stroke-miterlimit="10"/>
<path d="M56.8824 59.9558C65.3131 59.9558 72.1474 53.1214 72.1474 44.6908C72.1474 36.2602 65.3131 29.4258 56.8824 29.4258C48.4518 29.4258 41.6174 36.2602 41.6174 44.6908C41.6174 53.1214 48.4518 59.9558 56.8824 59.9558Z" fill="#9FFA00"/>
<path d="M27.792 80.8V77.962H33.094V94H29.926V80.8H27.792ZM36.1367 85.772C36.1367 83.2347 36.5914 81.2473 37.5007 79.81C38.4247 78.3727 39.95 77.654 42.0767 77.654C44.2034 77.654 45.7214 78.3727 46.6307 79.81C47.5547 81.2473 48.0167 83.2347 48.0167 85.772C48.0167 88.324 47.5547 90.326 46.6307 91.778C45.7214 93.23 44.2034 93.956 42.0767 93.956C39.95 93.956 38.4247 93.23 37.5007 91.778C36.5914 90.326 36.1367 88.324 36.1367 85.772ZM44.9807 85.772C44.9807 84.6867 44.9074 83.7773 44.7607 83.044C44.6287 82.296 44.35 81.6873 43.9247 81.218C43.514 80.7487 42.898 80.514 42.0767 80.514C41.2554 80.514 40.632 80.7487 40.2067 81.218C39.796 81.6873 39.5174 82.296 39.3707 83.044C39.2387 83.7773 39.1727 84.6867 39.1727 85.772C39.1727 86.8867 39.2387 87.8253 39.3707 88.588C39.5027 89.336 39.7814 89.9447 40.2067 90.414C40.632 90.8687 41.2554 91.096 42.0767 91.096C42.898 91.096 43.5214 90.8687 43.9467 90.414C44.372 89.9447 44.6507 89.336 44.7827 88.588C44.9147 87.8253 44.9807 86.8867 44.9807 85.772ZM50.3594 85.772C50.3594 83.2347 50.814 81.2473 51.7234 79.81C52.6474 78.3727 54.1727 77.654 56.2994 77.654C58.426 77.654 59.944 78.3727 60.8534 79.81C61.7774 81.2473 62.2394 83.2347 62.2394 85.772C62.2394 88.324 61.7774 90.326 60.8534 91.778C59.944 93.23 58.426 93.956 56.2994 93.956C54.1727 93.956 52.6474 93.23 51.7234 91.778C50.814 90.326 50.3594 88.324 50.3594 85.772ZM59.2034 85.772C59.2034 84.6867 59.13 83.7773 58.9834 83.044C58.8514 82.296 58.5727 81.6873 58.1474 81.218C57.7367 80.7487 57.1207 80.514 56.2994 80.514C55.478 80.514 54.8547 80.7487 54.4294 81.218C54.0187 81.6873 53.74 82.296 53.5934 83.044C53.4614 83.7773 53.3954 84.6867 53.3954 85.772C53.3954 86.8867 53.4614 87.8253 53.5934 88.588C53.7254 89.336 54.004 89.9447 54.4294 90.414C54.8547 90.8687 55.478 91.096 56.2994 91.096C57.1207 91.096 57.744 90.8687 58.1694 90.414C58.5947 89.9447 58.8734 89.336 59.0054 88.588C59.1374 87.8253 59.2034 86.8867 59.2034 85.772ZM64.582 85.772C64.582 83.2347 65.0367 81.2473 65.946 79.81C66.87 78.3727 68.3953 77.654 70.522 77.654C72.6487 77.654 74.1667 78.3727 75.076 79.81C76 81.2473 76.462 83.2347 76.462 85.772C76.462 88.324 76 90.326 75.076 91.778C74.1667 93.23 72.6487 93.956 70.522 93.956C68.3953 93.956 66.87 93.23 65.946 91.778C65.0367 90.326 64.582 88.324 64.582 85.772ZM73.426 85.772C73.426 84.6867 73.3527 83.7773 73.206 83.044C73.074 82.296 72.7953 81.6873 72.37 81.218C71.9593 80.7487 71.3433 80.514 70.522 80.514C69.7007 80.514 69.0773 80.7487 68.652 81.218C68.2413 81.6873 67.9627 82.296 67.816 83.044C67.684 83.7773 67.618 84.6867 67.618 85.772C67.618 86.8867 67.684 87.8253 67.816 88.588C67.948 89.336 68.2267 89.9447 68.652 90.414C69.0773 90.8687 69.7007 91.096 70.522 91.096C71.3433 91.096 71.9667 90.8687 72.392 90.414C72.8173 89.9447 73.096 89.336 73.228 88.588C73.36 87.8253 73.426 86.8867 73.426 85.772ZM78.8047 85.772C78.8047 83.2347 79.2593 81.2473 80.1687 79.81C81.0927 78.3727 82.618 77.654 84.7447 77.654C86.8713 77.654 88.3893 78.3727 89.2987 79.81C90.2227 81.2473 90.6847 83.2347 90.6847 85.772C90.6847 88.324 90.2227 90.326 89.2987 91.778C88.3893 93.23 86.8713 93.956 84.7447 93.956C82.618 93.956 81.0927 93.23 80.1687 91.778C79.2593 90.326 78.8047 88.324 78.8047 85.772ZM87.6487 85.772C87.6487 84.6867 87.5753 83.7773 87.4287 83.044C87.2967 82.296 87.018 81.6873 86.5927 81.218C86.182 80.7487 85.566 80.514 84.7447 80.514C83.9233 80.514 83.3 80.7487 82.8747 81.218C82.464 81.6873 82.1853 82.296 82.0387 83.044C81.9067 83.7773 81.8407 84.6867 81.8407 85.772C81.8407 86.8867 81.9067 87.8253 82.0387 88.588C82.1707 89.336 82.4493 89.9447 82.8747 90.414C83.3 90.8687 83.9233 91.096 84.7447 91.096C85.566 91.096 86.1893 90.8687 86.6147 90.414C87.04 89.9447 87.3187 89.336 87.4507 88.588C87.5827 87.8253 87.6487 86.8867 87.6487 85.772ZM93.0273 85.772C93.0273 83.2347 93.482 81.2473 94.3913 79.81C95.3153 78.3727 96.8407 77.654 98.9673 77.654C101.094 77.654 102.612 78.3727 103.521 79.81C104.445 81.2473 104.907 83.2347 104.907 85.772C104.907 88.324 104.445 90.326 103.521 91.778C102.612 93.23 101.094 93.956 98.9673 93.956C96.8407 93.956 95.3153 93.23 94.3913 91.778C93.482 90.326 93.0273 88.324 93.0273 85.772ZM101.871 85.772C101.871 84.6867 101.798 83.7773 101.651 83.044C101.519 82.296 101.241 81.6873 100.815 81.218C100.405 80.7487 99.7887 80.514 98.9673 80.514C98.146 80.514 97.5227 80.7487 97.0973 81.218C96.6867 81.6873 96.408 82.296 96.2613 83.044C96.1293 83.7773 96.0633 84.6867 96.0633 85.772C96.0633 86.8867 96.1293 87.8253 96.2613 88.588C96.3933 89.336 96.672 89.9447 97.0973 90.414C97.5227 90.8687 98.146 91.096 98.9673 91.096C99.7887 91.096 100.412 90.8687 100.837 90.414C101.263 89.9447 101.541 89.336 101.673 88.588C101.805 87.8253 101.871 86.8867 101.871 85.772ZM119.108 87.51H114.95V91.778H112.046V87.51H107.888V84.826H112.046V80.558H114.95V84.826H119.108V87.51Z" fill="white"/>
<path d="M30.04 116.07C29.5733 116.07 29.1533 115.99 28.78 115.83C28.4067 115.663 28.1133 115.43 27.9 115.13C27.6867 114.83 27.58 114.48 27.58 114.08H28.8C28.8267 114.38 28.9433 114.627 29.15 114.82C29.3633 115.013 29.66 115.11 30.04 115.11C30.4333 115.11 30.74 115.017 30.96 114.83C31.18 114.637 31.29 114.39 31.29 114.09C31.29 113.857 31.22 113.667 31.08 113.52C30.9467 113.373 30.7767 113.26 30.57 113.18C30.37 113.1 30.09 113.013 29.73 112.92C29.2767 112.8 28.9067 112.68 28.62 112.56C28.34 112.433 28.1 112.24 27.9 111.98C27.7 111.72 27.6 111.373 27.6 110.94C27.6 110.54 27.7 110.19 27.9 109.89C28.1 109.59 28.38 109.36 28.74 109.2C29.1 109.04 29.5167 108.96 29.99 108.96C30.6633 108.96 31.2133 109.13 31.64 109.47C32.0733 109.803 32.3133 110.263 32.36 110.85H31.1C31.08 110.597 30.96 110.38 30.74 110.2C30.52 110.02 30.23 109.93 29.87 109.93C29.5433 109.93 29.2767 110.013 29.07 110.18C28.8633 110.347 28.76 110.587 28.76 110.9C28.76 111.113 28.8233 111.29 28.95 111.43C29.0833 111.563 29.25 111.67 29.45 111.75C29.65 111.83 29.9233 111.917 30.27 112.01C30.73 112.137 31.1033 112.263 31.39 112.39C31.6833 112.517 31.93 112.713 32.13 112.98C32.3367 113.24 32.44 113.59 32.44 114.03C32.44 114.383 32.3433 114.717 32.15 115.03C31.9633 115.343 31.6867 115.597 31.32 115.79C30.96 115.977 30.5333 116.07 30.04 116.07ZM35.1152 111.42V114.47C35.1152 114.677 35.1618 114.827 35.2552 114.92C35.3552 115.007 35.5218 115.05 35.7552 115.05H36.4552V116H35.5552C35.0418 116 34.6485 115.88 34.3752 115.64C34.1018 115.4 33.9652 115.01 33.9652 114.47V111.42H33.3152V110.49H33.9652V109.12H35.1152V110.49H36.4552V111.42H35.1152ZM42.4959 110.49V116H41.3559V115.35C41.1759 115.577 40.9392 115.757 40.6459 115.89C40.3592 116.017 40.0525 116.08 39.7259 116.08C39.2925 116.08 38.9025 115.99 38.5559 115.81C38.2159 115.63 37.9459 115.363 37.7459 115.01C37.5525 114.657 37.4559 114.23 37.4559 113.73V110.49H38.5859V113.56C38.5859 114.053 38.7092 114.433 38.9559 114.7C39.2025 114.96 39.5392 115.09 39.9659 115.09C40.3925 115.09 40.7292 114.96 40.9759 114.7C41.2292 114.433 41.3559 114.053 41.3559 113.56V110.49H42.4959ZM43.62 113.22C43.62 112.667 43.7333 112.177 43.96 111.75C44.1933 111.323 44.5067 110.993 44.9 110.76C45.3 110.52 45.7433 110.4 46.23 110.4C46.59 110.4 46.9433 110.48 47.29 110.64C47.6433 110.793 47.9233 111 48.13 111.26V108.6H49.28V116H48.13V115.17C47.9433 115.437 47.6833 115.657 47.35 115.83C47.0233 116.003 46.6467 116.09 46.22 116.09C45.74 116.09 45.3 115.97 44.9 115.73C44.5067 115.483 44.1933 115.143 43.96 114.71C43.7333 114.27 43.62 113.773 43.62 113.22ZM48.13 113.24C48.13 112.86 48.05 112.53 47.89 112.25C47.7367 111.97 47.5333 111.757 47.28 111.61C47.0267 111.463 46.7533 111.39 46.46 111.39C46.1667 111.39 45.8933 111.463 45.64 111.61C45.3867 111.75 45.18 111.96 45.02 112.24C44.8667 112.513 44.79 112.84 44.79 113.22C44.79 113.6 44.8667 113.933 45.02 114.22C45.18 114.507 45.3867 114.727 45.64 114.88C45.9 115.027 46.1733 115.1 46.46 115.1C46.7533 115.1 47.0267 115.027 47.28 114.88C47.5333 114.733 47.7367 114.52 47.89 114.24C48.05 113.953 48.13 113.62 48.13 113.24ZM55.8273 113.11C55.8273 113.317 55.814 113.503 55.7873 113.67H51.5773C51.6107 114.11 51.774 114.463 52.0673 114.73C52.3607 114.997 52.7207 115.13 53.1473 115.13C53.7607 115.13 54.194 114.873 54.4473 114.36H55.6773C55.5107 114.867 55.2073 115.283 54.7673 115.61C54.334 115.93 53.794 116.09 53.1473 116.09C52.6207 116.09 52.1473 115.973 51.7273 115.74C51.314 115.5 50.9873 115.167 50.7473 114.74C50.514 114.307 50.3973 113.807 50.3973 113.24C50.3973 112.673 50.5107 112.177 50.7373 111.75C50.9707 111.317 51.294 110.983 51.7073 110.75C52.1273 110.517 52.6073 110.4 53.1473 110.4C53.6673 110.4 54.1307 110.513 54.5373 110.74C54.944 110.967 55.2607 111.287 55.4873 111.7C55.714 112.107 55.8273 112.577 55.8273 113.11ZM54.6373 112.75C54.6307 112.33 54.4807 111.993 54.1873 111.74C53.894 111.487 53.5307 111.36 53.0973 111.36C52.704 111.36 52.3673 111.487 52.0873 111.74C51.8073 111.987 51.6407 112.323 51.5873 112.75H54.6373ZM59.7292 110.4C60.1626 110.4 60.5492 110.49 60.8892 110.67C61.2359 110.85 61.5059 111.117 61.6992 111.47C61.8926 111.823 61.9892 112.25 61.9892 112.75V116H60.8592V112.92C60.8592 112.427 60.7359 112.05 60.4892 111.79C60.2426 111.523 59.9059 111.39 59.4792 111.39C59.0526 111.39 58.7126 111.523 58.4592 111.79C58.2126 112.05 58.0892 112.427 58.0892 112.92V116H56.9492V110.49H58.0892V111.12C58.2759 110.893 58.5126 110.717 58.7992 110.59C59.0926 110.463 59.4026 110.4 59.7292 110.4ZM64.7734 111.42V114.47C64.7734 114.677 64.82 114.827 64.9134 114.92C65.0134 115.007 65.18 115.05 65.4134 115.05H66.1134V116H65.2134C64.7 116 64.3067 115.88 64.0334 115.64C63.76 115.4 63.6234 115.01 63.6234 114.47V111.42H62.9734V110.49H63.6234V109.12H64.7734V110.49H66.1134V111.42H64.7734ZM73.8517 109.05V109.98H70.9017V112.03H73.2017V112.96H70.9017V116H69.7617V109.05H73.8517ZM75.4882 109.76C75.2815 109.76 75.1082 109.69 74.9682 109.55C74.8282 109.41 74.7582 109.237 74.7582 109.03C74.7582 108.823 74.8282 108.65 74.9682 108.51C75.1082 108.37 75.2815 108.3 75.4882 108.3C75.6882 108.3 75.8582 108.37 75.9982 108.51C76.1382 108.65 76.2082 108.823 76.2082 109.03C76.2082 109.237 76.1382 109.41 75.9982 109.55C75.8582 109.69 75.6882 109.76 75.4882 109.76ZM76.0482 110.49V116H74.9082V110.49H76.0482ZM80.3249 110.4C80.7583 110.4 81.1449 110.49 81.4849 110.67C81.8316 110.85 82.1016 111.117 82.2949 111.47C82.4883 111.823 82.5849 112.25 82.5849 112.75V116H81.4549V112.92C81.4549 112.427 81.3316 112.05 81.0849 111.79C80.8383 111.523 80.5016 111.39 80.0749 111.39C79.6483 111.39 79.3083 111.523 79.0549 111.79C78.8083 112.05 78.6849 112.427 78.6849 112.92V116H77.5449V110.49H78.6849V111.12C78.8716 110.893 79.1083 110.717 79.3949 110.59C79.6883 110.463 79.9983 110.4 80.3249 110.4ZM84.6191 109.76C84.4124 109.76 84.2391 109.69 84.0991 109.55C83.9591 109.41 83.8891 109.237 83.8891 109.03C83.8891 108.823 83.9591 108.65 84.0991 108.51C84.2391 108.37 84.4124 108.3 84.6191 108.3C84.8191 108.3 84.9891 108.37 85.1291 108.51C85.2691 108.65 85.3391 108.823 85.3391 109.03C85.3391 109.237 85.2691 109.41 85.1291 109.55C84.9891 109.69 84.8191 109.76 84.6191 109.76ZM85.1791 110.49V116H84.0391V110.49H85.1791ZM88.6758 116.09C88.2424 116.09 87.8524 116.013 87.5058 115.86C87.1658 115.7 86.8958 115.487 86.6958 115.22C86.4958 114.947 86.3891 114.643 86.3758 114.31H87.5558C87.5758 114.543 87.6858 114.74 87.8858 114.9C88.0924 115.053 88.3491 115.13 88.6558 115.13C88.9758 115.13 89.2224 115.07 89.3958 114.95C89.5758 114.823 89.6658 114.663 89.6658 114.47C89.6658 114.263 89.5658 114.11 89.3658 114.01C89.1724 113.91 88.8624 113.8 88.4358 113.68C88.0224 113.567 87.6858 113.457 87.4258 113.35C87.1658 113.243 86.9391 113.08 86.7458 112.86C86.5591 112.64 86.4658 112.35 86.4658 111.99C86.4658 111.697 86.5524 111.43 86.7258 111.19C86.8991 110.943 87.1458 110.75 87.4658 110.61C87.7924 110.47 88.1658 110.4 88.5858 110.4C89.2124 110.4 89.7158 110.56 90.0958 110.88C90.4824 111.193 90.6891 111.623 90.7158 112.17H89.5758C89.5558 111.923 89.4558 111.727 89.2758 111.58C89.0958 111.433 88.8524 111.36 88.5458 111.36C88.2458 111.36 88.0158 111.417 87.8558 111.53C87.6958 111.643 87.6158 111.793 87.6158 111.98C87.6158 112.127 87.6691 112.25 87.7758 112.35C87.8824 112.45 88.0124 112.53 88.1658 112.59C88.3191 112.643 88.5458 112.713 88.8458 112.8C89.2458 112.907 89.5724 113.017 89.8258 113.13C90.0858 113.237 90.3091 113.397 90.4958 113.61C90.6824 113.823 90.7791 114.107 90.7858 114.46C90.7858 114.773 90.6991 115.053 90.5258 115.3C90.3524 115.547 90.1058 115.74 89.7858 115.88C89.4724 116.02 89.1024 116.09 88.6758 116.09ZM94.8676 110.4C95.2876 110.4 95.6609 110.49 95.9876 110.67C96.3209 110.85 96.5809 111.117 96.7676 111.47C96.9609 111.823 97.0576 112.25 97.0576 112.75V116H95.9276V112.92C95.9276 112.427 95.8042 112.05 95.5576 111.79C95.3109 111.523 94.9742 111.39 94.5476 111.39C94.1209 111.39 93.7809 111.523 93.5276 111.79C93.2809 112.05 93.1576 112.427 93.1576 112.92V116H92.0176V108.6H93.1576V111.13C93.3509 110.897 93.5942 110.717 93.8876 110.59C94.1876 110.463 94.5142 110.4 94.8676 110.4ZM103.562 113.11C103.562 113.317 103.548 113.503 103.522 113.67H99.3117C99.3451 114.11 99.5084 114.463 99.8017 114.73C100.095 114.997 100.455 115.13 100.882 115.13C101.495 115.13 101.928 114.873 102.182 114.36H103.412C103.245 114.867 102.942 115.283 102.502 115.61C102.068 115.93 101.528 116.09 100.882 116.09C100.355 116.09 99.8817 115.973 99.4617 115.74C99.0484 115.5 98.7217 115.167 98.4817 114.74C98.2484 114.307 98.1317 113.807 98.1317 113.24C98.1317 112.673 98.2451 112.177 98.4717 111.75C98.7051 111.317 99.0284 110.983 99.4417 110.75C99.8617 110.517 100.342 110.4 100.882 110.4C101.402 110.4 101.865 110.513 102.272 110.74C102.678 110.967 102.995 111.287 103.222 111.7C103.448 112.107 103.562 112.577 103.562 113.11ZM102.372 112.75C102.365 112.33 102.215 111.993 101.922 111.74C101.628 111.487 101.265 111.36 100.832 111.36C100.438 111.36 100.102 111.487 99.8217 111.74C99.5417 111.987 99.3751 112.323 99.3217 112.75H102.372ZM104.304 113.22C104.304 112.667 104.417 112.177 104.644 111.75C104.877 111.323 105.19 110.993 105.584 110.76C105.984 110.52 106.427 110.4 106.914 110.4C107.274 110.4 107.627 110.48 107.974 110.64C108.327 110.793 108.607 111 108.814 111.26V108.6H109.964V116H108.814V115.17C108.627 115.437 108.367 115.657 108.034 115.83C107.707 116.003 107.33 116.09 106.904 116.09C106.424 116.09 105.984 115.97 105.584 115.73C105.19 115.483 104.877 115.143 104.644 114.71C104.417 114.27 104.304 113.773 104.304 113.22ZM108.814 113.24C108.814 112.86 108.734 112.53 108.574 112.25C108.42 111.97 108.217 111.757 107.964 111.61C107.71 111.463 107.437 111.39 107.144 111.39C106.85 111.39 106.577 111.463 106.324 111.61C106.07 111.75 105.864 111.96 105.704 112.24C105.55 112.513 105.474 112.84 105.474 113.22C105.474 113.6 105.55 113.933 105.704 114.22C105.864 114.507 106.07 114.727 106.324 114.88C106.584 115.027 106.857 115.1 107.144 115.1C107.437 115.1 107.71 115.027 107.964 114.88C108.217 114.733 108.42 114.52 108.574 114.24C108.734 113.953 108.814 113.62 108.814 113.24ZM113.679 112.51C113.679 111.83 113.835 111.22 114.149 110.68C114.469 110.14 114.899 109.72 115.439 109.42C115.985 109.113 116.582 108.96 117.229 108.96C117.969 108.96 118.625 109.143 119.199 109.51C119.779 109.87 120.199 110.383 120.459 111.05H119.089C118.909 110.683 118.659 110.41 118.339 110.23C118.019 110.05 117.649 109.96 117.229 109.96C116.769 109.96 116.359 110.063 115.999 110.27C115.639 110.477 115.355 110.773 115.149 111.16C114.949 111.547 114.849 111.997 114.849 112.51C114.849 113.023 114.949 113.473 115.149 113.86C115.355 114.247 115.639 114.547 115.999 114.76C116.359 114.967 116.769 115.07 117.229 115.07C117.649 115.07 118.019 114.98 118.339 114.8C118.659 114.62 118.909 114.347 119.089 113.98H120.459C120.199 114.647 119.779 115.16 119.199 115.52C118.625 115.88 117.969 116.06 117.229 116.06C116.575 116.06 115.979 115.91 115.439 115.61C114.899 115.303 114.469 114.88 114.149 114.34C113.835 113.8 113.679 113.19 113.679 112.51ZM124.183 116.09C123.663 116.09 123.193 115.973 122.773 115.74C122.353 115.5 122.023 115.167 121.783 114.74C121.543 114.307 121.423 113.807 121.423 113.24C121.423 112.68 121.546 112.183 121.793 111.75C122.04 111.317 122.376 110.983 122.803 110.75C123.23 110.517 123.706 110.4 124.233 110.4C124.76 110.4 125.236 110.517 125.663 110.75C126.09 110.983 126.426 111.317 126.673 111.75C126.92 112.183 127.043 112.68 127.043 113.24C127.043 113.8 126.916 114.297 126.663 114.73C126.41 115.163 126.063 115.5 125.623 115.74C125.19 115.973 124.71 116.09 124.183 116.09ZM124.183 115.1C124.476 115.1 124.75 115.03 125.003 114.89C125.263 114.75 125.473 114.54 125.633 114.26C125.793 113.98 125.873 113.64 125.873 113.24C125.873 112.84 125.796 112.503 125.643 112.23C125.49 111.95 125.286 111.74 125.033 111.6C124.78 111.46 124.506 111.39 124.213 111.39C123.92 111.39 123.646 111.46 123.393 111.6C123.146 111.74 122.95 111.95 122.803 112.23C122.656 112.503 122.583 112.84 122.583 113.24C122.583 113.833 122.733 114.293 123.033 114.62C123.34 114.94 123.723 115.1 124.183 115.1ZM133.16 110.49V116H132.02V115.35C131.84 115.577 131.603 115.757 131.31 115.89C131.023 116.017 130.717 116.08 130.39 116.08C129.957 116.08 129.567 115.99 129.22 115.81C128.88 115.63 128.61 115.363 128.41 115.01C128.217 114.657 128.12 114.23 128.12 113.73V110.49H129.25V113.56C129.25 114.053 129.373 114.433 129.62 114.7C129.867 114.96 130.203 115.09 130.63 115.09C131.057 115.09 131.393 114.96 131.64 114.7C131.893 114.433 132.02 114.053 132.02 113.56V110.49H133.16ZM135.804 111.29C135.971 111.01 136.191 110.793 136.464 110.64C136.744 110.48 137.074 110.4 137.454 110.4V111.58H137.164C136.717 111.58 136.377 111.693 136.144 111.92C135.917 112.147 135.804 112.54 135.804 113.1V116H134.664V110.49H135.804V111.29ZM140.502 116.09C140.069 116.09 139.679 116.013 139.332 115.86C138.992 115.7 138.722 115.487 138.522 115.22C138.322 114.947 138.215 114.643 138.202 114.31H139.382C139.402 114.543 139.512 114.74 139.712 114.9C139.919 115.053 140.175 115.13 140.482 115.13C140.802 115.13 141.049 115.07 141.222 114.95C141.402 114.823 141.492 114.663 141.492 114.47C141.492 114.263 141.392 114.11 141.192 114.01C140.999 113.91 140.689 113.8 140.262 113.68C139.849 113.567 139.512 113.457 139.252 113.35C138.992 113.243 138.765 113.08 138.572 112.86C138.385 112.64 138.292 112.35 138.292 111.99C138.292 111.697 138.379 111.43 138.552 111.19C138.725 110.943 138.972 110.75 139.292 110.61C139.619 110.47 139.992 110.4 140.412 110.4C141.039 110.4 141.542 110.56 141.922 110.88C142.309 111.193 142.515 111.623 142.542 112.17H141.402C141.382 111.923 141.282 111.727 141.102 111.58C140.922 111.433 140.679 111.36 140.372 111.36C140.072 111.36 139.842 111.417 139.682 111.53C139.522 111.643 139.442 111.793 139.442 111.98C139.442 112.127 139.495 112.25 139.602 112.35C139.709 112.45 139.839 112.53 139.992 112.59C140.145 112.643 140.372 112.713 140.672 112.8C141.072 112.907 141.399 113.017 141.652 113.13C141.912 113.237 142.135 113.397 142.322 113.61C142.509 113.823 142.605 114.107 142.612 114.46C142.612 114.773 142.525 115.053 142.352 115.3C142.179 115.547 141.932 115.74 141.612 115.88C141.299 116.02 140.929 116.09 140.502 116.09ZM148.894 113.11C148.894 113.317 148.88 113.503 148.854 113.67H144.644C144.677 114.11 144.84 114.463 145.134 114.73C145.427 114.997 145.787 115.13 146.214 115.13C146.827 115.13 147.26 114.873 147.514 114.36H148.744C148.577 114.867 148.274 115.283 147.834 115.61C147.4 115.93 146.86 116.09 146.214 116.09C145.687 116.09 145.214 115.973 144.794 115.74C144.38 115.5 144.054 115.167 143.814 114.74C143.58 114.307 143.464 113.807 143.464 113.24C143.464 112.673 143.577 112.177 143.804 111.75C144.037 111.317 144.36 110.983 144.774 110.75C145.194 110.517 145.674 110.4 146.214 110.4C146.734 110.4 147.197 110.513 147.604 110.74C148.01 110.967 148.327 111.287 148.554 111.7C148.78 112.107 148.894 112.577 148.894 113.11ZM147.704 112.75C147.697 112.33 147.547 111.993 147.254 111.74C146.96 111.487 146.597 111.36 146.164 111.36C145.77 111.36 145.434 111.487 145.154 111.74C144.874 111.987 144.707 112.323 144.654 112.75H147.704ZM149.636 113.24C149.636 112.673 149.749 112.177 149.976 111.75C150.209 111.317 150.529 110.983 150.936 110.75C151.342 110.517 151.809 110.4 152.336 110.4C153.002 110.4 153.552 110.56 153.986 110.88C154.426 111.193 154.722 111.643 154.876 112.23H153.646C153.546 111.957 153.386 111.743 153.166 111.59C152.946 111.437 152.669 111.36 152.336 111.36C151.869 111.36 151.496 111.527 151.216 111.86C150.942 112.187 150.806 112.647 150.806 113.24C150.806 113.833 150.942 114.297 151.216 114.63C151.496 114.963 151.869 115.13 152.336 115.13C152.996 115.13 153.432 114.84 153.646 114.26H154.876C154.716 114.82 154.416 115.267 153.976 115.6C153.536 115.927 152.989 116.09 152.336 116.09C151.809 116.09 151.342 115.973 150.936 115.74C150.529 115.5 150.209 115.167 149.976 114.74C149.749 114.307 149.636 113.807 149.636 113.24ZM161.062 113.11C161.062 113.317 161.048 113.503 161.022 113.67H156.812C156.845 114.11 157.008 114.463 157.302 114.73C157.595 114.997 157.955 115.13 158.382 115.13C158.995 115.13 159.428 114.873 159.682 114.36H160.912C160.745 114.867 160.442 115.283 160.002 115.61C159.568 115.93 159.028 116.09 158.382 116.09C157.855 116.09 157.382 115.973 156.962 115.74C156.548 115.5 156.222 115.167 155.982 114.74C155.748 114.307 155.632 113.807 155.632 113.24C155.632 112.673 155.745 112.177 155.972 111.75C156.205 111.317 156.528 110.983 156.942 110.75C157.362 110.517 157.842 110.4 158.382 110.4C158.902 110.4 159.365 110.513 159.772 110.74C160.178 110.967 160.495 111.287 160.722 111.7C160.948 112.107 161.062 112.577 161.062 113.11ZM159.872 112.75C159.865 112.33 159.715 111.993 159.422 111.74C159.128 111.487 158.765 111.36 158.332 111.36C157.938 111.36 157.602 111.487 157.322 111.74C157.042 111.987 156.875 112.323 156.822 112.75H159.872ZM28.89 122.97V125.01H31.29V125.94H28.89V128.07H31.59V129H27.75V122.04H31.59V122.97H28.89ZM35.1241 127.98L36.6841 123.49H37.8941L35.7941 129H34.4341L32.3441 123.49H33.5641L35.1241 127.98ZM43.8059 126.11C43.8059 126.317 43.7925 126.503 43.7659 126.67H39.5559C39.5892 127.11 39.7525 127.463 40.0459 127.73C40.3392 127.997 40.6992 128.13 41.1259 128.13C41.7392 128.13 42.1725 127.873 42.4259 127.36H43.6559C43.4892 127.867 43.1859 128.283 42.7459 128.61C42.3125 128.93 41.7725 129.09 41.1259 129.09C40.5992 129.09 40.1259 128.973 39.7059 128.74C39.2925 128.5 38.9659 128.167 38.7259 127.74C38.4925 127.307 38.3759 126.807 38.3759 126.24C38.3759 125.673 38.4892 125.177 38.7159 124.75C38.9492 124.317 39.2725 123.983 39.6859 123.75C40.1059 123.517 40.5859 123.4 41.1259 123.4C41.6459 123.4 42.1092 123.513 42.5159 123.74C42.9225 123.967 43.2392 124.287 43.4659 124.7C43.6925 125.107 43.8059 125.577 43.8059 126.11ZM42.6159 125.75C42.6092 125.33 42.4592 124.993 42.1659 124.74C41.8725 124.487 41.5092 124.36 41.0759 124.36C40.6825 124.36 40.3459 124.487 40.0659 124.74C39.7859 124.987 39.6192 125.323 39.5659 125.75H42.6159ZM46.0677 124.29C46.2344 124.01 46.4544 123.793 46.7277 123.64C47.0077 123.48 47.3377 123.4 47.7177 123.4V124.58H47.4277C46.9811 124.58 46.6411 124.693 46.4077 124.92C46.1811 125.147 46.0677 125.54 46.0677 126.1V129H44.9277V123.49H46.0677V124.29ZM53.7256 123.49L50.3456 131.59H49.1656L50.2856 128.91L48.1156 123.49H49.3856L50.9356 127.69L52.5456 123.49H53.7256ZM62.3336 122.05L60.0336 126.48V129H58.8936V126.48L56.5836 122.05H57.8536L59.4636 125.46L61.0736 122.05H62.3336ZM68.2883 126.11C68.2883 126.317 68.2749 126.503 68.2483 126.67H64.0383C64.0716 127.11 64.2349 127.463 64.5283 127.73C64.8216 127.997 65.1816 128.13 65.6083 128.13C66.2216 128.13 66.6549 127.873 66.9083 127.36H68.1383C67.9716 127.867 67.6683 128.283 67.2283 128.61C66.7949 128.93 66.2549 129.09 65.6083 129.09C65.0816 129.09 64.6083 128.973 64.1883 128.74C63.7749 128.5 63.4483 128.167 63.2083 127.74C62.9749 127.307 62.8583 126.807 62.8583 126.24C62.8583 125.673 62.9716 125.177 63.1983 124.75C63.4316 124.317 63.7549 123.983 64.1683 123.75C64.5883 123.517 65.0683 123.4 65.6083 123.4C66.1283 123.4 66.5916 123.513 66.9983 123.74C67.4049 123.967 67.7216 124.287 67.9483 124.7C68.1749 125.107 68.2883 125.577 68.2883 126.11ZM67.0983 125.75C67.0916 125.33 66.9416 124.993 66.6483 124.74C66.3549 124.487 65.9916 124.36 65.5583 124.36C65.1649 124.36 64.8283 124.487 64.5483 124.74C64.2683 124.987 64.1016 125.323 64.0483 125.75H67.0983ZM69.0302 126.22C69.0302 125.667 69.1435 125.177 69.3702 124.75C69.6035 124.323 69.9168 123.993 70.3102 123.76C70.7102 123.52 71.1502 123.4 71.6302 123.4C72.0635 123.4 72.4402 123.487 72.7602 123.66C73.0868 123.827 73.3468 124.037 73.5402 124.29V123.49H74.6902V129H73.5402V128.18C73.3468 128.44 73.0835 128.657 72.7502 128.83C72.4168 129.003 72.0368 129.09 71.6102 129.09C71.1368 129.09 70.7035 128.97 70.3102 128.73C69.9168 128.483 69.6035 128.143 69.3702 127.71C69.1435 127.27 69.0302 126.773 69.0302 126.22ZM73.5402 126.24C73.5402 125.86 73.4602 125.53 73.3002 125.25C73.1468 124.97 72.9435 124.757 72.6902 124.61C72.4368 124.463 72.1635 124.39 71.8702 124.39C71.5768 124.39 71.3035 124.463 71.0502 124.61C70.7968 124.75 70.5902 124.96 70.4302 125.24C70.2768 125.513 70.2002 125.84 70.2002 126.22C70.2002 126.6 70.2768 126.933 70.4302 127.22C70.5902 127.507 70.7968 127.727 71.0502 127.88C71.3102 128.027 71.5835 128.1 71.8702 128.1C72.1635 128.1 72.4368 128.027 72.6902 127.88C72.9435 127.733 73.1468 127.52 73.3002 127.24C73.4602 126.953 73.5402 126.62 73.5402 126.24ZM77.3275 124.29C77.4942 124.01 77.7142 123.793 77.9875 123.64C78.2675 123.48 78.5975 123.4 78.9775 123.4V124.58H78.6875C78.2408 124.58 77.9008 124.693 77.6675 124.92C77.4408 125.147 77.3275 125.54 77.3275 126.1V129H76.1875V123.49H77.3275V124.29Z" fill="white"/>
<g clip-path="url(#clip0_19_1897)">
<path d="M33.5304 182C32.3178 182 31.093 181.957 29.862 181.871C28.1693 181.754 26.8891 180.286 26.9998 178.597C27.1106 176.908 28.5755 175.631 30.2805 175.741C36.2509 176.153 41.969 175.434 47.2685 173.616C55.5533 170.779 60.3973 166.099 65.5245 161.148C70.4301 156.407 75.508 151.505 83.565 148.551C91.8313 145.517 101.341 145.333 111.817 148.017L111.983 148.066C119.714 150.51 126.915 150.768 133.384 148.84C139.878 146.899 143.799 143.3 148.335 139.123C152.391 135.395 156.989 131.164 164.037 127.706C172.469 123.578 182.225 121.674 193.033 122.043C194.732 122.104 196.061 123.523 196 125.218C195.938 126.913 194.541 128.24 192.818 128.179C183.031 127.835 174.266 129.53 166.763 133.215C160.516 136.286 156.447 140.02 152.52 143.638C147.633 148.134 143.017 152.378 135.163 154.718C127.512 156.996 119.123 156.738 110.223 153.938C101.009 151.591 92.7607 151.72 85.707 154.312C78.8687 156.824 74.474 161.068 69.8207 165.564C64.435 170.766 58.8708 176.141 49.2874 179.426C44.3018 181.134 39.0207 181.994 33.5427 181.994L33.5304 182Z" fill="#808285"/>
<path d="M157.438 139.296C155.684 140.733 154.09 142.201 152.514 143.651C151.216 144.842 149.942 146.015 148.618 147.133C144.95 150.259 140.924 153.005 135.151 154.73C127.5 157.009 119.111 156.751 110.211 153.95C101.003 151.61 92.7547 151.733 85.6949 154.325C78.8566 156.837 74.4618 161.081 69.8086 165.577C64.4291 170.773 58.8587 176.153 49.2753 179.433C44.2958 181.141 39.0086 182 33.5306 182C32.318 182 31.0932 181.964 29.8622 181.878C28.1695 181.761 26.8892 180.293 27.0062 178.604C27.1231 176.909 28.5819 175.631 30.2869 175.748C36.2573 176.159 41.9753 175.447 47.2749 173.629C55.5658 170.785 60.4036 166.111 65.5308 161.161C70.4364 156.42 75.5144 151.518 83.5714 148.564C91.8376 145.524 101.347 145.346 111.823 148.024L111.989 148.073C119.72 150.517 126.922 150.775 133.391 148.847C138.21 147.409 141.608 145.057 144.894 142.232C146.039 141.249 147.166 140.211 148.341 139.13C149.782 137.81 151.296 136.415 152.958 135.027C155.081 135.599 156.774 137.214 157.438 139.296Z" fill="#9FFA00"/>
<path d="M157.746 141.26C157.746 144.823 154.853 147.709 151.283 147.709C150.335 147.709 149.431 147.501 148.618 147.132C146.661 146.248 145.227 144.424 144.894 142.231C144.845 141.912 144.82 141.592 144.82 141.26C144.82 137.698 147.72 134.812 151.283 134.812C151.862 134.812 152.422 134.885 152.958 135.026C155.081 135.598 156.774 137.213 157.438 139.295C157.642 139.915 157.746 140.573 157.746 141.26Z" fill="#9FFA00"/>
</g>
<path d="M24.47 194.58V193.48L27.74 188.8H29.37V193.36H30.25V194.58H29.37V196H27.97V194.58H24.47ZM28.06 190.3L26.01 193.36H28.06V190.3ZM31.1413 192.26C31.1413 191.107 31.348 190.203 31.7613 189.55C32.1813 188.897 32.8747 188.57 33.8413 188.57C34.808 188.57 35.498 188.897 35.9113 189.55C36.3313 190.203 36.5413 191.107 36.5413 192.26C36.5413 193.42 36.3313 194.33 35.9113 194.99C35.498 195.65 34.808 195.98 33.8413 195.98C32.8747 195.98 32.1813 195.65 31.7613 194.99C31.348 194.33 31.1413 193.42 31.1413 192.26ZM35.1613 192.26C35.1613 191.767 35.128 191.353 35.0613 191.02C35.0013 190.68 34.8747 190.403 34.6813 190.19C34.4947 189.977 34.2147 189.87 33.8413 189.87C33.468 189.87 33.1847 189.977 32.9913 190.19C32.8047 190.403 32.678 190.68 32.6113 191.02C32.5513 191.353 32.5213 191.767 32.5213 192.26C32.5213 192.767 32.5513 193.193 32.6113 193.54C32.6713 193.88 32.798 194.157 32.9913 194.37C33.1847 194.577 33.468 194.68 33.8413 194.68C34.2147 194.68 34.498 194.577 34.6913 194.37C34.8847 194.157 35.0113 193.88 35.0713 193.54C35.1313 193.193 35.1613 192.767 35.1613 192.26ZM39.2962 194.53L38.1262 197.34H37.2262L37.8762 194.53H39.2962ZM40.1452 192.26C40.1452 191.107 40.3519 190.203 40.7652 189.55C41.1852 188.897 41.8786 188.57 42.8452 188.57C43.8119 188.57 44.5019 188.897 44.9152 189.55C45.3352 190.203 45.5452 191.107 45.5452 192.26C45.5452 193.42 45.3352 194.33 44.9152 194.99C44.5019 195.65 43.8119 195.98 42.8452 195.98C41.8786 195.98 41.1852 195.65 40.7652 194.99C40.3519 194.33 40.1452 193.42 40.1452 192.26ZM44.1652 192.26C44.1652 191.767 44.1319 191.353 44.0652 191.02C44.0052 190.68 43.8786 190.403 43.6852 190.19C43.4986 189.977 43.2186 189.87 42.8452 189.87C42.4719 189.87 42.1886 189.977 41.9952 190.19C41.8086 190.403 41.6819 190.68 41.6152 191.02C41.5552 191.353 41.5252 191.767 41.5252 192.26C41.5252 192.767 41.5552 193.193 41.6152 193.54C41.6752 193.88 41.8019 194.157 41.9952 194.37C42.1886 194.577 42.4719 194.68 42.8452 194.68C43.2186 194.68 43.5019 194.577 43.6952 194.37C43.8886 194.157 44.0152 193.88 44.0752 193.54C44.1352 193.193 44.1652 192.767 44.1652 192.26ZM46.6101 192.26C46.6101 191.107 46.8167 190.203 47.2301 189.55C47.6501 188.897 48.3434 188.57 49.3101 188.57C50.2767 188.57 50.9667 188.897 51.3801 189.55C51.8001 190.203 52.0101 191.107 52.0101 192.26C52.0101 193.42 51.8001 194.33 51.3801 194.99C50.9667 195.65 50.2767 195.98 49.3101 195.98C48.3434 195.98 47.6501 195.65 47.2301 194.99C46.8167 194.33 46.6101 193.42 46.6101 192.26ZM50.6301 192.26C50.6301 191.767 50.5967 191.353 50.5301 191.02C50.4701 190.68 50.3434 190.403 50.1501 190.19C49.9634 189.977 49.6834 189.87 49.3101 189.87C48.9367 189.87 48.6534 189.977 48.4601 190.19C48.2734 190.403 48.1467 190.68 48.0801 191.02C48.0201 191.353 47.9901 191.767 47.9901 192.26C47.9901 192.767 48.0201 193.193 48.0801 193.54C48.1401 193.88 48.2667 194.157 48.4601 194.37C48.6534 194.577 48.9367 194.68 49.3101 194.68C49.6834 194.68 49.9667 194.577 50.1601 194.37C50.3534 194.157 50.4801 193.88 50.5401 193.54C50.6001 193.193 50.6301 192.767 50.6301 192.26ZM53.0749 192.26C53.0749 191.107 53.2816 190.203 53.6949 189.55C54.1149 188.897 54.8083 188.57 55.7749 188.57C56.7416 188.57 57.4316 188.897 57.8449 189.55C58.2649 190.203 58.4749 191.107 58.4749 192.26C58.4749 193.42 58.2649 194.33 57.8449 194.99C57.4316 195.65 56.7416 195.98 55.7749 195.98C54.8083 195.98 54.1149 195.65 53.6949 194.99C53.2816 194.33 53.0749 193.42 53.0749 192.26ZM57.0949 192.26C57.0949 191.767 57.0616 191.353 56.9949 191.02C56.9349 190.68 56.8083 190.403 56.6149 190.19C56.4283 189.977 56.1483 189.87 55.7749 189.87C55.4016 189.87 55.1183 189.977 54.9249 190.19C54.7383 190.403 54.6116 190.68 54.5449 191.02C54.4849 191.353 54.4549 191.767 54.4549 192.26C54.4549 192.767 54.4849 193.193 54.5449 193.54C54.6049 193.88 54.7316 194.157 54.9249 194.37C55.1183 194.577 55.4016 194.68 55.7749 194.68C56.1483 194.68 56.4316 194.577 56.6249 194.37C56.8183 194.157 56.9449 193.88 57.0049 193.54C57.0649 193.193 57.0949 192.767 57.0949 192.26Z" fill="white"/>
<path d="M99.31 190.53C99.2433 190.25 99.1267 190.04 98.96 189.9C98.8 189.76 98.5667 189.69 98.26 189.69C97.8 189.69 97.46 189.877 97.24 190.25C97.0267 190.617 96.9167 191.217 96.91 192.05C97.07 191.783 97.3033 191.577 97.61 191.43C97.9167 191.277 98.25 191.2 98.61 191.2C99.0433 191.2 99.4267 191.293 99.76 191.48C100.093 191.667 100.353 191.94 100.54 192.3C100.727 192.653 100.82 193.08 100.82 193.58C100.82 194.053 100.723 194.477 100.53 194.85C100.343 195.217 100.067 195.503 99.7 195.71C99.3333 195.917 98.8967 196.02 98.39 196.02C97.6967 196.02 97.15 195.867 96.75 195.56C96.3567 195.253 96.08 194.827 95.92 194.28C95.7667 193.727 95.69 193.047 95.69 192.24C95.69 191.02 95.9 190.1 96.32 189.48C96.74 188.853 97.4033 188.54 98.31 188.54C99.01 188.54 99.5533 188.73 99.94 189.11C100.327 189.49 100.55 189.963 100.61 190.53H99.31ZM98.29 192.35C97.9367 192.35 97.64 192.453 97.4 192.66C97.16 192.867 97.04 193.167 97.04 193.56C97.04 193.953 97.15 194.263 97.37 194.49C97.5967 194.717 97.9133 194.83 98.32 194.83C98.68 194.83 98.9633 194.72 99.17 194.5C99.3833 194.28 99.49 193.983 99.49 193.61C99.49 193.223 99.3867 192.917 99.18 192.69C98.98 192.463 98.6833 192.35 98.29 192.35ZM101.926 192.26C101.926 191.107 102.133 190.203 102.546 189.55C102.966 188.897 103.66 188.57 104.626 188.57C105.593 188.57 106.283 188.897 106.696 189.55C107.116 190.203 107.326 191.107 107.326 192.26C107.326 193.42 107.116 194.33 106.696 194.99C106.283 195.65 105.593 195.98 104.626 195.98C103.66 195.98 102.966 195.65 102.546 194.99C102.133 194.33 101.926 193.42 101.926 192.26ZM105.946 192.26C105.946 191.767 105.913 191.353 105.846 191.02C105.786 190.68 105.66 190.403 105.466 190.19C105.28 189.977 105 189.87 104.626 189.87C104.253 189.87 103.97 189.977 103.776 190.19C103.59 190.403 103.463 190.68 103.396 191.02C103.336 191.353 103.306 191.767 103.306 192.26C103.306 192.767 103.336 193.193 103.396 193.54C103.456 193.88 103.583 194.157 103.776 194.37C103.97 194.577 104.253 194.68 104.626 194.68C105 194.68 105.283 194.577 105.476 194.37C105.67 194.157 105.796 193.88 105.856 193.54C105.916 193.193 105.946 192.767 105.946 192.26ZM110.081 194.53L108.911 197.34H108.011L108.661 194.53H110.081ZM110.93 192.26C110.93 191.107 111.137 190.203 111.55 189.55C111.97 188.897 112.664 188.57 113.63 188.57C114.597 188.57 115.287 188.897 115.7 189.55C116.12 190.203 116.33 191.107 116.33 192.26C116.33 193.42 116.12 194.33 115.7 194.99C115.287 195.65 114.597 195.98 113.63 195.98C112.664 195.98 111.97 195.65 111.55 194.99C111.137 194.33 110.93 193.42 110.93 192.26ZM114.95 192.26C114.95 191.767 114.917 191.353 114.85 191.02C114.79 190.68 114.664 190.403 114.47 190.19C114.284 189.977 114.004 189.87 113.63 189.87C113.257 189.87 112.974 189.977 112.78 190.19C112.594 190.403 112.467 190.68 112.4 191.02C112.34 191.353 112.31 191.767 112.31 192.26C112.31 192.767 112.34 193.193 112.4 193.54C112.46 193.88 112.587 194.157 112.78 194.37C112.974 194.577 113.257 194.68 113.63 194.68C114.004 194.68 114.287 194.577 114.48 194.37C114.674 194.157 114.8 193.88 114.86 193.54C114.92 193.193 114.95 192.767 114.95 192.26ZM117.395 192.26C117.395 191.107 117.602 190.203 118.015 189.55C118.435 188.897 119.129 188.57 120.095 188.57C121.062 188.57 121.752 188.897 122.165 189.55C122.585 190.203 122.795 191.107 122.795 192.26C122.795 193.42 122.585 194.33 122.165 194.99C121.752 195.65 121.062 195.98 120.095 195.98C119.129 195.98 118.435 195.65 118.015 194.99C117.602 194.33 117.395 193.42 117.395 192.26ZM121.415 192.26C121.415 191.767 121.382 191.353 121.315 191.02C121.255 190.68 121.129 190.403 120.935 190.19C120.749 189.977 120.469 189.87 120.095 189.87C119.722 189.87 119.439 189.977 119.245 190.19C119.059 190.403 118.932 190.68 118.865 191.02C118.805 191.353 118.775 191.767 118.775 192.26C118.775 192.767 118.805 193.193 118.865 193.54C118.925 193.88 119.052 194.157 119.245 194.37C119.439 194.577 119.722 194.68 120.095 194.68C120.469 194.68 120.752 194.577 120.945 194.37C121.139 194.157 121.265 193.88 121.325 193.54C121.385 193.193 121.415 192.767 121.415 192.26ZM123.86 192.26C123.86 191.107 124.067 190.203 124.48 189.55C124.9 188.897 125.593 188.57 126.56 188.57C127.527 188.57 128.217 188.897 128.63 189.55C129.05 190.203 129.26 191.107 129.26 192.26C129.26 193.42 129.05 194.33 128.63 194.99C128.217 195.65 127.527 195.98 126.56 195.98C125.593 195.98 124.9 195.65 124.48 194.99C124.067 194.33 123.86 193.42 123.86 192.26ZM127.88 192.26C127.88 191.767 127.847 191.353 127.78 191.02C127.72 190.68 127.593 190.403 127.4 190.19C127.213 189.977 126.933 189.87 126.56 189.87C126.187 189.87 125.903 189.977 125.71 190.19C125.523 190.403 125.397 190.68 125.33 191.02C125.27 191.353 125.24 191.767 125.24 192.26C125.24 192.767 125.27 193.193 125.33 193.54C125.39 193.88 125.517 194.157 125.71 194.37C125.903 194.577 126.187 194.68 126.56 194.68C126.933 194.68 127.217 194.577 127.41 194.37C127.603 194.157 127.73 193.88 127.79 193.54C127.85 193.193 127.88 192.767 127.88 192.26Z" fill="white"/>
<path d="M165.36 190V188.71H167.77V196H166.33V190H165.36ZM170.843 194.53L169.673 197.34H168.773L169.423 194.53H170.843ZM171.692 192.26C171.692 191.107 171.899 190.203 172.312 189.55C172.732 188.897 173.425 188.57 174.392 188.57C175.359 188.57 176.049 188.897 176.462 189.55C176.882 190.203 177.092 191.107 177.092 192.26C177.092 193.42 176.882 194.33 176.462 194.99C176.049 195.65 175.359 195.98 174.392 195.98C173.425 195.98 172.732 195.65 172.312 194.99C171.899 194.33 171.692 193.42 171.692 192.26ZM175.712 192.26C175.712 191.767 175.679 191.353 175.612 191.02C175.552 190.68 175.425 190.403 175.232 190.19C175.045 189.977 174.765 189.87 174.392 189.87C174.019 189.87 173.735 189.977 173.542 190.19C173.355 190.403 173.229 190.68 173.162 191.02C173.102 191.353 173.072 191.767 173.072 192.26C173.072 192.767 173.102 193.193 173.162 193.54C173.222 193.88 173.349 194.157 173.542 194.37C173.735 194.577 174.019 194.68 174.392 194.68C174.765 194.68 175.049 194.577 175.242 194.37C175.435 194.157 175.562 193.88 175.622 193.54C175.682 193.193 175.712 192.767 175.712 192.26ZM178.157 192.26C178.157 191.107 178.364 190.203 178.777 189.55C179.197 188.897 179.89 188.57 180.857 188.57C181.824 188.57 182.514 188.897 182.927 189.55C183.347 190.203 183.557 191.107 183.557 192.26C183.557 193.42 183.347 194.33 182.927 194.99C182.514 195.65 181.824 195.98 180.857 195.98C179.89 195.98 179.197 195.65 178.777 194.99C178.364 194.33 178.157 193.42 178.157 192.26ZM182.177 192.26C182.177 191.767 182.144 191.353 182.077 191.02C182.017 190.68 181.89 190.403 181.697 190.19C181.51 189.977 181.23 189.87 180.857 189.87C180.484 189.87 180.2 189.977 180.007 190.19C179.82 190.403 179.694 190.68 179.627 191.02C179.567 191.353 179.537 191.767 179.537 192.26C179.537 192.767 179.567 193.193 179.627 193.54C179.687 193.88 179.814 194.157 180.007 194.37C180.2 194.577 180.484 194.68 180.857 194.68C181.23 194.68 181.514 194.577 181.707 194.37C181.9 194.157 182.027 193.88 182.087 193.54C182.147 193.193 182.177 192.767 182.177 192.26ZM186.312 194.53L185.142 197.34H184.242L184.892 194.53H186.312ZM187.161 192.26C187.161 191.107 187.368 190.203 187.781 189.55C188.201 188.897 188.894 188.57 189.861 188.57C190.828 188.57 191.518 188.897 191.931 189.55C192.351 190.203 192.561 191.107 192.561 192.26C192.561 193.42 192.351 194.33 191.931 194.99C191.518 195.65 190.828 195.98 189.861 195.98C188.894 195.98 188.201 195.65 187.781 194.99C187.368 194.33 187.161 193.42 187.161 192.26ZM191.181 192.26C191.181 191.767 191.148 191.353 191.081 191.02C191.021 190.68 190.894 190.403 190.701 190.19C190.514 189.977 190.234 189.87 189.861 189.87C189.488 189.87 189.204 189.977 189.011 190.19C188.824 190.403 188.698 190.68 188.631 191.02C188.571 191.353 188.541 191.767 188.541 192.26C188.541 192.767 188.571 193.193 188.631 193.54C188.691 193.88 188.818 194.157 189.011 194.37C189.204 194.577 189.488 194.68 189.861 194.68C190.234 194.68 190.518 194.577 190.711 194.37C190.904 194.157 191.031 193.88 191.091 193.54C191.151 193.193 191.181 192.767 191.181 192.26ZM193.626 192.26C193.626 191.107 193.832 190.203 194.246 189.55C194.666 188.897 195.359 188.57 196.326 188.57C197.292 188.57 197.982 188.897 198.396 189.55C198.816 190.203 199.026 191.107 199.026 192.26C199.026 193.42 198.816 194.33 198.396 194.99C197.982 195.65 197.292 195.98 196.326 195.98C195.359 195.98 194.666 195.65 194.246 194.99C193.832 194.33 193.626 193.42 193.626 192.26ZM197.646 192.26C197.646 191.767 197.612 191.353 197.546 191.02C197.486 190.68 197.359 190.403 197.166 190.19C196.979 189.977 196.699 189.87 196.326 189.87C195.952 189.87 195.669 189.977 195.476 190.19C195.289 190.403 195.162 190.68 195.096 191.02C195.036 191.353 195.006 191.767 195.006 192.26C195.006 192.767 195.036 193.193 195.096 193.54C195.156 193.88 195.282 194.157 195.476 194.37C195.669 194.577 195.952 194.68 196.326 194.68C196.699 194.68 196.982 194.577 197.176 194.37C197.369 194.157 197.496 193.88 197.556 193.54C197.616 193.193 197.646 192.767 197.646 192.26ZM200.091 192.26C200.091 191.107 200.297 190.203 200.711 189.55C201.131 188.897 201.824 188.57 202.791 188.57C203.757 188.57 204.447 188.897 204.861 189.55C205.281 190.203 205.491 191.107 205.491 192.26C205.491 193.42 205.281 194.33 204.861 194.99C204.447 195.65 203.757 195.98 202.791 195.98C201.824 195.98 201.131 195.65 200.711 194.99C200.297 194.33 200.091 193.42 200.091 192.26ZM204.111 192.26C204.111 191.767 204.077 191.353 204.011 191.02C203.951 190.68 203.824 190.403 203.631 190.19C203.444 189.977 203.164 189.87 202.791 189.87C202.417 189.87 202.134 189.977 201.941 190.19C201.754 190.403 201.627 190.68 201.561 191.02C201.501 191.353 201.471 191.767 201.471 192.26C201.471 192.767 201.501 193.193 201.561 193.54C201.621 193.88 201.747 194.157 201.941 194.37C202.134 194.577 202.417 194.68 202.791 194.68C203.164 194.68 203.447 194.577 203.641 194.37C203.834 194.157 203.961 193.88 204.021 193.54C204.081 193.193 204.111 192.767 204.111 192.26Z" fill="white"/>
<defs>
<filter id="filter0_d_19_1897" x="0" y="0" width="227" height="227" filterUnits="userSpaceOnUse" color-interpolation-filters="sRGB">
<feFlood flood-opacity="0" result="BackgroundImageFix"/>
<feColorMatrix in="SourceAlpha" type="matrix" values="0 0 0 0 0 0 0 0 0 0 0 0 0 0 0 0 0 0 127 0" result="hardAlpha"/>
<feMorphology radius="2" operator="dilate" in="SourceAlpha" result="effect1_dropShadow_19_1897"/>
<feOffset dx="-2" dy="4"/>
<feGaussianBlur stdDeviation="2.5"/>
<feComposite in2="hardAlpha" operator="out"/>
<feColorMatrix type="matrix" values="0 0 0 0 0 0 0 0 0 0 0 0 0 0 0 0 0 0 0.25 0"/>
<feBlend mode="normal" in2="BackgroundImageFix" result="effect1_dropShadow_19_1897"/>
<feBlend mode="normal" in="SourceGraphic" in2="effect1_dropShadow_19_1897" result="shape"/>
</filter>
<clipPath id="clip0_19_1897">
<rect width="169" height="60" fill="white" transform="translate(27 122)"/>
</clipPath>
</defs>
</svg>
